<svg width="300" height="300" viewBox="0 0 300 300" fill="none" xmlns="http://www.w3.org/2000/svg">
<g clip-path="url(#clip0_326_86)">
<circle cx="150" cy="150" r="150" fill="#FEFEFE"/>
<g clip-path="url(#clip1_326_86)">
<path d="M109.828 134.951C109.828 137.215 110.073 139.05 110.502 140.396C110.991 141.742 111.603 143.21 112.46 144.8C112.766 145.29 112.888 145.779 112.888 146.207C112.888 146.819 112.521 147.431 111.725 148.042L107.87 150.612C107.32 150.979 106.769 151.162 106.279 151.162C105.667 151.162 105.056 150.856 104.444 150.306C103.587 149.388 102.853 148.409 102.241 147.431C101.629 146.391 101.017 145.228 100.344 143.822C95.571 149.449 89.5743 152.263 82.3539 152.263C77.2139 152.263 73.1141 150.795 70.1157 147.859C67.1174 144.923 65.5876 141.008 65.5876 136.114C65.5876 130.914 67.4234 126.693 71.156 123.512C74.8886 120.331 79.845 118.741 86.1477 118.741C88.2281 118.741 90.3698 118.924 92.6339 119.23C94.8979 119.536 97.2232 120.025 99.6708 120.576V116.11C99.6708 111.461 98.6917 108.219 96.7948 106.323C94.8367 104.426 91.5324 103.509 86.8208 103.509C84.6791 103.509 82.4762 103.753 80.2122 104.304C77.9481 104.854 75.7453 105.527 73.6036 106.384C72.6246 106.812 71.8903 107.057 71.4619 107.179C71.0336 107.301 70.7277 107.363 70.4829 107.363C69.6262 107.363 69.1979 106.751 69.1979 105.466V102.469C69.1979 101.49 69.3203 100.756 69.6262 100.328C69.9322 99.8995 70.4829 99.4713 71.3396 99.043C73.4812 97.9419 76.0512 97.0243 79.0496 96.2903C82.0479 95.495 85.2298 95.128 88.5953 95.128C95.877 95.128 101.201 96.7797 104.627 100.083C107.993 103.386 109.706 108.402 109.706 115.131V134.951H109.828ZM84.985 144.25C87.0043 144.25 89.0848 143.883 91.2877 143.149C93.4905 142.415 95.4486 141.069 97.1008 139.234C98.0798 138.071 98.8141 136.787 99.1813 135.318C99.5484 133.85 99.7932 132.076 99.7932 129.996V127.427C98.0186 126.999 96.1217 126.632 94.1636 126.387C92.2055 126.143 90.3086 126.02 88.4117 126.02C84.312 126.02 81.3136 126.815 79.2943 128.467C77.275 130.119 76.296 132.443 76.296 135.502C76.296 138.377 77.0303 140.518 78.56 141.986C80.0286 143.516 82.1703 144.25 84.985 144.25ZM134.121 150.856C133.02 150.856 132.285 150.673 131.796 150.245C131.306 149.878 130.878 149.021 130.511 147.859L116.131 100.572C115.764 99.3489 115.58 98.5537 115.58 98.1255C115.58 97.1467 116.07 96.5961 117.049 96.5961H123.046C124.208 96.5961 125.004 96.7797 125.432 97.2079C125.922 97.5749 126.289 98.4313 126.656 99.5936L136.936 140.09L146.482 99.5936C146.788 98.3701 147.155 97.5749 147.644 97.2079C148.134 96.8408 148.99 96.5961 150.092 96.5961H154.987C156.15 96.5961 156.945 96.7797 157.435 97.2079C157.924 97.5749 158.353 98.4313 158.597 99.5936L168.265 140.579L178.851 99.5936C179.218 98.3701 179.647 97.5749 180.075 97.2079C180.565 96.8408 181.36 96.5961 182.462 96.5961H188.152C189.131 96.5961 189.682 97.0855 189.682 98.1255C189.682 98.4313 189.621 98.7372 189.56 99.1042C189.499 99.4713 189.376 99.9606 189.131 100.634L174.384 147.92C174.017 149.144 173.589 149.939 173.099 150.306C172.61 150.673 171.814 150.918 170.774 150.918H165.512C164.349 150.918 163.554 150.734 163.064 150.306C162.575 149.878 162.146 149.082 161.902 147.859L152.417 108.402L142.994 147.798C142.688 149.021 142.321 149.816 141.831 150.245C141.342 150.673 140.485 150.856 139.383 150.856H134.121ZM212.751 152.508C209.569 152.508 206.387 152.141 203.328 151.407C200.268 150.673 197.882 149.878 196.291 148.96C195.312 148.409 194.639 147.798 194.394 147.247C194.149 146.697 194.027 146.085 194.027 145.534V142.415C194.027 141.13 194.516 140.518 195.434 140.518C195.801 140.518 196.168 140.579 196.535 140.702C196.903 140.824 197.453 141.069 198.065 141.313C200.146 142.231 202.41 142.965 204.796 143.454C207.244 143.944 209.63 144.189 212.078 144.189C215.933 144.189 218.931 143.516 221.012 142.17C223.092 140.824 224.194 138.867 224.194 136.358C224.194 134.646 223.643 133.239 222.541 132.076C221.44 130.914 219.359 129.874 216.361 128.895L207.489 126.143C203.022 124.736 199.717 122.656 197.698 119.903C195.679 117.211 194.639 114.214 194.639 111.033C194.639 108.464 195.189 106.2 196.291 104.243C197.392 102.285 198.861 100.572 200.696 99.2266C202.532 97.8196 204.613 96.7797 207.06 96.0456C209.508 95.3115 212.078 95.0056 214.77 95.0056C216.116 95.0056 217.524 95.0668 218.87 95.2503C220.277 95.4339 221.562 95.6785 222.847 95.9232C224.071 96.2291 225.234 96.535 226.335 96.902C227.437 97.269 228.293 97.6361 228.905 98.0031C229.762 98.4925 230.374 98.9819 230.741 99.5324C231.108 100.022 231.292 100.695 231.292 101.551V104.426C231.292 105.711 230.802 106.384 229.884 106.384C229.395 106.384 228.599 106.139 227.559 105.65C224.071 104.059 220.155 103.264 215.81 103.264C212.323 103.264 209.569 103.815 207.672 104.977C205.775 106.139 204.796 107.913 204.796 110.421C204.796 112.134 205.408 113.602 206.632 114.764C207.856 115.927 210.12 117.089 213.363 118.129L222.052 120.882C226.458 122.289 229.64 124.246 231.536 126.754C233.433 129.262 234.351 132.138 234.351 135.318C234.351 137.949 233.8 140.335 232.76 142.415C231.659 144.494 230.19 146.33 228.293 147.798C226.396 149.327 224.132 150.428 221.501 151.223C218.748 152.08 215.872 152.508 212.751 152.508Z" fill="#252F3E"/>
<path d="M224.316 182.238C204.184 197.103 174.935 204.994 149.786 204.994C114.54 204.994 82.7822 191.965 58.7955 170.309C56.8986 168.597 58.612 166.272 60.876 167.618C86.8208 182.666 118.823 191.781 151.928 191.781C174.262 191.781 198.8 187.132 221.379 177.589C224.744 176.06 227.62 179.791 224.316 182.238Z" fill="#FF9900"/>
<path d="M232.699 172.695C230.129 169.392 215.688 171.105 209.141 171.9C207.183 172.145 206.877 170.432 208.651 169.147C220.155 161.072 239.063 163.397 241.266 166.088C243.469 168.841 240.654 187.744 229.884 196.797C228.232 198.204 226.641 197.47 227.376 195.635C229.823 189.579 235.269 175.937 232.699 172.695Z" fill="#FF9900"/>
</g>
</g>
<defs>
<clipPath id="clip0_326_86">
<rect width="300" height="300" fill="white"/>
</clipPath>
<clipPath id="clip1_326_86">
<rect width="184" height="110" fill="white" transform="translate(58 95)"/>
</clipPath>
</defs>
</svg>
