<svg width="300" height="300" viewBox="0 0 300 300" fill="none" xmlns="http://www.w3.org/2000/svg">
<g clip-path="url(#clip0_326_86)">
<circle cx="150" cy="150" r="150" fill="#FEFEFE"/>
<path d="M121.431 69.0043H172.406L119.488 225.886C119.218 226.687 118.824 227.442 118.321 228.121C117.819 228.802 117.214 229.398 116.527 229.892C115.84 230.385 115.082 230.768 114.277 231.027C113.472 231.285 112.632 231.418 111.788 231.418H72.1159C70.8281 231.418 69.5576 231.113 68.4119 230.523C67.265 229.934 66.275 229.081 65.5241 228.033C64.7726 226.986 64.281 225.774 64.0899 224.499C63.8982 223.224 64.0145 221.922 64.4258 220.701L113.728 74.5323C113.997 73.7312 114.391 72.9775 114.895 72.297C115.397 71.6165 116.004 71.02 116.689 70.5268C117.376 70.0337 118.134 69.6504 118.939 69.3919C119.745 69.1335 120.585 69 121.429 69V69.0022L121.431 69.0043Z" fill="url(#paint0_linear_326_86)"/>
<path d="M215.401 231.418H169.628C169.118 231.418 168.608 231.371 168.104 231.274C167.602 231.179 167.109 231.037 166.633 230.85C166.157 230.663 165.7 230.43 165.268 230.159C164.835 229.886 164.429 229.573 164.055 229.224L112.113 180.715C111.564 180.201 111.181 179.535 111.015 178.802C110.849 178.069 110.907 177.303 111.182 176.604C111.458 175.904 111.937 175.304 112.559 174.881C113.181 174.459 113.915 174.233 114.667 174.233H195.5L215.397 231.421L215.401 231.418Z" fill="#0078D4"/>
<path d="M172.589 69.0043L136.906 174.243L195.209 174.23L215.209 231.418H169.609C169.137 231.414 168.666 231.371 168.2 231.287C167.735 231.203 167.279 231.08 166.835 230.917C165.946 230.593 165.118 230.118 164.389 229.515L129.326 196.79L119.51 225.738C119.256 226.461 118.907 227.148 118.472 227.779C117.6 229.048 116.408 230.064 115.016 230.723C114.323 231.051 113.589 231.285 112.834 231.418H72.1396C70.8389 231.423 69.5554 231.113 68.399 230.514C67.2424 229.916 66.2468 229.048 65.4964 227.984C64.746 226.92 64.2628 225.69 64.0877 224.4C63.9132 223.109 64.0513 221.795 64.4904 220.569L113.713 74.6421C113.969 73.8259 114.354 73.0572 114.854 72.3637C115.352 71.6703 115.959 71.0587 116.648 70.5548C117.337 70.0509 118.104 69.6589 118.916 69.3962C119.727 69.1335 120.578 69 121.433 69.0043H172.591H172.589Z" fill="url(#paint1_linear_326_86)"/>
<path d="M235.842 220.701C236.254 221.922 236.369 223.224 236.18 224.499C235.989 225.774 235.498 226.985 234.748 228.033C233.997 229.08 233.007 229.933 231.861 230.522C230.715 231.111 229.445 231.418 228.156 231.418H171.343C172.631 231.418 173.901 231.11 175.049 230.523C176.195 229.935 177.185 229.08 177.937 228.033C178.688 226.987 179.179 225.774 179.371 224.499C179.563 223.224 179.446 221.922 179.035 220.701L129.731 74.528C129.188 72.9178 128.154 71.5184 126.774 70.5268C126.089 70.0336 125.331 69.6525 124.528 69.3941C123.725 69.1356 122.885 69.0043 122.043 69.0043H178.854C179.698 69.0043 180.536 69.1356 181.341 69.3941C182.145 69.6525 182.903 70.0358 183.59 70.5268C184.275 71.0199 184.88 71.6165 185.381 72.2948C185.883 72.9732 186.275 73.7269 186.546 74.528L235.851 220.701H235.842Z" fill="url(#paint2_linear_326_86)"/>
</g>
<defs>
<linearGradient id="paint0_linear_326_86" x1="140.035" y1="81.0423" x2="87.059" y2="237.537" gradientUnits="userSpaceOnUse">
<stop stop-color="#114A8B"/>
<stop offset="1" stop-color="#0669BC"/>
</linearGradient>
<linearGradient id="paint1_linear_326_86" x1="156.552" y1="153.96" x2="144.299" y2="158.116" gradientUnits="userSpaceOnUse">
<stop stop-opacity="0.3"/>
<stop offset="0.1" stop-opacity="0.2"/>
<stop offset="0.3" stop-opacity="0.1"/>
<stop offset="0.6" stop-opacity="0.1"/>
<stop offset="1" stop-opacity="0"/>
</linearGradient>
<linearGradient id="paint2_linear_326_86" x1="149.791" y1="76.4769" x2="207.935" y2="231.378" gradientUnits="userSpaceOnUse">
<stop stop-color="#3CCBF4"/>
<stop offset="1" stop-color="#2892DF"/>
</linearGradient>
<clipPath id="clip0_326_86">
<rect width="300" height="300" fill="white"/>
</clipPath>
</defs>
</svg>
