<svg width="300" height="300" viewBox="0 0 300 300" fill="none" xmlns="http://www.w3.org/2000/svg">
<g clip-path="url(#clip0_326_86)">
<circle cx="150" cy="150" r="150" fill="#FEFEFE"/>
<g clip-path="url(#clip1_326_86)">
<path d="M244.642 199.545C240.119 199.091 232.092 197.98 222.05 203.042C212.02 208.117 208.063 208.331 203.136 207.801C204.585 210.452 207.521 214.1 216.745 214.744C225.968 215.4 230.379 215.678 225.527 227.203C225.641 223.719 224.822 217.003 215.661 218.177C206.513 219.364 204.371 227.62 214.187 231.735C210.999 232.379 204.22 232.757 199.381 220.084C196.03 221.535 190.863 224.464 181.501 217.218C184.765 218.405 188.797 218.48 188.797 218.48C180.481 214.504 172.542 207.107 167.452 200.126C171.484 203.13 175.932 206.135 180.43 206.69C175.113 200.189 162.815 187.187 147.757 173.832C157.434 180.156 169.115 190.166 188.217 187.919C207.332 185.672 220.172 181.279 244.605 199.52" fill="#FC0000"/>
<path d="M162.852 195.026C150.869 189.825 148.299 188.778 132.901 184.852C117.491 180.926 102.332 172.771 92.2014 160.034C99.3459 165.273 113.937 175.826 128.919 174.677C126.639 171.332 122.443 168.732 117.428 166.106C123.11 167.469 140.235 171.862 162.865 195.014" fill="#FC0000"/>
<path d="M136.757 150.605C133.67 141.73 128.088 130.357 101.652 113.467C88.7868 104.946 69.886 94.2538 45 67C46.7767 74.3468 54.6394 93.4586 94.268 118.263C107.284 127.163 124.081 132.654 136.769 150.605" fill="#FC0000"/>
<path d="M138.395 163.468C135.144 155.957 128.604 146.313 103 132.541C91.1934 125.913 71.02 115.714 52.8752 96.3367C54.5259 103.33 62.943 118.705 99.1821 137.905C109.212 143.447 126.185 148.635 138.395 163.468Z" fill="#FC0000"/>
<path d="M235.28 183.299C244.743 184.738 244.264 186.745 244.365 190.204C240.333 185.798 235.28 183.299 235.28 183.299ZM163.243 124.626C113.32 110.311 93.4616 92.2593 78.1016 73.3495C85.1074 95.1122 101.841 102.901 119.708 117.506C137.576 132.124 138.597 139.963 143.851 148.597C155.582 167.823 157.447 171.004 169.077 179.398C182.787 188.512 199.381 182.34 217.577 185.205C235.772 188.058 250.804 201.956 254.08 207.296C257.898 200.479 248.788 190.658 246.318 188.197C247.629 179.272 226.561 175.346 218.572 172.291C217.01 171.698 213.129 170.789 216.493 162.773C221.029 151.715 225.754 142.096 163.231 124.626" fill="#FC0000"/>
</g>
</g>
<defs>
<clipPath id="clip0_326_86">
<rect width="300" height="300" fill="white"/>
</clipPath>
<clipPath id="clip1_326_86">
<rect width="210" height="165" fill="white" transform="translate(45 67)"/>
</clipPath>
</defs>
</svg>
