<svg width="300" height="300" viewBox="0 0 300 300" fill="none" xmlns="http://www.w3.org/2000/svg">
<g clip-path="url(#clip0_326_86)">
<circle cx="150" cy="150" r="150" fill="#FEFEFE"/>
<path d="M99.3678 151.238L79.9858 172.151L99.3678 193.065L118.75 172.151L99.3678 151.238Z" fill="#3E3F49"/>
<path d="M99.3678 107L79.9858 127.913L99.3678 148.827L118.75 127.913L99.3678 107Z" fill="#3E3F49"/>
<path d="M119.861 129.277L100.479 150.19L119.861 171.103L139.262 150.19L119.861 129.277Z" fill="#3E3F49"/>
<path d="M78.8755 129.277L59.4753 150.19L78.8755 171.103L98.2575 150.19L78.8755 129.277Z" fill="#3E3F49"/>
<path d="M58.382 151.554L39 172.468L58.382 193.381L77.7821 172.468L58.382 151.554Z" fill="#3E3F49"/>
<path d="M140.354 151.554L120.954 172.468L140.354 193.381L159.754 172.468L140.354 151.554Z" fill="#3E3F49"/>
<path d="M176.694 180.627L180.551 167.545C181.222 165.197 182.564 163.017 184.241 161.339L235.226 110.354C239.419 106.161 246.295 106.161 250.488 110.354L257.029 116.895C257.532 117.398 258.035 118.069 258.371 118.572C261.222 122.765 260.719 128.467 257.029 132.157L206.044 183.142C205.876 183.31 205.54 183.478 205.373 183.813C203.696 185.155 201.851 186.161 199.838 186.832L186.756 190.69L179.545 192.702C178.203 193.205 176.694 192.87 175.687 191.696C174.513 190.69 174.178 189.18 174.681 187.838L176.694 180.627ZM187.092 173.75L184.408 182.975L193.633 180.291L197.49 179.117C198.664 178.782 199.503 178.279 200.341 177.44L238.748 139.033L228.35 128.635L189.943 167.042C189.775 167.042 189.775 167.209 189.608 167.377C188.937 168.048 188.601 168.887 188.266 169.893L187.092 173.75ZM203.528 111.696L214.429 122.597L208.727 128.3L204.366 123.939L200.509 127.797C199.503 128.803 197.826 128.803 196.652 127.797C195.645 126.623 195.645 124.945 196.652 123.939L200.509 120.082L197.826 117.398C196.819 116.392 194.974 116.392 193.968 117.398L184.744 126.623C183.738 127.629 183.738 129.474 184.744 130.48L195.645 141.381L189.943 147.084L179.042 136.182C174.849 131.989 174.849 125.113 179.042 120.92L188.266 111.696C192.459 107.503 199.335 107.503 203.528 111.696ZM236.903 182.639C237.909 183.646 239.754 183.646 240.76 182.639L249.985 173.415C250.991 172.409 250.991 170.564 249.985 169.557L247.301 166.874L243.444 170.731C242.438 171.738 240.593 171.738 239.586 170.731C238.58 169.725 238.58 167.88 239.586 166.874L243.444 163.017L239.083 158.656L244.786 152.954L255.687 163.855C259.88 168.048 259.88 174.924 255.687 179.117L246.463 188.342C242.27 192.534 235.394 192.534 231.201 188.342L220.299 177.44L226.002 171.738L236.903 182.639Z" fill="#3E3F49"/>
</g>
<defs>
<clipPath id="clip0_326_86">
<rect width="300" height="300" fill="white"/>
</clipPath>
</defs>
</svg>
