<svg width="300" height="300" viewBox="0 0 300 300" fill="none" xmlns="http://www.w3.org/2000/svg">
<g clip-path="url(#clip0_326_86)">
<circle cx="150" cy="150" r="150" fill="#FEFEFE"/>
<path d="M178.513 107.283L185.182 107.4L203.302 89.2806L204.176 81.6027C189.776 68.7945 170.829 61 150.093 61C112.548 61 80.8575 86.5464 71.4714 121.152C73.4536 119.771 77.6802 120.802 77.6802 120.802L113.895 114.844C113.895 114.844 115.761 111.755 116.694 111.947C124.467 103.443 135.193 98.2252 146.682 97.3585C158.171 96.4918 169.552 100.041 178.513 107.283Z" fill="#EA4335"/>
<path d="M228.825 121.216C224.662 105.9 216.12 92.1303 204.247 81.5967L178.584 107.26C183.851 111.493 188.101 116.853 191.022 122.946C193.943 129.039 195.46 135.709 195.461 142.466V146.996C207.949 146.996 218.081 157.157 218.081 169.616C218.081 182.074 207.92 192.235 195.461 192.235H150.21L145.68 196.783V223.938L150.21 228.445H195.461C211.045 228.403 225.979 222.191 236.995 211.167C248.011 200.144 254.213 185.206 254.243 169.621C254.22 149.59 244.123 131.844 228.767 121.216H228.825Z" fill="#4285F4"/>
<path d="M104.847 228.485H150.087V192.27H104.847C101.634 192.272 98.4591 191.582 95.5368 190.247L89.0073 192.247L70.8882 210.366L69.3025 216.488C79.4969 224.315 92.0002 228.539 104.853 228.497L104.847 228.485Z" fill="#34A853"/>
<path d="M104.846 110.798C89.247 110.823 74.2935 117.031 63.263 128.061C52.2325 139.092 46.0247 154.045 46 169.645C45.9999 178.728 48.1056 187.688 52.1517 195.821C56.1978 203.954 62.0742 211.038 69.3194 216.517L95.5536 190.282C91.5798 188.495 88.207 185.597 85.8407 181.938C83.4744 178.279 82.2154 174.014 82.215 169.656C82.215 157.169 92.3764 147.037 104.835 147.037C109.191 147.044 113.452 148.306 117.11 150.672C120.768 153.037 123.667 156.406 125.461 160.375L151.695 134.141C140.933 119.975 123.945 110.822 104.823 110.822L104.846 110.798Z" fill="#FBBC05"/>
</g>
<defs>
<clipPath id="clip0_326_86">
<rect width="300" height="300" fill="white"/>
</clipPath>
</defs>
</svg>
