<svg width="300" height="300" viewBox="0 0 300 300" fill="none" xmlns="http://www.w3.org/2000/svg">
<g clip-path="url(#clip0_326_86)">
<circle cx="150" cy="150" r="150" fill="#FEFEFE"/>
<path d="M118.206 205.974C118.206 205.21 117.44 204.446 116.29 204.446C115.141 204.446 114.375 205.21 114.375 205.974C114.375 206.738 115.141 207.502 116.29 207.12C117.44 207.12 118.206 206.738 118.206 205.974ZM106.331 204.064C106.331 204.828 107.097 205.974 108.246 205.974C109.012 206.356 110.161 205.974 110.544 205.21C110.544 204.446 110.161 203.682 109.012 203.3C107.863 202.918 106.714 203.3 106.331 204.064ZM123.569 203.682C122.419 203.682 121.653 204.446 121.653 205.592C121.653 206.356 122.802 206.738 123.952 206.356C125.101 205.974 125.867 205.592 125.484 204.828C125.484 204.064 124.335 203.3 123.569 203.682ZM148.468 57C95.6048 57 55 97.4903 55 150.204C55 192.604 81.4315 228.893 119.738 241.88C124.718 242.644 126.25 239.588 126.25 237.297C126.25 234.623 126.25 221.635 126.25 213.614C126.25 213.614 99.4355 219.343 93.6895 202.154C93.6895 202.154 89.4758 191.076 83.3468 188.403C83.3468 188.403 74.5363 182.291 83.7298 182.291C83.7298 182.291 93.3065 183.055 98.6694 192.222C107.097 207.12 120.887 202.918 126.633 200.244C127.399 194.132 129.698 189.931 132.762 187.257C111.31 184.965 89.4758 181.909 89.4758 145.238C89.4758 134.543 92.5403 129.577 98.6694 122.701C97.5202 120.027 94.4556 110.096 99.8185 96.7264C107.48 94.4345 126.25 107.04 126.25 107.04C133.911 104.748 141.956 103.984 150 103.984C158.427 103.984 166.472 104.748 174.133 107.04C174.133 107.04 192.52 94.0525 200.565 96.7264C205.927 110.096 202.48 120.027 201.714 122.701C207.843 129.577 211.673 134.543 211.673 145.238C211.673 181.909 189.073 184.965 167.621 187.257C171.069 190.312 174.133 196.042 174.133 205.21C174.133 217.815 173.75 233.859 173.75 236.915C173.75 239.588 175.665 242.644 180.645 241.498C218.952 228.893 245 192.604 245 150.204C245 97.4903 201.714 57 148.468 57ZM92.1573 188.785C91.3911 189.167 91.7742 190.312 92.1573 191.076C92.9234 191.458 93.6895 191.84 94.4556 191.458C94.8387 191.076 94.8387 189.931 94.0726 189.167C93.3065 188.785 92.5403 188.403 92.1573 188.785ZM87.9435 185.729C87.5605 186.493 87.9435 186.875 88.7097 187.257C89.4758 187.639 90.2419 187.639 90.625 186.875C90.625 186.493 90.2419 186.111 89.4758 185.729C88.7097 185.347 88.3266 185.347 87.9435 185.729ZM100.202 199.48C99.8185 199.862 99.8185 201.008 100.968 201.772C101.734 202.536 102.883 202.918 103.266 202.154C103.649 201.772 103.649 200.626 102.883 199.862C102.117 199.098 100.968 198.716 100.202 199.48ZM95.9879 193.75C95.2218 194.132 95.2218 195.278 95.9879 196.042C96.754 196.806 97.5202 197.188 98.2863 196.806C98.6694 196.424 98.6694 195.278 98.2863 194.514C97.5202 193.75 96.754 193.368 95.9879 193.75Z" fill="#282A35"/>
</g>
<defs>
<clipPath id="clip0_326_86">
<rect width="300" height="300" fill="white"/>
</clipPath>
</defs>
</svg>
