<svg width="300" height="300" viewBox="0 0 300 300" fill="none" xmlns="http://www.w3.org/2000/svg">
<g clip-path="url(#clip0_326_86)">
<circle cx="150" cy="150" r="150" fill="#FEFEFE"/>
<path d="M229.49 98.3593C228.386 94.8357 225.738 91.9727 222.427 90.2108L155.201 58.1012C153.435 57.2202 151.449 57 149.683 57C147.918 57 145.931 57 144.166 57.4405L76.9393 89.7703C73.6287 91.312 71.201 94.175 70.3182 97.9189L53.8095 170.287C53.1474 174.031 54.0302 177.775 56.2373 180.858L102.762 238.25C105.41 240.893 109.162 242.655 112.914 242.875H186.982C190.955 243.315 194.707 241.553 197.134 238.25L243.659 180.858C245.866 177.775 246.749 174.031 246.307 170.287L229.49 98.3593Z" fill="#326DE6"/>
<path d="M219.116 167.424C218.895 167.424 218.675 167.424 218.675 167.204C218.675 166.983 218.233 166.983 217.792 166.983C216.909 166.763 216.026 166.763 215.143 166.763C214.702 166.763 214.261 166.763 213.819 166.543H213.599C211.171 166.323 208.522 165.882 206.095 165.221C205.432 165.001 204.77 164.341 204.55 163.68C204.77 163.68 204.55 163.68 204.55 163.68L202.784 163.239C203.667 156.853 203.225 150.246 201.901 143.903C200.356 137.516 197.708 131.35 194.177 125.888L195.501 124.567V124.347C195.501 123.686 195.722 122.805 196.163 122.365C198.149 120.603 200.136 119.281 202.343 117.96L203.667 117.299C204.55 116.859 205.212 116.418 206.095 115.978C206.315 115.758 206.536 115.758 206.757 115.537C206.977 115.317 206.757 115.317 206.757 115.097C208.743 113.555 209.184 110.913 207.64 108.93C206.977 108.05 205.653 107.389 204.55 107.389C203.446 107.389 202.343 107.829 201.46 108.49L201.239 108.71C201.018 108.93 200.798 109.151 200.577 109.151C199.915 109.811 199.253 110.472 198.811 111.133C198.591 111.573 198.149 111.793 197.929 112.014C196.384 113.776 194.397 115.537 192.411 116.859C191.97 117.079 191.528 117.299 191.087 117.299C190.866 117.299 190.425 117.299 190.204 117.079H189.983L188.218 118.18C186.452 116.418 184.466 114.656 182.7 112.895C174.534 106.508 164.426 102.544 154.053 101.443L153.832 99.6808V99.901C153.17 99.4605 152.949 98.7998 152.728 98.1391C152.728 95.7166 152.728 93.2941 153.17 90.6513V90.4311C153.17 89.9906 153.391 89.5501 153.391 89.1097C153.611 88.2288 153.611 87.3478 153.832 86.4669V85.1455C154.053 82.9432 152.287 80.7409 150.08 80.5207C148.756 80.3005 147.432 80.9611 146.328 82.0623C145.445 82.9432 145.004 84.0444 145.004 85.1455V86.2467C145.004 87.1276 145.225 88.0085 145.445 88.8895C145.666 89.3299 145.666 89.7704 145.666 90.2108V90.4311C146.107 92.8536 146.107 95.2761 146.107 97.9189C145.887 98.5796 145.666 99.2403 145.004 99.6808V100.121L144.783 101.883C142.355 102.103 139.928 102.544 137.279 102.984C126.906 105.187 117.46 110.692 110.177 118.4L108.853 117.519H108.632C108.411 117.519 108.19 117.74 107.749 117.74C107.308 117.74 106.866 117.519 106.425 117.299C104.439 115.758 102.452 113.996 100.907 112.234C100.687 111.793 100.245 111.573 100.024 111.353C99.3623 110.692 98.9209 110.032 98.2588 109.371C98.0381 109.151 97.8174 109.151 97.5967 108.93L97.376 108.71C96.4932 108.05 95.3897 107.609 94.2861 107.609C92.9619 107.609 91.8584 108.05 91.1963 109.151C89.8721 111.133 90.3135 113.776 92.0791 115.317C92.2998 115.317 92.2998 115.537 92.2998 115.537C92.2998 115.537 92.7412 115.978 92.9619 115.978C93.624 116.418 94.5068 116.859 95.3897 117.299L96.7139 117.96C98.9209 119.281 101.128 120.603 102.894 122.365C103.335 122.805 103.776 123.686 103.556 124.347V124.126L104.88 125.448C104.659 125.888 104.439 126.108 104.218 126.549C97.376 137.34 94.5068 150.07 96.4932 162.623L94.7275 163.063C94.7275 163.283 94.5068 163.283 94.5068 163.283C94.2861 163.944 93.624 164.385 92.9619 164.825C90.5342 165.486 88.1064 165.926 85.458 166.146C85.0166 166.146 84.5752 166.146 84.1338 166.367C83.251 166.367 82.3681 166.587 81.4853 166.587C81.2646 166.587 81.0439 166.807 80.6025 166.807C80.3818 166.807 80.3818 166.807 80.1611 167.027C77.7334 167.468 76.1884 169.67 76.6298 172.093C77.0713 174.075 79.0576 175.396 81.0439 175.176C81.4853 175.176 81.706 175.176 82.1474 174.956C82.3681 174.956 82.3681 174.956 82.3681 174.735C82.3681 174.515 83.0302 174.735 83.251 174.735C84.1338 174.515 85.0166 174.075 85.6787 173.854C86.1201 173.634 86.5615 173.414 87.0029 173.414H87.2236C89.6514 172.533 91.8584 171.872 94.5068 171.432H94.7275C95.3897 171.432 96.0518 171.652 96.4932 172.093C96.7139 172.093 96.7139 172.313 96.7139 172.313L98.7002 172.093C102.011 182.223 108.19 191.209 116.754 197.816C118.74 199.357 120.506 200.679 122.713 201.78L121.609 203.321C121.609 203.542 121.83 203.542 121.83 203.542C122.271 204.202 122.271 205.083 122.051 205.744C121.168 207.946 119.844 210.149 118.519 212.131V212.351C118.299 212.791 118.078 213.012 117.637 213.452C117.195 213.892 116.754 214.773 116.092 215.654C115.871 215.875 115.871 216.095 115.65 216.315C115.65 216.315 115.65 216.535 115.43 216.535C114.326 218.738 115.209 221.38 117.195 222.481C117.637 222.702 118.299 222.922 118.74 222.922C120.506 222.922 122.051 221.821 122.933 220.279C122.933 220.279 122.933 220.059 123.154 220.059C123.154 219.839 123.375 219.618 123.596 219.398C123.816 218.517 124.258 217.857 124.478 216.976L124.92 215.654C125.582 213.232 126.685 211.029 127.789 208.827C128.23 208.166 128.892 207.726 129.555 207.506C129.775 207.506 129.775 207.506 129.775 207.286L130.658 205.524C136.838 207.946 143.238 209.047 149.815 209.047C153.788 209.047 157.761 208.607 161.733 207.506C164.161 207.065 166.589 206.184 168.796 205.524L169.678 207.065C169.899 207.065 169.899 207.065 169.899 207.286C170.561 207.506 171.223 207.946 171.665 208.607C172.768 210.809 173.872 213.012 174.534 215.434V215.654L174.975 216.976C175.196 217.857 175.417 218.738 175.858 219.398C176.079 219.618 176.079 219.839 176.3 220.059C176.3 220.059 176.3 220.279 176.52 220.279C177.403 221.821 178.948 222.922 180.714 222.922C181.376 222.922 181.817 222.702 182.479 222.481C183.362 222.041 184.245 221.16 184.466 220.059C184.686 218.958 184.686 217.857 184.245 216.755C184.245 216.535 184.024 216.535 184.024 216.535C184.024 216.315 183.804 216.095 183.583 215.875C183.141 214.994 182.7 214.333 182.038 213.672C181.817 213.232 181.596 213.012 181.155 212.571V212.131C179.61 210.149 178.507 207.946 177.624 205.744C177.403 205.083 177.403 204.202 177.845 203.542C177.845 203.321 178.065 203.321 178.065 203.321L177.403 201.56C188.659 194.732 197.222 184.161 201.195 171.652L202.961 171.872C203.181 171.872 203.181 171.652 203.181 171.652C203.623 171.212 204.285 170.991 204.947 170.991H205.168C207.595 171.432 210.023 172.093 212.23 172.974H212.451C212.892 173.194 213.334 173.414 213.775 173.414C214.658 173.854 215.32 174.295 216.203 174.515C216.424 174.515 216.644 174.735 217.086 174.735C217.306 174.735 217.306 174.735 217.527 174.956C217.968 175.176 218.189 175.176 218.631 175.176C220.617 175.176 222.383 173.854 223.045 172.093C222.868 169.626 221.102 167.864 219.116 167.424V167.424ZM155.421 160.597L149.462 163.46L143.503 160.597L141.958 154.21L146.151 148.924H152.773L156.966 154.21L155.421 160.597ZM191.352 146.326C192.455 150.95 192.676 155.575 192.234 160.2L171.312 154.254C169.325 153.813 168.222 151.831 168.663 149.849C168.884 149.189 169.105 148.748 169.546 148.308L186.099 133.332C188.482 137.296 190.248 141.701 191.352 146.326ZM179.434 125.183L161.38 137.957C159.835 138.838 157.628 138.618 156.525 137.076C156.083 136.635 155.862 136.195 155.862 135.534L154.538 113.335C164.249 114.392 172.857 118.577 179.434 125.183ZM139.53 113.952L143.944 113.071L142.841 135.05C142.841 137.032 141.075 138.574 139.089 138.574C138.427 138.574 137.985 138.353 137.323 138.133L119.049 125.139C124.787 119.678 131.85 115.714 139.53 113.952ZM112.649 133.332L128.981 147.867C130.526 149.189 130.746 151.391 129.422 152.933C128.981 153.593 128.539 153.813 127.657 154.034L106.292 160.2C105.586 150.906 107.793 141.481 112.649 133.332ZM108.897 170.507L130.702 166.763C132.468 166.763 134.233 167.864 134.454 169.626C134.675 170.287 134.675 171.168 134.233 171.828L125.847 192.046C118.166 186.98 111.987 179.316 108.897 170.507ZM158.952 197.772C155.862 198.432 152.773 198.873 149.462 198.873C144.827 198.873 139.972 197.992 135.558 196.67L146.372 177.114C147.476 175.793 149.241 175.352 150.786 176.233C151.448 176.673 151.89 177.114 152.552 177.775L163.146 196.891C161.821 197.111 160.497 197.331 158.952 197.772ZM185.834 178.656C182.523 183.941 177.889 188.566 172.592 191.869L163.984 171.212C163.543 169.45 164.426 167.688 165.971 167.027C166.633 166.807 167.295 166.587 167.957 166.587L189.983 170.331C188.924 173.37 187.6 176.233 185.834 178.656Z" fill="white"/>
</g>
<defs>
<clipPath id="clip0_326_86">
<rect width="300" height="300" fill="white"/>
</clipPath>
</defs>
</svg>
