<svg width="300" height="300" viewBox="0 0 300 300" fill="none" xmlns="http://www.w3.org/2000/svg">
<g clip-path="url(#clip0_326_86)">
<circle cx="150" cy="150" r="150" fill="#FEFEFE"/>
<g clip-path="url(#clip1_326_86)">
<path d="M156.431 64.9998C155.738 64.9829 155.512 65.1011 155.418 65.3542V145.356L234.082 145.069C234.859 144.12 235.074 136.952 234.98 112.348L234.886 87.2378L232.871 87.1771C209.34 86.3873 196.516 83.0427 182.27 73.947C177.52 70.9162 176.558 70.4066 173.052 68.9553C169.015 67.3117 164.642 66.1136 160.262 65.4487C158.291 65.1652 157.127 65.0167 156.431 64.9998ZM143.466 65.0707C142.877 65.0707 140.923 65.2901 139.123 65.6073C131.019 66.9978 125.307 69.2692 118.323 73.8187C110.996 78.5876 106.152 80.8962 98.6102 83.1372C91.3136 85.3174 79.0552 86.9273 68.1895 87.1771L65.0845 87.2412L65.0206 112.507C64.96 130.634 65.0508 138.849 65.3301 141.566L65.7035 145.356H144.552V65.1348L143.466 65.0707ZM231.939 155.936C231.939 156.696 155.482 156.159 155.482 156.159L155.697 245.003C156.101 245.003 157.312 244.342 161.006 242.161C161.689 241.75 165.291 239.38 169.015 236.883C181.745 228.324 190.868 220.777 200.119 211.175C210.83 200.028 217.972 190.264 224.118 178.357C228.091 170.618 231.939 160.007 231.939 156.692V155.933V155.936ZM144.552 156.095L68.1895 156.25C67.9405 156.692 68.4989 159.598 69.4308 162.663C72.6602 173.119 78.9274 185.245 86.1297 194.942C94.3547 205.964 105.564 217.301 118.633 227.851C126.891 234.483 142.258 244.686 144.028 244.686L144.556 156.098L144.552 156.095Z" fill="#0177D7"/>
</g>
</g>
<defs>
<clipPath id="clip0_326_86">
<rect width="300" height="300" fill="white"/>
</clipPath>
<clipPath id="clip1_326_86">
<rect width="170" height="180" fill="white" transform="translate(65 65)"/>
</clipPath>
</defs>
</svg>
