<svg width="300" height="300" viewBox="0 0 300 300" fill="none" xmlns="http://www.w3.org/2000/svg">
<g clip-path="url(#clip0_326_86)">
<circle cx="150" cy="150" r="150" fill="#FEFEFE"/>
<path fill-rule="evenodd" clip-rule="evenodd" d="M114.258 190.517C79.3937 190.517 52 163.123 52 128.258C52 93.3937 79.3937 66 114.258 66H186.476C221.341 66 248.734 93.3937 248.734 128.258C248.734 163.123 221.341 190.517 186.476 190.517H114.258ZM183.986 168.103C206.399 168.103 223.831 150.671 223.831 130.748C223.831 108.335 206.398 90.9034 186.476 90.9034H183.986H114.258C91.8454 90.9034 74.4106 108.336 74.4106 128.258C74.4106 150.671 91.843 168.103 111.766 168.103H114.258H183.986Z" fill="#E50019"/>
<path d="M136.755 224.939H149.597L142.919 214.86L130.591 233.579H124.941L140.351 211.02C140.864 210.06 141.891 209.58 143.432 209.58C144.46 209.58 145.487 210.06 146.514 211.02L161.924 233.579H156.274L153.706 229.259H140.864L136.755 224.939ZM196.34 229.259V210.06H191.717V231.179C191.717 231.659 192.231 232.138 192.231 232.618C192.744 233.098 193.258 233.098 193.772 233.098H215.859L218.942 228.779H196.34V229.259ZM116.208 225.899C120.831 226.379 124.94 223.019 125.454 218.699C125.968 214.379 122.372 210.54 117.749 210.06C117.235 210.06 116.722 210.06 116.722 210.06H95.6617V233.579H100.284V214.38H116.208C118.263 214.86 120.318 216.779 119.804 218.699C119.804 220.619 118.263 222.059 116.208 222.059H102.339L116.722 234.058H123.913L114.154 226.379L116.208 225.899ZM64.8417 233.579C57.6503 233.579 52 228.299 52 221.579C52 214.86 57.6503 209.58 64.8417 209.58H79.7375C86.9289 209.58 92.5792 214.86 92.5792 221.579C92.5792 228.299 86.9289 233.579 79.7375 233.579H64.8417ZM79.224 229.259C83.847 229.259 87.4426 225.899 87.4426 222.059C87.4426 217.739 83.8469 214.38 79.7375 214.38H79.224H64.8417C60.2187 214.38 56.6225 217.74 56.6225 221.579C56.6225 225.899 60.2182 229.259 64.3275 229.259H64.8417H79.224ZM171.684 233.579C164.493 233.579 158.842 228.299 158.842 221.579C158.842 214.86 164.493 209.58 171.684 209.58H189.149L186.067 213.899H171.684C167.061 213.899 163.465 217.74 163.979 221.579C163.979 225.419 167.575 228.779 171.684 228.779H189.149L186.067 233.098L171.684 233.579ZM230.756 229.259C227.16 229.259 224.078 226.859 223.051 223.499H243.598L246.679 219.18H223.051C224.078 215.82 227.16 213.42 230.756 213.42H245.139L248.221 209.1H230.756C223.565 209.1 217.914 214.379 217.914 221.099C217.914 227.819 223.565 233.098 230.756 233.098H245.652L248.734 228.779L230.756 229.259Z" fill="#E50019"/>
</g>
<defs>
<clipPath id="clip0_326_86">
<rect width="300" height="300" fill="white"/>
</clipPath>
</defs>
</svg>
