<svg width="300" height="300" viewBox="0 0 300 300" fill="none" xmlns="http://www.w3.org/2000/svg">
<g clip-path="url(#clip0_326_86)">
<circle cx="150" cy="150" r="150" fill="#FEFEFE"/>
<path d="M69.7101 89.6954C66.4785 93.9937 63.6092 98.5545 61.1318 103.33C75.1331 113.907 84.0754 130.92 84.0754 150.505C84.0754 169.801 75.2999 186.564 61.4655 197.231C64.0343 201.95 66.9392 206.476 70.1575 210.775C89.817 198.243 102.643 176.155 102.643 150.505C102.643 124.567 89.6501 102.311 69.7101 89.6954ZM76.377 150.475C76.4551 142.85 74.8308 135.303 71.6232 128.39C68.4157 121.476 63.7061 115.371 57.8401 110.521C52.6167 123.122 49.9485 136.64 49.9915 150.287C50.0345 163.934 52.7877 177.436 58.0904 190.003C63.8704 185.186 68.5115 179.141 71.6779 172.305C74.8444 165.469 76.4572 158.013 76.3997 150.475H76.377ZM108.468 58.8034C103.018 61.1792 97.8171 64.0925 92.9418 67.5003C108.74 78.0382 121.116 92.9856 128.544 110.498C133.908 107.573 139.837 105.842 145.928 105.423C137.984 86.704 125.015 70.565 108.468 58.8034ZM108.968 165.206C107.137 175.661 103.19 185.629 97.3706 194.495C91.5514 203.361 83.9833 210.937 75.1331 216.756C78.7288 220.799 82.6535 224.535 86.8665 227.926C102.9 217.832 115.29 202.851 122.219 185.179C115.905 180.005 111.288 173.046 108.968 165.206ZM128.87 189.493C121.61 207.133 109.31 222.223 93.5183 232.864C98.4789 236.211 103.737 239.092 109.226 241.469C125.767 229.576 138.657 213.274 146.436 194.409C140.3 194.035 134.313 192.36 128.87 189.493ZM86.2749 72.4308C82.0687 75.8305 78.1725 79.5991 74.6325 83.692C83.5045 89.462 91.1105 96.9865 96.9854 105.805C102.86 114.624 106.881 124.553 108.801 134.983C111.109 127.158 115.656 120.184 121.877 114.926C114.793 97.3375 102.327 82.458 86.2749 72.4308Z" fill="#0080FF"/>
<path d="M149.978 50.0001C138.725 49.9822 127.547 51.8413 116.901 55.5013C133.633 68.4524 146.551 85.7132 154.279 105.446C176.721 107.394 193.43 124.658 193.43 149.965C193.43 175.021 176.979 192.202 154.749 194.409C147.125 214.224 134.296 231.598 117.622 244.688C128.043 248.17 138.956 249.943 149.94 249.938C205.46 249.938 250.012 206.339 250.012 149.965C250.012 93.5913 205.475 50.0001 149.978 50.0001Z" fill="black"/>
</g>
<defs>
<clipPath id="clip0_326_86">
<rect width="300" height="300" fill="white"/>
</clipPath>
</defs>
</svg>
