<svg width="300" height="300" viewBox="0 0 300 300" fill="none" xmlns="http://www.w3.org/2000/svg">
<g clip-path="url(#clip0_326_86)">
<circle cx="150" cy="150" r="150" fill="#FEFEFE"/>
<path fill-rule="evenodd" clip-rule="evenodd" d="M150.175 62C197.834 62 221.794 87.7536 221.794 87.7536C221.794 87.7536 224.535 106.812 222.787 145.199C220.147 203.179 150.193 238 150.187 238C150.181 238 80.2333 203.179 77.5995 145.199C75.8159 106.812 78.5805 87.7536 78.5805 87.7536C78.5805 87.7536 102.523 62 150.175 62Z" fill="#ED2E26"/>
<path fill-rule="evenodd" clip-rule="evenodd" d="M114.414 138.216C114.414 117.716 130.466 101.036 150.187 101.036C159.68 101.045 168.781 104.858 175.494 111.637C182.206 118.416 185.981 127.608 185.991 137.195C185.991 153.113 172.441 166.203 162.001 172.934C166.05 175.27 174.992 177.738 183.553 178.513C189.812 173.638 194.88 167.379 198.368 160.216C201.856 153.053 203.671 145.178 203.672 137.195C203.899 129.958 202.683 122.749 200.098 115.996C197.512 109.242 193.609 103.083 188.62 97.8826C183.631 92.6824 177.659 88.5477 171.057 85.724C164.456 82.9004 157.359 81.4453 150.19 81.4453C143.021 81.4453 135.925 82.9004 129.323 85.724C122.721 88.5477 116.749 92.6824 111.76 97.8826C106.772 103.083 102.869 109.242 100.283 115.996C97.6971 122.749 96.4815 129.958 96.7082 137.195C96.7082 155.209 104.122 171.163 118.153 183.43C131.269 194.857 150.455 202.507 172.304 206.11C177.061 203.468 185.128 195.668 188.167 191.098C169.92 188.696 152.655 184.235 141.079 178.098C123.385 168.731 114.414 155.281 114.414 138.204" fill="white"/>
</g>
<defs>
<clipPath id="clip0_326_86">
<rect width="300" height="300" fill="white"/>
</clipPath>
</defs>
</svg>
