<svg width="300" height="300" viewBox="0 0 300 300" fill="none" xmlns="http://www.w3.org/2000/svg">
<g clip-path="url(#clip0_326_86)">
<circle cx="150" cy="150" r="150" fill="#FEFEFE"/>
<path fill-rule="evenodd" clip-rule="evenodd" d="M150 43C88.4 43 40 90.1075 40 150.063C40 181.468 53.2 210.018 73.7334 230.003C81.0667 237.14 94.2667 237.14 103.067 231.43C114.8 221.438 132.4 215.728 150 215.728C169.067 215.728 183.733 221.438 196.933 231.43C205.733 238.568 217.467 237.14 226.267 228.575C246.8 208.59 260 181.468 260 150.063C258.533 91.535 210.133 43 150 43ZM148.533 205.735C114.8 205.735 92.8001 181.468 92.8001 151.49C92.8001 121.513 114.8 97.245 148.533 97.245C182.267 97.245 204.267 121.513 204.267 151.49C204.267 181.468 182.267 205.735 148.533 205.735Z" fill="#81B5A1"/>
</g>
<defs>
<clipPath id="clip0_326_86">
<rect width="300" height="300" fill="white"/>
</clipPath>
</defs>
</svg>
