<svg width="300" height="300" viewBox="0 0 300 300" fill="none" xmlns="http://www.w3.org/2000/svg">
<g clip-path="url(#clip0_326_86)">
<circle cx="150" cy="150" r="150" fill="#FEFEFE"/>
<path d="M197.828 99.0894H101.534C101.534 93.0709 110.238 74.8783 127.646 44.5115C127.646 44.5115 130.056 60.5269 134.876 92.5576L164.295 92.5583L171.515 44.5115C189.057 75.281 197.828 93.4736 197.828 99.0894Z" fill="white"/>
<path d="M149.533 251.349L84.0576 205.534V98.6061C84.0576 98.6061 108.266 89.6848 149.617 89.6848C190.969 89.6848 215 98.6061 215 98.6061V205.534L149.533 251.349Z" fill="white"/>
<path d="M149.533 244.909L88.2412 202.201V102.898C88.2412 102.898 111.162 94.6127 149.533 94.6127V244.909Z" fill="#DBDBDB"/>
<path d="M149.617 94.6127C149.588 94.6127 149.562 94.6136 149.533 94.6127V244.783H149.534L210.288 202.198V102.898C210.288 102.898 187.988 94.6127 149.617 94.6127Z" fill="#C6C6C6"/>
<path d="M182.698 221.544L177.53 176.692H149.124C149.124 212.291 149.124 235.065 149.124 245.014L149.533 245.4C160.585 237.85 171.639 229.898 182.698 221.544Z" fill="#3B3B63"/>
<path d="M116.386 221.898L149.533 245.4L149.55 175.326H120.843L116.386 221.898Z" fill="#53537A"/>
<path d="M163.718 208.622C163.718 216.328 156.396 220.148 149.679 220.148C142.962 220.148 135.492 216.328 135.492 208.622" fill="#BC9375"/>
<path d="M149.604 212.607C144.212 212.607 141.589 208.718 141.589 200.723H144.161C144.161 210.083 147.836 210.083 149.604 210.083C151.371 210.083 155.048 210.083 155.048 200.723H157.618C157.618 208.718 154.996 212.607 149.604 212.607Z" fill="white"/>
<path d="M149.533 202.675C151.193 206.962 154.399 209.106 159.154 209.106C163.809 209.106 168.667 206.698 170.88 200.747C173.969 192.422 173.938 180.835 173.938 180.835C173.938 180.835 187.67 163.943 187.67 158.231C187.67 158.231 174.958 158.231 149.533 158.231V202.675Z" fill="#C49A7E"/>
<path d="M110.844 158.231C110.844 164.845 124.456 180.835 124.456 180.835C124.456 180.835 124.423 192.419 127.516 200.747C129.723 206.694 134.586 209.106 139.242 209.106C143.997 209.106 147.427 206.962 149.533 202.675V158.231H110.844Z" fill="#D8B7A0"/>
<path d="M186.03 120.196C175.445 109.531 172.798 87.2921 172.798 87.2921C170.822 94.2997 166.526 114.961 166.526 114.961C166.526 114.961 158.183 112.31 149.196 112.296C148.901 112.296 148.901 140.134 149.196 195.81L157.752 189.733L159.342 160.242L168.452 170.456L180.188 173.826C180.188 173.826 184.579 170.749 184.579 170.761C186.443 168.195 187.061 166.009 187.512 164.875C189.142 160.749 185.482 129.192 185.482 129.192C184.183 126.52 186.03 120.196 186.03 120.196Z" fill="#3B3B63"/>
<path d="M132.764 114.96C132.764 114.96 128.467 94.299 126.492 87.2906C126.492 87.2906 123.847 109.53 113.26 120.195C113.26 120.195 115.107 126.519 113.808 129.191C113.808 129.191 110.148 160.749 111.778 164.869C112.228 166.004 112.852 168.188 114.713 170.754C114.713 170.743 119.107 173.82 119.107 173.82L130.84 170.45L139.948 160.237L141.543 189.728L149.542 195.644V112.139C140.522 112.154 132.764 114.96 132.764 114.96Z" fill="#53537A"/>
<path d="M178.623 66.6825C180.379 69.8989 195.477 99.6332 195.477 109.93L188.781 127.853C189.913 137.966 192.167 159.94 190.466 164.233C189.416 166.888 185.413 172.351 181.989 176.775L186.67 218.757L180.342 223.234L176.824 192.559C176.341 195.672 175.614 198.996 174.505 201.981C173.039 205.931 170.449 208.925 167.135 210.698C166.941 220.169 158.053 225.278 149.679 225.278C141.235 225.278 132.272 220.173 132.075 210.706C128.755 208.929 126.161 205.935 124.693 201.981C123.629 199.111 122.912 195.934 122.426 192.925L119.06 223.798L112.698 219.248L117.293 176.903C113.842 172.459 109.763 166.915 108.702 164.23C107.001 159.937 109.167 137.966 110.301 127.851L103.207 109.301V108.696C103.207 98.3991 118.7 69.8989 120.459 66.6825L125.476 57.6528C128.531 78.5738 130.058 89.0436 130.056 89.0622L132.526 106.015L135.777 111.266C138.9 110.23 144.202 108.792 149.571 108.792C154.946 108.792 160.284 110.235 163.421 111.269L166.67 106.016L173.709 57.6528L178.623 66.6825ZM149.679 218.547C153.385 218.547 158.664 216.9 159.982 212.535C159.84 212.539 159.704 212.55 159.562 212.55C158.841 212.55 158.167 212.484 157.513 212.396C155.601 215.008 152.622 215.801 149.605 215.801C146.593 215.801 143.62 215.001 141.712 212.393C141.053 212.485 140.371 212.55 139.644 212.55C139.505 212.55 139.371 212.539 139.235 212.535C140.566 216.9 145.916 218.547 149.679 218.547ZM145.338 211.372C146.487 212.218 147.908 212.688 149.607 212.688C151.298 212.688 152.712 212.214 153.86 211.372C152.944 210.972 152.116 210.495 151.385 209.975C150.724 210.168 150.092 210.163 149.604 210.163C149.114 210.163 148.475 210.163 147.809 209.971C147.08 210.495 146.253 210.972 145.338 211.372ZM171.675 178.803C176.229 173.248 183.085 164.3 184.078 161.796C184.827 159.218 183.55 142.126 181.924 127.8L181.834 127.006L183.178 123.447C178.748 118.808 175.657 112.451 173.545 106.448L173.271 108.334L166.276 119.626L163.544 118.482C163.477 118.454 156.345 115.521 149.576 115.521C142.762 115.521 135.746 118.451 135.677 118.48L132.941 119.633L125.938 108.336L125.731 106.889C123.596 112.834 120.502 119.079 116.093 123.617L117.376 127.009L117.287 127.804C115.66 142.126 114.383 159.218 115.157 161.861C116.125 164.304 122.981 173.252 127.533 178.803L128.293 179.731L128.289 180.919C128.289 181.031 128.302 192.021 131.142 199.669C133.203 205.217 137.777 205.81 139.65 205.81C144.359 205.81 146.351 201.566 146.433 201.385C147.537 199.253 148.088 195.749 148.088 190.875H150.935C150.935 194.791 151.529 198.302 152.716 201.408C152.788 201.562 154.83 205.82 159.562 205.82C161.432 205.82 166.007 205.221 168.067 199.673C170.916 191.998 170.919 181.031 170.919 180.923L170.916 179.735L171.675 178.803Z" fill="#333152"/>
<path d="M170.899 148.932H160.616H157.189V149.074C157.189 153.775 161.329 157.583 166.185 157.583C171.043 157.583 175.183 153.774 175.183 149.074V148.932H170.899Z" fill="#333152"/>
<path d="M160.616 148.932V149.074C160.616 151.87 162.909 154.136 165.758 154.136C168.608 154.136 170.9 151.87 170.9 149.074V148.932H160.616Z" fill="white"/>
<path d="M164.935 148.932C164.911 148.932 164.891 148.943 164.87 148.947C165.169 149.009 165.335 149.674 165.27 150.117C165.174 150.793 164.587 151.263 163.914 151.275C164.11 152.159 164.844 152.871 165.82 153.005C167.067 153.179 168.219 152.339 168.395 151.116C168.523 150.216 168.082 148.932 167.345 148.932H164.935Z" fill="#333152"/>
<path d="M137.803 148.932H127.522H124.094V149.074C124.094 153.775 128.235 157.583 133.09 157.583C137.948 157.583 142.089 153.774 142.089 149.074V148.932H137.803Z" fill="#333152"/>
<path d="M127.522 148.932V149.074C127.522 151.87 129.816 154.136 132.662 154.136C135.513 154.136 137.804 151.87 137.804 149.074V148.932H127.522Z" fill="white"/>
<path d="M134.251 148.932H131.839C131.818 148.932 131.795 148.943 131.776 148.947C132.074 149.009 132.239 149.674 132.176 150.117C132.079 150.793 131.495 151.263 130.818 151.275C131.016 152.159 131.751 152.871 132.725 153.005C133.971 153.179 135.125 152.339 135.299 151.116C135.428 150.216 134.988 148.932 134.251 148.932Z" fill="#333152"/>
<path d="M169.864 144.919C170.44 144.299 175.327 138.855 168.791 138.855C162.885 138.855 158.635 143.534 157.509 144.919H169.864Z" fill="#C49A7E"/>
<path d="M141.671 144.919C140.546 143.534 136.297 138.855 130.389 138.855C123.856 138.855 128.743 144.299 129.315 144.919H141.671Z" fill="#D8B7A0"/>
<path d="M110.25 108.148C110.638 102.807 116.298 90.01 121.697 79.2251L123.136 89.086C122.587 92.773 120.079 107.233 113.35 116.347L110.25 108.148Z" fill="#D8B7A0"/>
<path d="M176.187 88.318L177.513 79.2259C182.911 90.0099 188.575 102.808 188.963 108.149L185.935 116.153C178.665 106.12 176.384 89.8087 176.187 88.318Z" fill="#C49A7E"/>
<mask id="mask0_326_86" style="mask-type:alpha" maskUnits="userSpaceOnUse" x="139" y="185" width="21" height="16">
<path d="M144.563 196.864C142.028 194.975 139.427 192.592 139.427 190.764C139.427 189.564 141.589 185.863 141.589 185.863H157.672C157.672 185.863 159.782 189.144 159.782 190.764C159.782 192.467 157.156 194.784 154.537 196.673C153.645 195.165 152.51 194.903 151.986 196.092C151.716 196.707 151.662 197.593 151.794 198.521C150.368 199.426 149.325 200.009 149.325 200.009C149.325 200.009 148.52 199.547 147.369 198.804C147.555 197.776 147.519 196.769 147.22 196.092C146.692 194.888 145.534 195.173 144.636 196.734C144.611 196.777 144.587 196.82 144.563 196.864Z" fill="white"/>
</mask>
<g mask="url(#mask0_326_86)">
<path d="M144.563 196.864C142.028 194.975 139.427 192.592 139.427 190.764C139.427 189.564 141.589 185.863 141.589 185.863H157.672C157.672 185.863 159.782 189.144 159.782 190.764C159.782 192.467 157.156 194.784 154.537 196.673C153.645 195.165 152.51 194.903 151.986 196.092C151.716 196.707 151.662 197.593 151.794 198.521C150.368 199.426 149.325 200.009 149.325 200.009C149.325 200.009 148.52 199.547 147.369 198.804C147.555 197.776 147.519 196.769 147.22 196.092C146.692 194.888 145.534 195.173 144.636 196.734C144.611 196.777 144.587 196.82 144.563 196.864Z" fill="#333152"/>
</g>
</g>
<defs>
<clipPath id="clip0_326_86">
<rect width="300" height="300" fill="white"/>
</clipPath>
</defs>
</svg>
