<svg width="300" height="300" viewBox="0 0 300 300" fill="none" xmlns="http://www.w3.org/2000/svg">
<g clip-path="url(#clip0_326_86)">
<circle cx="150" cy="150" r="150" fill="#FEFEFE"/>
<path d="M224.834 80.8143C225.432 82.9052 227.373 90.5221 229.315 97.6909L244.549 154.593C246.49 161.762 248.581 169.379 249.029 171.47C249.776 174.606 248.88 177.892 246.639 180.132L234.243 192.528L192.724 234.048C187.497 239.574 182.12 245.1 180.328 246.444C177.938 248.535 174.653 249.431 171.666 248.833L154.789 244.353L97.8866 229.119L81.01 224.639C79.5165 224.191 78.1723 223.444 76.9775 222.249C75.7827 221.204 75.036 219.71 74.5879 218.217C73.9905 216.126 72.0489 208.509 70.1074 201.34L54.8736 144.438L50.3931 127.561L52.6334 126.814L54.8736 126.217C55.471 128.308 57.4126 135.925 59.3542 143.093L74.5879 200.145C76.5295 207.314 78.6204 214.931 79.0684 217.022C79.3671 217.769 79.8152 218.366 80.2632 218.963C80.8606 219.561 81.458 220.009 82.2048 220.158L99.0813 224.639L155.984 239.872L172.86 244.353C174.354 244.652 175.997 244.204 177.192 243.158L189.588 230.762L231.256 189.093L243.652 176.697C244.698 175.502 244.997 173.86 244.847 172.366C244.25 170.275 242.308 162.658 240.367 155.49L224.984 98.8857C223.042 91.7169 220.951 84.1001 220.503 82.0092C220.204 81.2624 219.756 80.665 219.308 80.0676C218.711 79.4702 218.114 79.0221 217.367 78.8728L200.49 74.2429L143.737 59.0092L126.711 54.5287C125.218 54.23 123.575 54.678 122.38 55.7235L109.984 68.1196L68.3152 109.788L55.9191 122.184C54.8737 123.379 54.4256 125.022 54.7243 126.516L52.484 126.964L50.2438 127.561C49.497 124.425 50.3931 121.139 52.6334 118.899L65.0295 106.503L106.698 64.9832L119.094 52.5871C121.484 50.3469 124.77 49.6001 127.757 50.1975L144.633 54.678L201.536 69.9118L218.412 74.3923C219.906 74.8403 221.25 75.7364 222.445 76.7819C223.64 77.9767 224.386 79.3208 224.834 80.8143Z" fill="#00A6B4"/>
<path d="M153.445 65.73L165.841 72.8988L207.958 97.2429L220.503 104.412C222.743 105.756 224.087 108.145 224.237 110.834V125.171V188.197C224.087 190.886 222.743 193.275 220.503 194.619L208.107 201.788L165.841 226.132L153.445 233.301C152.25 233.898 151.055 234.197 149.711 234.197C148.367 234.197 147.172 233.898 145.977 233.301L133.581 226.132L91.315 201.788L78.9189 194.619L79.815 192.976L80.7111 191.334L93.1072 198.502L135.224 222.847L147.769 230.015C148.367 230.314 148.964 230.463 149.562 230.463C150.159 230.463 150.906 230.314 151.503 230.015L163.899 222.847L206.016 198.502L218.412 191.334C219.458 190.587 220.204 189.392 220.503 188.048V173.71V110.684C220.354 109.34 219.607 108.145 218.561 107.548L206.165 100.379L164.049 76.0351L151.653 68.8663C151.055 68.5676 150.458 68.4183 149.711 68.4183C149.114 68.4183 148.367 68.5676 147.919 68.8663L135.373 76.0351L93.2565 100.379L80.8604 107.548C79.815 108.295 79.0682 109.49 78.9189 110.834V125.171V188.197C79.0682 189.541 79.6656 190.587 80.8604 191.483L79.9643 193.126L79.0682 194.769C76.828 193.425 75.4838 191.035 75.3345 188.347C75.3345 186.554 75.3345 180.132 75.3345 174.009V110.983C75.4838 108.295 76.828 105.905 79.0682 104.561L91.4643 97.3922L133.73 73.0481L146.127 65.8793C147.321 65.2819 148.516 64.9832 149.86 64.9832C151.055 64.8339 152.399 65.1326 153.445 65.73Z" fill="#00A6B4"/>
<path d="M99.3799 93.9572L111.776 90.6715L153.594 79.4702L165.99 76.1845C168.23 75.7364 170.62 76.3338 172.412 77.9767L181.523 87.087L212.139 117.704L221.25 126.814C222.893 128.457 223.49 130.996 222.893 133.236C222.445 134.73 220.951 140.405 219.607 145.632L208.406 187.45C206.912 192.678 205.419 198.502 205.12 199.847C204.821 200.892 204.224 201.937 203.328 202.834C202.581 203.73 201.536 204.327 200.341 204.626L187.945 207.911L146.127 219.113L133.731 222.398L133.282 220.905L132.834 219.262L145.23 215.976L187.049 204.775L199.445 201.489C200.042 201.34 200.49 201.041 200.938 200.593C201.386 200.145 201.685 199.697 201.834 199.1L205.12 186.704L216.321 144.886C217.815 139.658 219.308 133.983 219.607 132.49C219.756 131.295 219.458 130.249 218.711 129.353L209.75 120.243L179.133 89.626L170.023 80.5156C169.127 79.7689 167.932 79.4702 166.886 79.6195L154.49 82.9052L112.672 94.2559L100.276 97.5416C99.6786 97.6909 99.2306 97.9896 98.7825 98.4377C98.3345 98.8857 98.0358 99.3338 97.8864 99.9312C97.4384 101.425 95.9449 107.1 94.6007 112.327L83.3994 153.996C82.0553 159.223 80.5618 164.899 80.1137 166.392C79.9644 167.587 80.2631 168.632 81.0098 169.528L90.1202 178.639L120.737 209.256L129.847 218.366C130.744 219.113 131.938 219.411 132.984 219.262L133.432 220.905L133.88 222.548C131.64 222.996 129.25 222.398 127.458 220.756L118.347 211.645L87.5813 180.58L78.4709 171.47C76.828 169.827 76.2306 167.438 76.6787 165.048C77.1267 163.554 78.6202 157.879 79.9644 152.652L91.1657 110.834L94.4514 98.4377C94.7501 97.3922 95.3475 96.3468 96.2436 95.4507C97.289 94.8533 98.3345 94.2559 99.3799 93.9572Z" fill="#00A6B4"/>
<path d="M88.328 211.048C54.4255 177.145 54.4255 122.184 88.328 88.1325C122.231 54.0806 177.191 54.23 211.243 88.1325C245.295 122.035 245.146 176.996 211.243 211.048C177.341 244.95 122.38 244.95 88.328 211.048ZM208.406 208.21C240.665 175.801 240.516 123.379 208.107 91.2688C175.698 59.0092 123.276 59.1585 91.1657 91.5675C59.0554 123.827 59.0554 176.1 91.315 208.36C123.575 240.769 175.997 240.619 208.406 208.21C208.406 208.36 208.406 208.36 208.406 208.21Z" fill="#00A6B4"/>
<path d="M152.549 86.639L161.809 92.0156L193.023 109.938L202.282 115.314C203.925 116.36 204.971 118.152 204.971 120.093V130.697V177.444C204.821 179.386 203.925 181.178 202.282 182.223L193.023 187.45L161.809 205.522L152.549 210.898C151.653 211.347 150.757 211.645 149.861 211.645C148.964 211.645 147.919 211.347 147.172 210.898L137.912 205.522L106.698 187.45L97.4385 182.074L98.1853 180.879L98.932 179.684L108.042 185.061L139.257 203.132L148.516 208.509C148.964 208.808 149.412 208.808 149.861 208.808C150.309 208.808 150.757 208.808 151.205 208.509L160.464 203.132L191.679 185.061L200.938 179.684C201.685 179.087 202.282 178.34 202.282 177.295V166.691V119.944C202.133 119.048 201.685 118.152 200.938 117.555L191.679 112.178L160.614 94.2559L151.354 88.8793C150.906 88.7299 150.458 88.5805 150.01 88.5805C149.562 88.5805 149.114 88.7299 148.666 88.8793L139.406 94.2559L108.192 112.178L98.932 117.555C98.1853 118.152 97.5879 119.048 97.5879 119.944V130.548V177.295C97.7372 178.191 98.1853 179.087 98.932 179.684L98.1853 180.879L97.4385 182.074C95.7957 181.028 94.7502 179.236 94.7502 177.295V166.541V119.795C94.7502 117.853 95.7957 116.061 97.4385 115.016L106.698 109.639L137.912 91.7169L147.172 86.3403C148.068 85.8922 148.964 85.5935 149.861 85.5935C150.757 86.0416 151.653 86.191 152.549 86.639Z" fill="#00A6B4"/>
<path d="M104.309 194.171C79.218 169.08 79.218 128.308 104.309 103.217C129.4 78.126 170.172 78.126 195.263 103.217C220.354 128.308 220.354 169.08 195.263 194.171C170.172 219.411 129.4 219.411 104.309 194.171ZM193.172 192.23C217.068 168.334 216.919 129.503 193.023 105.607C169.127 81.7104 130.296 81.8598 106.4 105.756C82.6531 129.652 82.6531 168.334 106.4 192.23C130.296 216.126 169.127 216.275 193.172 192.23Z" fill="#00A6B4"/>
</g>
<defs>
<clipPath id="clip0_326_86">
<rect width="300" height="300" fill="white"/>
</clipPath>
</defs>
</svg>
