<svg width="300" height="300" viewBox="0 0 300 300" fill="none" xmlns="http://www.w3.org/2000/svg">
<g clip-path="url(#clip0_326_86)">
<circle cx="150" cy="150" r="150" fill="#FEFEFE"/>
<path d="M119.967 75C78.0055 75 44 108.573 44 150C44 191.427 78.0055 225 119.967 225C161.928 225 195.934 191.427 195.934 150C195.934 130.132 187.95 111.082 173.738 97.0227C159.483 82.9227 140.146 75 119.967 75ZM119.967 195.695C88.9586 195.695 74.8701 168.805 74.8701 149.755C74.8701 130.705 88.9586 103.814 119.967 103.814C152.771 103.814 165.063 132.327 165.063 150.3C165.036 169.227 151.03 195.695 119.967 195.695ZM213.157 222.095V106.377H190.133V77.55H244V222.095H213.157Z" fill="#529DBC"/>
</g>
<defs>
<clipPath id="clip0_326_86">
<rect width="300" height="300" fill="white"/>
</clipPath>
</defs>
</svg>
