<svg width="300" height="300" viewBox="0 0 300 300" fill="none" xmlns="http://www.w3.org/2000/svg">
<g clip-path="url(#clip0_326_86)">
<circle cx="150" cy="150" r="150" fill="#FEFEFE"/>
<g clip-path="url(#clip1_326_86)">
<path d="M105.445 158.954C105.599 159.283 106.067 159.268 106.196 158.93L118.216 127.574C118.788 126.082 120.215 125.097 121.81 125.087L133.015 125.027C135.153 125.012 136.898 126.738 136.913 128.878C136.913 129.345 136.833 129.808 136.674 130.251L109.571 203.483C109.526 203.597 108.637 204.373 108.07 204.811C107.792 205.02 107.458 205.05 107.12 204.95C106.012 204.632 105.112 203.826 104.67 202.761L90.2034 167.874C89.7361 166.844 88.5231 166.387 87.4891 166.854C87.0616 167.048 86.7136 167.382 86.5048 167.804L68.3699 204.105C68.2655 204.309 68.0169 204.388 67.8181 204.289C67.7286 204.244 67.659 204.164 67.6192 204.075L39.2585 130.26C38.4879 128.261 39.4822 126.022 41.4756 125.251C41.9181 125.077 42.3953 124.992 42.8676 124.992H55.047C56.6527 124.992 58.0944 125.987 58.6611 127.485L70.6765 158.925C70.8058 159.263 71.288 159.278 71.4321 158.954L86.5744 125.972C87.0467 124.943 88.2646 124.49 89.2887 124.962C89.7361 125.166 90.094 125.525 90.2979 125.972L105.44 158.954H105.445ZM243.396 95.3283C243.307 94.8856 242.362 94.8856 242.268 95.3283C241.567 98.7609 240.105 103.944 237.356 106.695C234.607 109.446 229.427 110.909 225.997 111.61C225.554 111.705 225.554 112.65 225.997 112.74C229.427 113.446 234.607 114.909 237.356 117.655C240.945 121.251 242.183 126.161 242.606 129.111C242.641 129.3 243.227 129.325 243.262 129.141C243.903 125.977 245.375 120.6 248.313 117.66C251.062 114.909 256.242 113.446 259.672 112.74C260.114 112.65 260.114 111.705 259.672 111.61C256.242 110.909 251.062 109.446 248.313 106.695C245.564 103.944 244.102 98.7658 243.396 95.3283ZM141.158 129.305C141.158 127.156 142.893 125.425 145.031 125.425H156.738C158.886 125.425 160.616 127.161 160.616 129.3V201.05C160.616 203.189 158.876 204.925 156.738 204.925H145.031C142.893 204.925 141.158 203.189 141.158 201.05V129.3V129.305ZM194.425 145.946C194.678 145.438 194.475 144.826 193.967 144.573C193.823 144.503 193.669 144.463 193.51 144.463H170.364C168.227 144.463 166.492 142.727 166.492 140.588V129.305C166.492 127.166 168.227 125.43 170.364 125.43H223.75C225.41 125.43 227.632 126.778 226.842 128.236L195.996 185.987V185.997C195.727 186.499 195.926 187.121 196.428 187.385C196.572 187.459 196.731 187.499 196.895 187.499H225.097C227.235 187.499 228.97 189.24 228.97 191.379V201.04C228.97 203.189 227.235 204.92 225.097 204.92H168.47C166.606 204.92 166.233 202.209 167.068 200.538L194.43 145.941L194.425 145.946Z" fill="#325FE8"/>
</g>
</g>
<defs>
<clipPath id="clip0_326_86">
<rect width="300" height="300" fill="white"/>
</clipPath>
<clipPath id="clip1_326_86">
<rect width="221" height="110" fill="white" transform="translate(39 95)"/>
</clipPath>
</defs>
</svg>
