<svg width="400" height="200" viewBox="0 0 400 200" fill="none" xmlns="http://www.w3.org/2000/svg">
<g clip-path="url(#clip0_323_122)">
<path d="M165.068 86.4485C165.068 88.5134 165.281 90.1877 165.653 91.4155C166.079 92.6433 166.611 93.9827 167.356 95.4337C167.622 95.8802 167.729 96.3267 167.729 96.7173C167.729 97.2754 167.409 97.8335 166.718 98.3916L163.365 100.736C162.887 101.07 162.408 101.238 161.982 101.238C161.45 101.238 160.918 100.959 160.386 100.457C159.641 99.6194 159.002 98.7264 158.47 97.8335C157.938 96.8847 157.406 95.8244 156.821 94.5408C152.67 99.6752 147.456 102.242 141.177 102.242C136.708 102.242 133.143 100.903 130.535 98.2242C127.928 95.5453 126.598 91.9736 126.598 87.5088C126.598 82.7651 128.194 78.9142 131.44 76.0122C134.686 73.1101 138.996 71.6591 144.476 71.6591C146.285 71.6591 148.148 71.8265 150.116 72.1055C152.085 72.3846 154.107 72.8311 156.235 73.3333V69.2593C156.235 65.0178 155.384 62.0599 153.735 60.3298C152.032 58.5997 149.159 57.7626 145.061 57.7626C143.199 57.7626 141.284 57.9858 139.315 58.4881C137.346 58.9904 135.431 59.6043 133.568 60.3856C132.717 60.7763 132.078 60.9995 131.706 61.1112C131.334 61.2228 131.067 61.2786 130.855 61.2786C130.11 61.2786 129.737 60.7205 129.737 59.5485V56.8139C129.737 55.9209 129.844 55.2512 130.11 54.8605C130.376 54.4699 130.855 54.0792 131.6 53.6886C133.462 52.684 135.697 51.8469 138.304 51.1771C140.911 50.4516 143.678 50.1168 146.605 50.1168C152.936 50.1168 157.566 51.6236 160.545 54.6373C163.472 57.651 164.962 62.2273 164.962 68.3663V86.4485H165.068ZM143.465 94.9314C145.221 94.9314 147.03 94.5966 148.946 93.9269C150.861 93.2572 152.564 92.0294 154.001 90.3551C154.852 89.2947 155.49 88.1227 155.81 86.7833C156.129 85.4439 156.342 83.8254 156.342 81.9279V79.5839C154.799 79.1933 153.149 78.8584 151.447 78.6352C149.744 78.412 148.094 78.3003 146.445 78.3003C142.88 78.3003 140.273 79.0259 138.517 80.5327C136.761 82.0395 135.91 84.1603 135.91 86.9507C135.91 89.5738 136.548 91.5271 137.878 92.8665C139.155 94.2617 141.018 94.9314 143.465 94.9314V94.9314ZM186.192 100.959C185.234 100.959 184.596 100.791 184.17 100.401C183.745 100.066 183.372 99.2845 183.053 98.2242L170.549 55.0838C170.229 53.9676 170.07 53.2421 170.07 52.8514C170.07 51.9585 170.495 51.4562 171.347 51.4562H176.561C177.572 51.4562 178.264 51.6236 178.636 52.0143C179.062 52.3491 179.381 53.1305 179.701 54.1908L188.64 91.1364L196.94 54.1908C197.206 53.0747 197.526 52.3491 197.951 52.0143C198.377 51.6794 199.122 51.4562 200.08 51.4562H204.336C205.347 51.4562 206.039 51.6236 206.465 52.0143C206.891 52.3491 207.263 53.1305 207.476 54.1908L215.883 91.5829L225.088 54.1908C225.407 53.0747 225.78 52.3491 226.152 52.0143C226.578 51.6794 227.27 51.4562 228.227 51.4562H233.176C234.027 51.4562 234.506 51.9027 234.506 52.8514C234.506 53.1305 234.453 53.4095 234.4 53.7444C234.346 54.0792 234.24 54.5257 234.027 55.1396L221.204 98.28C220.885 99.3962 220.512 100.122 220.086 100.457C219.661 100.791 218.969 101.015 218.064 101.015H213.488C212.477 101.015 211.786 100.847 211.36 100.457C210.934 100.066 210.562 99.3403 210.349 98.2242L202.102 62.2273L193.907 98.1684C193.641 99.2845 193.322 100.01 192.897 100.401C192.471 100.791 191.726 100.959 190.768 100.959H186.192V100.959ZM254.566 102.466C251.799 102.466 249.032 102.131 246.372 101.461C243.711 100.791 241.636 100.066 240.253 99.2287C239.401 98.7264 238.816 98.1684 238.603 97.6661C238.39 97.1638 238.284 96.6057 238.284 96.1034V93.2572C238.284 92.0852 238.71 91.5271 239.508 91.5271C239.827 91.5271 240.146 91.5829 240.466 91.6945C240.785 91.8061 241.264 92.0294 241.796 92.2526C243.605 93.0897 245.574 93.7594 247.649 94.2059C249.777 94.6524 251.852 94.8756 253.981 94.8756C257.333 94.8756 259.94 94.2617 261.749 93.0339C263.558 91.8061 264.516 90.0202 264.516 87.7321C264.516 86.1694 264.037 84.8858 263.079 83.8254C262.122 82.7651 260.313 81.8163 257.705 80.9234L249.99 78.412C246.106 77.1284 243.232 75.2308 241.476 72.7194C239.721 70.2638 238.816 67.5292 238.816 64.6271C238.816 62.2831 239.295 60.2182 240.253 58.4323C241.21 56.6464 242.487 55.0838 244.084 53.856C245.68 52.5724 247.489 51.6236 249.618 50.9539C251.746 50.2842 253.981 50.0052 256.322 50.0052C257.492 50.0052 258.716 50.061 259.887 50.2284C261.111 50.3958 262.228 50.6191 263.345 50.8423C264.41 51.1213 265.421 51.4004 266.378 51.7352C267.336 52.0701 268.081 52.4049 268.613 52.7398C269.358 53.1863 269.89 53.6327 270.209 54.135C270.529 54.5815 270.688 55.1954 270.688 55.9767V58.5997C270.688 59.7717 270.263 60.3856 269.465 60.3856C269.039 60.3856 268.347 60.1624 267.443 59.7159C264.41 58.2649 261.004 57.5394 257.226 57.5394C254.193 57.5394 251.799 58.0417 250.15 59.102C248.5 60.1624 247.649 61.7809 247.649 64.069C247.649 65.6317 248.181 66.9711 249.245 68.0315C250.309 69.0918 252.278 70.1522 255.098 71.101L262.654 73.6124C266.485 74.896 269.252 76.6819 270.901 78.97C272.551 81.2582 273.349 83.8812 273.349 86.7833C273.349 89.1831 272.87 91.3597 271.965 93.2572C271.008 95.1547 269.731 96.8289 268.081 98.1684C266.432 99.5636 264.463 100.568 262.175 101.294C259.78 102.075 257.28 102.466 254.566 102.466V102.466Z" fill="#FEFEFE"/>
<path d="M264.623 129.589C247.117 143.15 221.683 150.35 199.814 150.35C169.165 150.35 141.55 138.463 120.692 118.706C119.042 117.143 120.532 115.023 122.501 116.251C145.061 129.98 172.89 138.295 201.676 138.295C221.097 138.295 242.434 134.054 262.068 125.347C264.995 123.952 267.496 127.357 264.623 129.589Z" fill="#FF9900"/>
<path d="M271.912 120.883C269.677 117.869 257.12 119.432 251.427 120.157C249.724 120.38 249.458 118.818 251.001 117.646C261.004 110.279 277.446 112.4 279.361 114.855C281.277 117.367 278.829 134.612 269.465 142.871C268.028 144.155 266.644 143.485 267.283 141.811C269.411 136.286 274.147 123.841 271.912 120.883V120.883Z" fill="#FF9900"/>
</g>
<defs>
<clipPath id="clip0_323_122">
<rect width="160" height="100.355" fill="white" transform="translate(120 50)"/>
</clipPath>
</defs>
</svg>
