<svg width="400" height="200" viewBox="0 0 400 200" fill="none" xmlns="http://www.w3.org/2000/svg">
<path d="M181.18 47.0028H214.181L179.923 148.566C179.747 149.085 179.492 149.573 179.167 150.013C178.842 150.454 178.45 150.84 178.006 151.159C177.561 151.479 177.07 151.727 176.549 151.894C176.027 152.061 175.484 152.148 174.937 152.148H149.254C148.42 152.148 147.598 151.95 146.856 151.568C146.114 151.187 145.473 150.634 144.987 149.956C144.5 149.278 144.182 148.494 144.058 147.668C143.934 146.843 144.009 146 144.276 145.209L176.193 50.5816C176.367 50.0629 176.623 49.575 176.949 49.1344C177.274 48.6939 177.667 48.3077 178.11 47.9884C178.555 47.6692 179.046 47.421 179.567 47.2537C180.088 47.0864 180.632 47 181.179 47V47.0014L181.18 47.0028Z" fill="url(#paint0_linear_323_123)"/>
<path d="M242.015 152.148H212.382C212.052 152.148 211.722 152.117 211.395 152.054C211.071 151.993 210.751 151.901 210.443 151.78C210.135 151.658 209.84 151.508 209.559 151.332C209.279 151.155 209.017 150.953 208.774 150.727L175.148 119.323C174.792 118.991 174.544 118.559 174.437 118.085C174.329 117.61 174.367 117.114 174.545 116.661C174.723 116.208 175.034 115.82 175.436 115.546C175.839 115.273 176.315 115.126 176.801 115.126H229.132L242.012 152.149L242.015 152.148Z" fill="#0078D4"/>
<path d="M214.299 47.0028L191.198 115.133L228.943 115.125L241.891 152.148H212.37C212.065 152.145 211.759 152.117 211.458 152.063C211.157 152.008 210.861 151.929 210.574 151.823C209.998 151.613 209.463 151.306 208.99 150.915L186.291 129.73L179.936 148.47C179.772 148.938 179.546 149.383 179.264 149.792C178.7 150.613 177.928 151.271 177.027 151.697C176.578 151.91 176.103 152.061 175.615 152.148H149.269C148.427 152.151 147.596 151.95 146.848 151.562C146.099 151.175 145.455 150.613 144.969 149.924C144.483 149.235 144.17 148.44 144.057 147.604C143.944 146.769 144.033 145.918 144.317 145.124L176.183 50.6527C176.349 50.1243 176.599 49.6266 176.922 49.1776C177.244 48.7287 177.637 48.3328 178.084 48.0066C178.53 47.6803 179.026 47.4266 179.552 47.2565C180.077 47.0864 180.628 47 181.181 47.0028H214.301H214.299Z" fill="url(#paint1_linear_323_123)"/>
<path d="M255.248 145.209C255.515 146 255.59 146.843 255.467 147.668C255.343 148.494 255.025 149.278 254.54 149.956C254.054 150.634 253.413 151.186 252.671 151.567C251.929 151.948 251.107 152.147 250.273 152.148H213.492C214.326 152.148 215.148 151.948 215.892 151.568C216.633 151.187 217.275 150.634 217.761 149.956C218.248 149.279 218.566 148.494 218.69 147.668C218.814 146.843 218.738 146 218.472 145.209L186.553 50.5788C186.202 49.5363 185.532 48.6304 184.639 47.9884C184.196 47.6692 183.705 47.4224 183.185 47.2551C182.665 47.0878 182.121 47.0028 181.576 47.0028H218.355C218.901 47.0028 219.444 47.0878 219.965 47.2551C220.485 47.4224 220.976 47.6706 221.421 47.9884C221.864 48.3077 222.256 48.6939 222.581 49.133C222.905 49.5722 223.159 50.0601 223.335 50.5788L255.254 145.209H255.248Z" fill="url(#paint2_linear_323_123)"/>
<defs>
<linearGradient id="paint0_linear_323_123" x1="193.224" y1="54.7961" x2="158.928" y2="156.109" gradientUnits="userSpaceOnUse">
<stop stop-color="#114A8B"/>
<stop offset="1" stop-color="#0669BC"/>
</linearGradient>
<linearGradient id="paint1_linear_323_123" x1="203.917" y1="102.002" x2="195.984" y2="104.692" gradientUnits="userSpaceOnUse">
<stop stop-opacity="0.3"/>
<stop offset="0.1" stop-opacity="0.2"/>
<stop offset="0.3" stop-opacity="0.1"/>
<stop offset="0.6" stop-opacity="0.1"/>
<stop offset="1" stop-opacity="0"/>
</linearGradient>
<linearGradient id="paint2_linear_323_123" x1="199.54" y1="51.8405" x2="237.182" y2="152.121" gradientUnits="userSpaceOnUse">
<stop stop-color="#3CCBF4"/>
<stop offset="1" stop-color="#2892DF"/>
</linearGradient>
</defs>
</svg>
