<svg width="400" height="200" viewBox="0 0 400 200" fill="none" xmlns="http://www.w3.org/2000/svg">
<g clip-path="url(#clip0_323_122)">
<path d="M385.787 109.144H379.361L376.148 114.694L379.361 120.243H385.787L389 114.694L385.787 109.144ZM372.242 89.6577H364.241L358.634 99.3063C357.941 100.315 357.689 100.946 356.114 101.009H352.271V79.6306H345.089V120.243H352.271V107.568H355.421C356.933 107.631 357.248 108.198 357.815 109.144L364.178 120.243H372.242L363.422 104.919L372.242 89.6577ZM339.86 92.5586C338.726 91.6757 337.529 90.9189 336.206 90.3514C334.19 89.4685 332.048 89.027 329.843 89.027C327.008 89.027 324.173 89.7838 321.716 91.2342C319.259 92.6216 317.18 94.6396 315.731 97.0991C314.282 99.4955 313.463 102.207 313.463 104.982C313.463 107.757 314.219 110.532 315.731 112.928C317.18 115.387 319.259 117.405 321.716 118.793C326.189 121.378 331.607 121.694 336.332 119.613C337.592 119.045 338.852 118.288 339.923 117.405L336.71 111.793C335.828 112.739 334.82 113.495 333.686 114C332.489 114.568 331.166 114.883 329.906 114.883C328.268 114.883 326.693 114.441 325.307 113.559C323.921 112.676 322.724 111.414 321.968 109.964C321.149 108.45 320.708 106.748 320.708 105.045C320.708 103.342 321.149 101.64 321.968 100.189C322.724 98.7387 323.921 97.4775 325.307 96.5946C326.693 95.7117 328.268 95.2703 329.906 95.2703C332.489 95.2703 334.946 96.4054 336.647 98.2973L339.104 94.009L339.86 92.5586ZM295.571 88.964C291.728 88.964 287.696 90.036 283.412 92.1802L286.184 97.036C288.704 95.8378 291.35 94.8919 294.122 94.8919C299.225 94.8919 301.115 97.5405 301.43 101.009H293.051C286.184 101.009 280.577 105.171 280.577 111.162C280.577 117.153 285.491 120.937 291.98 120.937C295.508 120.937 299.162 119.613 301.43 116.775V120.243H308.675V101.892C308.675 94.1351 303.635 88.964 295.571 88.964ZM301.43 109.775C301.43 112.676 298.532 115.703 293.618 115.703C290.216 115.703 287.633 113.874 287.633 110.973C287.633 108.072 290.531 106.18 294.122 106.18H301.43V109.775ZM268.103 79.6306H275.285V120.243H268.103V79.6306ZM255.062 98.8018C258.842 96.7838 260.795 93.7568 260.795 89.8468C260.795 88.018 260.291 86.1892 259.283 84.6126C258.212 83.036 256.763 81.7748 255.062 80.955C253.235 80.0721 251.219 79.6306 248.888 79.6937H229.169V120.243H249.644C252.101 120.18 254.369 119.739 256.322 118.793C258.212 117.91 259.787 116.586 260.921 114.883C262.055 113.18 262.622 111.225 262.559 109.207C262.559 107.063 261.866 104.982 260.606 103.216C259.22 101.387 257.393 99.9369 255.062 98.8018ZM236.225 86.0631H246.998C248.825 86.0631 250.274 86.5045 251.471 87.4505C252.605 88.2703 253.235 89.6577 253.235 91.045C253.235 92.4324 252.668 93.6306 251.471 94.5766C250.274 95.5225 248.825 95.964 246.998 95.964H236.225V86.0631ZM252.983 112.234C251.723 113.306 250.085 113.874 248.069 113.874H236.225V102.333H248.069C250.085 102.333 251.723 102.901 252.983 103.973C255.251 105.928 255.566 109.396 253.613 111.667C253.487 111.793 253.235 112.045 252.983 112.234ZM201.575 90.5405C199.811 89.5315 197.732 89.027 195.716 89.027C193.826 89.027 191.936 89.4685 190.235 90.3514C188.66 91.1712 187.274 92.3694 186.266 93.8198V89.6577H179.084V120.243H186.266V100.946C186.518 99.3063 187.4 97.7928 188.723 96.8468C190.109 95.7117 191.873 95.1441 193.637 95.2072C195.527 95.2072 197.039 95.8378 198.236 97.1622C199.433 98.4865 200.063 100.189 200 102.27V120.306H206.93V100.883C206.993 98.7387 206.489 96.6577 205.481 94.7658C204.662 92.9369 203.276 91.4865 201.575 90.5405ZM166.673 91.2342C161.633 88.3333 155.459 88.3333 150.482 91.2342C148.025 92.6216 145.946 94.6396 144.497 97.0991C143.048 99.4955 142.229 102.207 142.229 104.982C142.229 107.757 142.985 110.532 144.497 112.928C145.946 115.387 148.025 117.405 150.482 118.793C155.522 121.694 161.696 121.694 166.673 118.793C169.13 117.342 171.209 115.324 172.658 112.928C174.107 110.532 174.926 107.82 174.926 104.982C174.926 102.144 174.17 99.4324 172.658 97.0991C171.209 94.6396 169.13 92.6216 166.673 91.2342ZM166.547 109.901C165.728 111.351 164.594 112.613 163.145 113.495C161.759 114.378 160.184 114.82 158.546 114.82C156.908 114.82 155.333 114.378 153.947 113.495C152.498 112.613 151.364 111.351 150.545 109.901C149.726 108.387 149.285 106.685 149.285 104.982C149.285 103.279 149.726 101.577 150.545 100.126C151.364 98.6757 152.561 97.4144 153.947 96.5315C155.333 95.6486 156.908 95.2072 158.546 95.2072C160.184 95.2072 161.759 95.6486 163.145 96.5315C166.043 98.3604 167.807 101.577 167.807 104.982C167.87 106.685 167.429 108.387 166.547 109.901ZM131.645 91.045C129.503 89.6577 126.983 88.964 124.463 89.027C120.242 88.964 116.21 91.045 113.879 94.5766V79.6937H106.697V120.306H113.879V115.387C116.21 118.919 120.242 121 124.463 120.937C126.983 121 129.503 120.243 131.645 118.919C133.787 117.532 135.551 115.577 136.622 113.243C137.882 110.658 138.512 107.82 138.512 104.982C138.512 102.144 137.882 99.3063 136.622 96.7838C135.551 94.4505 133.787 92.4324 131.645 91.045ZM128.81 112.045C127.172 113.874 125.03 114.82 122.51 114.82C119.99 114.82 117.911 113.874 116.336 112.045C114.698 110.216 113.879 107.82 113.879 104.982C113.879 102.144 114.761 99.7477 116.336 97.9189C117.911 96.0901 119.99 95.1441 122.51 95.1441C125.03 95.1441 127.172 96.0901 128.81 97.9189C130.448 99.7477 131.267 102.081 131.267 104.982C131.33 107.82 130.448 110.216 128.81 112.045ZM90.38 94.6396V89.7207H83.198V120.306H90.38V105.55C90.38 102.649 91.388 100.315 93.404 98.5496C95.42 96.7838 98.066 96.0901 101.279 96.0901V89.7207C98.003 89.6577 92.585 92.0541 90.38 94.6396ZM64.739 88.964C60.896 88.964 56.864 90.036 52.58 92.1802L55.352 97.036C57.872 95.8378 60.518 94.8919 63.29 94.8919C68.393 94.8919 70.283 97.5405 70.598 101.009H62.219C55.352 101.009 49.745 105.171 49.745 111.162C49.745 117.153 54.659 120.937 61.148 120.937C64.676 120.937 68.33 119.613 70.598 116.775V120.243H77.843V101.892C77.843 94.1351 72.803 88.964 64.739 88.964ZM70.598 109.775C70.598 112.676 67.7 115.703 62.786 115.703C59.384 115.703 56.801 113.874 56.801 110.973C56.801 108.072 59.699 106.18 63.29 106.18H70.598V109.775ZM42.374 109.775C36.956 115.324 28.073 115.514 22.529 110.09C16.985 104.667 16.796 95.7748 22.214 90.2252C27.632 84.6757 36.515 84.4865 42.059 89.9099C42.185 90.036 42.248 90.0991 42.374 90.2252L45.902 84.1081C42.059 80.8288 37.145 79 32.105 79C20.45 79 11 88.3964 11 100C11 111.604 20.45 121 32.105 121C37.145 121 42.059 119.234 45.902 115.955L42.374 109.775Z" fill="#FEFEFE"/>
</g>
<defs>
<clipPath id="clip0_323_122">
<rect width="378" height="42" fill="white" transform="translate(11 79)"/>
</clipPath>
</defs>
</svg>
