<svg width="400" height="200" viewBox="0 0 400 200" fill="none" xmlns="http://www.w3.org/2000/svg">
<path fill-rule="evenodd" clip-rule="evenodd" d="M18.949 92.2395L15.517 92.5035L4 92.064L7.1845 77.0055L18.949 92.2395V92.2395Z" fill="#3C4929"/>
<path fill-rule="evenodd" clip-rule="evenodd" d="M18.949 106.245L15.517 105.981L4 106.42L7.1845 121.479L18.949 106.245Z" fill="#B7CA9D"/>
<path fill-rule="evenodd" clip-rule="evenodd" d="M7.1845 106.712L4 106.419V120.57L7.1845 121.478V106.712V106.712Z" fill="#4B612C"/>
<path fill-rule="evenodd" clip-rule="evenodd" d="M18.9488 120.028L7.18433 121.477V106.726L18.9488 106.243V120.028V120.028Z" fill="#759C3E"/>
<path fill-rule="evenodd" clip-rule="evenodd" d="M40.5145 107.401L31.054 106.713L14.512 107.503L23.3695 134.445L40.5145 107.401Z" fill="#B7CA9D"/>
<path fill-rule="evenodd" clip-rule="evenodd" d="M7.1845 91.7565L4 92.064V77.913L7.1845 77.0055V91.7565Z" fill="#4B612C"/>
<path fill-rule="evenodd" clip-rule="evenodd" d="M18.9488 78.4545L7.18433 77.0055V91.7415L18.9488 92.2395V78.4545V78.4545Z" fill="#759C3E"/>
<path fill-rule="evenodd" clip-rule="evenodd" d="M40.5145 91.083L31.054 91.7565L14.512 90.981L23.3695 64.083L40.5145 91.083V91.083Z" fill="#3C4929"/>
<path fill-rule="evenodd" clip-rule="evenodd" d="M14.512 66.936L23.3695 64.083V90.132L14.512 90.981V66.936Z" fill="#4B612C"/>
<path fill-rule="evenodd" clip-rule="evenodd" d="M40.5159 67.6095L23.3708 64.083V90.132L40.5159 91.083V67.6095Z" fill="#759C3E"/>
<path fill-rule="evenodd" clip-rule="evenodd" d="M14.512 131.342L23.3695 134.444V108.351L14.512 107.502V131.342Z" fill="#4B612C"/>
<path fill-rule="evenodd" clip-rule="evenodd" d="M40.5159 131.093L23.3708 134.444V108.351L40.5159 107.4V131.093Z" fill="#759C3E"/>
<path fill-rule="evenodd" clip-rule="evenodd" d="M34.3003 148.493L56.4838 159L108.474 99L56.4838 39L34.3003 49.5075V148.493V148.493Z" fill="#4B612C"/>
<path fill-rule="evenodd" clip-rule="evenodd" d="M109 134.151L56.4849 159V39L109 63.849V134.151Z" fill="#759C3E"/>
<path d="M155.131 89H150.33L164.216 51.1818H168.943L182.83 89H178.028L166.727 57.1648H166.432L155.131 89ZM156.903 74.2273H176.256V78.2898H156.903V74.2273ZM192.644 89L182.303 51.1818H186.957L194.86 81.983H195.229L203.281 51.1818H208.451L216.502 81.983H216.871L224.775 51.1818H229.428L219.087 89H214.36L206.013 58.8636H205.718L197.371 89H192.644ZM255.816 60.6364C255.594 58.7652 254.696 57.3125 253.12 56.2784C251.544 55.2443 249.612 54.7273 247.322 54.7273C245.647 54.7273 244.183 54.9981 242.927 55.5398C241.683 56.0814 240.711 56.8262 240.009 57.7741C239.32 58.7221 238.975 59.7992 238.975 61.0057C238.975 62.0151 239.215 62.883 239.695 63.6094C240.188 64.3234 240.816 64.9205 241.579 65.4006C242.342 65.8684 243.142 66.2562 243.979 66.5639C244.817 66.8594 245.586 67.0994 246.288 67.2841L250.129 68.3182C251.113 68.5767 252.209 68.9337 253.415 69.3892C254.634 69.8447 255.798 70.4664 256.906 71.2543C258.026 72.0298 258.949 73.027 259.675 74.2457C260.402 75.4645 260.765 76.9602 260.765 78.733C260.765 80.7765 260.229 82.6231 259.158 84.2727C258.1 85.9223 256.549 87.2334 254.505 88.206C252.474 89.1785 250.005 89.6648 247.1 89.6648C244.392 89.6648 242.047 89.2277 240.065 88.3537C238.095 87.4796 236.544 86.2609 235.411 84.6974C234.291 83.134 233.657 81.3182 233.509 79.25H238.237C238.36 80.678 238.84 81.8598 239.677 82.7955C240.526 83.7187 241.597 84.4081 242.89 84.8636C244.195 85.3068 245.598 85.5284 247.1 85.5284C248.848 85.5284 250.418 85.2453 251.809 84.679C253.2 84.1004 254.302 83.3002 255.114 82.2784C255.927 81.2443 256.333 80.0379 256.333 78.6591C256.333 77.4034 255.982 76.3816 255.281 75.5938C254.579 74.8059 253.656 74.1657 252.511 73.6733C251.366 73.1809 250.129 72.75 248.799 72.3807L244.146 71.0511C241.191 70.2017 238.852 68.9891 237.129 67.4134C235.405 65.8376 234.543 63.7756 234.543 61.2273C234.543 59.1098 235.116 57.2633 236.261 55.6875C237.418 54.0994 238.969 52.8684 240.914 51.9943C242.871 51.108 245.057 50.6648 247.469 50.6648C249.907 50.6648 252.074 51.1018 253.969 51.9759C255.865 52.8376 257.367 54.0194 258.475 55.5213C259.595 57.0232 260.186 58.7282 260.248 60.6364H255.816ZM184.011 123H179.432C179.161 121.683 178.687 120.526 178.01 119.528C177.345 118.531 176.533 117.694 175.572 117.017C174.625 116.328 173.572 115.811 172.415 115.466C171.258 115.121 170.051 114.949 168.795 114.949C166.506 114.949 164.431 115.527 162.572 116.685C160.726 117.842 159.255 119.547 158.159 121.8C157.076 124.053 156.534 126.816 156.534 130.091C156.534 133.366 157.076 136.129 158.159 138.382C159.255 140.635 160.726 142.34 162.572 143.497C164.431 144.654 166.506 145.233 168.795 145.233C170.051 145.233 171.258 145.061 172.415 144.716C173.572 144.371 174.625 143.86 175.572 143.183C176.533 142.494 177.345 141.651 178.01 140.653C178.687 139.644 179.161 138.487 179.432 137.182H184.011C183.667 139.115 183.039 140.844 182.128 142.371C181.217 143.897 180.084 145.196 178.73 146.267C177.376 147.326 175.856 148.132 174.169 148.686C172.495 149.24 170.704 149.517 168.795 149.517C165.57 149.517 162.702 148.729 160.19 147.153C157.679 145.578 155.703 143.337 154.263 140.432C152.822 137.527 152.102 134.08 152.102 130.091C152.102 126.102 152.822 122.655 154.263 119.75C155.703 116.845 157.679 114.604 160.19 113.028C162.702 111.453 165.57 110.665 168.795 110.665C170.704 110.665 172.495 110.942 174.169 111.496C175.856 112.05 177.376 112.862 178.73 113.933C180.084 114.992 181.217 116.285 182.128 117.811C183.039 119.325 183.667 121.055 184.011 123ZM195.179 111.182V149H190.821V111.182H195.179ZM214.683 149.591C212.123 149.591 209.876 148.982 207.943 147.763C206.023 146.544 204.521 144.839 203.438 142.648C202.366 140.456 201.831 137.896 201.831 134.966C201.831 132.011 202.366 129.432 203.438 127.229C204.521 125.025 206.023 123.314 207.943 122.095C209.876 120.876 212.123 120.267 214.683 120.267C217.244 120.267 219.484 120.876 221.405 122.095C223.338 123.314 224.839 125.025 225.911 127.229C226.994 129.432 227.536 132.011 227.536 134.966C227.536 137.896 226.994 140.456 225.911 142.648C224.839 144.839 223.338 146.544 221.405 147.763C219.484 148.982 217.244 149.591 214.683 149.591ZM214.683 145.676C216.628 145.676 218.229 145.178 219.484 144.18C220.74 143.183 221.67 141.872 222.273 140.247C222.876 138.622 223.178 136.862 223.178 134.966C223.178 133.07 222.876 131.304 222.273 129.666C221.67 128.029 220.74 126.705 219.484 125.696C218.229 124.687 216.628 124.182 214.683 124.182C212.738 124.182 211.138 124.687 209.882 125.696C208.626 126.705 207.697 128.029 207.094 129.666C206.491 131.304 206.189 133.07 206.189 134.966C206.189 136.862 206.491 138.622 207.094 140.247C207.697 141.872 208.626 143.183 209.882 144.18C211.138 145.178 212.738 145.676 214.683 145.676ZM252.063 137.403V120.636H256.421V149H252.063V144.199H251.767C251.103 145.639 250.069 146.864 248.665 147.874C247.262 148.871 245.489 149.369 243.347 149.369C241.574 149.369 239.998 148.982 238.62 148.206C237.241 147.418 236.158 146.236 235.37 144.661C234.582 143.072 234.188 141.072 234.188 138.659V120.636H238.546V138.364C238.546 140.432 239.124 142.081 240.282 143.312C241.451 144.544 242.941 145.159 244.75 145.159C245.834 145.159 246.935 144.882 248.056 144.328C249.188 143.774 250.136 142.925 250.9 141.78C251.675 140.635 252.063 139.176 252.063 137.403ZM275.113 149.591C272.749 149.591 270.663 148.994 268.853 147.8C267.043 146.593 265.628 144.894 264.606 142.703C263.584 140.5 263.073 137.896 263.073 134.892C263.073 131.913 263.584 129.328 264.606 127.136C265.628 124.945 267.049 123.252 268.871 122.058C270.693 120.864 272.799 120.267 275.187 120.267C277.033 120.267 278.492 120.575 279.563 121.19C280.647 121.794 281.471 122.483 282.038 123.259C282.616 124.022 283.066 124.65 283.386 125.142H283.755V111.182H288.113V149H283.903V144.642H283.386C283.066 145.159 282.61 145.812 282.019 146.599C281.428 147.375 280.585 148.071 279.489 148.686C278.394 149.289 276.935 149.591 275.113 149.591ZM275.704 145.676C277.452 145.676 278.929 145.221 280.136 144.31C281.342 143.386 282.259 142.112 282.887 140.487C283.515 138.85 283.829 136.96 283.829 134.818C283.829 132.701 283.521 130.848 282.906 129.26C282.29 127.66 281.379 126.416 280.173 125.53C278.966 124.631 277.477 124.182 275.704 124.182C273.857 124.182 272.318 124.656 271.087 125.604C269.869 126.539 268.951 127.813 268.336 129.426C267.733 131.027 267.431 132.824 267.431 134.818C267.431 136.837 267.739 138.671 268.354 140.321C268.982 141.958 269.906 143.263 271.124 144.236C272.355 145.196 273.882 145.676 275.704 145.676ZM295.222 115.244V111.182H323.586V115.244H311.694V149H307.114V115.244H295.222ZM327.118 149V120.636H331.328V124.92H331.623C332.14 123.517 333.076 122.378 334.43 121.504C335.784 120.63 337.311 120.193 339.01 120.193C339.33 120.193 339.73 120.199 340.21 120.212C340.69 120.224 341.053 120.242 341.299 120.267V124.699C341.152 124.662 340.813 124.607 340.284 124.533C339.767 124.446 339.219 124.403 338.64 124.403C337.261 124.403 336.03 124.693 334.947 125.271C333.876 125.838 333.027 126.625 332.399 127.635C331.783 128.632 331.475 129.771 331.475 131.051V149H327.118ZM354.812 149.665C353.014 149.665 351.383 149.326 349.918 148.649C348.453 147.96 347.29 146.969 346.428 145.676C345.567 144.371 345.136 142.795 345.136 140.949C345.136 139.324 345.456 138.007 346.096 136.997C346.736 135.975 347.592 135.175 348.663 134.597C349.734 134.018 350.915 133.587 352.208 133.304C353.513 133.009 354.824 132.775 356.141 132.602C357.865 132.381 359.262 132.214 360.333 132.104C361.416 131.981 362.204 131.777 362.697 131.494C363.201 131.211 363.454 130.719 363.454 130.017V129.869C363.454 128.047 362.955 126.632 361.958 125.622C360.973 124.613 359.478 124.108 357.471 124.108C355.39 124.108 353.759 124.563 352.577 125.474C351.396 126.385 350.565 127.358 350.085 128.392L345.948 126.915C346.687 125.191 347.672 123.849 348.903 122.889C350.146 121.917 351.5 121.24 352.965 120.858C354.442 120.464 355.895 120.267 357.323 120.267C358.234 120.267 359.281 120.378 360.462 120.599C361.656 120.809 362.808 121.246 363.915 121.911C365.036 122.575 365.965 123.579 366.704 124.92C367.442 126.262 367.812 128.06 367.812 130.312V149H363.454V145.159H363.232C362.937 145.775 362.444 146.433 361.755 147.135C361.066 147.837 360.148 148.434 359.004 148.926C357.859 149.419 356.461 149.665 354.812 149.665ZM355.477 145.75C357.2 145.75 358.653 145.411 359.835 144.734C361.029 144.057 361.927 143.183 362.531 142.112C363.146 141.041 363.454 139.915 363.454 138.733V134.744C363.269 134.966 362.863 135.169 362.235 135.354C361.62 135.526 360.906 135.68 360.093 135.815C359.293 135.938 358.511 136.049 357.748 136.148C356.997 136.234 356.388 136.308 355.92 136.369C354.787 136.517 353.728 136.757 352.744 137.089C351.771 137.41 350.983 137.896 350.38 138.548C349.789 139.188 349.494 140.062 349.494 141.17C349.494 142.685 350.054 143.83 351.174 144.605C352.307 145.368 353.741 145.75 355.477 145.75ZM375.766 149V120.636H380.124V149H375.766ZM377.982 115.909C377.132 115.909 376.4 115.62 375.784 115.041C375.181 114.463 374.88 113.767 374.88 112.955C374.88 112.142 375.181 111.446 375.784 110.868C376.4 110.289 377.132 110 377.982 110C378.831 110 379.558 110.289 380.161 110.868C380.776 111.446 381.084 112.142 381.084 112.955C381.084 113.767 380.776 114.463 380.161 115.041C379.558 115.62 378.831 115.909 377.982 115.909ZM392.464 111.182V149H388.106V111.182H392.464Z" fill="#94959A"/>
</svg>
