<svg width="400" height="200" viewBox="0 0 400 200" fill="none" xmlns="http://www.w3.org/2000/svg">
<path d="M54.5944 98.4269C56.8152 101.147 59.8907 103.037 63.3212 103.789C60.9168 102.423 58.5816 101.091 56.402 99.6031C55.762 99.2053 55.1998 98.8247 54.5858 98.4269M79.5638 98.5912V97.9598L74.2188 93.324H73.5961C72.8033 94.2105 71.8351 94.9228 70.7528 95.4155C69.6704 95.9083 68.4975 96.171 67.3083 96.1868C65.4351 96.122 63.6602 95.3323 62.358 93.9842C61.0557 92.6361 60.3279 90.835 60.3279 88.9606C60.3279 87.0863 61.0557 85.2852 62.358 83.9371C63.6602 82.589 65.4351 81.7993 67.3083 81.7345C68.4975 81.7503 69.6704 82.0129 70.7528 82.5057C71.8351 82.9985 72.8033 83.7107 73.5961 84.5973H74.2188L79.5638 79.9701V79.3301C78.0792 77.5362 76.2137 76.0956 74.1028 75.1127C71.9919 74.1298 69.6886 73.6294 67.3602 73.6477C58.1837 73.6477 51.23 80.195 51.23 88.9563C51.23 89.3023 51.3078 89.6136 51.3338 89.9423C55.0874 92.537 58.3999 94.5781 61.2541 96.4636C64.7864 98.6833 68.1828 101.112 71.4252 103.737C74.6259 102.929 77.4803 101.109 79.5638 98.548" fill="white"/>
<path d="M99.5689 84.554C99.5829 84.9544 99.5114 85.3531 99.3592 85.7237C99.2071 86.0943 98.9777 86.4282 98.6863 86.7031C98.395 86.9781 98.0484 87.1878 97.6697 87.3184C97.2909 87.4489 96.8887 87.4972 96.4899 87.4601H92.3989V81.4664H96.4899C96.9002 81.4465 97.3102 81.5128 97.6933 81.6611C98.0764 81.8093 98.4243 82.0362 98.7143 82.3271C99.0044 82.6181 99.2304 82.9665 99.3775 83.3501C99.5247 83.7336 99.5899 84.1438 99.5689 84.554ZM110.492 102.319L109.186 96.4982L108.702 96.1782C108.357 96.3993 107.953 96.5108 107.543 96.4982C106.514 96.4982 105.891 95.3998 105.355 94.5435C104.823 93.5694 104.06 92.7408 103.132 92.1305C104.754 91.4974 106.144 90.3834 107.115 88.938C108.086 87.4925 108.591 85.7848 108.564 84.0438C108.564 77.9895 104.464 74.184 96.8531 74.184H83.577V103.72H92.3989V93.3413H93.1946C95.1579 93.3413 97.6575 97.6139 98.8078 99.5167C101.212 103.383 103.132 104.248 106.592 104.248C107.959 104.275 109.29 103.804 110.337 102.924L110.492 102.319Z" fill="white"/>
<path d="M135.574 88.965C135.562 90.3804 135.132 91.7607 134.337 92.9318C133.541 94.1029 132.418 95.0124 131.106 95.5458C129.795 96.0792 128.356 96.2126 126.969 95.9292C125.582 95.6457 124.31 94.9581 123.313 93.953C122.317 92.9479 121.64 91.6703 121.368 90.2811C121.096 88.892 121.242 87.4534 121.786 86.1468C122.331 84.8402 123.249 83.724 124.427 82.9388C125.605 82.1536 126.989 81.7345 128.404 81.7345C129.356 81.7178 130.3 81.8939 131.182 82.2522C132.063 82.6104 132.863 83.1434 133.533 83.819C134.203 84.4946 134.729 85.2988 135.08 86.1832C135.431 87.0676 135.599 88.0139 135.574 88.965M144.569 88.965C144.569 80.195 137.65 73.6478 128.404 73.6478C119.159 73.6478 112.222 80.195 112.222 88.965C112.222 97.735 119.141 104.274 128.396 104.274C137.65 104.274 144.56 97.6831 144.56 88.965" fill="white"/>
<path d="M188.739 74.1926H180.324L175.109 90.5477L169.591 74.1926H164.245L158.762 90.4526L153.555 74.1926H145.131L144.734 74.8759L155.51 103.72H160.855L166.918 87.6417L173.015 103.72H178.361L189.137 74.8759L188.739 74.1926Z" fill="white"/>
<path d="M212.429 88.9649C212.429 93.7737 209.626 96.4549 205.752 96.4549H201.427V81.4663H205.752C209.626 81.4663 212.429 84.1475 212.429 88.9649ZM221.424 88.913C221.424 80.0998 215.594 74.2099 206.106 74.2099H192.605V103.746H206.106C215.62 103.746 221.424 97.8387 221.424 88.9303" fill="white"/>
<path d="M268.145 81.4663H276.958V74.1926H250.51V81.4663H259.323V103.72H268.145V81.4663Z" fill="white"/>
<path d="M296.159 84.554C296.173 84.9544 296.101 85.3531 295.949 85.7237C295.797 86.0942 295.568 86.4281 295.276 86.7031C294.985 86.9781 294.638 87.1878 294.26 87.3183C293.881 87.4488 293.479 87.4971 293.08 87.46H288.989V81.4663H293.08C293.49 81.4465 293.9 81.5128 294.283 81.661C294.666 81.8093 295.014 82.0362 295.304 82.3271C295.594 82.618 295.82 82.9665 295.967 83.35C296.115 83.7336 296.18 84.1437 296.159 84.554M305.154 84.0524C305.154 77.9981 301.054 74.1926 293.443 74.1926H280.167V103.729H288.989V93.3499H291.082L296.557 103.729H305.327L305.733 103.045L299.852 92.0959C301.44 91.4408 302.794 90.3237 303.74 88.8894C304.685 87.4552 305.178 85.77 305.154 84.0524" fill="white"/>
<path d="M319.32 74.1926H310.499V103.72H319.32V74.1926Z" fill="white"/>
<path d="M341.678 87.4168L351.659 74.8759L351.252 74.1926H341.86L333.704 84.6924V74.1926H324.882V103.72H333.704V94.6386L335.304 92.7272L342.794 103.72H352.013L352.411 103.045L341.678 87.4168Z" fill="white"/>
<path d="M376.862 81.4663V74.1926H354.816V103.72H377V96.4549H363.637V92.364H373.696V85.5486H363.637V81.4663H376.862Z" fill="white"/>
<path d="M236.343 104.075C242.804 104.075 248.408 100.9 248.408 94.7684C248.408 88.0914 242.76 86.3617 237.77 84.9086C235.807 84.3205 233.8 83.6372 233.8 82.1842C233.8 81.1377 234.916 80.4544 236.611 80.4544C239.508 80.4544 241.956 82.2707 243.201 83.4556H243.824L247.967 78.4566V77.8252C245.787 75.3256 241.333 73.4229 236.429 73.4229C229.571 73.4229 224.805 77.1419 224.805 82.5475C224.805 88.3596 230.064 90.911 234.518 92.1824C237.415 92.9954 239.37 93.1338 239.37 94.7252C239.37 95.8582 237.995 96.5414 235.85 96.5414C233.134 96.5414 229.839 94.8117 228.239 93.177H227.616L223.516 98.3664V99.0064C226.111 101.956 230.868 104.04 236.343 104.04" fill="white"/>
<path d="M84.3035 131.215C82.1759 126.294 77.8774 119.971 61.0725 110.951C53.2885 106.626 40.073 99.9318 28.2067 87.2265C29.2878 91.8105 34.8144 101.886 58.6076 114.471C65.1981 118.103 76.3292 121.502 84.3468 131.215" fill="#EC462B"/>
<path d="M83.231 122.782C81.2072 116.961 77.5487 109.515 60.1903 98.4442C51.7403 92.8656 39.3291 85.8687 23 68C24.1676 72.8174 29.3224 85.2978 55.3383 101.592C63.8834 107.422 74.9108 111.02 83.231 122.782Z" fill="#EC462B"/>
</svg>
