<svg width="400" height="200" viewBox="0 0 400 200" fill="none" xmlns="http://www.w3.org/2000/svg">
<path d="M173 40H53V160H173V40Z" fill="url(#paint0_linear_323_122)"/>
<path fill-rule="evenodd" clip-rule="evenodd" d="M123.263 88.2985L113.02 100.18L124.162 113.176H120.003L110 101.5V113.5H107V88H110V98.5L119.271 88.2985H123.263ZM149 112.351L137 105.15V88C137 87.466 136.718 86.9725 136.256 86.704L119 76.639V62.128L149 79.8565V112.351ZM151.264 77.7085L118.263 58.2085C117.798 57.934 117.227 57.931 116.756 58.1965C116.29 58.4635 116 58.9615 116 59.5V77.5C116 78.0325 116.283 78.526 116.744 78.796L134 88.861V106C134 106.527 134.278 107.016 134.729 107.286L149.729 116.286C149.966 116.428 150.233 116.5 150.5 116.5C150.755 116.5 151.01 116.436 151.239 116.305C151.71 116.04 152 115.54 152 115V79C152 78.469 151.721 77.9785 151.264 77.7085ZM113.667 140.294L78.5 121.599V79.8565L108.5 62.128V76.6765L92.6945 86.734C92.2625 87.01 92 87.487 92 88V113.5C92 114.06 92.312 114.573 92.807 114.831L112.987 125.331C113.42 125.556 113.936 125.557 114.368 125.332L133.946 115.216L145.994 122.446L113.667 140.294ZM149.772 121.213L134.772 112.213C134.325 111.946 133.774 111.928 133.312 112.168L113.683 122.31L95 112.59V88.8235L110.805 78.766C111.237 78.49 111.5 78.013 111.5 77.5V59.5C111.5 58.9615 111.212 58.4635 110.744 58.1965C110.276 57.931 109.703 57.934 109.237 58.2085L76.2365 77.7085C75.7805 77.9785 75.5 78.469 75.5 79V122.5C75.5 123.054 75.806 123.564 76.295 123.825L112.976 143.324C113.197 143.441 113.438 143.5 113.679 143.5C113.93 143.5 114.179 143.437 114.406 143.312L149.726 123.813C150.196 123.553 150.49 123.063 150.5 122.527C150.509 121.99 150.231 121.489 149.772 121.213Z" fill="white"/>
<path d="M223.131 89H218.33L232.216 51.1818H236.943L250.83 89H246.028L234.727 57.1648H234.432L223.131 89ZM224.903 74.2273H244.256V78.2898H224.903V74.2273ZM260.644 89L250.303 51.1818H254.957L262.86 81.983H263.229L271.281 51.1818H276.451L284.502 81.983H284.871L292.775 51.1818H297.428L287.087 89H282.36L274.013 58.8636H273.718L265.371 89H260.644ZM323.816 60.6364C323.594 58.7652 322.696 57.3125 321.12 56.2784C319.544 55.2443 317.612 54.7273 315.322 54.7273C313.647 54.7273 312.183 54.9981 310.927 55.5398C309.683 56.0814 308.711 56.8262 308.009 57.7741C307.32 58.7221 306.975 59.7992 306.975 61.0057C306.975 62.0151 307.215 62.883 307.695 63.6094C308.188 64.3234 308.816 64.9205 309.579 65.4006C310.342 65.8684 311.142 66.2562 311.979 66.5639C312.817 66.8594 313.586 67.0994 314.288 67.2841L318.129 68.3182C319.113 68.5767 320.209 68.9337 321.415 69.3892C322.634 69.8447 323.798 70.4664 324.906 71.2543C326.026 72.0298 326.949 73.027 327.675 74.2457C328.402 75.4645 328.765 76.9602 328.765 78.733C328.765 80.7765 328.229 82.6231 327.158 84.2727C326.1 85.9223 324.549 87.2334 322.505 88.206C320.474 89.1785 318.005 89.6648 315.1 89.6648C312.392 89.6648 310.047 89.2277 308.065 88.3537C306.095 87.4796 304.544 86.2609 303.411 84.6974C302.291 83.134 301.657 81.3182 301.509 79.25H306.237C306.36 80.678 306.84 81.8598 307.677 82.7955C308.526 83.7187 309.597 84.4081 310.89 84.8636C312.195 85.3068 313.598 85.5284 315.1 85.5284C316.848 85.5284 318.418 85.2453 319.809 84.679C321.2 84.1004 322.302 83.3002 323.114 82.2784C323.927 81.2443 324.333 80.0379 324.333 78.6591C324.333 77.4034 323.982 76.3816 323.281 75.5938C322.579 74.8059 321.656 74.1657 320.511 73.6733C319.366 73.1809 318.129 72.75 316.799 72.3807L312.146 71.0511C309.191 70.2017 306.852 68.9891 305.129 67.4134C303.405 65.8376 302.543 63.7756 302.543 61.2273C302.543 59.1098 303.116 57.2633 304.261 55.6875C305.418 54.0994 306.969 52.8684 308.914 51.9943C310.871 51.108 313.057 50.6648 315.469 50.6648C317.907 50.6648 320.074 51.1018 321.969 51.9759C323.865 52.8376 325.367 54.0194 326.475 55.5213C327.595 57.0232 328.186 58.7282 328.248 60.6364H323.816ZM221.58 149V111.182H244.403V115.244H226.159V128.023H243.222V132.085H226.159V144.938H244.699V149H221.58ZM252.658 149V111.182H257.237V129.943H257.68L274.669 111.182H280.652L264.771 128.244L280.652 149H275.112L261.964 131.42L257.237 136.739V149H252.658ZM307.261 120.636C307.04 118.765 306.141 117.312 304.565 116.278C302.99 115.244 301.057 114.727 298.767 114.727C297.093 114.727 295.628 114.998 294.372 115.54C293.129 116.081 292.156 116.826 291.455 117.774C290.765 118.722 290.42 119.799 290.42 121.006C290.42 122.015 290.661 122.883 291.141 123.609C291.633 124.323 292.261 124.92 293.024 125.401C293.787 125.868 294.588 126.256 295.425 126.564C296.262 126.859 297.031 127.099 297.733 127.284L301.574 128.318C302.559 128.577 303.654 128.934 304.861 129.389C306.08 129.845 307.243 130.466 308.351 131.254C309.471 132.03 310.394 133.027 311.121 134.246C311.847 135.464 312.21 136.96 312.21 138.733C312.21 140.777 311.675 142.623 310.604 144.273C309.545 145.922 307.994 147.233 305.95 148.206C303.919 149.179 301.451 149.665 298.545 149.665C295.837 149.665 293.492 149.228 291.51 148.354C289.54 147.48 287.989 146.261 286.857 144.697C285.736 143.134 285.102 141.318 284.955 139.25H289.682C289.805 140.678 290.285 141.86 291.122 142.795C291.972 143.719 293.043 144.408 294.335 144.864C295.64 145.307 297.044 145.528 298.545 145.528C300.294 145.528 301.863 145.245 303.254 144.679C304.645 144.1 305.747 143.3 306.56 142.278C307.372 141.244 307.778 140.038 307.778 138.659C307.778 137.403 307.428 136.382 306.726 135.594C306.024 134.806 305.101 134.166 303.956 133.673C302.811 133.181 301.574 132.75 300.244 132.381L295.591 131.051C292.636 130.202 290.297 128.989 288.574 127.413C286.85 125.838 285.989 123.776 285.989 121.227C285.989 119.11 286.561 117.263 287.706 115.688C288.863 114.099 290.414 112.868 292.359 111.994C294.317 111.108 296.502 110.665 298.915 110.665C301.352 110.665 303.519 111.102 305.415 111.976C307.311 112.838 308.813 114.019 309.92 115.521C311.041 117.023 311.632 118.728 311.693 120.636H307.261Z" fill="#94959A"/>
<defs>
<linearGradient id="paint0_linear_323_122" x1="53" y1="160" x2="173" y2="40" gradientUnits="userSpaceOnUse">
<stop stop-color="#C8511B"/>
<stop offset="1" stop-color="#FF9900"/>
</linearGradient>
</defs>
</svg>
