<svg width="400" height="200" viewBox="0 0 400 200" fill="none" xmlns="http://www.w3.org/2000/svg">
<path d="M217.724 75.8931L221.887 75.9659L233.199 64.6547L233.745 59.8616C224.755 51.8659 212.927 47 199.982 47C176.544 47 156.761 62.9478 150.901 84.5513C152.139 83.6887 154.777 84.3329 154.777 84.3329L177.385 80.6134C177.385 80.6134 178.55 78.6846 179.132 78.8047C183.985 73.4958 190.68 70.2385 197.853 69.6975C205.025 69.1565 212.13 71.3724 217.724 75.8931Z" fill="#EA4335"/>
<path d="M249.132 84.5912C246.533 75.0294 241.201 66.4337 233.788 59.8579L217.768 75.8785C221.056 78.521 223.709 81.8672 225.532 85.6708C227.356 89.4745 228.303 93.6387 228.304 97.8568V100.685C236.1 100.685 242.425 107.028 242.425 114.805C242.425 122.583 236.081 128.926 228.304 128.926H200.055L197.227 131.765V148.717L200.055 151.531H228.304C238.033 151.505 247.355 147.627 254.232 140.745C261.109 133.863 264.981 124.538 265 114.809C264.985 102.304 258.682 91.2258 249.096 84.5912H249.132Z" fill="#4285F4"/>
<path d="M171.736 151.556H199.978V128.948H171.736C169.731 128.949 167.749 128.518 165.924 127.685L161.848 128.934L150.537 140.245L149.547 144.066C155.911 148.953 163.716 151.589 171.74 151.563L171.736 151.556Z" fill="#34A853"/>
<path d="M171.736 78.0876C161.998 78.103 152.663 81.9784 145.777 88.8644C138.891 95.7504 135.015 105.085 135 114.824C135 120.494 136.314 126.088 138.84 131.165C141.366 136.242 145.035 140.664 149.558 144.084L165.935 127.707C163.454 126.591 161.349 124.782 159.871 122.498C158.394 120.214 157.608 117.551 157.608 114.831C157.608 107.035 163.951 100.71 171.729 100.71C174.448 100.715 177.108 101.503 179.392 102.979C181.675 104.456 183.485 106.559 184.605 109.037L200.982 92.6598C194.264 83.8161 183.659 78.1022 171.721 78.1022L171.736 78.0876Z" fill="#FBBC05"/>
</svg>
