<svg width="400" height="200" viewBox="0 0 400 200" fill="none" xmlns="http://www.w3.org/2000/svg">
<g clip-path="url(#clip0_323_122)">
<path d="M103.091 93.9594H76.8611C76.5371 93.9594 76.2265 94.0875 75.9974 94.3155C75.7684 94.5435 75.6397 94.8528 75.6397 95.1753V107.938C75.6397 108.261 75.7681 108.571 75.9969 108.801C76.2257 109.03 76.5363 109.16 76.8611 109.162H87.0913V125.003C87.0913 125.003 84.7958 125.788 78.4289 125.788C70.936 125.788 60.4719 123.063 60.4719 100.151C60.4719 77.2387 71.3691 74.2291 81.5994 74.2291C90.4523 74.2291 94.2724 75.7813 96.6978 76.523C96.8749 76.5571 97.0573 76.5521 97.2321 76.5082C97.407 76.4644 97.5701 76.3828 97.7098 76.2693C97.8494 76.1557 97.9623 76.013 98.0404 75.8512C98.1185 75.6894 98.16 75.5124 98.1617 75.3329L101.116 63.0016C101.123 62.816 101.084 62.6316 101.002 62.4647C100.92 62.2977 100.799 62.1533 100.648 62.0444C99.6603 61.3459 93.6487 58 78.4549 58C60.9484 58 43 65.4075 43 101.048C43 136.688 63.5557 141.991 80.8717 141.991C95.2166 141.991 103.922 135.895 103.922 135.895C104.059 135.785 104.166 135.644 104.234 135.482C104.302 135.321 104.329 135.146 104.312 134.972V95.1666C104.31 94.8456 104.18 94.5386 103.951 94.3124C103.722 94.0863 103.413 93.9593 103.091 93.9594V93.9594Z" fill="white"/>
<path d="M238.206 62.2685C238.208 62.1085 238.178 61.9497 238.118 61.8012C238.059 61.6528 237.97 61.5176 237.857 61.4037C237.744 61.2898 237.609 61.1993 237.461 61.1375C237.313 61.0758 237.154 61.044 236.993 61.044H222.267C222.106 61.044 221.946 61.0758 221.798 61.1374C221.649 61.199 221.514 61.2894 221.4 61.4032C221.287 61.517 221.197 61.6521 221.136 61.8006C221.075 61.9491 221.045 62.1081 221.046 62.2685V90.6652H198.004V62.2685C198.005 62.1081 197.974 61.9491 197.913 61.8006C197.853 61.6521 197.763 61.517 197.649 61.4032C197.536 61.2894 197.401 61.199 197.252 61.1374C197.103 61.0758 196.944 61.044 196.782 61.044H182.057C181.895 61.044 181.736 61.0758 181.587 61.1374C181.438 61.199 181.303 61.2894 181.19 61.4032C181.076 61.517 180.986 61.6521 180.926 61.8006C180.865 61.9491 180.834 62.1081 180.835 62.2685V139.172C180.835 139.495 180.963 139.805 181.192 140.034C181.421 140.264 181.732 140.394 182.057 140.396H196.782C197.107 140.394 197.418 140.264 197.647 140.034C197.875 139.805 198.004 139.495 198.004 139.172V106.273H221.011L220.968 139.172C220.97 139.496 221.1 139.806 221.331 140.035C221.561 140.264 221.872 140.394 222.198 140.396H236.993C237.153 140.395 237.312 140.362 237.46 140.3C237.608 140.238 237.742 140.148 237.854 140.034C237.967 139.92 238.056 139.785 238.116 139.637C238.176 139.49 238.207 139.331 238.206 139.172V62.2685Z" fill="white"/>
<path d="M130.949 72.401C130.932 70.5286 130.358 68.7032 129.301 67.1547C128.244 65.6062 126.75 64.4038 125.007 63.6991C123.264 62.9943 121.351 62.8187 119.509 63.1944C117.666 63.5701 115.976 64.4803 114.652 65.8102C113.328 67.1402 112.43 68.8305 112.069 70.6681C111.708 72.5058 111.902 74.4086 112.625 76.1368C113.349 77.8651 114.57 79.3415 116.135 80.3801C117.701 81.4186 119.539 81.9728 121.42 81.9729C122.679 81.9729 123.925 81.7247 125.087 81.2427C126.248 80.7606 127.303 80.0542 128.189 79.1642C129.075 78.2742 129.775 77.2183 130.248 76.0575C130.722 74.8966 130.96 73.6539 130.949 72.401V72.401Z" fill="white"/>
<path d="M129.892 122.942V87.4487C129.892 87.1254 129.763 86.8153 129.535 86.5859C129.306 86.3565 128.995 86.2265 128.67 86.2242H113.945C113.6 86.254 113.28 86.4099 113.045 86.6616C112.809 86.9133 112.676 87.2429 112.671 87.5867V138.464C112.671 139.956 113.607 140.405 114.811 140.405H128.073C129.528 140.405 129.883 139.689 129.883 138.439L129.892 122.942Z" fill="white"/>
<path d="M294.286 86.3363H279.664C279.338 86.3408 279.027 86.4728 278.799 86.7035C278.57 86.9343 278.442 87.2454 278.442 87.5694V125.279C275.769 127.03 272.642 127.97 269.442 127.987C264.158 127.987 262.755 125.598 262.755 120.45V87.5694C262.757 87.2461 262.631 86.9351 262.404 86.704C262.176 86.473 261.867 86.3408 261.542 86.3363H246.643C246.317 86.3408 246.007 86.4728 245.778 86.7035C245.549 86.9343 245.421 87.2454 245.421 87.5694V122.925C245.421 138.214 253.988 141.957 265.769 141.957C275.428 141.957 283.215 136.645 283.215 136.645C283.34 137.697 283.522 138.742 283.761 139.775C283.866 139.969 284.021 140.133 284.209 140.249C284.398 140.366 284.613 140.431 284.835 140.439H294.294C294.62 140.435 294.93 140.303 295.159 140.072C295.388 139.841 295.516 139.53 295.516 139.206V87.5694C295.517 87.4079 295.486 87.2478 295.425 87.0982C295.363 86.9486 295.273 86.8126 295.158 86.698C295.044 86.5834 294.908 86.4924 294.758 86.4303C294.609 86.3683 294.448 86.3363 294.286 86.3363V86.3363Z" fill="white"/>
<path d="M334.349 84.6116C329.443 84.5822 324.619 85.8595 320.377 88.311V62.2685C320.378 62.1081 320.347 61.9491 320.286 61.8006C320.225 61.6521 320.136 61.517 320.022 61.4032C319.908 61.2894 319.773 61.199 319.625 61.1374C319.476 61.0758 319.316 61.044 319.155 61.044H304.351C304.19 61.044 304.031 61.0758 303.882 61.1374C303.733 61.199 303.598 61.2894 303.485 61.4032C303.371 61.517 303.281 61.6521 303.22 61.8006C303.16 61.9491 303.129 62.1081 303.13 62.2685V139.172C303.13 139.495 303.258 139.805 303.487 140.034C303.716 140.264 304.027 140.394 304.351 140.396H314.625C314.846 140.394 315.062 140.333 315.251 140.219C315.44 140.106 315.595 139.943 315.699 139.749C315.994 138.582 316.202 137.394 316.323 136.196C316.323 136.196 322.386 141.914 333.829 141.914C347.282 141.914 355 135.119 355 111.413C355 87.7074 342.682 84.6116 334.349 84.6116ZM328.571 127.944C325.565 127.866 322.63 127.02 320.047 125.486V101.134C322.376 99.8117 324.953 98.981 327.618 98.6935C332.894 98.2192 338.013 99.8059 338.013 112.336C337.979 125.547 335.683 128.151 328.571 127.944Z" fill="white"/>
<path d="M172.32 86.1984H161.25V71.6335C161.25 71.0816 160.964 70.7712 160.323 70.7712H145.216C144.627 70.7712 144.349 71.0299 144.349 71.5904V86.6468C144.349 86.6468 136.787 88.4577 136.276 88.6043C136.025 88.6818 135.805 88.8375 135.649 89.0486C135.493 89.2597 135.409 89.515 135.41 89.777V99.2627C135.409 99.4231 135.439 99.5822 135.5 99.7307C135.561 99.8792 135.651 100.014 135.764 100.128C135.878 100.242 136.013 100.332 136.162 100.394C136.311 100.456 136.47 100.487 136.631 100.487H144.367V123.279C144.367 140.172 156.269 141.836 164.29 141.836C167.249 141.737 170.182 141.25 173.013 140.387C173.227 140.295 173.408 140.14 173.532 139.943C173.656 139.746 173.716 139.516 173.706 139.284V128.884C173.704 128.561 173.575 128.251 173.347 128.02C173.119 127.79 172.809 127.658 172.485 127.651C171.835 127.651 170.189 127.918 168.483 127.918C163.051 127.918 161.206 125.4 161.206 122.14V100.513H172.32C172.481 100.513 172.641 100.481 172.789 100.42C172.938 100.358 173.073 100.268 173.187 100.154C173.3 100.04 173.39 99.9051 173.451 99.7565C173.512 99.608 173.543 99.449 173.541 99.2886V87.4401C173.544 87.2786 173.514 87.1182 173.454 86.9682C173.393 86.8182 173.304 86.6816 173.19 86.5662C173.077 86.4507 172.942 86.3588 172.792 86.2957C172.643 86.2326 172.482 86.1995 172.32 86.1984V86.1984Z" fill="white"/>
</g>
<defs>
<clipPath id="clip0_323_122">
<rect width="312" height="84" fill="white" transform="translate(43 58)"/>
</clipPath>
</defs>
</svg>
