<svg width="400" height="200" viewBox="0 0 400 200" fill="none" xmlns="http://www.w3.org/2000/svg">
<path d="M86.919 84.4762C86.587 83.4161 85.7902 82.5547 84.7942 82.0247L64.5688 72.3643C64.0376 72.0993 63.44 72.033 62.9088 72.033C62.3776 72.033 61.78 72.033 61.2488 72.1655L41.0234 81.8922C40.0274 82.356 39.297 83.2173 39.0314 84.3437L34.0647 106.116C33.8655 107.242 34.1311 108.369 34.7951 109.296L48.7922 126.563C49.589 127.358 50.7178 127.888 51.8466 127.954H74.1304C75.3256 128.087 76.4544 127.557 77.1848 126.563L91.1819 109.296C91.8459 108.369 92.1115 107.242 91.9787 106.116L86.919 84.4762Z" fill="#326DE6"/>
<path d="M83.7982 105.255C83.7318 105.255 83.6654 105.255 83.6654 105.188C83.6654 105.122 83.5326 105.122 83.3998 105.122C83.1342 105.056 82.8686 105.056 82.603 105.056C82.4702 105.056 82.3374 105.056 82.2046 104.99H82.1382C81.4078 104.923 80.611 104.791 79.8806 104.592C79.6814 104.526 79.4822 104.327 79.4158 104.128C79.4822 104.128 79.4158 104.128 79.4158 104.128L78.8846 103.996C79.1502 102.074 79.0174 100.087 78.619 98.1783C78.1542 96.2568 77.3574 94.4016 76.295 92.7584L76.6934 92.3609V92.2946C76.6934 92.0958 76.7598 91.8308 76.8926 91.6983C77.4902 91.1682 78.0878 90.7707 78.7518 90.3731L79.1502 90.1744C79.4158 90.0419 79.615 89.9093 79.8806 89.7768C79.947 89.7106 80.0134 89.7106 80.0798 89.6443C80.1462 89.5781 80.0798 89.5781 80.0798 89.5118C80.6774 89.048 80.8102 88.2529 80.3454 87.6566C80.1462 87.3916 79.7478 87.1928 79.4158 87.1928C79.0838 87.1928 78.7518 87.3253 78.4862 87.5241L78.4198 87.5903C78.3534 87.6566 78.287 87.7228 78.2206 87.7228C78.0214 87.9216 77.8222 88.1204 77.6894 88.3192C77.623 88.4517 77.4902 88.5179 77.4238 88.5842C76.959 89.1143 76.3614 89.6443 75.7638 90.0419C75.631 90.1081 75.4982 90.1744 75.3654 90.1744C75.299 90.1744 75.1662 90.1744 75.0998 90.1081H75.0334L74.5022 90.4394C73.971 89.9093 73.3734 89.3793 72.8422 88.8492C70.3855 86.9277 67.3443 85.7351 64.2235 85.4038L64.1571 84.8738V84.94C63.9579 84.8075 63.8915 84.6087 63.8251 84.41C63.8251 83.6811 63.8251 82.9523 63.9579 82.1572V82.0909C63.9579 81.9584 64.0243 81.8259 64.0243 81.6934C64.0907 81.4284 64.0907 81.1633 64.1571 80.8983V80.5008C64.2235 79.8382 63.6923 79.1756 63.0283 79.1093C62.6299 79.0431 62.2315 79.2419 61.8995 79.5731C61.6339 79.8382 61.5011 80.1695 61.5011 80.5008V80.832C61.5011 81.0971 61.5675 81.3621 61.6339 81.6271C61.7003 81.7597 61.7003 81.8922 61.7003 82.0247V82.0909C61.8331 82.8198 61.8331 83.5486 61.8331 84.3437C61.7667 84.5425 61.7003 84.7412 61.5011 84.8738V85.0063L61.4347 85.5363C60.7043 85.6026 59.9739 85.7351 59.1771 85.8676C56.0563 86.5302 53.2144 88.1866 51.0232 90.5057L50.6248 90.2406H50.5584C50.492 90.2406 50.4256 90.3069 50.2928 90.3069C50.16 90.3069 50.0272 90.2406 49.8944 90.1744C49.2968 89.7106 48.6992 89.1805 48.2344 88.6504C48.168 88.5179 48.0352 88.4517 47.9688 88.3854C47.7696 88.1866 47.6368 87.9879 47.4376 87.7891C47.3712 87.7228 47.3048 87.7228 47.2384 87.6566L47.172 87.5903C46.9064 87.3916 46.5744 87.259 46.2424 87.259C45.844 87.259 45.512 87.3916 45.3128 87.7228C44.9144 88.3192 45.0472 89.1142 45.5784 89.5781C45.6448 89.5781 45.6448 89.6443 45.6448 89.6443C45.6448 89.6443 45.7776 89.7768 45.844 89.7768C46.0432 89.9093 46.3088 90.0419 46.5744 90.1744L46.9728 90.3731C47.6368 90.7707 48.3008 91.1682 48.832 91.6983C48.9648 91.8308 49.0976 92.0958 49.0312 92.2946V92.2284L49.4296 92.6259C49.3632 92.7584 49.2968 92.8247 49.2304 92.9572C47.172 96.2038 46.3088 100.034 46.9064 103.81L46.3752 103.943C46.3752 104.009 46.3088 104.009 46.3088 104.009C46.2424 104.208 46.0432 104.34 45.844 104.473C45.1136 104.672 44.3832 104.804 43.5864 104.87C43.4536 104.87 43.3208 104.87 43.188 104.937C42.9224 104.937 42.6568 105.003 42.3912 105.003C42.3248 105.003 42.2584 105.069 42.1256 105.069C42.0592 105.069 42.0592 105.069 41.9928 105.135C41.2624 105.268 40.7976 105.93 40.9304 106.659C41.0632 107.256 41.6608 107.653 42.2584 107.587C42.3912 107.587 42.4576 107.587 42.5904 107.521C42.6568 107.521 42.6568 107.521 42.6568 107.454C42.6568 107.388 42.856 107.454 42.9224 107.454C43.188 107.388 43.4536 107.256 43.6528 107.189C43.7856 107.123 43.9184 107.057 44.0512 107.057H44.1176C44.848 106.792 45.512 106.593 46.3088 106.461H46.3752C46.5744 106.461 46.7736 106.527 46.9064 106.659C46.9728 106.659 46.9728 106.726 46.9728 106.726L47.5704 106.659C48.5664 109.707 50.4256 112.41 53.002 114.398C53.5996 114.862 54.1308 115.26 54.7948 115.591L54.4628 116.055C54.4628 116.121 54.5292 116.121 54.5292 116.121C54.662 116.32 54.662 116.585 54.5956 116.783C54.33 117.446 53.9316 118.109 53.5332 118.705V118.771C53.4668 118.904 53.4004 118.97 53.2676 119.102C53.1348 119.235 53.002 119.5 52.8028 119.765C52.7364 119.831 52.7364 119.898 52.67 119.964C52.67 119.964 52.67 120.03 52.6036 120.03C52.2716 120.693 52.5372 121.488 53.1348 121.819C53.2676 121.885 53.4668 121.952 53.5996 121.952C54.1308 121.952 54.5956 121.62 54.8612 121.156C54.8612 121.156 54.8612 121.09 54.9276 121.09C54.9276 121.024 54.994 120.958 55.0604 120.891C55.1268 120.626 55.2596 120.428 55.326 120.163L55.4588 119.765C55.658 119.036 55.99 118.374 56.3219 117.711C56.4548 117.512 56.6539 117.38 56.8531 117.314C56.9195 117.314 56.9195 117.314 56.9195 117.247L57.1851 116.717C59.0443 117.446 60.9699 117.777 62.9487 117.777C64.1439 117.777 65.3391 117.645 66.5343 117.314C67.2647 117.181 67.9951 116.916 68.6591 116.717L68.9247 117.181C68.9911 117.181 68.9911 117.181 68.9911 117.247C69.1903 117.314 69.3895 117.446 69.5223 117.645C69.8543 118.307 70.1863 118.97 70.3855 119.699V119.765L70.5183 120.163C70.5847 120.428 70.6511 120.693 70.7838 120.891C70.8503 120.958 70.8503 121.024 70.9167 121.09C70.9167 121.09 70.9167 121.156 70.983 121.156C71.2486 121.62 71.7134 121.952 72.2446 121.952C72.4438 121.952 72.5766 121.885 72.7758 121.819C73.0414 121.687 73.307 121.421 73.3734 121.09C73.4398 120.759 73.4398 120.428 73.307 120.096C73.307 120.03 73.2406 120.03 73.2406 120.03C73.2406 119.964 73.1742 119.898 73.1078 119.831C72.975 119.566 72.8422 119.367 72.643 119.169C72.5766 119.036 72.5102 118.97 72.3774 118.837V118.705C71.9126 118.109 71.5806 117.446 71.3151 116.783C71.2486 116.585 71.2486 116.32 71.3814 116.121C71.3814 116.055 71.4478 116.055 71.4478 116.055L71.2486 115.525C74.635 113.471 77.2114 110.29 78.4066 106.527L78.9378 106.593C79.0042 106.593 79.0042 106.527 79.0042 106.527C79.137 106.394 79.3362 106.328 79.5354 106.328H79.6018C80.3322 106.461 81.0626 106.659 81.7266 106.924H81.793C81.9258 106.991 82.0586 107.057 82.1914 107.057C82.457 107.189 82.6562 107.322 82.9218 107.388C82.9882 107.388 83.0546 107.454 83.1874 107.454C83.2538 107.454 83.2538 107.454 83.3202 107.521C83.453 107.587 83.5194 107.587 83.6522 107.587C84.2498 107.587 84.781 107.189 84.9802 106.659C84.927 105.917 84.3958 105.387 83.7982 105.255ZM64.6352 103.201L62.8424 104.062L61.0496 103.201L60.5848 101.279L61.8464 99.689H63.8384L65.1 101.279L64.6352 103.201ZM75.4451 98.9071C75.7771 100.299 75.8435 101.69 75.7107 103.081L69.416 101.292C68.8184 101.16 68.4864 100.564 68.6192 99.9673C68.6856 99.7685 68.752 99.636 68.8848 99.5035L73.8648 94.9979C74.5819 96.1906 75.1131 97.5157 75.4451 98.9071ZM71.8595 92.5464L66.428 96.3893C65.9632 96.6544 65.2992 96.5881 64.9672 96.1243C64.8344 95.9918 64.768 95.8593 64.768 95.6605L64.3696 88.9817C67.2912 89.2998 69.8808 90.5587 71.8595 92.5464ZM59.8544 89.1673L61.1824 88.9022L60.8504 95.5147C60.8504 96.1111 60.3192 96.5749 59.7216 96.5749C59.5224 96.5749 59.3896 96.5086 59.1904 96.4423L53.6925 92.5331C55.4189 90.89 57.5437 89.6973 59.8544 89.1673ZM51.7669 94.9979L56.6805 99.3709C57.1453 99.7685 57.2117 100.431 56.8133 100.895C56.6805 101.094 56.5477 101.16 56.2821 101.226L49.8546 103.081C49.6421 100.285 50.3061 97.4495 51.7669 94.9979ZM50.6381 106.182L57.1984 105.056C57.7296 105.056 58.2608 105.387 58.3272 105.917C58.3936 106.116 58.3936 106.381 58.2608 106.58L55.7376 112.662C53.4269 111.138 51.5677 108.833 50.6381 106.182ZM65.6976 114.385C64.768 114.584 63.8384 114.716 62.8424 114.716C61.448 114.716 59.9872 114.451 58.6592 114.054L61.9128 108.17C62.2448 107.772 62.776 107.64 63.2408 107.905C63.44 108.037 63.5728 108.17 63.772 108.369L66.9592 114.12C66.5608 114.186 66.1624 114.252 65.6976 114.385ZM73.7851 108.634C72.7891 110.224 71.3947 111.615 69.8011 112.609L67.2115 106.394C67.0787 105.864 67.3443 105.334 67.8091 105.135C68.0083 105.069 68.2075 105.003 68.4067 105.003L75.0334 106.129C74.7147 107.044 74.3163 107.905 73.7851 108.634Z" fill="white"/>
<path d="M355.175 113.095C356.105 113.161 357.101 113.029 357.964 112.698C358.495 112.433 358.827 111.836 358.761 111.24C358.694 110.577 358.296 109.981 357.698 109.782C356.702 109.186 355.573 108.656 354.445 108.325C353.316 107.927 352.32 107.463 351.39 107C350.527 106.602 349.797 106.072 349.066 105.409C348.402 104.747 347.937 104.018 347.605 103.157C347.207 102.163 347.074 101.103 347.074 100.042C347.008 97.8559 348.004 95.7357 349.73 94.4238C351.523 93.0324 353.913 92.3698 356.955 92.3698C358.415 92.3698 359.943 92.5023 361.403 92.8336C362.532 93.0324 363.661 93.2974 364.79 93.695L363.528 99.3136C362.599 98.9823 361.735 98.7836 360.806 98.5185C359.743 98.2535 358.615 98.1872 357.552 98.1872C355.295 98.1872 354.166 98.7836 354.166 100.042C354.166 100.307 354.232 100.573 354.299 100.838C354.431 101.103 354.631 101.301 354.896 101.5C355.162 101.699 355.56 101.898 356.025 102.163C356.49 102.428 357.154 102.693 357.951 102.958C359.279 103.422 360.607 104.018 361.802 104.68C362.731 105.144 363.528 105.741 364.192 106.536C364.79 107.132 365.188 107.861 365.454 108.722C365.719 109.65 365.852 110.577 365.852 111.505C365.985 113.758 364.923 115.944 362.997 117.19C361.138 118.449 358.482 119.111 355.042 119.111C353.117 119.178 351.257 118.979 349.412 118.515C348.349 118.25 347.353 117.919 346.357 117.587L347.552 111.77C348.748 112.234 350.009 112.631 351.271 112.896C352.585 112.963 353.847 113.095 355.175 113.095ZM318.642 105.82C318.575 103.832 318.974 101.845 319.638 100.003C320.235 98.4125 321.165 97.0211 322.36 95.7622C323.489 94.6358 324.751 93.7745 326.211 93.2444C327.672 92.6481 329.199 92.3831 330.727 92.3831C334.312 92.3831 337.154 93.5094 339.212 95.6959C341.271 97.8824 342.333 101.116 342.333 105.356C342.333 105.754 342.333 106.218 342.267 106.748C342.267 107.278 342.2 107.675 342.2 108.073H326.012C326.145 109.464 326.875 110.789 328.071 111.585C329.531 112.512 331.258 112.976 332.984 112.91C334.246 112.91 335.574 112.777 336.835 112.578C337.898 112.38 338.96 112.048 339.956 111.585L340.952 117.402C340.487 117.667 339.956 117.799 339.425 117.998C338.695 118.197 337.964 118.396 337.234 118.462C336.437 118.595 335.64 118.727 334.711 118.86C333.847 118.926 332.918 118.992 331.988 118.992C329.93 119.058 327.938 118.727 326.025 117.998C324.432 117.402 323.037 116.474 321.842 115.282C320.713 114.089 319.917 112.631 319.385 111.107C318.907 109.332 318.642 107.543 318.642 105.82ZM335.414 103.104C335.414 102.507 335.282 101.911 335.082 101.315C334.95 100.718 334.618 100.254 334.286 99.7907C333.887 99.3269 333.422 98.9293 332.891 98.6643C332.227 98.333 331.563 98.2005 330.833 98.2005C330.102 98.2005 329.438 98.333 328.774 98.6643C328.243 98.9293 327.712 99.2606 327.314 99.7244C326.915 100.188 326.583 100.718 326.384 101.315C326.185 101.911 326.052 102.507 325.986 103.104H335.414ZM299.2 86.6982L306.358 85.5718V92.9794H314.977V98.9293H306.371V107.795C306.305 109.053 306.57 110.312 307.168 111.373C307.699 112.234 308.761 112.698 310.421 112.698C311.218 112.698 312.015 112.631 312.745 112.499C313.542 112.366 314.273 112.168 315.003 111.903L315.999 117.455C315.069 117.853 314.073 118.118 313.077 118.383C311.816 118.648 310.488 118.78 309.16 118.78C307.5 118.846 305.84 118.581 304.313 117.985C303.117 117.521 302.055 116.726 301.258 115.799C300.461 114.805 299.93 113.612 299.598 112.353C299.266 110.895 299.133 109.372 299.2 107.914V86.6982ZM270.223 105.82C270.157 103.832 270.555 101.845 271.219 100.003C271.817 98.4125 272.746 97.0211 273.941 95.7622C275.07 94.6358 276.332 93.7745 277.793 93.2444C279.253 92.6481 280.781 92.3831 282.308 92.3831C285.893 92.3831 288.735 93.5094 290.794 95.6959C292.852 97.8824 293.914 101.116 293.914 105.356C293.914 105.754 293.914 106.218 293.848 106.748C293.782 107.278 293.782 107.675 293.782 108.073H277.54C277.673 109.464 278.403 110.789 279.599 111.585C281.059 112.512 282.786 112.976 284.512 112.91C285.774 112.91 287.102 112.777 288.363 112.578C289.426 112.38 290.488 112.048 291.551 111.585L292.547 117.402C292.082 117.667 291.551 117.799 291.019 117.998C290.289 118.197 289.559 118.396 288.828 118.462C288.031 118.595 287.235 118.727 286.305 118.86C285.442 118.926 284.512 118.992 283.583 118.992C281.524 119.058 279.532 118.727 277.62 117.998C276.026 117.402 274.632 116.474 273.437 115.282C272.308 114.089 271.511 112.631 270.98 111.107C270.422 109.332 270.157 107.543 270.223 105.82ZM286.996 103.104C286.996 102.507 286.863 101.911 286.664 101.315C286.531 100.718 286.199 100.254 285.867 99.7907C285.468 99.3269 285.004 98.9293 284.472 98.6643C283.808 98.333 283.144 98.2005 282.414 98.2005C281.684 98.2005 281.02 98.333 280.356 98.6643C279.824 98.9293 279.36 99.2606 278.961 99.7244C278.563 100.188 278.231 100.718 278.032 101.315C277.832 101.911 277.7 102.507 277.633 103.104H286.996ZM243.039 93.8407C244.566 93.4432 246.16 93.1119 247.753 92.8469C249.745 92.5156 251.804 92.3831 253.782 92.3831C255.575 92.3168 257.368 92.6481 259.094 93.2444C260.422 93.7082 261.618 94.5033 262.481 95.5634C263.344 96.6236 263.942 97.8824 264.274 99.2076C264.672 100.732 264.805 102.322 264.805 103.912V118.144H257.713V104.826C257.713 102.507 257.381 100.917 256.784 99.9232C256.186 98.9956 255.057 98.4655 253.397 98.4655C252.866 98.4655 252.335 98.4655 251.737 98.5318C251.14 98.5318 250.675 98.598 250.21 98.6643V118.118H243.052L243.039 93.8407ZM237.992 99.3269C237.328 99.1943 236.598 98.9956 235.735 98.8631C234.805 98.6643 233.876 98.598 232.946 98.598C232.415 98.598 231.884 98.6643 231.286 98.7305C230.821 98.7968 230.356 98.8631 229.892 98.9956V118.25H222.734V94.3045C224.195 93.7745 225.722 93.3769 227.249 93.0456C229.175 92.5818 231.167 92.3831 233.079 92.4493C233.544 92.4493 234.008 92.5156 234.473 92.5156C235.004 92.5156 235.536 92.5818 236.133 92.7144C236.664 92.7806 237.196 92.8469 237.793 92.9794C238.258 93.0456 238.723 93.1782 239.188 93.3769L237.992 99.3269ZM193.491 105.82C193.425 103.832 193.823 101.845 194.487 100.003C195.085 98.4125 196.014 97.0211 197.21 95.7622C198.338 94.6358 199.6 93.7745 201.061 93.2444C202.522 92.6481 204.049 92.3831 205.576 92.3831C209.162 92.3831 212.004 93.5094 214.062 95.6959C216.12 97.8824 217.183 101.116 217.183 105.29C217.183 105.688 217.183 106.151 217.116 106.681C217.05 107.212 217.05 107.609 217.05 108.007H200.809C200.941 109.398 201.672 110.723 202.867 111.518C204.328 112.446 206.054 112.91 207.781 112.843C209.042 112.843 210.37 112.711 211.632 112.512C212.694 112.313 213.757 111.982 214.752 111.585L215.748 117.402C215.284 117.667 214.752 117.799 214.221 117.998C213.491 118.197 212.76 118.396 212.03 118.462C211.233 118.595 210.437 118.727 209.507 118.86C208.644 118.926 207.714 118.992 206.785 118.992C204.726 119.058 202.734 118.727 200.822 117.998C199.228 117.402 197.834 116.474 196.639 115.282C195.51 114.089 194.713 112.631 194.182 111.107C193.757 109.332 193.491 107.609 193.491 105.82ZM210.344 103.104C210.344 102.507 210.211 101.911 210.012 101.315C209.879 100.718 209.547 100.254 209.215 99.7907C208.816 99.3269 208.352 98.9293 207.82 98.6643C207.156 98.333 206.492 98.2005 205.762 98.2005C205.032 98.2005 204.368 98.333 203.704 98.6643C203.172 98.9293 202.641 99.2606 202.243 99.7244C201.844 100.188 201.512 100.718 201.313 101.315C201.114 101.911 200.981 102.507 200.915 103.104H210.344ZM181.885 105.423C181.885 100.785 180.158 98.545 176.772 98.545C176.041 98.545 175.311 98.6113 174.581 98.8101C173.983 98.9426 173.385 99.2076 172.854 99.5389V112.512C173.186 112.578 173.651 112.645 174.182 112.711C174.713 112.777 175.311 112.777 175.975 112.777C177.701 112.91 179.361 112.181 180.424 110.789C181.42 109.199 181.951 107.344 181.885 105.423ZM189.175 105.688C189.175 107.543 188.91 109.398 188.246 111.174C187.714 112.764 186.851 114.155 185.722 115.348C184.527 116.541 183.133 117.468 181.606 118.065C179.813 118.727 177.954 118.992 176.041 118.992C175.178 118.992 174.249 118.926 173.319 118.86C172.389 118.793 171.46 118.661 170.53 118.595C169.667 118.462 168.804 118.33 167.941 118.131C167.077 117.998 166.347 117.799 165.749 117.534V82.1264L172.907 81V93.5757C173.704 93.2444 174.567 92.9794 175.43 92.7806C176.36 92.5818 177.29 92.5156 178.219 92.5156C179.879 92.5156 181.473 92.7806 183 93.5094C184.328 94.1058 185.523 95.0334 186.453 96.1597C187.449 97.4186 188.179 98.8101 188.578 100.334C188.989 101.977 189.175 103.832 189.175 105.688ZM158.937 117.336C157.41 117.733 155.816 118.065 154.222 118.263C152.23 118.595 150.172 118.727 148.193 118.727C146.334 118.793 144.541 118.462 142.815 117.866C141.487 117.336 140.358 116.541 139.428 115.48C138.565 114.354 137.968 113.095 137.636 111.704C137.237 110.18 137.104 108.523 137.104 106.933V92.9794H144.262V106.151C144.262 108.47 144.594 110.127 145.192 111.121C145.79 112.115 146.918 112.645 148.578 112.645C149.11 112.645 149.641 112.645 150.238 112.578C150.836 112.512 151.301 112.512 151.766 112.38V92.9794H158.923L158.937 117.336ZM117.158 102.11C117.888 101.315 118.552 100.52 119.349 99.7244C120.08 98.8631 120.81 98.068 121.54 97.2729C122.271 96.4115 122.935 95.6827 123.532 94.9539C124.13 94.225 124.728 93.5624 125.192 93.0324H133.678C131.952 94.9539 130.292 96.8753 128.698 98.651C127.038 100.44 125.312 102.295 123.386 104.137C124.449 105.131 125.445 106.125 126.374 107.251C127.37 108.444 128.366 109.637 129.362 110.962C130.292 112.221 131.221 113.546 132.018 114.805C132.815 116.064 133.479 117.256 134.01 118.316H125.79C125.259 117.455 124.661 116.594 123.997 115.6C123.333 114.606 122.603 113.612 121.939 112.552C121.208 111.558 120.412 110.564 119.548 109.637C118.818 108.775 118.021 107.98 117.158 107.318V118.369H110V82.1264L117.158 81V102.11Z" fill="white"/>
</svg>
