<svg width="400" height="200" viewBox="0 0 400 200" fill="none" xmlns="http://www.w3.org/2000/svg">
<g clip-path="url(#clip0_323_122)">
<path d="M48.2526 131C48.2526 131 21 125.039 21 98.2902V71L31.8299 81.4896V98.2864C31.8299 114.188 48.2526 119.593 48.2526 119.593V131Z" fill="#FEFEFE"/>
<path d="M48.2525 131C48.2525 131 75.5051 125.035 75.5051 98.2789V71L64.6752 81.4896V98.2864C64.6752 114.188 48.2488 119.593 48.2488 119.593V131H48.2525Z" fill="#FEFEFE"/>
<path d="M64.679 81.4896H31.8299L21 71H75.5089L64.679 81.4896Z" fill="#FEFEFE"/>
<path d="M182.725 105.022L182.706 105.158C181.845 111.3 177.758 114.685 171.195 114.685C163.264 114.685 158.14 109.058 158.14 100.351C158.14 91.6444 163.264 86.0291 171.195 86.0291C177.447 86.0291 181.47 89.2298 182.26 94.8112L182.279 94.9466H188.307L188.288 94.7698C187.861 90.9148 186.171 87.4283 183.527 84.946C180.485 82.0913 176.222 80.5719 171.195 80.5719C159.803 80.5719 152.146 88.5227 152.146 100.355C152.146 112.187 159.799 120.138 171.195 120.138C178.533 120.138 187.524 116.227 188.707 105.203L188.726 105.026L182.725 105.019V105.022Z" fill="#FEFEFE"/>
<path d="M199.657 114.079V102.469H216.293V97.0227H199.657V86.9581H218.088V81.5084H193.716V119.529H218.342V114.079H199.657Z" fill="#FEFEFE"/>
<path d="M99.9033 81.4896V114.06H117.053V119.51H93.962V81.4896H99.9033Z" fill="#FEFEFE"/>
<path d="M261.733 81.5084L255.784 113.522L249.779 81.5084H240.336L234.334 113.522L228.386 81.5084H222.583L222.591 83.1482L229.532 119.529H239.032L245.048 87.3192L251.087 119.529H260.583L267.536 83.0504V81.5084H261.733Z" fill="#FEFEFE"/>
<path d="M288.75 80.5719C277.051 80.5719 269.191 88.5227 269.191 100.355C269.191 112.187 277.051 120.138 288.75 120.138C300.449 120.138 308.308 112.187 308.308 100.355C308.308 88.5227 300.449 80.5719 288.75 80.5719ZM302.314 100.355C302.314 108.957 296.864 114.737 288.75 114.737C280.636 114.737 275.185 109.22 275.185 100.355C275.185 91.4902 280.385 85.9727 288.75 85.9727C296.871 85.969 302.314 91.7497 302.314 100.351V100.355Z" fill="#FEFEFE"/>
<path d="M372.901 85.4236V81.5084H368.372L350.683 98.2939V81.5084H344.746V119.529H350.683V106.162L355.103 102.047L368.81 119.529H372.901V115.497L359.34 98.0758L372.901 85.4236Z" fill="#FEFEFE"/>
<path d="M331.777 103.702C337.033 102.442 340.048 98.5083 340.067 92.8818C340.089 85.8035 335.508 81.5648 327.813 81.5384L312.657 81.4933L312.545 119.51L318.486 119.529L318.535 104.12L325.225 104.142L335.152 119.529H340.007L340.018 115.497C340.018 115.497 331.766 103.706 331.777 103.702ZM318.579 86.8265L327.282 86.8528C331.96 86.8679 334.133 88.7333 334.122 92.7276C334.111 96.7218 331.927 98.5835 327.244 98.561L318.538 98.5346L318.576 86.8227L318.579 86.8265Z" fill="#FEFEFE"/>
<path d="M140.335 81.4896H131.895L121.196 116.7V119.51H126.616L129.995 108.107H142.23L145.609 119.51H151.045V116.7L140.335 81.4896ZM131.617 102.506L136.083 87.3117L140.589 102.506H131.621H131.617Z" fill="#FEFEFE"/>
<path d="M378.917 119.529C377.756 119.536 376.812 118.6 376.804 117.438C376.797 116.275 377.73 115.324 378.887 115.316C380.049 115.309 380.993 116.245 381 117.408C381 117.411 381 117.415 381 117.419C381 118.577 380.071 119.521 378.917 119.529ZM378.917 115.493C377.857 115.486 376.996 116.343 376.988 117.408C376.981 118.472 377.835 119.337 378.895 119.345C379.955 119.352 380.817 118.495 380.824 117.43C380.824 117.426 380.824 117.423 380.824 117.415C380.824 116.358 379.97 115.501 378.917 115.493ZM377.97 116.163H379.202C379.61 116.178 379.936 116.512 379.936 116.922C379.944 117.212 379.779 117.479 379.517 117.599C379.498 117.599 379.498 117.629 379.505 117.641L379.959 118.645C379.959 118.645 379.966 118.668 379.955 118.679C379.951 118.683 379.944 118.683 379.936 118.683H379.655C379.633 118.683 379.607 118.671 379.595 118.652L379.183 117.701C379.183 117.701 379.161 117.675 379.142 117.678H378.295C378.295 117.678 378.28 117.682 378.277 117.69C378.277 117.69 378.277 117.69 378.277 117.693V118.645C378.277 118.645 378.265 118.675 378.25 118.675C378.25 118.675 378.25 118.675 378.247 118.675H377.97C377.97 118.675 377.94 118.664 377.94 118.649C377.94 118.649 377.94 118.649 377.94 118.645V116.193C377.94 116.193 377.951 116.166 377.962 116.163C377.962 116.163 377.966 116.163 377.97 116.163ZM378.31 116.467C378.31 116.467 378.28 116.479 378.28 116.494C378.28 116.494 378.28 116.494 378.28 116.497V117.347C378.28 117.347 378.292 117.377 378.307 117.377C378.307 117.377 378.307 117.377 378.31 117.377H379.172C379.408 117.362 379.592 117.167 379.595 116.93C379.595 116.685 379.404 116.486 379.161 116.471H378.31V116.467Z" fill="#FEFEFE"/>
</g>
<defs>
<clipPath id="clip0_323_122">
<rect width="360" height="60" fill="white" transform="translate(21 71)"/>
</clipPath>
</defs>
</svg>
