<svg width="400" height="200" viewBox="0 0 400 200" fill="none" xmlns="http://www.w3.org/2000/svg">
<g clip-path="url(#clip0_323_122)">
<path d="M108.68 49.9999C108.296 49.9905 108.171 50.0561 108.119 50.1967V94.642L151.722 94.4827C152.153 93.9558 152.272 89.9732 152.22 76.3044L152.168 62.3543L151.051 62.3206C138.007 61.8818 130.899 60.0237 123.002 54.9705C120.369 53.2868 119.836 53.0036 117.893 52.1974C115.656 51.2843 113.232 50.6186 110.804 50.2492C109.711 50.0917 109.066 50.0092 108.68 49.9999ZM101.493 50.0392C101.167 50.0392 100.084 50.1611 99.0862 50.3374C94.5942 51.1099 91.428 52.3718 87.557 54.8993C83.4957 57.5487 80.8106 58.8312 76.63 60.0762C72.5856 61.2874 65.7908 62.1818 59.7679 62.3206L58.0468 62.3562L58.0114 76.3925C57.9778 86.4632 58.0282 91.027 58.1829 92.5364L58.3899 94.642H102.096V50.0749L101.493 50.0392ZM150.534 100.52C150.534 100.942 108.154 100.644 108.154 100.644L108.273 150.002C108.497 150.002 109.168 149.634 111.216 148.423C111.594 148.194 113.591 146.878 115.656 145.49C122.711 140.735 127.768 136.543 132.896 131.209C138.833 125.015 142.792 119.591 146.199 112.976C148.401 108.676 150.534 102.781 150.534 100.94V100.518V100.52ZM102.096 100.608L59.7679 100.695C59.6299 100.94 59.9394 102.555 60.4559 104.257C62.246 110.066 65.7199 116.803 69.7121 122.19C74.2712 128.313 80.4843 134.612 87.7285 140.473C92.3063 144.157 100.824 149.826 101.805 149.826L102.098 100.61L102.096 100.608Z" fill="#0177D7"/>
</g>
<path d="M174.459 92.3077V63.3996H180.217L187.059 83.8679C187.69 85.7741 188.15 87.2005 188.44 88.147C188.768 87.0953 189.281 85.5506 189.978 83.513L196.899 63.3996H202.046V92.3077H198.358V68.1124L189.958 92.3077H186.507L178.146 67.6983V92.3077H174.459Z" fill="#FEFEFE"/>
<path d="M208.188 67.4814V63.3996H211.737V67.4814H208.188ZM208.188 92.3077V71.3661H211.737V92.3077H208.188Z" fill="#FEFEFE"/>
<path d="M231.229 84.637L234.719 85.0905C234.338 87.4962 233.359 89.3827 231.781 90.7499C230.217 92.1039 228.291 92.7809 226.004 92.7809C223.138 92.7809 220.831 91.8476 219.082 89.9808C217.347 88.101 216.479 85.4126 216.479 81.9158C216.479 79.6546 216.854 77.6762 217.603 75.9803C218.353 74.2845 219.49 73.0159 221.015 72.1745C222.553 71.32 224.222 70.8928 226.023 70.8928C228.298 70.8928 230.158 71.4712 231.604 72.6281C233.05 73.7718 233.977 75.4019 234.384 77.5184L230.933 78.0508C230.605 76.6442 230.02 75.5859 229.178 74.876C228.35 74.1662 227.345 73.8112 226.161 73.8112C224.374 73.8112 222.921 74.4554 221.804 75.7437C220.686 77.0189 220.127 79.0433 220.127 81.8172C220.127 84.6304 220.666 86.6746 221.744 87.9498C222.822 89.2249 224.229 89.8625 225.964 89.8625C227.358 89.8625 228.521 89.4353 229.455 88.5808C230.388 87.7263 230.979 86.4117 231.229 84.637Z" fill="#FEFEFE"/>
<path d="M238.121 92.3077V71.3661H241.315V74.5408C242.13 73.0553 242.88 72.0759 243.563 71.6027C244.26 71.1294 245.022 70.8928 245.851 70.8928C247.047 70.8928 248.263 71.274 249.499 72.0365L248.276 75.3296C247.408 74.8169 246.541 74.5605 245.673 74.5605C244.897 74.5605 244.201 74.7972 243.583 75.2704C242.965 75.7305 242.525 76.3747 242.262 77.2029C241.867 78.4649 241.67 79.8453 241.67 81.3439V92.3077H238.121Z" fill="#FEFEFE"/>
<path d="M250.691 81.8369C250.691 77.9588 251.769 75.0864 253.925 73.2196C255.726 71.6684 257.921 70.8928 260.511 70.8928C263.39 70.8928 265.743 71.8393 267.571 73.7323C269.398 75.6122 270.312 78.2151 270.312 81.5411C270.312 84.236 269.904 86.3591 269.089 87.9103C268.287 89.4484 267.111 90.6447 265.559 91.4992C264.021 92.3537 262.339 92.7809 260.511 92.7809C257.58 92.7809 255.207 91.841 253.393 89.9611C251.592 88.0812 250.691 85.3732 250.691 81.8369ZM254.339 81.8369C254.339 84.5187 254.924 86.53 256.094 87.8709C257.264 89.1987 258.737 89.8625 260.511 89.8625C262.273 89.8625 263.739 89.1921 264.909 87.8512C266.079 86.5103 266.664 84.4661 266.664 81.7186C266.664 79.1288 266.072 77.17 264.889 75.8423C263.719 74.5014 262.26 73.8309 260.511 73.8309C258.737 73.8309 257.264 74.4948 256.094 75.8226C254.924 77.1503 254.339 79.1551 254.339 81.8369Z" fill="#FEFEFE"/>
<path d="M273.476 86.0568L276.986 85.5046C277.183 86.9112 277.729 87.9892 278.623 88.7385C279.53 89.4879 280.792 89.8625 282.409 89.8625C284.039 89.8625 285.248 89.5339 286.037 88.8766C286.826 88.2061 287.22 87.4239 287.22 86.53C287.22 85.7281 286.872 85.0971 286.175 84.637C285.689 84.3215 284.479 83.9205 282.547 83.4341C279.944 82.7768 278.136 82.2115 277.124 81.7383C276.125 81.2519 275.363 80.588 274.837 79.7467C274.324 78.8922 274.068 77.9522 274.068 76.9268C274.068 75.9935 274.278 75.1324 274.699 74.3436C275.133 73.5417 275.718 72.8779 276.454 72.352C277.006 71.9445 277.755 71.6027 278.702 71.3266C279.661 71.0374 280.687 70.8928 281.778 70.8928C283.421 70.8928 284.861 71.1294 286.096 71.6027C287.345 72.0759 288.265 72.7201 288.857 73.5352C289.449 74.3371 289.856 75.415 290.08 76.7691L286.609 77.2423C286.451 76.1644 285.991 75.323 285.229 74.7183C284.479 74.1136 283.415 73.8112 282.034 73.8112C280.404 73.8112 279.241 74.0807 278.544 74.6197C277.847 75.1587 277.499 75.7897 277.499 76.5127C277.499 76.9728 277.643 77.3869 277.933 77.755C278.222 78.1363 278.675 78.4518 279.293 78.7015C279.648 78.833 280.693 79.1354 282.429 79.6086C284.939 80.2791 286.688 80.8312 287.674 81.265C288.673 81.6857 289.455 82.3036 290.02 83.1186C290.586 83.9337 290.868 84.9459 290.868 86.1553C290.868 87.3385 290.52 88.4559 289.823 89.5076C289.14 90.5461 288.147 91.3546 286.846 91.933C285.544 92.4983 284.072 92.7809 282.429 92.7809C279.707 92.7809 277.63 92.2157 276.197 91.0851C274.778 89.9546 273.87 88.2784 273.476 86.0568Z" fill="#FEFEFE"/>
<path d="M294.171 81.8369C294.171 77.9588 295.249 75.0864 297.405 73.2196C299.206 71.6684 301.401 70.8928 303.991 70.8928C306.87 70.8928 309.223 71.8393 311.05 73.7323C312.878 75.6122 313.791 78.2151 313.791 81.5411C313.791 84.236 313.384 86.3591 312.569 87.9103C311.767 89.4484 310.59 90.6447 309.039 91.4992C307.501 92.3537 305.818 92.7809 303.991 92.7809C301.059 92.7809 298.687 91.841 296.872 89.9611C295.071 88.0812 294.171 85.3732 294.171 81.8369ZM297.819 81.8369C297.819 84.5187 298.404 86.53 299.574 87.8709C300.744 89.1987 302.216 89.8625 303.991 89.8625C305.753 89.8625 307.218 89.1921 308.388 87.8512C309.558 86.5103 310.143 84.4661 310.143 81.7186C310.143 79.1288 309.552 77.17 308.369 75.8423C307.199 74.5014 305.739 73.8309 303.991 73.8309C302.216 73.8309 300.744 74.4948 299.574 75.8226C298.404 77.1503 297.819 79.1551 297.819 81.8369Z" fill="#FEFEFE"/>
<path d="M319.224 92.3077V74.1267H316.088V71.3661H319.224V69.1378C319.224 67.7312 319.348 66.6861 319.598 66.0025C319.94 65.0823 320.538 64.3395 321.393 63.7742C322.26 63.1958 323.47 62.9066 325.021 62.9066C326.02 62.9066 327.124 63.0249 328.334 63.2615L327.801 66.3574C327.065 66.226 326.368 66.1602 325.711 66.1602C324.633 66.1602 323.871 66.3903 323.424 66.8504C322.977 67.3105 322.753 68.1716 322.753 69.4336V71.3661H326.835V74.1267H322.753V92.3077H319.224Z" fill="#FEFEFE"/>
<path d="M337.769 89.1329L338.282 92.2683C337.282 92.4786 336.389 92.5838 335.6 92.5838C334.311 92.5838 333.312 92.38 332.602 91.9725C331.893 91.5649 331.393 91.0325 331.104 90.3752C330.815 89.7048 330.67 88.3047 330.67 86.1751V74.1267H328.067V71.3661H330.67V66.1799L334.2 64.0503V71.3661H337.769V74.1267H334.2V86.3723C334.2 87.3845 334.259 88.0352 334.377 88.3244C334.509 88.6137 334.712 88.8437 334.989 89.0146C335.278 89.1855 335.685 89.271 336.211 89.271C336.605 89.271 337.125 89.2249 337.769 89.1329Z" fill="#FEFEFE"/>
<path d="M174.577 132.692V103.784H184.535C186.783 103.784 188.499 103.922 189.682 104.198C191.338 104.58 192.752 105.27 193.922 106.269C195.447 107.557 196.584 109.207 197.333 111.218C198.095 113.216 198.477 115.504 198.477 118.08C198.477 120.276 198.22 122.221 197.708 123.917C197.195 125.613 196.538 127.02 195.736 128.137C194.934 129.241 194.053 130.116 193.093 130.76C192.147 131.391 190.997 131.871 189.643 132.199C188.302 132.528 186.757 132.692 185.009 132.692H174.577ZM178.403 129.281H184.575C186.481 129.281 187.973 129.103 189.051 128.748C190.142 128.394 191.01 127.894 191.654 127.25C192.561 126.343 193.264 125.127 193.764 123.602C194.277 122.064 194.533 120.204 194.533 118.021C194.533 114.998 194.033 112.677 193.034 111.061C192.048 109.43 190.845 108.339 189.426 107.787C188.4 107.393 186.75 107.196 184.476 107.196H178.403V129.281Z" fill="#FEFEFE"/>
<path d="M218.047 125.948L221.715 126.402C221.137 128.545 220.065 130.208 218.501 131.391C216.937 132.574 214.938 133.166 212.506 133.166C209.443 133.166 207.011 132.226 205.21 130.346C203.422 128.453 202.529 125.804 202.529 122.399C202.529 118.876 203.436 116.141 205.25 114.196C207.064 112.25 209.417 111.277 212.309 111.277C215.109 111.277 217.397 112.231 219.171 114.137C220.946 116.043 221.833 118.725 221.833 122.182C221.833 122.392 221.827 122.708 221.814 123.129H206.196C206.328 125.429 206.978 127.191 208.148 128.413C209.318 129.636 210.778 130.247 212.526 130.247C213.828 130.247 214.938 129.905 215.859 129.222C216.779 128.538 217.508 127.447 218.047 125.948ZM206.393 120.21H218.087C217.929 118.449 217.482 117.127 216.746 116.247C215.615 114.879 214.15 114.196 212.349 114.196C210.719 114.196 209.345 114.741 208.227 115.833C207.123 116.924 206.512 118.383 206.393 120.21Z" fill="#FEFEFE"/>
<path d="M227.443 132.692V114.511H224.308V111.751H227.443V109.522C227.443 108.116 227.568 107.071 227.818 106.387C228.16 105.467 228.758 104.724 229.612 104.159C230.48 103.58 231.689 103.291 233.241 103.291C234.24 103.291 235.344 103.41 236.553 103.646L236.021 106.742C235.285 106.611 234.588 106.545 233.931 106.545C232.853 106.545 232.09 106.775 231.643 107.235C231.196 107.695 230.973 108.556 230.973 109.818V111.751H235.055V114.511H230.973V132.692H227.443Z" fill="#FEFEFE"/>
<path d="M252.575 125.948L256.242 126.402C255.664 128.545 254.593 130.208 253.028 131.391C251.464 132.574 249.466 133.166 247.034 133.166C243.971 133.166 241.539 132.226 239.738 130.346C237.95 128.453 237.056 125.804 237.056 122.399C237.056 118.876 237.963 116.141 239.777 114.196C241.591 112.25 243.944 111.277 246.836 111.277C249.637 111.277 251.924 112.231 253.699 114.137C255.473 116.043 256.361 118.725 256.361 122.182C256.361 122.392 256.354 122.708 256.341 123.129H240.724C240.855 125.429 241.506 127.191 242.676 128.413C243.846 129.636 245.305 130.247 247.053 130.247C248.355 130.247 249.466 129.905 250.386 129.222C251.306 128.538 252.036 127.447 252.575 125.948ZM240.921 120.21H252.614C252.456 118.449 252.009 117.127 251.273 116.247C250.143 114.879 248.677 114.196 246.876 114.196C245.246 114.196 243.872 114.741 242.755 115.833C241.65 116.924 241.039 118.383 240.921 120.21Z" fill="#FEFEFE"/>
<path d="M261.123 132.692V111.751H264.317V114.728C265.855 112.428 268.077 111.277 270.982 111.277C272.244 111.277 273.401 111.507 274.453 111.968C275.517 112.415 276.313 113.006 276.839 113.742C277.364 114.478 277.733 115.353 277.943 116.365C278.074 117.022 278.14 118.173 278.14 119.816V132.692H274.591V119.954C274.591 118.508 274.453 117.43 274.177 116.72C273.9 115.997 273.407 115.425 272.698 115.004C272.001 114.57 271.179 114.354 270.233 114.354C268.721 114.354 267.413 114.833 266.309 115.793C265.218 116.753 264.672 118.573 264.672 121.255V132.692H261.123Z" fill="#FEFEFE"/>
<path d="M297.593 132.692V130.05C296.265 132.127 294.313 133.166 291.736 133.166C290.066 133.166 288.528 132.705 287.122 131.785C285.728 130.865 284.644 129.583 283.868 127.94C283.106 126.284 282.724 124.384 282.724 122.241C282.724 120.151 283.073 118.258 283.769 116.562C284.466 114.853 285.511 113.545 286.905 112.638C288.298 111.731 289.856 111.277 291.578 111.277C292.84 111.277 293.964 111.547 294.95 112.086C295.936 112.612 296.738 113.302 297.356 114.156V103.784H300.886V132.692H297.593ZM286.372 122.241C286.372 124.923 286.938 126.928 288.068 128.256C289.199 129.583 290.533 130.247 292.071 130.247C293.622 130.247 294.937 129.616 296.015 128.354C297.106 127.079 297.652 125.14 297.652 122.537C297.652 119.671 297.1 117.568 295.995 116.227C294.891 114.886 293.53 114.216 291.913 114.216C290.336 114.216 289.015 114.86 287.95 116.148C286.898 117.436 286.372 119.467 286.372 122.241Z" fill="#FEFEFE"/>
<path d="M321.225 125.948L324.893 126.402C324.315 128.545 323.243 130.208 321.679 131.391C320.115 132.574 318.116 133.166 315.684 133.166C312.621 133.166 310.189 132.226 308.388 130.346C306.6 128.453 305.707 125.804 305.707 122.399C305.707 118.876 306.614 116.141 308.428 114.196C310.242 112.25 312.595 111.277 315.487 111.277C318.287 111.277 320.575 112.231 322.349 114.137C324.124 116.043 325.011 118.725 325.011 122.182C325.011 122.392 325.005 122.708 324.992 123.129H309.374C309.506 125.429 310.156 127.191 311.326 128.413C312.496 129.636 313.956 130.247 315.704 130.247C317.006 130.247 318.116 129.905 319.037 129.222C319.957 128.538 320.686 127.447 321.225 125.948ZM309.571 120.21H321.265C321.107 118.449 320.66 117.127 319.924 116.247C318.793 114.879 317.328 114.196 315.527 114.196C313.896 114.196 312.523 114.741 311.405 115.833C310.301 116.924 309.69 118.383 309.571 120.21Z" fill="#FEFEFE"/>
<path d="M329.734 132.692V111.751H332.928V114.925C333.743 113.44 334.493 112.461 335.176 111.987C335.873 111.514 336.635 111.277 337.464 111.277C338.66 111.277 339.876 111.659 341.112 112.421L339.889 115.714C339.021 115.202 338.154 114.945 337.286 114.945C336.511 114.945 335.814 115.182 335.196 115.655C334.578 116.115 334.138 116.759 333.875 117.588C333.48 118.85 333.283 120.23 333.283 121.729V132.692H329.734Z" fill="#FEFEFE"/>
<defs>
<clipPath id="clip0_323_122">
<rect width="94.2308" height="100" fill="white" transform="translate(58 50)"/>
</clipPath>
</defs>
</svg>
