<svg width="400" height="200" viewBox="0 0 400 200" fill="none" xmlns="http://www.w3.org/2000/svg">
<g clip-path="url(#clip0_323_122)">
<path d="M73.89 52.7364C72.7609 54.2239 71.7584 55.8021 70.8929 57.4548C75.7848 61.1147 78.9091 67.0021 78.9091 73.7795C78.9091 80.4568 75.8431 86.2573 71.0095 89.9488C71.907 91.5816 72.9219 93.1479 74.0464 94.6355C80.9152 90.299 85.3963 82.6553 85.3963 73.7795C85.3963 64.8035 80.8569 57.102 73.89 52.7364ZM76.2194 73.7689C76.2467 71.1302 75.6792 68.5189 74.5585 66.1265C73.4378 63.7341 71.7923 61.6213 69.7428 59.943C67.9178 64.3034 66.9855 68.9815 67.0005 73.7039C67.0156 78.4264 67.9775 83.0985 69.8302 87.4474C71.8497 85.7806 73.4712 83.6889 74.5776 81.3233C75.6839 78.9577 76.2474 76.3774 76.2273 73.7689H76.2194ZM87.4315 42.0464C85.5275 42.8686 83.7103 43.8767 82.007 45.0559C87.5265 48.7025 91.8508 53.875 94.4461 59.9351C96.3201 58.9228 98.3918 58.3238 100.52 58.1789C97.7441 51.7013 93.2131 46.1165 87.4315 42.0464ZM87.6064 78.8664C86.9666 82.4844 85.5875 85.9338 83.5543 89.0018C81.5211 92.0698 78.8769 94.6915 75.7848 96.7051C77.0411 98.1042 78.4123 99.3971 79.8843 100.57C85.4864 97.0774 89.8151 91.8934 92.236 85.7781C90.03 83.9877 88.4169 81.5796 87.6064 78.8664ZM94.56 87.271C92.0235 93.3751 87.7259 98.597 82.2084 102.279C83.9416 103.438 85.7787 104.434 87.6965 105.257C93.4758 101.142 97.9795 95.5002 100.697 88.9719C98.5536 88.8427 96.4617 88.263 94.56 87.271ZM79.6776 46.7621C78.208 47.9386 76.8467 49.2427 75.6099 50.659C78.7097 52.6557 81.3671 55.2595 83.4197 58.3113C85.4724 61.363 86.8771 64.7986 87.5481 68.4081C88.3544 65.7002 89.943 63.2869 92.1167 61.4675C89.6416 55.381 85.2862 50.232 79.6776 46.7621Z" fill="white"/>
<path d="M152.2 133.436C152.2 131.737 153.819 130.916 155.677 130.916C157.625 130.916 159.302 131.766 160.158 133.612L164.491 131.211C162.811 128.075 159.599 126.29 155.677 126.29C150.843 126.29 146.98 129.07 146.98 133.522C146.98 141.988 159.777 139.615 159.777 143.833C159.777 145.708 158.006 146.466 155.735 146.466C153.112 146.466 151.23 145.179 150.459 143.07L146.036 145.619C147.541 149.015 150.992 151.148 155.735 151.148C160.866 151.148 164.994 148.602 164.994 143.854C164.994 135.134 152.2 137.738 152.2 133.436Z" fill="white"/>
<path d="M194.237 138.767C194.237 131.972 189.374 126.29 182.299 126.29C174.839 126.29 169.741 131.737 169.741 138.707C169.741 145.798 174.839 151.156 182.683 151.156C187.339 151.156 190.898 149.223 193.087 146.003L188.847 143.541C187.729 145.181 185.577 146.469 182.715 146.469C178.912 146.469 175.936 144.594 175.109 140.905H194.036C194.163 140.2 194.231 139.484 194.237 138.767ZM175.075 136.745C175.783 133.201 178.406 130.916 182.23 130.916C185.325 130.916 188.325 132.675 189.038 136.745H175.075Z" fill="white"/>
<path d="M218.265 142.517C217.144 144.684 214.785 146.148 211.955 146.148C207.768 146.148 204.585 142.988 204.585 138.707C204.585 134.426 207.765 131.298 211.955 131.298C214.785 131.298 217.144 132.733 218.175 134.928L222.597 132.382C220.711 128.696 216.643 126.29 211.997 126.29C204.842 126.29 199.439 131.679 199.439 138.707C199.439 145.734 204.821 151.166 211.984 151.166C216.643 151.166 220.711 148.736 222.688 145.016L218.265 142.517Z" fill="white"/>
<path d="M244.738 126.903V139.557C244.738 144.392 242.088 146.382 238.694 146.382C235.453 146.382 233.359 144.478 233.359 140.905V126.903H228.229V141.403C228.229 147.554 232.031 151.145 237.369 151.145C240.609 151.145 243.175 149.945 244.738 147.514V150.532H249.866V126.903H244.738Z" fill="white"/>
<path d="M263.164 130.892V126.903H258.033V150.542H263.164V138.62C263.164 133.354 267.115 131.774 270.475 132.001V126.492C267.496 126.492 264.579 127.664 263.164 130.892Z" fill="white"/>
<path d="M276.459 126.903V150.542H281.589V126.903H276.459Z" fill="white"/>
<path d="M302.961 131.824V126.903H297.065V120.284L291.935 121.808V126.903H287.544V131.824H291.935V143.146C291.935 149.299 295.062 151.466 302.961 150.519V145.942C299.071 146.148 297.065 146.177 297.065 143.159V131.837L302.961 131.824Z" fill="white"/>
<path d="M326.281 126.903L320.207 144.057L313.103 126.893H307.501L317.584 150.113L317.348 150.582C316.169 153.715 314.34 155.416 311.009 155.211V159.984C316.492 160.334 320.385 157.291 322.624 151.314L331.764 126.914L326.281 126.903Z" fill="white"/>
<path d="M185.572 39.5082V61.7834C177.399 60.4669 165.787 63.7503 165.787 76.7284V106.331H146.005V40.8221H157.185C159.055 40.8229 160.874 41.4294 162.366 42.5498C163.858 43.6702 164.942 45.2433 165.453 47.0307C170.464 42.2017 177.593 39.7451 184.549 39.5266C184.559 39.5203 184.57 39.5169 184.582 39.5169C184.594 39.5169 184.605 39.5203 184.615 39.5266C184.925 39.5082 185.248 39.5082 185.572 39.5082Z" fill="white"/>
<path d="M101.935 39C98.0032 38.9938 94.0977 39.6372 90.3783 40.9037C96.2243 45.3853 100.738 51.3584 103.437 58.1868C111.279 58.8608 117.117 64.8351 117.117 73.5925C117.117 82.263 111.369 88.2083 103.602 88.9719C100.938 95.8289 96.4557 101.841 90.63 106.371C94.2711 107.576 98.084 108.189 101.922 108.188C121.32 108.188 136.886 93.1005 136.886 73.5925C136.886 54.0845 121.325 39 101.935 39Z" fill="white"/>
<path d="M239.078 81.7943C236.513 86.3652 231.679 89.1167 225.96 89.1167C217.38 89.1167 210.776 82.966 210.776 73.6531C210.776 64.3401 217.38 58.1867 225.96 58.1867C231.618 58.1867 236.425 60.8803 239.02 65.3907L255.945 55.667C249.85 45.6194 238.72 39.0579 225.96 39.0579C206.56 39.0579 190.996 54.1424 190.996 73.6531C190.996 93.1637 206.56 108.248 225.96 108.248C238.813 108.248 249.985 101.629 256.059 91.4338L239.078 81.7943Z" fill="white"/>
<path d="M320.828 40.8168C318.96 40.8201 317.145 41.4238 315.651 42.5377C314.158 43.6516 313.068 45.2158 312.544 46.9965C308.092 41.9885 301.525 39 292.555 39C275.29 39 261.041 54.0556 261.041 73.5635C261.041 93.0715 275.29 108.156 292.555 108.156C301.517 108.156 308.092 105.17 312.544 100.16C313.067 101.941 314.157 103.505 315.651 104.62C317.144 105.734 318.96 106.338 320.828 106.342H332V40.8168H320.828ZM296.093 89.0272C287.515 89.0272 280.94 82.8765 280.94 73.5609C280.94 64.2453 287.515 58.1236 296.093 58.1236C304.671 58.1236 311.274 64.2769 311.274 73.5635C311.274 82.8502 304.671 89.0272 296.093 89.0272Z" fill="white"/>
</g>
<defs>
<clipPath id="clip0_323_122">
<rect width="265" height="121" fill="white" transform="translate(67 39)"/>
</clipPath>
</defs>
</svg>
