<svg width="400" height="200" viewBox="0 0 400 200" fill="none" xmlns="http://www.w3.org/2000/svg">
<path fill-rule="evenodd" clip-rule="evenodd" d="M100.71 158.044L74.9429 170.504V28L100.71 40.478V158.044Z" fill="#F58536"/>
<path fill-rule="evenodd" clip-rule="evenodd" d="M49.1757 158.044L74.9426 170.504V28L49.1757 40.478V158.044Z" fill="#9D5025"/>
<path fill-rule="evenodd" clip-rule="evenodd" d="M65.2286 79.8571L21.7744 74.5061V53.7379L65.2286 63.6259V79.8571V79.8571Z" fill="#F58536"/>
<path fill-rule="evenodd" clip-rule="evenodd" d="M14 57.4911L21.7744 53.7379V74.5061L14 76.5902V57.4911Z" fill="#9D5025"/>
<path fill-rule="evenodd" clip-rule="evenodd" d="M65.2286 79.8571L56.2332 81.1432L14 76.5902L21.7744 74.5043L65.2286 79.8571Z" fill="#6B3A19"/>
<path fill-rule="evenodd" clip-rule="evenodd" d="M129.655 117.17L136.102 115.884V99.252H129.655V117.17Z" fill="#F58536"/>
<path fill-rule="evenodd" clip-rule="evenodd" d="M84.5679 113.399L129.657 117.466V99.252H84.5679V113.397V113.399Z" fill="#9D5025"/>
<path d="M181.131 59H176.33L190.216 21.1818H194.943L208.83 59H204.028L192.727 27.1648H192.432L181.131 59ZM182.903 44.2273H202.256V48.2898H182.903V44.2273ZM218.644 59L208.303 21.1818H212.957L220.86 51.983H221.229L229.281 21.1818H234.451L242.502 51.983H242.871L250.775 21.1818H255.428L245.087 59H240.36L232.013 28.8636H231.718L223.371 59H218.644ZM281.816 30.6364C281.594 28.7652 280.696 27.3125 279.12 26.2784C277.544 25.2443 275.612 24.7273 273.322 24.7273C271.647 24.7273 270.183 24.9981 268.927 25.5398C267.683 26.0814 266.711 26.8262 266.009 27.7741C265.32 28.7221 264.975 29.7992 264.975 31.0057C264.975 32.0151 265.215 32.883 265.695 33.6094C266.188 34.3234 266.816 34.9205 267.579 35.4006C268.342 35.8684 269.142 36.2562 269.979 36.5639C270.817 36.8594 271.586 37.0994 272.288 37.2841L276.129 38.3182C277.113 38.5767 278.209 38.9337 279.415 39.3892C280.634 39.8447 281.798 40.4664 282.906 41.2543C284.026 42.0298 284.949 43.027 285.675 44.2457C286.402 45.4645 286.765 46.9602 286.765 48.733C286.765 50.7765 286.229 52.6231 285.158 54.2727C284.1 55.9223 282.549 57.2334 280.505 58.206C278.474 59.1785 276.005 59.6648 273.1 59.6648C270.392 59.6648 268.047 59.2277 266.065 58.3537C264.095 57.4796 262.544 56.2609 261.411 54.6974C260.291 53.134 259.657 51.3182 259.509 49.25H264.237C264.36 50.678 264.84 51.8598 265.677 52.7955C266.526 53.7187 267.597 54.4081 268.89 54.8636C270.195 55.3068 271.598 55.5284 273.1 55.5284C274.848 55.5284 276.418 55.2453 277.809 54.679C279.2 54.1004 280.302 53.3002 281.114 52.2784C281.927 51.2443 282.333 50.0379 282.333 48.6591C282.333 47.4034 281.982 46.3816 281.281 45.5938C280.579 44.8059 279.656 44.1657 278.511 43.6733C277.366 43.1809 276.129 42.75 274.799 42.3807L270.146 41.0511C267.191 40.2017 264.852 38.9891 263.129 37.4134C261.405 35.8376 260.543 33.7756 260.543 31.2273C260.543 29.1098 261.116 27.2633 262.261 25.6875C263.418 24.0994 264.969 22.8684 266.914 21.9943C268.871 21.108 271.057 20.6648 273.469 20.6648C275.907 20.6648 278.074 21.1018 279.969 21.9759C281.865 22.8376 283.367 24.0194 284.475 25.5213C285.595 27.0232 286.186 28.7282 286.248 30.6364H281.816ZM179.58 119V81.1818H192.358C195.313 81.1818 197.738 81.6866 199.634 82.696C201.529 83.6932 202.933 85.0658 203.844 86.8139C204.755 88.562 205.21 90.5502 205.21 92.7784C205.21 95.0066 204.755 96.9825 203.844 98.706C202.933 100.429 201.536 101.784 199.652 102.768C197.768 103.741 195.362 104.227 192.432 104.227H182.091V100.091H192.284C194.303 100.091 195.928 99.7955 197.159 99.2045C198.402 98.6136 199.301 97.7765 199.855 96.6932C200.421 95.5975 200.705 94.2926 200.705 92.7784C200.705 91.2642 200.421 89.9408 199.855 88.8082C199.289 87.6757 198.384 86.8016 197.141 86.1861C195.897 85.5582 194.254 85.2443 192.21 85.2443H184.159V119H179.58ZM197.381 102.011L206.688 119H201.369L192.21 102.011H197.381ZM223.468 119.591C220.908 119.591 218.661 118.982 216.728 117.763C214.808 116.544 213.306 114.839 212.223 112.648C211.152 110.456 210.616 107.896 210.616 104.966C210.616 102.011 211.152 99.4323 212.223 97.2287C213.306 95.0251 214.808 93.3139 216.728 92.0952C218.661 90.8764 220.908 90.267 223.468 90.267C226.029 90.267 228.27 90.8764 230.19 92.0952C232.123 93.3139 233.625 95.0251 234.696 97.2287C235.779 99.4323 236.321 102.011 236.321 104.966C236.321 107.896 235.779 110.456 234.696 112.648C233.625 114.839 232.123 116.544 230.19 117.763C228.27 118.982 226.029 119.591 223.468 119.591ZM223.468 115.676C225.413 115.676 227.014 115.178 228.27 114.18C229.525 113.183 230.455 111.872 231.058 110.247C231.661 108.622 231.963 106.862 231.963 104.966C231.963 103.07 231.661 101.304 231.058 99.6662C230.455 98.0289 229.525 96.7055 228.27 95.696C227.014 94.6866 225.413 94.1818 223.468 94.1818C221.523 94.1818 219.923 94.6866 218.667 95.696C217.412 96.7055 216.482 98.0289 215.879 99.6662C215.276 101.304 214.974 103.07 214.974 104.966C214.974 106.862 215.276 108.622 215.879 110.247C216.482 111.872 217.412 113.183 218.667 114.18C219.923 115.178 221.523 115.676 223.468 115.676ZM260.848 107.403V90.6364H265.206V119H260.848V114.199H260.553C259.888 115.639 258.854 116.864 257.45 117.874C256.047 118.871 254.274 119.369 252.132 119.369C250.359 119.369 248.784 118.982 247.405 118.206C246.026 117.418 244.943 116.236 244.155 114.661C243.367 113.072 242.973 111.072 242.973 108.659V90.6364H247.331V108.364C247.331 110.432 247.91 112.081 249.067 113.312C250.236 114.544 251.726 115.159 253.536 115.159C254.619 115.159 255.721 114.882 256.841 114.328C257.973 113.774 258.921 112.925 259.685 111.78C260.46 110.635 260.848 109.176 260.848 107.403ZM285.523 90.6364V94.3295H270.824V90.6364H285.523ZM275.108 83.8409H279.466V110.875C279.466 112.106 279.645 113.029 280.002 113.645C280.371 114.248 280.839 114.654 281.405 114.864C281.984 115.061 282.593 115.159 283.233 115.159C283.713 115.159 284.107 115.134 284.415 115.085C284.723 115.024 284.969 114.974 285.154 114.938L286.04 118.852C285.745 118.963 285.332 119.074 284.803 119.185C284.274 119.308 283.603 119.369 282.79 119.369C281.559 119.369 280.353 119.105 279.171 118.575C278.001 118.046 277.029 117.24 276.253 116.156C275.49 115.073 275.108 113.706 275.108 112.057V83.8409ZM303.666 119.591C300.933 119.591 298.575 118.988 296.593 117.781C294.624 116.562 293.103 114.864 292.032 112.685C290.974 110.493 290.444 107.945 290.444 105.04C290.444 102.134 290.974 99.5739 292.032 97.358C293.103 95.1297 294.593 93.3939 296.501 92.1506C298.422 90.8949 300.662 90.267 303.223 90.267C304.7 90.267 306.159 90.5133 307.599 91.0057C309.039 91.4981 310.35 92.2983 311.532 93.4062C312.714 94.5019 313.656 95.9545 314.358 97.7642C315.059 99.5739 315.41 101.802 315.41 104.449V106.295H293.547V102.528H310.978C310.978 100.928 310.658 99.5 310.018 98.2443C309.39 96.9886 308.492 95.9976 307.322 95.2713C306.165 94.545 304.798 94.1818 303.223 94.1818C301.487 94.1818 299.985 94.6127 298.717 95.4744C297.461 96.3239 296.495 97.4318 295.818 98.7983C295.141 100.165 294.802 101.63 294.802 103.193V105.705C294.802 107.847 295.172 109.662 295.91 111.152C296.661 112.629 297.701 113.756 299.031 114.531C300.36 115.295 301.905 115.676 303.666 115.676C304.811 115.676 305.845 115.516 306.768 115.196C307.704 114.864 308.51 114.371 309.187 113.719C309.864 113.054 310.387 112.229 310.757 111.244L314.967 112.426C314.524 113.854 313.779 115.11 312.733 116.193C311.686 117.264 310.394 118.101 308.855 118.705C307.316 119.295 305.586 119.591 303.666 119.591ZM333.784 119.517C331.617 119.517 329.666 119.086 327.93 118.224C326.194 117.363 324.803 116.181 323.757 114.679C322.71 113.177 322.138 111.466 322.039 109.545H326.471C326.644 111.257 327.419 112.672 328.798 113.793C330.189 114.901 331.851 115.455 333.784 115.455C335.335 115.455 336.714 115.091 337.92 114.365C339.139 113.639 340.093 112.642 340.782 111.374C341.484 110.093 341.835 108.647 341.835 107.034C341.835 105.384 341.472 103.913 340.745 102.621C340.031 101.316 339.047 100.288 337.791 99.5369C336.535 98.786 335.101 98.4044 333.488 98.392C332.331 98.3797 331.143 98.5582 329.924 98.9276C328.706 99.2846 327.702 99.7462 326.914 100.312L322.63 99.7955L324.92 81.1818H344.568V85.2443H328.761L327.431 96.3977H327.653C328.429 95.7822 329.401 95.2713 330.571 94.8651C331.74 94.4588 332.959 94.2557 334.227 94.2557C336.541 94.2557 338.603 94.8097 340.413 95.9176C342.235 97.0133 343.663 98.5152 344.697 100.423C345.743 102.331 346.267 104.51 346.267 106.96C346.267 109.373 345.725 111.527 344.642 113.423C343.571 115.307 342.093 116.796 340.21 117.892C338.326 118.975 336.184 119.517 333.784 119.517ZM366.381 119.517C363.943 119.517 361.77 119.098 359.862 118.261C357.966 117.424 356.458 116.261 355.338 114.771C354.23 113.269 353.627 111.527 353.528 109.545H358.182C358.28 110.764 358.699 111.817 359.438 112.703C360.176 113.577 361.143 114.254 362.337 114.734C363.531 115.214 364.854 115.455 366.307 115.455C367.932 115.455 369.372 115.171 370.628 114.605C371.884 114.039 372.868 113.251 373.582 112.241C374.296 111.232 374.653 110.062 374.653 108.733C374.653 107.342 374.309 106.117 373.619 105.058C372.93 103.987 371.92 103.15 370.591 102.547C369.261 101.944 367.636 101.642 365.716 101.642H362.688V97.5795H365.716C367.218 97.5795 368.535 97.3087 369.668 96.767C370.813 96.2254 371.705 95.4621 372.345 94.4773C372.998 93.4924 373.324 92.3352 373.324 91.0057C373.324 89.7254 373.041 88.6113 372.474 87.6634C371.908 86.7154 371.108 85.9768 370.074 85.4474C369.052 84.9181 367.846 84.6534 366.455 84.6534C365.15 84.6534 363.919 84.8935 362.761 85.3736C361.616 85.8414 360.681 86.5246 359.955 87.4233C359.228 88.3097 358.834 89.3807 358.773 90.6364H354.341C354.415 88.6544 355.012 86.9186 356.132 85.429C357.252 83.9271 358.717 82.7576 360.527 81.9205C362.349 81.0833 364.349 80.6648 366.528 80.6648C368.867 80.6648 370.874 81.1387 372.548 82.0866C374.223 83.0223 375.509 84.2595 376.408 85.7983C377.306 87.3371 377.756 88.9991 377.756 90.7841C377.756 92.9138 377.196 94.7296 376.075 96.2315C374.967 97.7334 373.459 98.7737 371.551 99.3523V99.6477C373.939 100.042 375.804 101.057 377.146 102.695C378.488 104.32 379.159 106.332 379.159 108.733C379.159 110.789 378.599 112.635 377.479 114.273C376.371 115.898 374.857 117.178 372.936 118.114C371.016 119.049 368.83 119.517 366.381 119.517ZM179.58 179V141.182H192.358C195.313 141.182 197.738 141.687 199.634 142.696C201.529 143.693 202.933 145.066 203.844 146.814C204.755 148.562 205.21 150.55 205.21 152.778C205.21 155.007 204.755 156.982 203.844 158.706C202.933 160.429 201.536 161.784 199.652 162.768C197.768 163.741 195.362 164.227 192.432 164.227H182.091V160.091H192.284C194.303 160.091 195.928 159.795 197.159 159.205C198.402 158.614 199.301 157.777 199.855 156.693C200.421 155.598 200.705 154.293 200.705 152.778C200.705 151.264 200.421 149.941 199.855 148.808C199.289 147.676 198.384 146.802 197.141 146.186C195.897 145.558 194.254 145.244 192.21 145.244H184.159V179H179.58ZM197.381 162.011L206.688 179H201.369L192.21 162.011H197.381ZM223.838 179.591C221.105 179.591 218.747 178.988 216.765 177.781C214.796 176.562 213.275 174.864 212.204 172.685C211.145 170.493 210.616 167.945 210.616 165.04C210.616 162.134 211.145 159.574 212.204 157.358C213.275 155.13 214.765 153.394 216.673 152.151C218.593 150.895 220.834 150.267 223.395 150.267C224.872 150.267 226.331 150.513 227.771 151.006C229.211 151.498 230.522 152.298 231.704 153.406C232.886 154.502 233.828 155.955 234.529 157.764C235.231 159.574 235.582 161.802 235.582 164.449V166.295H213.718V162.528H231.15C231.15 160.928 230.83 159.5 230.19 158.244C229.562 156.989 228.663 155.998 227.494 155.271C226.337 154.545 224.97 154.182 223.395 154.182C221.659 154.182 220.157 154.613 218.889 155.474C217.633 156.324 216.667 157.432 215.99 158.798C215.313 160.165 214.974 161.63 214.974 163.193V165.705C214.974 167.847 215.343 169.662 216.082 171.152C216.833 172.629 217.873 173.756 219.203 174.531C220.532 175.295 222.077 175.676 223.838 175.676C224.983 175.676 226.017 175.516 226.94 175.196C227.876 174.864 228.682 174.371 229.359 173.719C230.036 173.054 230.559 172.229 230.929 171.244L235.139 172.426C234.696 173.854 233.951 175.11 232.904 176.193C231.858 177.264 230.565 178.101 229.027 178.705C227.488 179.295 225.758 179.591 223.838 179.591ZM262.302 156.989L258.387 158.097C258.141 157.444 257.778 156.81 257.298 156.195C256.83 155.567 256.19 155.05 255.377 154.643C254.565 154.237 253.525 154.034 252.257 154.034C250.521 154.034 249.074 154.434 247.917 155.234C246.772 156.022 246.2 157.026 246.2 158.244C246.2 159.328 246.594 160.183 247.382 160.811C248.17 161.439 249.401 161.962 251.075 162.381L255.285 163.415C257.821 164.03 259.711 164.972 260.954 166.24C262.198 167.496 262.819 169.115 262.819 171.097C262.819 172.722 262.351 174.174 261.416 175.455C260.493 176.735 259.2 177.744 257.538 178.483C255.876 179.222 253.943 179.591 251.74 179.591C248.847 179.591 246.452 178.963 244.556 177.707C242.661 176.452 241.46 174.617 240.956 172.205L245.092 171.17C245.486 172.697 246.231 173.842 247.326 174.605C248.434 175.368 249.881 175.75 251.666 175.75C253.697 175.75 255.31 175.319 256.504 174.457C257.71 173.583 258.314 172.537 258.314 171.318C258.314 170.333 257.969 169.509 257.279 168.844C256.59 168.167 255.531 167.662 254.103 167.33L249.376 166.222C246.779 165.606 244.87 164.652 243.652 163.359C242.445 162.054 241.842 160.423 241.842 158.466C241.842 156.866 242.291 155.45 243.19 154.219C244.101 152.988 245.338 152.021 246.902 151.32C248.477 150.618 250.262 150.267 252.257 150.267C255.064 150.267 257.267 150.883 258.868 152.114C260.48 153.345 261.625 154.97 262.302 156.989ZM280.902 179.591C278.341 179.591 276.095 178.982 274.162 177.763C272.241 176.544 270.74 174.839 269.656 172.648C268.585 170.456 268.05 167.896 268.05 164.966C268.05 162.011 268.585 159.432 269.656 157.229C270.74 155.025 272.241 153.314 274.162 152.095C276.095 150.876 278.341 150.267 280.902 150.267C283.463 150.267 285.703 150.876 287.624 152.095C289.556 153.314 291.058 155.025 292.129 157.229C293.213 159.432 293.754 162.011 293.754 164.966C293.754 167.896 293.213 170.456 292.129 172.648C291.058 174.839 289.556 176.544 287.624 177.763C285.703 178.982 283.463 179.591 280.902 179.591ZM280.902 175.676C282.847 175.676 284.447 175.178 285.703 174.18C286.959 173.183 287.888 171.872 288.491 170.247C289.095 168.622 289.396 166.862 289.396 164.966C289.396 163.07 289.095 161.304 288.491 159.666C287.888 158.029 286.959 156.705 285.703 155.696C284.447 154.687 282.847 154.182 280.902 154.182C278.957 154.182 277.357 154.687 276.101 155.696C274.845 156.705 273.916 158.029 273.312 159.666C272.709 161.304 272.408 163.07 272.408 164.966C272.408 166.862 272.709 168.622 273.312 170.247C273.916 171.872 274.845 173.183 276.101 174.18C277.357 175.178 278.957 175.676 280.902 175.676ZM304.765 141.182V179H300.407V141.182H304.765ZM335.94 150.636L325.451 179H321.019L310.531 150.636H315.258L323.087 173.239H323.383L331.212 150.636H335.94ZM352.568 179.591C349.835 179.591 347.478 178.988 345.496 177.781C343.526 176.562 342.006 174.864 340.935 172.685C339.876 170.493 339.347 167.945 339.347 165.04C339.347 162.134 339.876 159.574 340.935 157.358C342.006 155.13 343.495 153.394 345.403 152.151C347.324 150.895 349.564 150.267 352.125 150.267C353.602 150.267 355.061 150.513 356.501 151.006C357.942 151.498 359.253 152.298 360.435 153.406C361.616 154.502 362.558 155.955 363.26 157.764C363.962 159.574 364.312 161.802 364.312 164.449V166.295H342.449V162.528H359.881C359.881 160.928 359.561 159.5 358.92 158.244C358.293 156.989 357.394 155.998 356.224 155.271C355.067 154.545 353.701 154.182 352.125 154.182C350.389 154.182 348.887 154.613 347.619 155.474C346.364 156.324 345.397 157.432 344.72 158.798C344.043 160.165 343.705 161.63 343.705 163.193V165.705C343.705 167.847 344.074 169.662 344.812 171.152C345.563 172.629 346.604 173.756 347.933 174.531C349.263 175.295 350.808 175.676 352.568 175.676C353.713 175.676 354.747 175.516 355.67 175.196C356.606 174.864 357.412 174.371 358.089 173.719C358.767 173.054 359.29 172.229 359.659 171.244L363.869 172.426C363.426 173.854 362.681 175.11 361.635 176.193C360.589 177.264 359.296 178.101 357.757 178.705C356.218 179.295 354.489 179.591 352.568 179.591ZM370.942 179V150.636H375.152V154.92H375.447C375.964 153.517 376.9 152.378 378.254 151.504C379.608 150.63 381.135 150.193 382.834 150.193C383.154 150.193 383.554 150.199 384.034 150.212C384.514 150.224 384.877 150.242 385.124 150.267V154.699C384.976 154.662 384.637 154.607 384.108 154.533C383.591 154.446 383.043 154.403 382.464 154.403C381.086 154.403 379.855 154.693 378.771 155.271C377.7 155.838 376.851 156.625 376.223 157.635C375.607 158.632 375.3 159.771 375.3 161.051V179H370.942Z" fill="#94959A"/>
</svg>
