<svg width="400" height="200" viewBox="0 0 400 200" fill="none" xmlns="http://www.w3.org/2000/svg">
<g clip-path="url(#clip0_323_122)">
<path d="M54.4487 71H46.5679V118.536H54.4487V71Z" fill="#FEFEFE"/>
<path fill-rule="evenodd" clip-rule="evenodd" d="M56.3579 130L64.2326 125.077V83.9224C61.8981 82.176 59.2086 80.9738 56.3579 80.4026V130Z" fill="#FEFEFE"/>
<path fill-rule="evenodd" clip-rule="evenodd" d="M36.7595 125.102L44.6403 130.025V80.4272C41.7895 80.9898 39.0978 82.1836 36.7595 83.9224V125.102Z" fill="#FEFEFE"/>
<path fill-rule="evenodd" clip-rule="evenodd" d="M66.1418 73.2583V124.216L69.8017 121.927C71.1121 121.057 72.1842 119.868 72.9188 118.47C73.6533 117.072 74.0267 115.509 74.0044 113.927V89.8605C74.0227 82.9194 66.1418 73.2583 66.1418 73.2583Z" fill="#FEFEFE"/>
<path fill-rule="evenodd" clip-rule="evenodd" d="M27 113.909C26.976 115.491 27.3486 117.054 28.0833 118.453C28.818 119.851 29.891 121.04 31.2027 121.908L34.8625 124.197V73.2583C34.8625 73.2583 27 82.9194 27 89.8605V113.909Z" fill="#FEFEFE"/>
<path fill-rule="evenodd" clip-rule="evenodd" d="M262.864 119.096V81.6087L268.549 79.1965V119.096H262.864ZM253.909 103.392C253.938 102.381 253.753 101.375 253.365 100.442C252.976 99.5088 252.395 98.6705 251.658 97.9832C250.199 96.6417 248.283 95.9188 246.309 95.9649C244.355 95.9101 242.459 96.6354 241.033 97.9832C239.573 99.412 238.702 101.344 238.593 103.392H253.909ZM246.199 119.545C242.202 119.545 238.949 118.249 236.44 115.656C233.931 113.063 232.684 109.624 232.701 105.337C232.701 101.054 233.967 97.6222 236.501 95.0418C239.034 92.4615 242.31 91.1754 246.327 91.1836C250.349 91.1836 253.602 92.4143 256.087 94.8757C258.571 97.3371 259.822 100.57 259.838 104.574C259.843 105.474 259.776 106.373 259.637 107.263H238.532C238.564 109.32 239.399 111.281 240.856 112.721C242.298 114.076 244.212 114.801 246.181 114.739C249.284 114.739 251.467 113.459 252.732 110.899H258.887C258.082 113.421 256.493 115.614 254.355 117.151C251.962 118.813 249.102 119.653 246.199 119.545ZM210.437 91.6328V95.9402C212.267 92.7527 215.201 91.159 219.239 91.159C220.659 91.1117 222.073 91.3605 223.393 91.8899C224.714 92.4194 225.912 93.2179 226.912 94.2357C228.945 96.2869 229.962 99.1585 229.962 102.851V119.096H224.313V103.743C224.313 101.282 223.704 99.3965 222.484 98.0878C221.827 97.4183 221.038 96.8967 220.167 96.5573C219.297 96.2178 218.365 96.0684 217.433 96.1187C216.491 96.0629 215.547 96.2083 214.664 96.5455C213.781 96.8827 212.979 97.4041 212.309 98.0755C211.061 99.3842 210.437 101.269 210.437 103.731V119.096H204.733V91.6328H210.437ZM194.132 119.096V91.6328H199.835V119.096H194.132ZM190.003 96.2664H183.293V111.466C183.255 111.866 183.299 112.271 183.424 112.653C183.549 113.036 183.752 113.388 184.019 113.687C184.501 114.136 185.324 114.358 186.495 114.358H189.996V119.096H185.495C180.208 119.096 177.565 116.553 177.565 111.466V87.2084L183.317 84.8024V91.6328H190.027L190.003 96.2664ZM155.423 91.6328V95.9402C157.237 92.7691 160.177 91.1836 164.244 91.1836C165.664 91.138 167.079 91.3877 168.4 91.9169C169.721 92.4462 170.92 93.2439 171.923 94.2603C173.956 96.3115 174.973 99.1832 174.973 102.875V119.096H169.318V103.743C169.318 101.282 168.709 99.3965 167.489 98.0878C166.832 97.4183 166.043 96.8967 165.172 96.5573C164.302 96.2178 163.37 96.0684 162.438 96.1187C161.492 96.0593 160.543 96.203 159.656 96.5403C158.769 96.8776 157.962 97.4009 157.29 98.0755C156.041 99.3842 155.415 101.269 155.411 103.731V119.096H149.714V91.6328H155.423ZM140.784 103.392C140.813 102.381 140.627 101.375 140.239 100.442C139.851 99.5088 139.269 98.6705 138.533 97.9832C137.061 96.6297 135.126 95.906 133.135 95.9649C131.181 95.9101 129.285 96.6354 127.859 97.9832C126.397 99.4102 125.525 101.343 125.419 103.392H140.784ZM133.05 119.545C129.048 119.545 125.795 118.249 123.29 115.656C120.785 113.063 119.537 109.624 119.545 105.337C119.545 101.054 120.812 97.6222 123.345 95.0418C125.878 92.4615 129.154 91.1754 133.172 91.1836C137.189 91.1836 140.442 92.4143 142.931 94.8757C145.42 97.3371 146.67 100.57 146.682 104.574C146.687 105.474 146.62 106.373 146.481 107.263H125.376C125.407 109.321 126.245 111.284 127.706 112.721C129.147 114.078 131.061 114.804 133.031 114.739C136.13 114.739 138.314 113.459 139.582 110.899H145.731C144.927 113.421 143.337 115.614 141.199 117.151C138.808 118.813 135.95 119.652 133.05 119.545ZM104.631 88.6422C103.142 88.5747 101.676 89.0315 100.483 89.9344C99.9423 90.3916 99.5153 90.9706 99.2367 91.6247C98.958 92.2788 98.8355 92.9898 98.879 93.7004C98.8469 94.4423 99.0079 95.1798 99.3461 95.8394C99.6842 96.4991 100.188 97.0578 100.807 97.4602C102.206 98.381 103.767 99.0242 105.406 99.3555C107.203 99.7657 109.003 100.223 110.804 100.728C112.57 101.234 114.159 102.235 115.385 103.614C116.645 105.004 117.278 106.982 117.282 109.546C117.286 112.11 116.202 114.401 114.031 116.419C111.863 118.45 108.964 119.475 105.333 119.496C101.701 119.516 98.7509 118.667 96.4818 116.948C95.3826 116.152 94.4963 115.094 93.9023 113.867C93.3083 112.641 93.0251 111.285 93.0782 109.921H99.1779C99.2471 111.314 99.8587 112.623 100.88 113.564C101.88 114.458 103.348 114.905 105.284 114.905C106.94 115 108.572 114.466 109.858 113.41C110.797 112.584 111.386 111.427 111.506 110.177C111.627 108.926 111.268 107.677 110.505 106.684C109.783 105.892 108.871 105.299 107.858 104.961C106.686 104.556 105.492 104.215 104.283 103.94C102.982 103.644 101.673 103.296 100.355 102.894C99.1001 102.522 97.8923 102.003 96.7563 101.349C95.6392 100.686 94.722 99.7289 94.1029 98.5801C93.3819 97.2107 93.0286 95.6748 93.0782 94.125C93.0319 92.7355 93.3033 91.354 93.8713 90.0874C94.4393 88.8207 95.2887 87.703 96.3537 86.8207C98.5374 84.9747 101.372 84.0516 104.857 84.0516C108.342 84.0516 111.125 84.829 113.207 86.3838C115.293 87.9796 116.452 90.2893 116.684 93.3127H110.383C110.267 92.0184 109.657 90.8202 108.681 89.9713C107.544 89.0316 106.099 88.5572 104.631 88.6422Z" fill="#FEFEFE"/>
<path fill-rule="evenodd" clip-rule="evenodd" d="M352.029 93.1958C350.161 93.1717 348.313 93.5934 346.637 94.4265C344.984 95.2675 343.605 96.5705 342.666 98.1801C341.598 100.076 341.054 102.227 341.092 104.408H362.484C362.677 102.245 362.242 100.073 361.234 98.1555C360.344 96.5327 358.984 95.223 357.336 94.4019C355.683 93.5908 353.867 93.178 352.029 93.1958ZM351.932 117.016C354.389 117.1 356.807 116.379 358.824 114.961C359.736 114.305 360.506 113.471 361.09 112.507C361.674 111.544 362.059 110.472 362.222 109.355H364.57C364.14 112.102 362.682 114.578 360.496 116.271C358.283 118.019 355.461 118.893 352.029 118.893C349.655 118.939 347.309 118.369 345.216 117.238C343.229 116.138 341.6 114.482 340.525 112.469C339.343 110.194 338.759 107.652 338.829 105.084C338.77 102.548 339.353 100.038 340.525 97.7925C341.597 95.7833 343.219 94.1277 345.198 93.0235C347.291 91.8925 349.637 91.3225 352.011 91.3682C354.387 91.3069 356.737 91.8778 358.824 93.0235C360.646 94.0361 362.151 95.5432 363.167 97.374C364.141 99.1321 364.649 101.114 364.643 103.128C364.637 104.007 364.554 104.884 364.393 105.749H341.092C341.052 107.953 341.595 110.128 342.666 112.05C343.592 113.662 344.964 114.966 346.613 115.804C348.268 116.62 350.089 117.035 351.932 117.016ZM324.147 91.1713C327.344 91.1713 329.942 92.1599 331.943 94.1373C333.944 96.1146 334.942 99.0293 334.938 102.881V118.548H332.693V102.998C332.693 99.7739 331.876 97.3063 330.253 95.6141C328.631 93.9219 326.392 93.0666 323.544 93.0666C322.233 93.0104 320.926 93.2347 319.707 93.7247C318.489 94.2147 317.387 94.9593 316.474 95.9095C314.693 97.8048 313.802 100.596 313.802 104.284V118.548H311.558V91.7128H313.802V98.7832C314.336 96.476 315.699 94.4504 317.627 93.0973C319.554 91.7969 321.83 91.1246 324.147 91.1713ZM290.325 86.0392C287.71 86.0016 285.132 86.6686 282.859 87.9714C280.632 89.263 278.813 91.1639 277.613 93.4542C276.285 96.0166 275.624 98.8771 275.691 101.768C275.626 104.654 276.287 107.51 277.613 110.069C278.815 112.358 280.633 114.258 282.859 115.552C285.143 116.815 287.707 117.478 290.312 117.478C292.918 117.478 295.481 116.815 297.766 115.552C300.002 114.265 301.83 112.363 303.036 110.069C304.362 107.51 305.023 104.654 304.958 101.768C305.023 98.8812 304.362 96.0252 303.036 93.4665C301.832 91.1706 300.004 89.2687 297.766 87.9837C295.5 86.6825 292.932 86.0115 290.325 86.0392ZM290.325 84.0147C293.379 83.9676 296.391 84.7451 299.047 86.2669C301.606 87.741 303.699 89.9147 305.086 92.5373C306.569 95.3806 307.316 98.5555 307.257 101.768C307.309 104.967 306.563 108.129 305.086 110.961C303.695 113.59 301.603 115.774 299.047 117.268C296.38 118.761 293.381 119.545 290.331 119.545C287.281 119.545 284.281 118.761 281.614 117.268C279.038 115.775 276.926 113.586 275.514 110.949C274.031 108.124 273.283 104.964 273.343 101.768C273.282 98.5523 274.038 95.3747 275.539 92.5373C276.945 89.9019 279.059 87.72 281.639 86.2423C284.287 84.7349 287.285 83.9661 290.325 84.0147Z" fill="#FEFEFE"/>
<path d="M370.7 95.3372L370.09 94.408H369.59V95.3372H368.98V92.4266H370.298C370.981 92.4266 371.39 92.7896 371.39 93.3865C371.399 93.5828 371.344 93.7766 371.234 93.9387C371.124 94.1008 370.964 94.2223 370.78 94.2849L371.487 95.3249L370.7 95.3372ZM370.7 93.4234C370.7 93.1465 370.511 93.005 370.2 93.005H369.59V93.8419H370.231C370.542 93.8419 370.719 93.6757 370.719 93.4296L370.7 93.4234Z" fill="#FEFEFE"/>
<path d="M370.048 96.9432C369.462 96.9445 368.889 96.7703 368.402 96.4428C367.914 96.1154 367.534 95.6493 367.31 95.1037C367.085 94.5581 367.026 93.9576 367.14 93.3781C367.254 92.7986 367.536 92.2662 367.95 91.8485C368.364 91.4307 368.892 91.1463 369.466 91.0314C370.04 90.9164 370.636 90.976 371.177 91.2027C371.717 91.4293 372.179 91.8128 372.504 92.3046C372.829 92.7963 373.001 93.3742 373 93.9649C372.998 94.7543 372.687 95.5109 372.133 96.0691C371.58 96.6273 370.83 96.9416 370.048 96.9432ZM370.048 91.6328C369.59 91.6328 369.144 91.7695 368.763 92.0258C368.383 92.2821 368.087 92.6463 367.912 93.0725C367.737 93.4986 367.691 93.9675 367.78 94.4199C367.87 94.8723 368.09 95.2879 368.413 95.614C368.736 95.9402 369.148 96.1623 369.597 96.2523C370.045 96.3423 370.51 96.2961 370.932 96.1196C371.355 95.9431 371.716 95.6442 371.97 95.2606C372.224 94.8771 372.36 94.4262 372.36 93.9649C372.36 93.3464 372.116 92.7532 371.682 92.3158C371.249 91.8785 370.661 91.6328 370.048 91.6328Z" fill="#FEFEFE"/>
</g>
<defs>
<clipPath id="clip0_323_122">
<rect width="346" height="59" fill="white" transform="translate(27 71)"/>
</clipPath>
</defs>
</svg>
