<svg width="400" height="200" viewBox="0 0 400 200" fill="none" xmlns="http://www.w3.org/2000/svg">
<g clip-path="url(#clip0_323_122)">
<path fill-rule="evenodd" clip-rule="evenodd" d="M110.722 89.8801C106.968 89.8801 103.75 91.2256 101.07 93.3786V90.418H91.9541V125.139H101.337V103.068C102.677 101.185 105.895 98.7618 109.917 98.7618C111.257 98.7618 112.598 99.0315 113.671 99.2997V90.418C112.598 90.1483 111.526 89.8801 110.722 89.8801ZM30.2892 114.372C32.7024 116.525 36.4559 117.871 39.6722 117.871C42.0855 117.871 44.2301 116.525 44.2301 114.91C44.2301 109.527 27.3401 111.412 27.3401 100.376C27.3401 93.6468 33.774 89.609 40.4766 89.609C45.0346 89.609 49.8597 91.2241 52.2729 93.1075L47.9836 99.8362C46.1076 98.7589 43.9615 97.4135 41.2811 97.4135C38.6006 97.4135 36.7231 98.4907 36.7231 100.374C36.7231 104.95 53.6132 103.065 53.6132 115.177C53.6132 121.906 47.1792 125.943 39.9394 125.943C35.1128 125.943 30.0191 124.328 25.9984 121.368L30.2877 114.369L30.2892 114.372ZM87.932 107.374C87.932 97.6846 81.2294 89.6104 71.5777 89.6104C61.3902 89.6104 54.6877 98.2239 54.6877 107.644C54.6877 118.678 62.4633 125.677 72.6508 125.677C78.0131 125.677 83.3755 123.524 86.8604 119.486L81.498 114.103C79.8891 115.986 76.6714 118.14 72.9179 118.14C68.0914 118.14 64.0707 114.642 63.5349 109.797H87.3962C87.932 109.259 87.932 108.451 87.932 107.374ZM64.3393 103.336C64.8751 100.106 68.0928 97.1453 71.8463 97.1453C75.5998 97.1453 78.2803 100.106 78.8175 103.336H64.3393ZM135.119 111.68L144.502 90.4166H154.153L138.335 125.137H131.901L116.351 90.4166H125.734L135.117 111.68H135.119ZM161.929 74C165.414 74 168.096 76.6909 168.096 79.9212C168.096 83.4196 165.415 85.8423 161.929 85.8423C158.443 85.8423 156.031 83.1514 156.031 79.9212C156.031 76.4227 158.444 74 161.929 74ZM157.371 90.418H166.754V125.139H157.371V90.418ZM204.558 117.871C200.536 123.254 195.442 125.677 189.008 125.677C178.283 125.677 170.509 117.603 170.509 107.644C170.509 97.6846 178.552 89.6104 189.008 89.6104C195.175 89.6104 200.268 92.571 203.486 96.6088L197.588 102.26C195.712 99.8376 193.03 98.2225 189.812 98.2225C184.45 98.2225 180.429 102.529 180.429 107.642C180.429 113.025 184.183 117.062 189.812 117.062C193.566 117.062 196.515 114.909 198.124 112.486L204.558 117.869V117.871ZM238.071 119.486C234.586 123.524 229.223 125.677 223.861 125.677C213.674 125.677 205.898 118.678 205.898 107.644C205.898 97.9543 212.332 89.6104 222.788 89.6104C232.171 89.6104 239.142 97.6846 239.142 107.374C239.142 108.451 239.142 109.257 238.874 110.065H214.744C215.28 114.91 219.302 118.409 224.127 118.409C227.88 118.409 231.098 116.256 232.707 114.371L238.069 119.484L238.071 119.486ZM229.491 103.338C229.222 100.377 226.542 97.1467 222.519 97.1467C218.766 97.1467 215.548 100.107 215.012 103.338H229.491ZM242.627 125.139V90.418H251.474V93.3786C254.155 91.2256 257.373 89.8801 261.126 89.8801C265.953 89.8801 270.242 92.0331 273.191 95.5316C275.336 98.2225 276.945 101.722 276.945 107.644V125.407H267.561V106.836C267.561 103.338 266.757 101.453 265.417 100.377C264.077 99.0315 262.468 98.2239 260.054 98.2239C256.301 98.2239 253.083 100.647 251.474 102.53V125.139H242.627Z" fill="#FEFEFE"/>
<path fill-rule="evenodd" clip-rule="evenodd" d="M300.539 89.6104C289.278 89.6104 280.431 98.4922 280.431 109.797C280.431 115.718 282.844 121.101 286.598 124.869C287.938 126.215 290.351 126.215 291.96 125.139C294.105 123.255 297.323 122.178 300.54 122.178C304.025 122.178 306.707 123.255 309.12 125.139C310.729 126.484 312.874 126.216 314.483 124.601C318.236 120.833 320.649 115.719 320.649 109.798C320.381 98.7633 311.534 89.6119 300.542 89.6119M300.273 120.295C294.106 120.295 290.086 115.719 290.086 110.068C290.086 104.416 294.108 99.8405 300.273 99.8405C306.438 99.8405 310.461 104.416 310.461 110.068C310.461 115.719 306.438 120.295 300.273 120.295Z" fill="#FEFEFE"/>
<path fill-rule="evenodd" clip-rule="evenodd" d="M338.878 125.139H331.907L318.233 90.418H327.349L334.856 110.334L342.363 90.418H349.87L357.109 110.334L364.616 90.418H373.999L360.325 125.139H353.354L345.847 105.491L338.875 125.139H338.878Z" fill="#FEFEFE"/>
</g>
<defs>
<clipPath id="clip0_323_122">
<rect width="348" height="52" fill="white" transform="translate(26 74)"/>
</clipPath>
</defs>
</svg>
