<svg width="400" height="200" viewBox="0 0 400 200" fill="none" xmlns="http://www.w3.org/2000/svg">
<g clip-path="url(#clip0_323_122)">
<path d="M119.109 114.164V93.9495H112.48V85.0084H119.053V74.3458H129.478V85.0084H137.524V93.9495H129.535V111.443C129.535 113.942 130.838 115.775 133.161 115.775C134.482 115.822 135.775 115.386 136.787 114.553L138.997 122.383C137.41 123.772 134.634 124.882 130.271 124.882C122.962 124.882 119.109 121.162 119.109 114.164ZM139.96 104.39C139.96 93.1165 148.516 83.9533 160.528 83.9533C172.54 83.9533 180.415 92.6722 180.415 105.334V107.778H150.896C151.632 112.554 155.598 116.497 162.398 116.497C165.741 116.497 170.387 115.108 172.936 112.72L177.639 119.495C173.673 123.05 167.44 124.882 161.264 124.882C149.139 124.882 139.96 116.885 139.96 104.39V104.39ZM160.528 92.3945C154.012 92.3945 151.236 96.8373 150.839 100.725H170.387C170.103 97.0039 167.44 92.3945 160.528 92.3945V92.3945ZM211.182 123.883V100.392C211.182 95.0047 208.292 93.1165 203.873 93.1165C202.113 93.1448 200.382 93.5644 198.812 94.3436C197.242 95.1228 195.872 96.2413 194.807 97.6148V123.883H184.382V84.9529H194.807V89.951C196.569 88.0607 198.713 86.551 201.103 85.5183C203.493 84.4856 206.077 83.9526 208.689 83.9533C217.471 83.9533 221.664 88.7848 221.664 96.393V123.883H211.182ZM251.467 123.883V119.773C248.748 122.994 244.045 124.882 238.889 124.882C232.543 124.882 225.177 120.717 225.177 111.998C225.177 102.78 232.599 99.4475 238.889 99.4475C244.215 99.4475 248.861 101.169 251.467 104.223V99.2808C251.467 95.3379 248.011 92.7833 242.742 92.7833C238.447 92.8219 234.331 94.4713 231.24 97.3927L227.103 90.2287C231.91 86.1553 238.089 83.9781 244.441 84.1199C253.564 84.1199 261.893 87.6741 261.893 98.8921V124.049H251.467V123.883ZM251.467 114.553V109.721C249.767 107.444 246.481 106.278 243.138 106.278C239.002 106.278 235.659 108.444 235.659 112.165C235.659 115.886 239.002 117.941 243.138 117.941C246.424 117.941 249.711 116.83 251.467 114.553V114.553ZM266.425 123.883V70.1251H276.851V89.951C278.276 88.0888 280.124 86.5773 282.248 85.5363C284.372 84.4952 286.714 83.9533 289.089 83.9533C299.232 83.9533 306.711 91.6726 306.711 104.39C306.711 117.441 299.175 124.827 289.089 124.827C286.721 124.825 284.384 124.288 282.262 123.258C280.139 122.227 278.287 120.731 276.851 118.885V123.883H266.425ZM285.973 115.719C291.979 115.719 296.002 111.11 296.002 104.335C296.002 97.5593 291.979 93.061 285.973 93.061C284.213 93.0893 282.483 93.5088 280.912 94.288C279.342 95.0673 277.973 96.1858 276.908 97.5593V111.332C277.974 112.695 279.347 113.8 280.919 114.561C282.491 115.322 284.22 115.718 285.973 115.719V115.719ZM310.28 123.883V70.1251H320.706V123.883H310.28ZM324.672 104.39C324.672 93.1165 333.228 83.9533 345.24 83.9533C357.252 83.9533 365.127 92.6722 365.127 105.334V107.778H335.607C336.344 112.554 340.31 116.497 347.109 116.497C350.452 116.497 355.098 115.108 357.648 112.72L362.351 119.495C358.385 123.05 352.152 124.882 345.976 124.882C333.794 124.882 324.672 116.885 324.672 104.39V104.39ZM345.183 92.3945C338.667 92.3945 335.891 96.8373 335.494 100.725H355.042C354.758 97.0039 352.095 92.3945 345.183 92.3945V92.3945ZM368.3 80.0658C368.821 80.3544 369.252 80.7768 369.547 81.2876C369.842 81.8154 369.998 82.4073 370 83.0092C369.991 83.6102 369.835 84.2004 369.547 84.7308C369.252 85.2415 368.821 85.6639 368.3 85.9525C367.762 86.2418 367.158 86.3946 366.544 86.3968C365.944 86.4108 365.352 86.2628 364.832 85.9689C364.312 85.6751 363.885 85.2467 363.597 84.7308C363.3 84.2037 363.144 83.6114 363.144 83.0092C363.144 82.407 363.3 81.8147 363.597 81.2876C363.892 80.7768 364.323 80.3544 364.844 80.0658C365.354 79.7584 365.945 79.604 366.544 79.6216C367.158 79.6238 367.762 79.7765 368.3 80.0658V80.0658ZM367.96 85.3972C368.363 85.1503 368.695 84.8061 368.923 84.3975C369.147 83.9576 369.263 83.4729 369.263 82.9814C369.263 82.4899 369.147 82.0052 368.923 81.5653C368.702 81.1405 368.359 80.7882 367.936 80.5515C367.514 80.3147 367.03 80.2039 366.544 80.2324C366.068 80.2238 365.599 80.3388 365.184 80.5657C364.781 80.8126 364.449 81.1567 364.221 81.5653C363.997 82.0052 363.881 82.4899 363.881 82.9814C363.881 83.4729 363.997 83.9576 364.221 84.3975C364.433 84.8173 364.769 85.1653 365.184 85.3972C365.591 85.6428 366.066 85.7592 366.544 85.7304C367.04 85.766 367.535 85.6496 367.96 85.3972V85.3972ZM367.79 82.8981C367.62 83.0777 367.405 83.2115 367.167 83.2869L368.187 84.7863H367.28L366.43 83.3979H366.09V84.7863H365.297V81.0655H366.317C367.45 81.0655 367.96 81.4542 367.96 82.1762C367.997 82.3007 368.001 82.4324 367.971 82.5588C367.941 82.6851 367.879 82.8019 367.79 82.8981V82.8981ZM366.09 82.787H366.487C366.997 82.787 367.224 82.6204 367.224 82.2317C367.232 82.1581 367.22 82.0837 367.19 82.0156C367.161 81.9475 367.114 81.8881 367.054 81.8429C366.88 81.7532 366.683 81.7146 366.487 81.7319H366.09V82.787Z" fill="white"/>
<path d="M96.3317 74.4564C96.5583 75.2339 97.2949 78.0662 98.0315 80.7318L103.811 101.891C104.547 104.556 105.341 107.388 105.511 108.166C105.653 108.734 105.644 109.328 105.485 109.892C105.326 110.456 105.023 110.971 104.604 111.387V111.387L99.9012 115.996L84.1497 131.435C82.1666 133.49 80.1269 135.545 79.447 136.044C79.0032 136.426 78.477 136.704 77.9078 136.858C77.3387 137.012 76.7413 137.038 76.1607 136.933V136.933L69.7581 135.267L48.1706 129.602L41.768 127.936C41.1895 127.772 40.663 127.466 40.2382 127.048V127.048C39.7998 126.64 39.4858 126.121 39.3316 125.548V125.548C39.105 124.771 38.3684 121.939 37.6318 119.273L31.8525 98.1142L30.1527 91.8388L31.0026 91.5611L31.8525 91.339C32.0791 92.1164 32.8157 94.9487 33.5523 97.6144L39.3316 118.829C40.0682 121.494 40.8615 124.327 41.0314 125.104C41.1486 125.364 41.3011 125.606 41.4847 125.826V125.826C41.6789 126.044 41.9357 126.198 42.2213 126.27V126.27L48.6239 127.936L70.2114 133.601L76.614 135.267C76.9043 135.319 77.203 135.307 77.4875 135.23C77.7721 135.153 78.0352 135.013 78.2571 134.823V134.823L82.9599 130.213L98.768 114.719L103.471 110.11C103.654 109.885 103.789 109.627 103.867 109.35C103.944 109.073 103.964 108.784 103.924 108.499V108.499C103.697 107.722 102.961 104.889 102.224 102.224L96.3883 81.1761C95.6517 78.5104 94.8585 75.6782 94.6885 74.9007C94.5713 74.6411 94.4188 74.3983 94.2352 74.1787C94.041 73.9612 93.7843 73.8063 93.4986 73.7344V73.7344L87.0961 72.0129L65.5652 66.3483L59.106 64.6823C58.8157 64.6299 58.517 64.6427 58.2324 64.7197C57.9478 64.7966 57.6847 64.9357 57.4629 65.1266L52.7601 69.736L36.9519 85.2301L32.2491 89.8395C32.0544 90.057 31.9125 90.3149 31.834 90.5938C31.7555 90.8727 31.7424 91.1654 31.7958 91.45V91.45L30.9459 91.6166L30.096 91.8388C29.9541 91.2707 29.9629 90.6764 30.1216 90.1126C30.2803 89.5488 30.5836 89.0342 31.0026 88.6178V88.6178L35.7054 84.0084L51.5135 68.5697L56.2163 63.9603C56.6528 63.5672 57.1785 63.2815 57.75 63.127C58.3214 62.9725 58.9222 62.9536 59.5026 63.0718L65.9052 64.7378L87.4927 70.4024L93.8953 72.0684C94.4639 72.2546 94.9854 72.5575 95.4251 72.957V72.957C95.8521 73.3734 96.164 73.8894 96.3317 74.4564V74.4564Z" fill="white"/>
<path d="M69.2484 68.8478L73.9512 71.5134L89.9294 80.5656L94.6888 83.2313C95.1072 83.4842 95.4555 83.8346 95.7026 84.2512C95.9497 84.6677 96.088 85.1377 96.1053 85.6192V90.9506V114.386C96.088 114.868 95.9497 115.338 95.7026 115.754C95.4555 116.171 95.1072 116.521 94.6888 116.774L89.986 119.44L73.9512 128.492L69.2484 131.158C68.8104 131.379 68.3245 131.493 67.8319 131.491V131.491C67.3393 131.493 66.8535 131.379 66.4154 131.158V131.158L61.7127 128.492L45.6779 119.44L40.9751 116.774L41.315 116.163L41.655 115.552L46.3578 118.218L62.3359 127.27L67.0954 129.936C67.3055 130.043 67.5384 130.1 67.7753 130.103V130.103C68.0303 130.1 68.2817 130.044 68.5119 129.936V129.936L73.2146 127.27L89.1928 118.218L93.8956 115.552C94.3033 115.254 94.5854 114.819 94.6888 114.331V114.331V108.999V85.5637C94.6664 85.3267 94.5883 85.0981 94.4605 84.8957C94.3327 84.6933 94.1587 84.5228 93.9522 84.3975V84.3975L89.2494 81.7318L73.2713 72.6797L68.5685 70.014C68.3405 69.9005 68.0877 69.8433 67.8319 69.8474V69.8474C67.5943 69.8432 67.3597 69.9007 67.152 70.014V70.014L62.3926 72.6797L46.4144 81.7318L41.7117 84.3975C41.5089 84.5397 41.3386 84.7218 41.2117 84.9321C41.0849 85.1425 41.0043 85.3766 40.9751 85.6192V90.9506V114.386C40.9985 114.63 41.0767 114.867 41.204 115.078C41.3313 115.289 41.5047 115.47 41.7117 115.608V115.608L41.3717 116.219L41.0317 116.83C40.6133 116.577 40.2651 116.226 40.018 115.81C39.7709 115.393 39.6325 114.923 39.6152 114.442V109.11V85.6748C39.6325 85.1932 39.7709 84.7233 40.018 84.3067C40.2651 83.8901 40.6133 83.5398 41.0317 83.2868V83.2868L45.7345 80.6211L61.7693 71.569L66.4721 68.9033C66.9102 68.6825 67.396 68.5682 67.8886 68.5701V68.5701C68.3604 68.5209 68.836 68.618 69.2484 68.8478V68.8478Z" fill="white"/>
<path d="M48.7375 79.3439L53.4403 78.1221L69.3051 73.957L74.0079 72.7353C74.4388 72.6502 74.8842 72.6662 75.3076 72.782C75.731 72.8978 76.1205 73.1102 76.4442 73.4017V73.4017L79.9005 76.7893L91.5158 88.1739L94.9721 91.5615C95.2767 91.8734 95.4942 92.257 95.6034 92.6754C95.7125 93.0937 95.7098 93.5325 95.5953 93.9495V93.9495C95.4254 94.5048 94.8588 96.6152 94.3488 98.5589L90.0993 114.109C89.5327 116.052 88.9661 118.218 88.8528 118.718C88.7259 119.139 88.4919 119.521 88.1729 119.829V119.829C87.8773 120.164 87.4802 120.397 87.0397 120.495V120.495L82.3369 121.717L66.4721 125.882L61.7693 127.104L61.5993 126.548L61.4293 125.937L66.1321 124.716L81.9969 120.551L86.6997 119.329C86.9173 119.273 87.1139 119.158 87.2663 118.996V118.996C87.4316 118.846 87.5496 118.654 87.6063 118.44V118.44L88.8528 113.831L93.1023 98.2812C93.6689 96.3375 94.2355 94.2272 94.3488 93.6718C94.3807 93.4649 94.3668 93.2537 94.3082 93.0525C94.2495 92.8513 94.1475 92.6648 94.0089 92.5056V92.5056L90.6093 89.118L78.9939 77.7334L75.5377 74.3458C75.3733 74.2132 75.1828 74.1153 74.9781 74.0579C74.7734 74.0006 74.5589 73.9852 74.3478 74.0125L69.645 75.2343L53.7802 79.455L49.0774 80.6767C48.8599 80.7323 48.6632 80.8479 48.5108 81.0099V81.0099C48.3455 81.1593 48.2275 81.352 48.1709 81.5653V81.5653C48.0009 82.1206 47.4343 84.2309 46.9243 86.1746L42.6748 101.669C42.1649 103.613 41.5983 105.723 41.4283 106.278C41.3964 106.485 41.4103 106.696 41.469 106.898C41.5276 107.099 41.6297 107.285 41.7683 107.444V107.444L45.2245 110.832L56.8399 122.217L60.2961 125.604C60.4605 125.737 60.651 125.835 60.8557 125.892C61.0604 125.949 61.2749 125.965 61.486 125.937V125.937L61.656 126.548L61.8259 127.159C61.395 127.244 60.9496 127.228 60.5262 127.112C60.1028 126.997 59.7133 126.784 59.3896 126.493V126.493L55.9333 123.105L44.2613 111.554L40.8051 108.166C40.5012 107.853 40.2803 107.472 40.1618 107.055C40.0432 106.639 40.0306 106.201 40.1251 105.778V105.778C40.2951 105.223 40.8617 103.113 41.3717 101.169L45.6212 85.6193L46.8677 81.0099C46.9946 80.5892 47.2286 80.207 47.5476 79.8992V79.8992C47.9208 79.6694 48.3202 79.483 48.7375 79.3439V79.3439Z" fill="white"/>
<path d="M44.5447 122.883C39.9342 118.363 36.7946 112.605 35.5229 106.337C34.2512 100.068 34.9044 93.5711 37.4 87.6665C39.8957 81.7619 44.1216 76.7152 49.5434 73.1645C54.9653 69.6139 61.3396 67.7188 67.8603 67.7188C74.381 67.7187 80.7553 69.6139 86.1771 73.1645C91.599 76.7152 95.8249 81.7619 98.3205 87.6665C100.816 93.5711 101.469 100.068 100.198 106.337C98.9259 112.605 95.7863 118.363 91.1759 122.883V122.883C84.9889 128.938 76.6033 132.339 67.8603 132.339C59.1173 132.339 50.7317 128.938 44.5447 122.883V122.883ZM90.0993 121.828C94.4737 117.519 97.4469 112.036 98.6435 106.072C99.8401 100.108 99.2063 93.9295 96.8223 88.3181C94.4382 82.7067 90.4108 77.9137 85.2488 74.5446C80.0869 71.1756 74.022 69.3816 67.8203 69.3894C61.6186 69.3971 55.5584 71.2062 50.4053 74.5882C45.2521 77.9701 41.2372 82.7732 38.8678 88.3906C36.4983 94.0079 35.8806 100.188 37.0927 106.149C38.3048 112.11 41.2923 117.586 45.6779 121.883C48.5939 124.746 52.0581 127.017 55.8717 128.564C59.6852 130.111 63.773 130.905 67.9004 130.9C72.0278 130.895 76.1135 130.091 79.923 128.534C83.7325 126.977 87.1908 124.698 90.0993 121.828V121.828Z" fill="white"/>
<path d="M68.9085 76.6227L72.4214 78.622L84.2633 85.2861L87.7763 87.2854C88.0849 87.4738 88.3401 87.7353 88.5183 88.0459C88.6966 88.3565 88.7921 88.7061 88.7961 89.0625V89.0625V93.0054V110.388C88.7801 110.742 88.6794 111.087 88.5023 111.395C88.3251 111.704 88.0764 111.968 87.7763 112.165V112.165L84.2633 114.109L72.4214 120.828L68.9085 122.828C68.5951 122.996 68.2459 123.091 67.8886 123.105V123.105C67.5301 123.099 67.1792 123.003 66.8687 122.828L63.3558 120.828L51.5138 114.109L48.0009 112.109L48.2842 111.665L48.5675 111.221L52.0238 113.22L63.8657 119.94L67.3786 121.939C67.5324 122.028 67.7109 122.067 67.8886 122.05V122.05C68.0663 122.067 68.2448 122.028 68.3985 121.939V121.939L71.9114 119.94L83.7534 113.22L87.2663 111.221C87.4175 111.123 87.5427 110.992 87.6314 110.837C87.7202 110.683 87.7698 110.51 87.7763 110.332V106.389V89.0069C87.7222 88.6598 87.5409 88.3439 87.2663 88.1184V88.1184L83.7534 86.1191L71.9681 79.455L68.4552 77.4557C68.2923 77.3925 68.1201 77.355 67.9452 77.3446V77.3446C67.7703 77.355 67.5982 77.3925 67.4353 77.4557L63.9224 79.455L52.0804 86.1191L48.5675 88.1184C48.4222 88.2218 48.3015 88.3547 48.2135 88.508C48.1254 88.6614 48.0723 88.8316 48.0576 89.0069V89.0069V92.9499V110.332C48.1117 110.679 48.2929 110.995 48.5675 111.221V111.221L48.2842 111.665L48.0009 112.109C47.6923 111.921 47.4371 111.659 47.2588 111.349C47.0806 111.038 46.9851 110.689 46.981 110.332V110.332V106.334V88.9514C46.9851 88.5951 47.0806 88.2455 47.2588 87.9349C47.4371 87.6243 47.6923 87.3627 48.0009 87.1743V87.1743L51.5138 85.175L63.3558 78.5109L66.8687 76.5116C67.1821 76.3428 67.5312 76.2477 67.8886 76.2339V76.2339C68.2285 76.4006 68.5685 76.4561 68.9085 76.6227V76.6227Z" fill="white"/>
<path d="M50.6072 116.608C47.1955 113.263 44.8721 109.002 43.931 104.364C42.9898 99.725 43.4732 94.917 45.3199 90.5476C47.1666 86.1782 50.2937 82.4437 54.3059 79.8162C58.318 77.1887 63.0349 75.7863 67.8602 75.7863C72.6855 75.7863 77.4025 77.1887 81.4146 79.8162C85.4267 82.4437 88.5539 86.1782 90.4006 90.5476C92.2473 94.917 92.7306 99.725 91.7895 104.364C90.8484 109.002 88.525 113.263 85.1132 116.608C80.5354 121.089 74.3301 123.606 67.8602 123.606C61.3904 123.606 55.185 121.089 50.6072 116.608V116.608ZM84.32 115.886C87.5594 112.698 89.7626 108.641 90.6513 104.226C91.5401 99.812 91.0746 95.2385 89.3135 91.0834C87.5525 86.9282 84.5749 83.3776 80.7567 80.8798C76.9385 78.3819 72.4508 77.0488 67.8602 77.0488C63.2697 77.0488 58.782 78.3819 54.9638 80.8798C51.1455 83.3776 48.168 86.9282 46.4069 91.0834C44.6459 95.2385 44.1804 99.812 45.0691 104.226C45.9579 108.641 48.161 112.698 51.4005 115.886C53.5589 118.01 56.1239 119.695 58.9485 120.845C61.7731 121.995 64.8016 122.587 67.8602 122.587C70.9188 122.587 73.9473 121.995 76.7719 120.845C79.5965 119.695 82.1616 118.01 84.32 115.886V115.886Z" fill="white"/>
</g>
<defs>
<clipPath id="clip0_323_122">
<rect width="340" height="74" fill="white" transform="translate(30 63)"/>
</clipPath>
</defs>
</svg>
