<svg width="400" height="200" viewBox="0 0 400 200" fill="none" xmlns="http://www.w3.org/2000/svg">
<g clip-path="url(#clip0_323_122)">
<path d="M263.949 75C249.83 75 238.388 86.4147 238.388 100.5C238.388 114.585 249.83 126 263.949 126C278.068 126 289.51 114.585 289.51 100.5C289.51 93.7448 286.824 87.2678 282.042 82.4877C277.246 77.6937 270.739 75 263.949 75ZM263.949 116.036C253.516 116.036 248.775 106.894 248.775 100.417C248.775 93.9395 253.516 84.7966 263.949 84.7966C274.987 84.7966 279.123 94.4913 279.123 100.602C279.114 107.037 274.401 116.036 263.949 116.036ZM295.306 125.012V85.6683H287.558V75.867H305.684V125.012H295.306Z" fill="#FEFEFE"/>
<path d="M78.673 125.012H106.92V115.174H89.0508V105.146H106.925V95.3026H89.0508V85.6636H106.925V75.867H78.673V125.012ZM53.1119 106.601C50.4954 99.8463 41.1725 75.8624 41.1725 75.8624H30L49.8354 125.008H56.3419L76.089 75.8624H65.0606C65.0606 75.8624 55.7377 99.8463 53.1212 106.601H53.1119ZM164.461 75.8624L146.703 122.972L135.73 107.58C140.587 106.37 147.251 102.452 147.251 92.2797C147.344 87.7871 145.638 83.4382 142.511 80.202C139.355 77.2115 135.228 75.8855 129.112 75.8855H113.153V125.031H123.526V107.728L135.856 124.975H156.825L160.617 114.775H176.804L180.597 124.975H191.662L173.012 75.8624H164.461ZM126.203 99.2853H123.521V85.6636H128.675C134.717 85.6636 136.892 89.0667 136.892 92.2844C136.873 93.9905 136.873 99.2853 126.203 99.2853ZM164.066 105.313C165.767 100.528 167.965 94.3568 168.76 92.0015L173.444 105.313H164.066Z" fill="#FEFEFE"/>
<path d="M370 85.6636V75.867H341.739V125.012H370V115.174H352.112V105.146H370V95.3026H352.112V85.6636H370Z" fill="#FEFEFE"/>
<path d="M213.385 84.792C217.8 84.8801 221.936 86.9433 224.659 90.4113L225.324 91.1809H237.407L235.73 88.2646C233.936 84.8894 231.375 81.9731 228.257 79.7523C223.86 76.683 218.627 75.0325 213.259 75.0232C199.191 75.0232 187.786 86.4008 187.786 100.435C187.786 114.469 199.191 125.847 213.259 125.847C222.47 125.847 230.966 120.881 235.474 112.865L237.054 110.083H224.813L224.246 110.746C221.532 114.024 217.516 115.958 213.255 116.036C204.824 115.679 198.206 108.692 198.331 100.273C198.229 91.8625 204.949 84.9496 213.38 84.792H213.385Z" fill="#FEFEFE"/>
<path d="M312.515 75.8624H309.82V85.6636H312.464C324.139 85.6636 327.257 95.0198 327.257 100.523C327.257 113.769 316.824 115.169 312.334 115.169H309.82V125.008H312.274C320.374 125.008 326.444 122.745 331.352 117.9C335.144 114.224 337.621 107.269 337.621 100.565C337.551 95.0013 335.808 89.586 332.616 85.0192C328.191 78.927 321.387 75.8624 312.515 75.8624Z" fill="#FEFEFE"/>
</g>
<defs>
<clipPath id="clip0_323_122">
<rect width="340" height="51" fill="white" transform="translate(30 75)"/>
</clipPath>
</defs>
</svg>
