<svg width="400" height="200" viewBox="0 0 400 200" fill="none" xmlns="http://www.w3.org/2000/svg">
<g clip-path="url(#clip0_323_122)">
<path d="M155.445 108.954C155.599 109.283 156.067 109.268 156.196 108.93L168.216 77.5742C168.788 76.0818 170.215 75.0968 171.81 75.0868L183.015 75.0271C185.153 75.0122 186.898 76.7384 186.913 78.8775C186.913 79.3452 186.833 79.8078 186.674 80.2506L159.571 153.483C159.526 153.597 158.637 154.373 158.07 154.811C157.792 155.02 157.458 155.05 157.12 154.95C156.012 154.632 155.112 153.826 154.67 152.761L140.203 117.874C139.736 116.844 138.523 116.387 137.489 116.854C137.062 117.048 136.714 117.382 136.505 117.804L118.37 154.105C118.265 154.309 118.017 154.388 117.818 154.289C117.729 154.244 117.659 154.164 117.619 154.075L89.2585 80.2605C88.4879 78.2607 89.4822 76.0221 91.4756 75.251C91.9181 75.0769 92.3953 74.9923 92.8676 74.9923H105.047C106.653 74.9923 108.094 75.9873 108.661 77.4846L120.677 108.925C120.806 109.263 121.288 109.278 121.432 108.954L136.574 75.9723C137.047 74.9426 138.265 74.4899 139.289 74.9625C139.736 75.1664 140.094 75.5246 140.298 75.9723L155.44 108.954H155.445ZM293.396 45.3283C293.307 44.8856 292.362 44.8856 292.268 45.3283C291.567 48.7609 290.105 53.9445 287.356 56.6955C284.607 59.4465 279.427 60.909 275.997 61.6104C275.554 61.705 275.554 62.6502 275.997 62.7397C279.427 63.4461 284.607 64.9087 287.356 67.6547C290.945 71.2514 292.183 76.1614 292.606 79.1114C292.641 79.3004 293.227 79.3253 293.262 79.1412C293.903 75.9773 295.375 70.5997 298.313 67.6597C301.062 64.9087 306.242 63.4461 309.672 62.7397C310.114 62.6502 310.114 61.705 309.672 61.6104C306.242 60.909 301.062 59.4465 298.313 56.6955C295.564 53.9445 294.102 48.7658 293.396 45.3283ZM191.158 79.3054C191.158 77.1563 192.893 75.4251 195.031 75.4251H206.738C208.886 75.4251 210.616 77.1613 210.616 79.3004V151.05C210.616 153.189 208.876 154.925 206.738 154.925H195.031C192.893 154.925 191.158 153.189 191.158 151.05V79.3004V79.3054ZM244.425 95.9457C244.678 95.4382 244.474 94.8263 243.967 94.5726C243.823 94.503 243.669 94.4632 243.51 94.4632H220.364C218.227 94.4632 216.492 92.727 216.492 90.5879V79.3054C216.492 77.1663 218.227 75.4301 220.364 75.4301H273.75C275.41 75.4301 277.632 76.7782 276.842 78.2358L245.996 135.987V135.997C245.727 136.499 245.926 137.121 246.428 137.385C246.572 137.459 246.731 137.499 246.895 137.499H275.097C277.235 137.499 278.97 139.24 278.97 141.379V151.04C278.97 153.189 277.235 154.92 275.097 154.92H218.47C216.606 154.92 216.233 152.209 217.068 150.538L244.43 95.9407L244.425 95.9457Z" fill="#325FE8"/>
</g>
<defs>
<clipPath id="clip0_323_122">
<rect width="221" height="110" fill="white" transform="translate(89 45)"/>
</clipPath>
</defs>
</svg>
