<svg width="400" height="200" viewBox="0 0 400 200" fill="none" xmlns="http://www.w3.org/2000/svg">
<path fill-rule="evenodd" clip-rule="evenodd" d="M274.148 89.5935C275.05 91.1195 275.345 92.8557 275.442 94.8076L275.571 97.4093V115.602L275.701 118.206C275.963 122.459 279.162 125.604 283.534 125.872L286.176 126V97.4093L286.307 94.8076C286.415 92.8776 286.708 91.1086 287.624 89.5716C288.557 87.9952 289.897 86.6872 291.509 85.7791C293.121 84.871 294.948 84.3947 296.807 84.3981C298.667 84.4014 300.492 84.8842 302.101 85.798C303.709 86.7119 305.044 88.0246 305.972 89.6044C306.874 91.1304 307.155 92.8994 307.264 94.8076L307.395 97.4011V115.602L307.526 118.206C307.798 122.481 310.973 125.626 315.358 125.872L318 126V94.8076C318 89.292 315.766 84.0021 311.789 80.1012C307.812 76.2002 302.418 74.0076 296.792 74.0055C293.781 74.0024 290.804 74.6293 288.06 75.8443C285.316 77.0594 282.869 78.8346 280.88 81.0515C278.891 78.8355 276.443 77.0607 273.699 75.8453C270.955 74.6299 267.979 74.0017 264.968 74.0027C260.563 74.0027 256.476 75.3131 253.09 77.5762C251.024 75.3158 246.403 74.0027 243.749 74.0027V126L246.403 125.872C250.841 125.585 254.048 122.525 254.221 118.206L254.363 115.602V97.4093L254.494 94.8076C254.605 92.8448 254.883 91.1195 255.788 89.5825C256.723 88.0071 258.062 86.6994 259.673 85.7902C261.284 84.881 263.109 84.402 264.968 84.4011C266.828 84.4015 268.655 84.8814 270.267 85.7928C271.878 86.7041 273.216 88.0148 274.148 89.5935V89.5935ZM92.6053 125.874L95.2587 126H135.032L134.901 123.407C134.542 119.131 131.454 116.008 127.08 115.73L124.427 115.602H100.565L132.379 84.3984L132.248 81.8076C132.042 77.4889 128.823 74.3685 124.427 74.131L121.773 74.0137L82 74.0027L82.1309 76.6044C82.4789 80.8385 85.6112 84.0271 89.9491 84.2728L92.6053 84.4011H116.466L84.6534 115.604L84.7843 118.206C85.046 122.492 88.2006 125.596 92.6053 125.872V125.874ZM233.339 81.6138C235.802 84.028 237.755 86.8941 239.088 90.0486C240.421 93.2031 241.107 96.5842 241.107 99.9986C241.107 103.413 240.421 106.794 239.088 109.949C237.755 113.103 235.802 115.969 233.339 118.383C228.363 123.258 221.618 125.996 214.584 125.996C207.55 125.996 200.805 123.258 195.829 118.383C185.474 108.231 185.474 91.7665 195.829 81.6138C198.29 79.2005 201.211 77.286 204.426 75.9796C207.641 74.6732 211.087 74.0005 214.567 74C218.053 73.9976 221.505 74.6691 224.726 75.976C227.947 77.2829 230.874 79.1997 233.339 81.6166V81.6138ZM225.835 88.9765C228.818 91.903 230.493 95.871 230.493 100.008C230.493 104.145 228.818 108.113 225.835 111.04C222.85 113.964 218.804 115.607 214.584 115.607C210.364 115.607 206.318 113.964 203.333 111.04C200.35 108.113 198.675 104.145 198.675 100.008C198.675 95.871 200.35 91.903 203.333 88.9765C206.318 86.0521 210.364 84.4094 214.584 84.4094C218.804 84.4094 222.85 86.0521 225.835 88.9765ZM158.915 74C162.396 74.0009 165.842 74.674 169.057 75.9808C172.272 77.2877 175.193 79.2027 177.653 81.6166C188.011 91.7665 188.011 108.234 177.653 118.383C172.678 123.258 165.932 125.996 158.899 125.996C151.865 125.996 145.119 123.258 140.144 118.383C129.789 108.231 129.789 91.7665 140.144 81.6138C142.604 79.2005 145.525 77.286 148.741 75.9796C151.956 74.6732 155.402 74.0005 158.882 74H158.915V74ZM170.15 88.971C173.133 91.8977 174.809 95.8662 174.809 100.004C174.809 104.142 173.133 108.111 170.15 111.037C167.165 113.962 163.118 115.604 158.899 115.604C154.679 115.604 150.632 113.962 147.647 111.037C144.665 108.111 142.99 104.143 142.99 100.005C142.99 95.8682 144.665 91.9003 147.647 88.9738C150.632 86.0494 154.679 84.4067 158.899 84.4067C163.118 84.4067 167.165 86.0494 170.15 88.9738V88.971Z" fill="#2D8CFF"/>
</svg>
