<svg width="400" height="200" viewBox="0 0 400 200" fill="none" xmlns="http://www.w3.org/2000/svg">
<path fill-rule="evenodd" clip-rule="evenodd" d="M53 101.888C53 69.6931 79.983 43.7749 113.5 43.7749C147.017 43.7749 174 69.6931 174 101.888C174 134.083 147.017 160 113.5 160C79.983 160 53 134.082 53 101.888Z" fill="#9D5025"/>
<path fill-rule="evenodd" clip-rule="evenodd" d="M53 97.1133C53 64.9182 79.983 39 113.5 39C147.017 39 174 64.9182 174 97.1133C174 129.308 147.017 155.227 113.5 155.227C79.983 155.227 53 129.307 53 97.1133Z" fill="#F58536"/>
<path fill-rule="evenodd" clip-rule="evenodd" d="M131.154 50.1729V71.2753H95.8446V50.1729H131.154ZM158.471 111.245V128.433H140.578V111.245H158.471ZM135.847 111.245V128.433H117.954V111.245H135.847ZM108.311 111.245V128.433H90.4177V111.245H108.311ZM85.6851 111.245V128.433H67.7922V111.245H85.6851Z" fill="white"/>
<path fill-rule="evenodd" clip-rule="evenodd" d="M75.1279 96.3676H78.3496V113.231H75.1279V96.3676Z" fill="white"/>
<path fill-rule="evenodd" clip-rule="evenodd" d="M75.1279 96.3676H100.974V99.4607H75.1279V96.3676Z" fill="white"/>
<path fill-rule="evenodd" clip-rule="evenodd" d="M97.7534 96.3676H100.975V113.231H97.7549L97.7534 96.3676ZM125.29 96.3676H128.512V113.231H125.29V96.3676Z" fill="white"/>
<path fill-rule="evenodd" clip-rule="evenodd" d="M125.29 96.3676H151.136V99.4607H125.29V96.3676Z" fill="white"/>
<path fill-rule="evenodd" clip-rule="evenodd" d="M147.915 96.3677H151.137V113.231H147.917L147.915 96.3677ZM86.4611 84.3372H89.6827V97.9149H86.4611V84.3372ZM111.889 68.161H115.111V84.5853H111.891L111.889 68.161Z" fill="white"/>
<path fill-rule="evenodd" clip-rule="evenodd" d="M86.4611 83.038H139.883V86.1311H86.4611V83.038Z" fill="white"/>
<path fill-rule="evenodd" clip-rule="evenodd" d="M136.662 84.3371H139.884V97.9148H136.664L136.662 84.3371Z" fill="white"/>
<path d="M223.131 89H218.33L232.216 51.1818H236.943L250.83 89H246.028L234.727 57.1648H234.432L223.131 89ZM224.903 74.2273H244.256V78.2898H224.903V74.2273ZM260.644 89L250.303 51.1818H254.957L262.86 81.983H263.229L271.281 51.1818H276.451L284.502 81.983H284.871L292.775 51.1818H297.428L287.087 89H282.36L274.013 58.8636H273.718L265.371 89H260.644ZM323.816 60.6364C323.594 58.7652 322.696 57.3125 321.12 56.2784C319.544 55.2443 317.612 54.7273 315.322 54.7273C313.647 54.7273 312.183 54.9981 310.927 55.5398C309.683 56.0814 308.711 56.8262 308.009 57.7741C307.32 58.7221 306.975 59.7992 306.975 61.0057C306.975 62.0151 307.215 62.883 307.695 63.6094C308.188 64.3234 308.816 64.9205 309.579 65.4006C310.342 65.8684 311.142 66.2562 311.979 66.5639C312.817 66.8594 313.586 67.0994 314.288 67.2841L318.129 68.3182C319.113 68.5767 320.209 68.9337 321.415 69.3892C322.634 69.8447 323.798 70.4664 324.906 71.2543C326.026 72.0298 326.949 73.027 327.675 74.2457C328.402 75.4645 328.765 76.9602 328.765 78.733C328.765 80.7765 328.229 82.6231 327.158 84.2727C326.1 85.9223 324.549 87.2334 322.505 88.206C320.474 89.1785 318.005 89.6648 315.1 89.6648C312.392 89.6648 310.047 89.2277 308.065 88.3537C306.095 87.4796 304.544 86.2609 303.411 84.6974C302.291 83.134 301.657 81.3182 301.509 79.25H306.237C306.36 80.678 306.84 81.8598 307.677 82.7955C308.526 83.7187 309.597 84.4081 310.89 84.8636C312.195 85.3068 313.598 85.5284 315.1 85.5284C316.848 85.5284 318.418 85.2453 319.809 84.679C321.2 84.1004 322.302 83.3002 323.114 82.2784C323.927 81.2443 324.333 80.0379 324.333 78.6591C324.333 77.4034 323.982 76.3816 323.281 75.5938C322.579 74.8059 321.656 74.1657 320.511 73.6733C319.366 73.1809 318.129 72.75 316.799 72.3807L312.146 71.0511C309.191 70.2017 306.852 68.9891 305.129 67.4134C303.405 65.8376 302.543 63.7756 302.543 61.2273C302.543 59.1098 303.116 57.2633 304.261 55.6875C305.418 54.0994 306.969 52.8684 308.914 51.9943C310.871 51.108 313.057 50.6648 315.469 50.6648C317.907 50.6648 320.074 51.1018 321.969 51.9759C323.865 52.8376 325.367 54.0194 326.475 55.5213C327.595 57.0232 328.186 58.7282 328.248 60.6364H323.816ZM223.131 149H218.33L232.216 111.182H236.943L250.83 149H246.028L234.727 117.165H234.432L223.131 149ZM224.903 134.227H244.256V138.29H224.903V134.227ZM256.72 149V111.182H261.3V144.938H278.879V149H256.72ZM285.97 149V111.182H299.192C301.826 111.182 303.999 111.637 305.71 112.548C307.421 113.447 308.696 114.66 309.533 116.186C310.37 117.7 310.788 119.381 310.788 121.227C310.788 122.852 310.499 124.194 309.92 125.253C309.354 126.312 308.603 127.149 307.668 127.764C306.744 128.38 305.741 128.835 304.658 129.131V129.5C305.815 129.574 306.978 129.98 308.148 130.719C309.317 131.457 310.296 132.516 311.084 133.895C311.872 135.274 312.266 136.96 312.266 138.955C312.266 140.85 311.835 142.555 310.973 144.07C310.111 145.584 308.751 146.784 306.892 147.67C305.033 148.557 302.614 149 299.635 149H285.97ZM290.55 144.938H299.635C302.626 144.938 304.75 144.359 306.006 143.202C307.274 142.032 307.908 140.616 307.908 138.955C307.908 137.674 307.581 136.492 306.929 135.409C306.277 134.313 305.347 133.439 304.141 132.787C302.934 132.122 301.506 131.79 299.857 131.79H290.55V144.938ZM290.55 127.801H299.044C300.423 127.801 301.666 127.53 302.774 126.989C303.894 126.447 304.781 125.684 305.433 124.699C306.098 123.714 306.43 122.557 306.43 121.227C306.43 119.565 305.852 118.156 304.695 116.999C303.537 115.829 301.703 115.244 299.192 115.244H290.55V127.801Z" fill="#94959A"/>
</svg>
