<svg width="400" height="200" viewBox="0 0 400 200" fill="none" xmlns="http://www.w3.org/2000/svg">
<g clip-path="url(#clip0_323_123)">
<path d="M372.017 101.991H366.049L363.066 107.144L366.049 112.297H372.017L375 107.144L372.017 101.991ZM359.439 83.8964H352.009L346.803 92.8559C346.159 93.7928 345.925 94.3784 344.463 94.4369H340.894V74.5856H334.225V112.297H340.894V100.527H343.819C345.223 100.586 345.516 101.113 346.042 101.991L351.951 112.297H359.439L351.249 98.0676L359.439 83.8964ZM329.37 86.5901C328.317 85.7703 327.205 85.0676 325.977 84.5405C324.105 83.7207 322.116 83.3108 320.068 83.3108C317.436 83.3108 314.803 84.0135 312.522 85.3604C310.24 86.6486 308.31 88.5225 306.964 90.8063C305.619 93.0315 304.858 95.5496 304.858 98.1261C304.858 100.703 305.56 103.279 306.964 105.505C308.31 107.788 310.24 109.662 312.522 110.95C316.675 113.351 321.707 113.644 326.094 111.712C327.264 111.185 328.434 110.482 329.428 109.662L326.445 104.45C325.626 105.329 324.69 106.032 323.637 106.5C322.525 107.027 321.297 107.32 320.127 107.32C318.606 107.32 317.143 106.91 315.856 106.09C314.569 105.27 313.458 104.099 312.756 102.752C311.995 101.347 311.586 99.7658 311.586 98.1847C311.586 96.6036 311.995 95.0225 312.756 93.6757C313.458 92.3288 314.569 91.1577 315.856 90.3378C317.143 89.518 318.606 89.1081 320.127 89.1081C322.525 89.1081 324.807 90.1622 326.387 91.9189L328.668 87.9369L329.37 86.5901ZM288.244 83.2523C284.676 83.2523 280.932 84.2477 276.954 86.2387L279.528 90.7477C281.868 89.6351 284.325 88.7568 286.899 88.7568C291.637 88.7568 293.392 91.2162 293.685 94.4369H285.904C279.528 94.4369 274.321 98.3018 274.321 103.865C274.321 109.428 278.884 112.941 284.91 112.941C288.186 112.941 291.579 111.712 293.685 109.077V112.297H300.412V95.2568C300.412 88.0541 295.732 83.2523 288.244 83.2523ZM293.685 102.577C293.685 105.27 290.994 108.081 286.431 108.081C283.272 108.081 280.873 106.383 280.873 103.689C280.873 100.995 283.564 99.2387 286.899 99.2387H293.685V102.577ZM262.738 74.5856H269.407V112.297H262.738V74.5856ZM250.629 92.3874C254.139 90.5135 255.952 87.7027 255.952 84.0721C255.952 82.3739 255.484 80.6757 254.548 79.2117C253.554 77.7477 252.208 76.5766 250.629 75.8153C248.932 74.9955 247.06 74.5856 244.896 74.6441H226.585V112.297H245.598C247.879 112.239 249.985 111.829 251.799 110.95C253.554 110.131 255.016 108.901 256.069 107.32C257.122 105.739 257.649 103.923 257.59 102.05C257.59 100.059 256.947 98.1261 255.777 96.4865C254.49 94.7883 252.793 93.4414 250.629 92.3874ZM233.137 80.5586H243.141C244.837 80.5586 246.183 80.9685 247.294 81.8468C248.347 82.6081 248.932 83.8964 248.932 85.1847C248.932 86.473 248.406 87.5856 247.294 88.464C246.183 89.3423 244.837 89.7523 243.141 89.7523H233.137V80.5586ZM248.698 104.86C247.528 105.856 246.007 106.383 244.135 106.383H233.137V95.6667H244.135C246.007 95.6667 247.528 96.1937 248.698 97.1892C250.804 99.0045 251.097 102.225 249.283 104.333C249.166 104.45 248.932 104.685 248.698 104.86ZM200.962 84.7162C199.324 83.7793 197.394 83.3108 195.522 83.3108C193.767 83.3108 192.012 83.7207 190.432 84.5405C188.97 85.3018 187.683 86.4144 186.747 87.7613V83.8964H180.078V112.297H186.747V94.3784C186.981 92.8559 187.8 91.4505 189.028 90.5721C190.315 89.518 191.953 88.991 193.591 89.0496C195.346 89.0496 196.751 89.6351 197.862 90.8649C198.974 92.0946 199.558 93.6757 199.5 95.6081V112.356H205.935V94.3198C205.993 92.3288 205.526 90.3964 204.59 88.6396C203.829 86.9414 202.542 85.5946 200.962 84.7162ZM168.553 85.3604C163.873 82.6667 158.14 82.6667 153.519 85.3604C151.237 86.6486 149.307 88.5225 147.961 90.8063C146.616 93.0315 145.855 95.5496 145.855 98.1261C145.855 100.703 146.557 103.279 147.961 105.505C149.307 107.788 151.237 109.662 153.519 110.95C158.199 113.644 163.932 113.644 168.553 110.95C170.835 109.604 172.765 107.73 174.111 105.505C175.456 103.279 176.217 100.761 176.217 98.1261C176.217 95.491 175.515 92.973 174.111 90.8063C172.765 88.5225 170.835 86.6486 168.553 85.3604ZM168.436 102.694C167.676 104.041 166.623 105.212 165.277 106.032C163.99 106.851 162.528 107.261 161.007 107.261C159.486 107.261 158.023 106.851 156.736 106.032C155.391 105.212 154.338 104.041 153.577 102.694C152.817 101.288 152.407 99.7072 152.407 98.1261C152.407 96.545 152.817 94.964 153.577 93.6171C154.338 92.2703 155.449 91.0991 156.736 90.2793C158.023 89.4595 159.486 89.0496 161.007 89.0496C162.528 89.0496 163.99 89.4595 165.277 90.2793C167.968 91.9775 169.606 94.964 169.606 98.1261C169.665 99.7072 169.255 101.288 168.436 102.694ZM136.027 85.1847C134.038 83.8964 131.698 83.2523 129.358 83.3108C125.439 83.2523 121.695 85.1847 119.53 88.464V74.6441H112.861V112.356H119.53V107.788C121.695 111.068 125.439 113 129.358 112.941C131.698 113 134.038 112.297 136.027 111.068C138.016 109.779 139.654 107.964 140.649 105.797C141.819 103.396 142.404 100.761 142.404 98.1261C142.404 95.491 141.819 92.8559 140.649 90.5135C139.654 88.3468 138.016 86.473 136.027 85.1847ZM133.395 104.685C131.874 106.383 129.885 107.261 127.545 107.261C125.205 107.261 123.274 106.383 121.812 104.685C120.291 102.986 119.53 100.761 119.53 98.1261C119.53 95.491 120.349 93.2658 121.812 91.5676C123.274 89.8694 125.205 88.991 127.545 88.991C129.885 88.991 131.874 89.8694 133.395 91.5676C134.916 93.2658 135.676 95.4324 135.676 98.1261C135.735 100.761 134.916 102.986 133.395 104.685ZM97.71 88.5225V83.955H91.041V112.356H97.71V98.6532C97.71 95.9595 98.646 93.7928 100.518 92.1532C102.39 90.5135 104.847 89.8694 107.83 89.8694V83.955C104.788 83.8964 99.7575 86.1216 97.71 88.5225ZM73.9005 83.2523C70.332 83.2523 66.588 84.2477 62.61 86.2387L65.184 90.7477C67.524 89.6351 69.981 88.7568 72.555 88.7568C77.2935 88.7568 79.0485 91.2162 79.341 94.4369H71.5605C65.184 94.4369 59.9775 98.3018 59.9775 103.865C59.9775 109.428 64.5405 112.941 70.566 112.941C73.842 112.941 77.235 111.712 79.341 109.077V112.297H86.0685V95.2568C86.0685 88.0541 81.3885 83.2523 73.9005 83.2523ZM79.341 102.577C79.341 105.27 76.65 108.081 72.087 108.081C68.928 108.081 66.5295 106.383 66.5295 103.689C66.5295 100.995 69.2205 99.2387 72.555 99.2387H79.341V102.577ZM53.133 102.577C48.102 107.73 39.8535 107.905 34.7055 102.869C29.5575 97.8333 29.382 89.5766 34.413 84.4234C39.444 79.2703 47.6925 79.0946 52.8405 84.1306C52.9575 84.2477 53.016 84.3063 53.133 84.4234L56.409 78.7432C52.8405 75.6982 48.2775 74 43.5975 74C32.775 74 24 82.7252 24 93.5C24 104.275 32.775 113 43.5975 113C48.2775 113 52.8405 111.36 56.409 108.315L53.133 102.577Z" fill="#0A0A0A"/>
</g>
<defs>
<clipPath id="clip0_323_123">
<rect width="351" height="39" fill="white" transform="translate(24 74)"/>
</clipPath>
</defs>
</svg>
