<svg width="400" height="200" viewBox="0 0 400 200" fill="none" xmlns="http://www.w3.org/2000/svg">
<path d="M54.5945 98.3404C56.818 101.055 59.8931 102.938 63.3212 103.685C60.9168 102.328 58.5816 100.996 56.4021 99.5166C55.7621 99.1188 55.1999 98.7296 54.5858 98.3404M79.5466 98.5047V97.8647L74.2275 93.2375H73.5961C72.8063 94.1224 71.8408 94.8332 70.7613 95.3246C69.6817 95.8159 68.5117 96.0772 67.3257 96.0917C65.4149 96.0917 63.5824 95.3326 62.2313 93.9815C60.8802 92.6304 60.1211 90.7979 60.1211 88.8871C60.1211 86.9764 60.8802 85.1439 62.2313 83.7928C63.5824 82.4416 65.4149 81.6826 67.3257 81.6826C68.5117 81.6971 69.6817 81.9583 70.7613 82.4497C71.8408 82.9411 72.8063 83.6519 73.5961 84.5367H74.2275L79.5639 79.9182V79.2782C78.0793 77.4877 76.2146 76.0504 74.1052 75.0705C71.9958 74.0906 69.6947 73.5927 67.3689 73.6132C58.2011 73.6132 51.256 80.1431 51.256 88.8871C51.256 89.2244 51.3338 89.5358 51.3511 89.8731C55.1047 92.4678 58.4173 94.4916 61.2714 96.3684C64.7959 98.5822 68.1864 101.002 71.4253 103.616C74.6149 102.822 77.465 101.024 79.5552 98.4874" fill="#414042"/>
<path d="M99.5429 84.5021C99.5569 84.9014 99.4857 85.299 99.3339 85.6685C99.1822 86.038 98.9534 86.371 98.6629 86.6452C98.3724 86.9193 98.0267 87.1284 97.649 87.2585C97.2713 87.3886 96.8703 87.4366 96.4725 87.3995H92.3902V81.4231H96.4812C96.8904 81.4032 97.2992 81.4694 97.6813 81.6172C98.0634 81.765 98.4103 81.9913 98.6995 82.2814C98.9888 82.5715 99.2141 82.919 99.3609 83.3015C99.5076 83.684 99.5726 84.093 99.5515 84.5021M110.501 102.215L109.169 96.4203L108.676 96.1003C108.333 96.3267 107.928 96.4387 107.517 96.4203C106.497 96.4203 105.874 95.3306 105.338 94.4657C104.806 93.4955 104.043 92.6723 103.115 92.0699C104.736 91.4399 106.125 90.3291 107.096 88.8866C108.066 87.4442 108.573 85.7391 108.546 84.0005C108.546 77.9463 104.447 74.1667 96.8358 74.1667H83.5597V103.616H92.3902V93.2894H93.1859C95.1492 93.2894 97.6401 97.5534 98.7991 99.4561C101.203 103.305 103.124 104.17 106.54 104.17C107.906 104.198 109.236 103.731 110.285 102.855L110.501 102.215Z" fill="#414042"/>
<path d="M135.557 88.9131C135.55 90.3296 135.124 91.7125 134.332 92.887C133.54 94.0615 132.418 94.9751 131.107 95.5125C129.796 96.0499 128.356 96.1869 126.967 95.9064C125.579 95.6258 124.304 94.9403 123.305 93.9362C122.306 92.9321 121.626 91.6544 121.352 90.2646C121.079 88.8747 121.223 87.4348 121.766 86.1267C122.31 84.8186 123.229 83.7008 124.407 82.9145C125.586 82.1282 126.97 81.7085 128.387 81.7085C129.336 81.6907 130.28 81.8652 131.16 82.2214C132.04 82.5777 132.839 83.1083 133.509 83.7813C134.179 84.4544 134.705 85.2559 135.057 86.1379C135.409 87.0198 135.579 87.9638 135.557 88.9131M144.543 88.9131C144.543 80.169 137.624 73.6391 128.387 73.6391C119.15 73.6391 112.231 80.169 112.231 88.9131C112.231 97.6571 119.15 104.187 128.387 104.187C137.624 104.187 144.543 97.562 144.543 88.9131Z" fill="#414042"/>
<path d="M188.661 74.1667H180.246L175.039 90.4785L169.521 74.1667H164.176L158.702 90.3921L153.495 74.1667H145.079L144.682 74.85L155.458 103.625H160.795L166.849 87.5812L172.946 103.625H178.291L189.059 74.85L188.661 74.1667Z" fill="#414042"/>
<path d="M212.342 88.913C212.342 93.7132 209.54 96.3944 205.665 96.3944H201.341V81.4231H205.665C209.54 81.4231 212.342 84.0956 212.342 88.8957M221.337 88.8957C221.337 80.0998 215.499 74.1926 206.02 74.1926H192.536V103.616H206.02C215.533 103.616 221.337 97.7263 221.337 88.8439" fill="#414042"/>
<path d="M268.024 81.4231H276.837V74.1667H250.397V81.4231H259.211V103.625H268.024V81.4231Z" fill="#414042"/>
<path d="M296.02 84.5021C296.034 84.9014 295.963 85.299 295.811 85.6685C295.66 86.038 295.431 86.371 295.14 86.6452C294.85 86.9193 294.504 87.1284 294.126 87.2585C293.749 87.3886 293.348 87.4366 292.95 87.3995H288.859V81.4231H292.95C293.359 81.4032 293.768 81.4694 294.15 81.6172C294.532 81.765 294.879 81.9913 295.168 82.2814C295.458 82.5715 295.683 82.919 295.83 83.3015C295.976 83.684 296.041 84.093 296.02 84.5021M305.015 84.0005C305.015 77.9463 300.916 74.1667 293.304 74.1667H280.072V103.616H288.894V93.2894H290.978L296.427 103.616H305.154L305.56 102.933L299.679 92.018C301.265 91.3651 302.618 90.2509 303.563 88.8198C304.509 87.3888 305.002 85.7068 304.981 83.9919" fill="#414042"/>
<path d="M319.173 74.1667H310.36V103.616H319.173V74.1667Z" fill="#414042"/>
<path d="M341.514 87.3563L351.486 74.85L351.088 74.1667H341.695L333.548 84.6405V74.1667H324.735V103.625H333.548V94.5608L335.148 92.6581L342.629 103.625H351.84L352.247 102.942L341.514 87.3563Z" fill="#414042"/>
<path d="M376.68 81.4231V74.1667H354.643V103.625H376.81V96.3685H363.464V92.2948H373.523V85.4968H363.464V81.4231H376.68Z" fill="#414042"/>
<path d="M236.239 103.971C242.7 103.971 248.304 100.805 248.304 94.6905C248.304 88.0222 242.657 86.3011 237.666 84.8567C235.711 84.2599 233.705 83.5853 233.705 82.1323C233.705 81.0944 234.821 80.4544 236.507 80.4544C239.405 80.4544 241.852 82.2707 243.098 83.4469H243.746L247.889 78.4652V77.8338C245.701 75.3429 241.255 73.4402 236.36 73.4402C229.502 73.4402 224.745 77.1505 224.745 82.5388C224.745 88.3422 229.994 90.885 234.44 92.1478C237.337 92.9694 239.301 93.0991 239.301 94.6905C239.301 95.8235 237.917 96.4982 235.781 96.4982C233.065 96.4982 229.77 94.7684 228.17 93.151H227.547L223.456 98.3404V98.9718C226.051 101.912 230.79 103.997 236.265 103.997" fill="#414042"/>
<path d="M84.2949 131.042C82.1586 126.129 77.8687 119.798 61.0639 110.829C53.2798 106.505 40.0816 99.8366 28.198 87.166C29.2791 91.7413 34.8058 101.791 58.5816 114.341C65.1635 117.956 76.2946 121.355 84.3122 131.042" fill="#EC462B"/>
<path d="M83.2224 122.644C81.1899 116.84 77.54 109.402 60.1903 98.3663C51.7403 92.8051 39.3464 85.8168 23 68C24.1676 72.8001 29.3224 85.2978 55.321 101.506C63.8488 107.309 74.9021 110.899 83.2224 122.644Z" fill="#EC462B"/>
</svg>
