<svg width="400" height="200" viewBox="0 0 400 200" fill="none" xmlns="http://www.w3.org/2000/svg">
<path d="M156.993 100.971L142.547 116.558L156.993 132.145L171.439 116.558L156.993 100.971Z" fill="#3E3F49"/>
<path d="M156.993 68L142.547 83.587L156.993 99.174L171.439 83.587L156.993 68Z" fill="#3E3F49"/>
<path d="M172.267 84.6031L157.822 100.19L172.267 115.777L186.726 100.19L172.267 84.6031Z" fill="#3E3F49"/>
<path d="M141.72 84.6031L127.26 100.19L141.72 115.777L156.165 100.19L141.72 84.6031Z" fill="#3E3F49"/>
<path d="M126.446 101.207L112 116.794L126.446 132.381L140.905 116.794L126.446 101.207Z" fill="#3E3F49"/>
<path d="M187.541 101.207L173.082 116.794L187.541 132.381L202 116.794L187.541 101.207Z" fill="#3E3F49"/>
<path d="M214.625 122.875L217.5 113.125C218 111.375 219 109.75 220.25 108.5L258.25 70.5C261.375 67.375 266.5 67.375 269.625 70.5L274.5 75.375C274.875 75.75 275.25 76.25 275.5 76.625C277.625 79.75 277.25 84 274.5 86.75L236.5 124.75C236.375 124.875 236.125 125 236 125.25C234.75 126.25 233.375 127 231.875 127.5L222.125 130.375L216.75 131.875C215.75 132.25 214.625 132 213.875 131.125C213 130.375 212.75 129.25 213.125 128.25L214.625 122.875ZM222.375 117.75L220.375 124.625L227.25 122.625L230.125 121.75C231 121.5 231.625 121.125 232.25 120.5L260.875 91.875L253.125 84.125L224.5 112.75C224.375 112.75 224.375 112.875 224.25 113C223.75 113.5 223.5 114.125 223.25 114.875L222.375 117.75ZM234.625 71.5L242.75 79.625L238.5 83.875L235.25 80.625L232.375 83.5C231.625 84.25 230.375 84.25 229.5 83.5C228.75 82.625 228.75 81.375 229.5 80.625L232.375 77.75L230.375 75.75C229.625 75 228.25 75 227.5 75.75L220.625 82.625C219.875 83.375 219.875 84.75 220.625 85.5L228.75 93.625L224.5 97.875L216.375 89.75C213.25 86.625 213.25 81.5 216.375 78.375L223.25 71.5C226.375 68.375 231.5 68.375 234.625 71.5ZM259.5 124.375C260.25 125.125 261.625 125.125 262.375 124.375L269.25 117.5C270 116.75 270 115.375 269.25 114.625L267.25 112.625L264.375 115.5C263.625 116.25 262.25 116.25 261.5 115.5C260.75 114.75 260.75 113.375 261.5 112.625L264.375 109.75L261.125 106.5L265.375 102.25L273.5 110.375C276.625 113.5 276.625 118.625 273.5 121.75L266.625 128.625C263.5 131.75 258.375 131.75 255.25 128.625L247.125 120.5L251.375 116.25L259.5 124.375Z" fill="#3E3F49"/>
</svg>
