<svg width="400" height="200" viewBox="0 0 400 200" fill="none" xmlns="http://www.w3.org/2000/svg">
<g clip-path="url(#clip0_323_123)">
<path d="M104.091 93.9593H77.8611C77.5371 93.9593 77.2265 94.0874 76.9974 94.3155C76.7684 94.5435 76.6397 94.8528 76.6397 95.1752V107.938C76.6397 108.261 76.7681 108.571 76.9969 108.801C77.2257 109.03 77.5363 109.16 77.8611 109.162H88.0913V125.003C88.0913 125.003 85.7958 125.788 79.4289 125.788C71.936 125.788 61.4719 123.063 61.4719 100.151C61.4719 77.2387 72.3691 74.2291 82.5994 74.2291C91.4523 74.2291 95.2724 75.7813 97.6978 76.5229C97.8749 76.5571 98.0573 76.5521 98.2321 76.5082C98.407 76.4644 98.5701 76.3828 98.7098 76.2693C98.8494 76.1557 98.9623 76.013 99.0404 75.8512C99.1185 75.6894 99.16 75.5124 99.1617 75.3329L102.116 63.0015C102.123 62.816 102.084 62.6316 102.002 62.4647C101.92 62.2977 101.799 62.1533 101.648 62.0443C100.66 61.3459 94.6487 58 79.4549 58C61.9484 58 44 65.4075 44 101.048C44 136.688 64.5557 141.991 81.8717 141.991C96.2166 141.991 104.922 135.895 104.922 135.895C105.059 135.785 105.166 135.644 105.234 135.482C105.302 135.321 105.329 135.146 105.312 134.972V95.1666C105.31 94.8456 105.18 94.5386 104.951 94.3124C104.722 94.0863 104.413 93.9593 104.091 93.9593V93.9593Z" fill="#100E0F"/>
<path d="M239.206 62.2686C239.208 62.1086 239.178 61.9498 239.118 61.8013C239.059 61.6528 238.97 61.5177 238.857 61.4037C238.744 61.2898 238.609 61.1993 238.461 61.1376C238.313 61.0758 238.154 61.0441 237.993 61.0441H223.267C223.106 61.0441 222.946 61.0758 222.798 61.1374C222.649 61.1991 222.514 61.2894 222.4 61.4032C222.287 61.5171 222.197 61.6521 222.136 61.8006C222.075 61.9491 222.045 62.1082 222.046 62.2686V90.6652H199.004V62.2686C199.005 62.1082 198.974 61.9491 198.913 61.8006C198.853 61.6521 198.763 61.5171 198.649 61.4032C198.536 61.2894 198.401 61.1991 198.252 61.1374C198.103 61.0758 197.944 61.0441 197.782 61.0441H183.057C182.895 61.0441 182.736 61.0758 182.587 61.1374C182.438 61.1991 182.303 61.2894 182.19 61.4032C182.076 61.5171 181.986 61.6521 181.926 61.8006C181.865 61.9491 181.834 62.1082 181.835 62.2686V139.172C181.835 139.495 181.963 139.805 182.192 140.034C182.421 140.264 182.732 140.394 183.057 140.396H197.782C198.107 140.394 198.418 140.264 198.647 140.034C198.875 139.805 199.004 139.495 199.004 139.172V106.274H222.011L221.968 139.172C221.97 139.496 222.1 139.806 222.331 140.035C222.561 140.264 222.872 140.394 223.198 140.396H237.993C238.153 140.395 238.312 140.362 238.46 140.3C238.608 140.238 238.742 140.148 238.854 140.034C238.967 139.92 239.056 139.785 239.116 139.638C239.176 139.49 239.207 139.331 239.206 139.172V62.2686Z" fill="#100E0F"/>
<path d="M131.949 72.401C131.932 70.5287 131.358 68.7032 130.301 67.1547C129.244 65.6062 127.75 64.4038 126.007 63.6991C124.264 62.9943 122.351 62.8187 120.509 63.1944C118.666 63.5701 116.976 64.4803 115.652 65.8102C114.328 67.1402 113.43 68.8305 113.069 70.6681C112.708 72.5058 112.902 74.4086 113.625 76.1369C114.349 77.8651 115.57 79.3415 117.135 80.3801C118.701 81.4186 120.539 81.9728 122.42 81.9729C123.679 81.9729 124.925 81.7248 126.087 81.2427C127.248 80.7606 128.303 80.0542 129.189 79.1642C130.075 78.2742 130.775 77.2183 131.248 76.0575C131.722 74.8966 131.96 73.6539 131.949 72.401V72.401Z" fill="#100E0F"/>
<path d="M130.892 122.942V87.4487C130.892 87.1254 130.763 86.8153 130.535 86.5859C130.306 86.3565 129.995 86.2265 129.67 86.2242H114.945C114.6 86.254 114.28 86.4099 114.045 86.6616C113.809 86.9133 113.676 87.2429 113.671 87.5867V138.464C113.671 139.956 114.607 140.405 115.811 140.405H129.073C130.528 140.405 130.883 139.689 130.883 138.439L130.892 122.942Z" fill="#100E0F"/>
<path d="M295.286 86.3363H280.664C280.338 86.3408 280.027 86.4728 279.799 86.7035C279.57 86.9343 279.442 87.2454 279.442 87.5694V125.279C276.769 127.03 273.642 127.97 270.442 127.987C265.158 127.987 263.755 125.598 263.755 120.45V87.5694C263.757 87.2461 263.631 86.9351 263.404 86.7041C263.176 86.473 262.867 86.3408 262.542 86.3363H247.643C247.317 86.3408 247.007 86.4728 246.778 86.7035C246.549 86.9343 246.421 87.2454 246.421 87.5694V122.925C246.421 138.214 254.988 141.957 266.769 141.957C276.428 141.957 284.215 136.645 284.215 136.645C284.34 137.697 284.522 138.742 284.761 139.775C284.866 139.969 285.021 140.133 285.209 140.249C285.398 140.366 285.613 140.431 285.835 140.439H295.294C295.62 140.435 295.93 140.303 296.159 140.072C296.388 139.841 296.516 139.53 296.516 139.206V87.5694C296.517 87.4079 296.486 87.2478 296.425 87.0982C296.363 86.9486 296.273 86.8126 296.158 86.698C296.044 86.5834 295.908 86.4924 295.758 86.4303C295.609 86.3683 295.448 86.3363 295.286 86.3363V86.3363Z" fill="#100E0F"/>
<path d="M335.349 84.6117C330.443 84.5822 325.619 85.8595 321.377 88.3111V62.2686C321.378 62.1082 321.347 61.9491 321.286 61.8006C321.225 61.6521 321.136 61.5171 321.022 61.4032C320.908 61.2894 320.773 61.1991 320.625 61.1374C320.476 61.0758 320.316 61.0441 320.155 61.0441H305.351C305.19 61.0441 305.031 61.0758 304.882 61.1374C304.733 61.1991 304.598 61.2894 304.485 61.4032C304.371 61.5171 304.281 61.6521 304.22 61.8006C304.16 61.9491 304.129 62.1082 304.13 62.2686V139.172C304.13 139.495 304.258 139.805 304.487 140.034C304.716 140.264 305.027 140.394 305.351 140.396H315.625C315.846 140.394 316.062 140.333 316.251 140.219C316.44 140.106 316.595 139.943 316.699 139.749C316.994 138.582 317.202 137.394 317.323 136.197C317.323 136.197 323.386 141.914 334.829 141.914C348.282 141.914 356 135.119 356 111.413C356 87.7075 343.682 84.6117 335.349 84.6117ZM329.571 127.944C326.565 127.866 323.63 127.02 321.047 125.486V101.134C323.376 99.8118 325.953 98.981 328.618 98.6936C333.894 98.2193 339.013 99.806 339.013 112.336C338.979 125.547 336.683 128.151 329.571 127.944Z" fill="#100E0F"/>
<path d="M173.32 86.1983H162.25V71.6335C162.25 71.0816 161.964 70.7712 161.323 70.7712H146.216C145.627 70.7712 145.349 71.0299 145.349 71.6335V86.6812C145.349 86.6812 137.787 88.5008 137.276 88.6474C137.025 88.7249 136.805 88.8806 136.649 89.0917C136.493 89.3028 136.409 89.5581 136.41 89.8201V99.3058C136.409 99.4662 136.439 99.6253 136.5 99.7738C136.561 99.9223 136.651 100.057 136.764 100.171C136.878 100.285 137.013 100.375 137.162 100.437C137.311 100.499 137.47 100.53 137.631 100.53H145.367V123.279C145.367 140.172 157.269 141.836 165.29 141.836C168.249 141.737 171.182 141.25 174.013 140.387C174.227 140.295 174.408 140.14 174.532 139.943C174.656 139.746 174.716 139.516 174.706 139.284V128.884C174.704 128.56 174.575 128.251 174.347 128.02C174.119 127.79 173.809 127.657 173.485 127.651C172.835 127.651 171.189 127.918 169.483 127.918C164.051 127.918 162.206 125.4 162.206 122.14V100.513H173.32C173.481 100.513 173.641 100.481 173.789 100.42C173.938 100.358 174.073 100.268 174.187 100.154C174.3 100.04 174.39 99.905 174.451 99.7565C174.512 99.608 174.543 99.449 174.541 99.2886V87.4401C174.544 87.2786 174.514 87.1182 174.454 86.9682C174.393 86.8182 174.304 86.6816 174.19 86.5661C174.077 86.4507 173.942 86.3588 173.792 86.2957C173.643 86.2325 173.482 86.1995 173.32 86.1983V86.1983Z" fill="#100E0F"/>
</g>
<defs>
<clipPath id="clip0_323_123">
<rect width="312" height="84" fill="white" transform="translate(44 58)"/>
</clipPath>
</defs>
</svg>
