<svg width="400" height="200" viewBox="0 0 400 200" fill="none" xmlns="http://www.w3.org/2000/svg">
<path d="M88.5833 76.6875H26.5833C25.1302 76.6875 24 77.8281 24 78.9688V103.207C24 103.777 24.1615 104.348 24.6458 104.775L29.1667 108.625V129.156C29.1667 133.006 32.5573 136 36.9167 136H78.25C82.4479 136 86 133.006 86 129.156V108.625L90.3594 104.775C90.8437 104.348 91.1667 103.777 91.1667 103.207V78.9688C91.1667 77.8281 89.875 76.6875 88.5833 76.6875ZM86 102.209L80.8333 106.771V129.156C80.8333 130.439 79.5417 131.438 78.25 131.438H36.9167C35.4635 131.438 34.3333 130.439 34.3333 129.156V106.771L32.7187 105.488L29.1667 102.209V81.25H86V102.209ZM75.6667 64.1406C75.6667 63.5703 75.0208 63 74.375 63H71.7917C70.9844 63 70.5 63.5703 70.5 64.1406V72.125H75.6667V64.1406ZM65.3333 64.1406C65.3333 63.5703 64.6875 63 64.0417 63H56.2917C55.4844 63 55 63.5703 55 64.1406V72.125H65.3333V64.1406ZM115.708 63H107.958C107.151 63 106.667 63.5703 106.667 64.1406V102.922C106.667 103.635 107.151 104.062 107.958 104.062H115.708C116.354 104.062 117 103.635 117 102.922V64.1406C117 63.5703 116.354 63 115.708 63ZM100.208 63H97.625C96.8177 63 96.3333 63.5703 96.3333 64.1406V102.922C96.3333 103.635 96.8177 104.062 97.625 104.062H100.208C100.854 104.062 101.5 103.635 101.5 102.922V64.1406C101.5 63.5703 100.854 63 100.208 63ZM89.875 63H82.125C81.3177 63 80.8333 63.5703 80.8333 64.1406V72.125H91.1667V64.1406C91.1667 63.5703 90.5208 63 89.875 63Z" fill="#2F54EB"/>
<path d="M52.6533 123.984C52.9661 124.047 53.2163 123.921 53.2789 123.671L62.099 93.3297C62.1616 93.0795 62.0365 92.7667 61.7863 92.7041L59.3467 92.0159C59.0964 91.9534 58.7837 92.0785 58.7211 92.3287L49.901 122.67C49.8384 122.921 49.9635 123.233 50.2763 123.296L52.6533 123.984ZM47.4613 116.414L49.1503 114.6C49.338 114.412 49.338 114.1 49.1503 113.912L42.5195 107.969L49.1503 102.088C49.338 101.9 49.338 101.588 49.1503 101.4L47.4613 99.5857C47.2737 99.398 46.9609 99.3355 46.7732 99.5231L38.1407 107.656C37.9531 107.844 37.9531 108.156 38.1407 108.344L46.7732 116.414C46.9609 116.602 47.2737 116.602 47.4613 116.414ZM65.2268 116.414L73.8593 108.344C74.0469 108.156 74.0469 107.844 73.8593 107.656L65.2268 99.5231C65.0391 99.3355 64.7263 99.398 64.5387 99.5857L62.8497 101.4C62.662 101.588 62.662 101.9 62.8497 102.088L69.4805 107.969L62.8497 113.912C62.662 114.1 62.662 114.412 62.8497 114.6L64.5387 116.414C64.7263 116.602 65.0391 116.602 65.2268 116.414Z" fill="#2F54EB"/>
<path d="M152.068 73C151.787 72.1392 151.416 71.3679 150.956 70.6861C150.504 69.9957 149.963 69.4077 149.332 68.9219C148.71 68.4361 148.003 68.0653 147.21 67.8097C146.418 67.554 145.548 67.4261 144.602 67.4261C143.051 67.4261 141.641 67.8267 140.371 68.6278C139.101 69.429 138.091 70.6094 137.341 72.169C136.591 73.7287 136.216 75.642 136.216 77.9091C136.216 80.1761 136.595 82.0895 137.354 83.6491C138.112 85.2088 139.139 86.3892 140.435 87.1903C141.73 87.9915 143.188 88.392 144.807 88.392C146.307 88.392 147.628 88.0724 148.77 87.4332C149.92 86.7855 150.815 85.8736 151.455 84.6974C152.102 83.5128 152.426 82.1193 152.426 80.517L153.398 80.7216H145.523V77.9091H155.494V80.7216C155.494 82.8778 155.034 84.7528 154.114 86.3466C153.202 87.9403 151.94 89.1761 150.33 90.054C148.727 90.9233 146.886 91.358 144.807 91.358C142.489 91.358 140.452 90.8125 138.696 89.7216C136.949 88.6307 135.585 87.0795 134.605 85.0682C133.634 83.0568 133.148 80.6705 133.148 77.9091C133.148 75.8381 133.425 73.9759 133.979 72.3224C134.541 70.6605 135.334 69.2457 136.357 68.0781C137.379 66.9105 138.589 66.0156 139.987 65.3935C141.385 64.7713 142.923 64.4602 144.602 64.4602C145.983 64.4602 147.27 64.669 148.463 65.0866C149.665 65.4957 150.734 66.0795 151.672 66.8381C152.618 67.5881 153.406 68.4872 154.037 69.5355C154.668 70.5753 155.102 71.7301 155.341 73H152.068ZM161.746 91V71.3636H164.763V91H161.746ZM163.28 68.0909C162.692 68.0909 162.185 67.8906 161.759 67.4901C161.341 67.0895 161.132 66.608 161.132 66.0455C161.132 65.483 161.341 65.0014 161.759 64.6009C162.185 64.2003 162.692 64 163.28 64C163.868 64 164.371 64.2003 164.788 64.6009C165.214 65.0014 165.428 65.483 165.428 66.0455C165.428 66.608 165.214 67.0895 164.788 67.4901C164.371 67.8906 163.868 68.0909 163.28 68.0909ZM178.828 71.3636V73.9205H168.652V71.3636H178.828ZM171.618 66.6591H174.635V85.375C174.635 86.2273 174.759 86.8665 175.006 87.2926C175.262 87.7102 175.586 87.9915 175.978 88.1364C176.378 88.2727 176.8 88.3409 177.243 88.3409C177.576 88.3409 177.848 88.3239 178.061 88.2898C178.275 88.2472 178.445 88.2131 178.573 88.1875L179.186 90.8977C178.982 90.9744 178.696 91.0511 178.33 91.1278C177.963 91.2131 177.499 91.2557 176.936 91.2557C176.084 91.2557 175.249 91.0724 174.431 90.706C173.621 90.3395 172.948 89.7812 172.411 89.0312C171.882 88.2812 171.618 87.3352 171.618 86.1932V66.6591ZM184.198 91V64.8182H187.368V76.4773H201.328V64.8182H204.499V91H201.328V79.2898H187.368V91H184.198ZM222.812 82.9716V71.3636H225.829V91H222.812V87.6761H222.608C222.147 88.6733 221.431 89.5213 220.46 90.2202C219.488 90.9105 218.261 91.2557 216.778 91.2557C215.551 91.2557 214.46 90.9872 213.505 90.4503C212.551 89.9048 211.801 89.0866 211.255 87.9957C210.71 86.8963 210.437 85.5114 210.437 83.8409V71.3636H213.454V83.6364C213.454 85.0682 213.855 86.2102 214.656 87.0625C215.466 87.9148 216.497 88.3409 217.75 88.3409C218.5 88.3409 219.262 88.1491 220.038 87.7656C220.822 87.3821 221.478 86.794 222.007 86.0014C222.544 85.2088 222.812 84.1989 222.812 82.9716ZM231.764 91V64.8182H234.781V74.483H235.037C235.259 74.142 235.565 73.7074 235.957 73.179C236.358 72.642 236.929 72.1648 237.67 71.7472C238.42 71.321 239.435 71.108 240.713 71.108C242.366 71.108 243.824 71.5213 245.085 72.348C246.347 73.1747 247.331 74.3466 248.038 75.8636C248.746 77.3807 249.099 79.1705 249.099 81.233C249.099 83.3125 248.746 85.1151 248.038 86.6406C247.331 88.1577 246.351 89.3338 245.098 90.169C243.845 90.9957 242.401 91.4091 240.764 91.4091C239.503 91.4091 238.493 91.2003 237.734 90.7827C236.976 90.3565 236.392 89.875 235.983 89.3381C235.574 88.7926 235.259 88.3409 235.037 87.983H234.679V91H231.764ZM234.73 81.1818C234.73 82.6648 234.947 83.973 235.382 85.1065C235.817 86.2315 236.452 87.1136 237.287 87.7528C238.122 88.3835 239.145 88.6989 240.355 88.6989C241.616 88.6989 242.669 88.3665 243.513 87.7017C244.365 87.0284 245.004 86.125 245.43 84.9915C245.865 83.8494 246.082 82.5795 246.082 81.1818C246.082 79.8011 245.869 78.5568 245.443 77.4489C245.026 76.3324 244.391 75.4503 243.538 74.8026C242.695 74.1463 241.634 73.8182 240.355 73.8182C239.128 73.8182 238.097 74.1293 237.261 74.7514C236.426 75.3651 235.795 76.2259 235.369 77.3338C234.943 78.4332 234.73 79.7159 234.73 81.1818ZM155.239 117H152.068C151.881 116.088 151.553 115.287 151.084 114.597C150.624 113.906 150.061 113.327 149.396 112.858C148.74 112.381 148.011 112.023 147.21 111.784C146.409 111.545 145.574 111.426 144.705 111.426C143.119 111.426 141.683 111.827 140.396 112.628C139.118 113.429 138.099 114.609 137.341 116.169C136.591 117.729 136.216 119.642 136.216 121.909C136.216 124.176 136.591 126.089 137.341 127.649C138.099 129.209 139.118 130.389 140.396 131.19C141.683 131.991 143.119 132.392 144.705 132.392C145.574 132.392 146.409 132.273 147.21 132.034C148.011 131.795 148.74 131.442 149.396 130.973C150.061 130.496 150.624 129.912 151.084 129.222C151.553 128.523 151.881 127.722 152.068 126.818H155.239C155 128.156 154.565 129.354 153.935 130.411C153.304 131.467 152.52 132.366 151.582 133.108C150.645 133.841 149.592 134.399 148.425 134.783C147.266 135.166 146.026 135.358 144.705 135.358C142.472 135.358 140.486 134.812 138.747 133.722C137.009 132.631 135.641 131.08 134.643 129.068C133.646 127.057 133.148 124.67 133.148 121.909C133.148 119.148 133.646 116.761 134.643 114.75C135.641 112.739 137.009 111.188 138.747 110.097C140.486 109.006 142.472 108.46 144.705 108.46C146.026 108.46 147.266 108.652 148.425 109.036C149.592 109.419 150.645 109.982 151.582 110.723C152.52 111.456 153.304 112.351 153.935 113.408C154.565 114.456 155 115.653 155.239 117ZM167.93 135.409C166.157 135.409 164.602 134.987 163.264 134.143C161.934 133.3 160.895 132.119 160.145 130.602C159.403 129.085 159.032 127.312 159.032 125.284C159.032 123.239 159.403 121.453 160.145 119.928C160.895 118.402 161.934 117.217 163.264 116.374C164.602 115.53 166.157 115.108 167.93 115.108C169.703 115.108 171.254 115.53 172.583 116.374C173.922 117.217 174.961 118.402 175.703 119.928C176.453 121.453 176.828 123.239 176.828 125.284C176.828 127.312 176.453 129.085 175.703 130.602C174.961 132.119 173.922 133.3 172.583 134.143C171.254 134.987 169.703 135.409 167.93 135.409ZM167.93 132.699C169.277 132.699 170.385 132.354 171.254 131.663C172.123 130.973 172.767 130.065 173.184 128.94C173.602 127.815 173.811 126.597 173.811 125.284C173.811 123.972 173.602 122.749 173.184 121.615C172.767 120.482 172.123 119.565 171.254 118.866C170.385 118.168 169.277 117.818 167.93 117.818C166.583 117.818 165.475 118.168 164.606 118.866C163.737 119.565 163.093 120.482 162.676 121.615C162.258 122.749 162.049 123.972 162.049 125.284C162.049 126.597 162.258 127.815 162.676 128.94C163.093 130.065 163.737 130.973 164.606 131.663C165.475 132.354 166.583 132.699 167.93 132.699ZM188.848 135.409C187.212 135.409 185.767 134.996 184.514 134.169C183.261 133.334 182.281 132.158 181.574 130.641C180.866 129.115 180.513 127.312 180.513 125.233C180.513 123.17 180.866 121.381 181.574 119.864C182.281 118.347 183.266 117.175 184.527 116.348C185.788 115.521 187.246 115.108 188.899 115.108C190.178 115.108 191.188 115.321 191.929 115.747C192.679 116.165 193.25 116.642 193.642 117.179C194.043 117.707 194.354 118.142 194.575 118.483H194.831V108.818H197.848V135H194.933V131.983H194.575C194.354 132.341 194.038 132.793 193.629 133.338C193.22 133.875 192.636 134.357 191.878 134.783C191.119 135.2 190.109 135.409 188.848 135.409ZM189.257 132.699C190.467 132.699 191.49 132.384 192.325 131.753C193.161 131.114 193.795 130.232 194.23 129.107C194.665 127.973 194.882 126.665 194.882 125.182C194.882 123.716 194.669 122.433 194.243 121.334C193.817 120.226 193.186 119.365 192.351 118.751C191.516 118.129 190.484 117.818 189.257 117.818C187.979 117.818 186.913 118.146 186.061 118.803C185.217 119.45 184.582 120.332 184.156 121.449C183.739 122.557 183.53 123.801 183.53 125.182C183.53 126.58 183.743 127.849 184.169 128.991C184.604 130.125 185.243 131.028 186.087 131.702C186.939 132.366 187.996 132.699 189.257 132.699ZM212.026 135.409C210.134 135.409 208.501 134.991 207.129 134.156C205.766 133.312 204.713 132.136 203.972 130.628C203.239 129.111 202.872 127.347 202.872 125.335C202.872 123.324 203.239 121.551 203.972 120.017C204.713 118.474 205.744 117.273 207.065 116.412C208.395 115.543 209.946 115.108 211.719 115.108C212.741 115.108 213.751 115.278 214.749 115.619C215.746 115.96 216.653 116.514 217.472 117.281C218.29 118.04 218.942 119.045 219.428 120.298C219.913 121.551 220.156 123.094 220.156 124.926V126.205H205.02V123.597H217.088C217.088 122.489 216.866 121.5 216.423 120.631C215.989 119.761 215.366 119.075 214.557 118.572C213.756 118.07 212.81 117.818 211.719 117.818C210.517 117.818 209.477 118.116 208.599 118.713C207.73 119.301 207.061 120.068 206.592 121.014C206.124 121.96 205.889 122.974 205.889 124.057V125.795C205.889 127.278 206.145 128.536 206.656 129.567C207.176 130.589 207.896 131.369 208.817 131.906C209.737 132.435 210.807 132.699 212.026 132.699C212.818 132.699 213.534 132.588 214.173 132.366C214.821 132.136 215.379 131.795 215.848 131.344C216.317 130.884 216.679 130.312 216.935 129.631L219.849 130.449C219.543 131.438 219.027 132.307 218.303 133.057C217.578 133.798 216.683 134.378 215.618 134.795C214.553 135.205 213.355 135.409 212.026 135.409ZM238.655 119.761L235.945 120.528C235.774 120.077 235.523 119.638 235.19 119.212C234.866 118.777 234.423 118.419 233.861 118.138C233.298 117.857 232.578 117.716 231.7 117.716C230.499 117.716 229.497 117.993 228.696 118.547C227.903 119.092 227.507 119.787 227.507 120.631C227.507 121.381 227.78 121.973 228.325 122.408C228.871 122.842 229.723 123.205 230.882 123.494L233.797 124.21C235.553 124.636 236.861 125.288 237.722 126.166C238.582 127.036 239.013 128.156 239.013 129.528C239.013 130.653 238.689 131.659 238.041 132.545C237.402 133.432 236.507 134.131 235.357 134.642C234.206 135.153 232.868 135.409 231.342 135.409C229.339 135.409 227.682 134.974 226.369 134.105C225.057 133.236 224.226 131.966 223.876 130.295L226.74 129.58C227.013 130.636 227.528 131.429 228.287 131.957C229.054 132.486 230.055 132.75 231.291 132.75C232.697 132.75 233.814 132.452 234.641 131.855C235.476 131.25 235.893 130.526 235.893 129.682C235.893 129 235.655 128.429 235.178 127.969C234.7 127.5 233.967 127.151 232.979 126.92L229.706 126.153C227.908 125.727 226.587 125.067 225.743 124.172C224.908 123.268 224.49 122.139 224.49 120.784C224.49 119.676 224.801 118.696 225.423 117.844C226.054 116.991 226.911 116.322 227.993 115.837C229.084 115.351 230.32 115.108 231.7 115.108C233.643 115.108 235.169 115.534 236.277 116.386C237.393 117.239 238.186 118.364 238.655 119.761ZM251.532 135.409C249.691 135.409 248.105 134.974 246.776 134.105C245.446 133.236 244.424 132.038 243.708 130.513C242.992 128.987 242.634 127.244 242.634 125.284C242.634 123.29 243 121.53 243.733 120.004C244.475 118.47 245.506 117.273 246.827 116.412C248.157 115.543 249.708 115.108 251.48 115.108C252.861 115.108 254.105 115.364 255.213 115.875C256.321 116.386 257.229 117.102 257.936 118.023C258.644 118.943 259.083 120.017 259.253 121.244H256.236C256.006 120.349 255.495 119.557 254.702 118.866C253.918 118.168 252.861 117.818 251.532 117.818C250.355 117.818 249.324 118.125 248.438 118.739C247.56 119.344 246.874 120.2 246.38 121.308C245.894 122.408 245.651 123.699 245.651 125.182C245.651 126.699 245.89 128.02 246.367 129.145C246.853 130.27 247.534 131.143 248.412 131.766C249.299 132.388 250.338 132.699 251.532 132.699C252.316 132.699 253.027 132.562 253.667 132.29C254.306 132.017 254.847 131.625 255.29 131.114C255.733 130.602 256.049 129.989 256.236 129.273H259.253C259.083 130.432 258.661 131.476 257.988 132.405C257.323 133.325 256.441 134.058 255.341 134.604C254.25 135.141 252.98 135.409 251.532 135.409ZM269.442 135.46C268.198 135.46 267.069 135.226 266.054 134.757C265.04 134.28 264.235 133.594 263.638 132.699C263.042 131.795 262.743 130.705 262.743 129.426C262.743 128.301 262.965 127.389 263.408 126.69C263.851 125.983 264.444 125.429 265.185 125.028C265.926 124.628 266.745 124.33 267.64 124.134C268.543 123.929 269.451 123.767 270.363 123.648C271.556 123.494 272.523 123.379 273.265 123.303C274.015 123.217 274.56 123.077 274.901 122.881C275.25 122.685 275.425 122.344 275.425 121.858V121.756C275.425 120.494 275.08 119.514 274.39 118.815C273.708 118.116 272.672 117.767 271.283 117.767C269.843 117.767 268.713 118.082 267.895 118.713C267.077 119.344 266.502 120.017 266.169 120.733L263.306 119.71C263.817 118.517 264.499 117.588 265.351 116.923C266.212 116.25 267.15 115.781 268.164 115.517C269.186 115.244 270.192 115.108 271.181 115.108C271.811 115.108 272.536 115.185 273.354 115.338C274.181 115.483 274.978 115.786 275.745 116.246C276.52 116.706 277.164 117.401 277.675 118.33C278.186 119.259 278.442 120.503 278.442 122.062V135H275.425V132.341H275.272C275.067 132.767 274.726 133.223 274.249 133.709C273.772 134.195 273.137 134.608 272.344 134.949C271.551 135.29 270.584 135.46 269.442 135.46ZM269.902 132.75C271.096 132.75 272.101 132.516 272.919 132.047C273.746 131.578 274.368 130.973 274.786 130.232C275.212 129.49 275.425 128.71 275.425 127.892V125.131C275.297 125.284 275.016 125.425 274.581 125.553C274.155 125.672 273.661 125.778 273.098 125.872C272.544 125.957 272.003 126.034 271.475 126.102C270.955 126.162 270.533 126.213 270.209 126.256C269.425 126.358 268.692 126.524 268.01 126.754C267.337 126.976 266.792 127.312 266.374 127.764C265.965 128.207 265.76 128.812 265.76 129.58C265.76 130.628 266.148 131.42 266.924 131.957C267.708 132.486 268.701 132.75 269.902 132.75ZM286.966 123.188V135H283.949V115.364H286.864V118.432H287.119C287.58 117.435 288.278 116.634 289.216 116.028C290.153 115.415 291.364 115.108 292.847 115.108C294.176 115.108 295.339 115.381 296.337 115.926C297.334 116.463 298.109 117.281 298.663 118.381C299.217 119.472 299.494 120.852 299.494 122.523V135H296.477V122.727C296.477 121.185 296.077 119.983 295.276 119.122C294.474 118.253 293.375 117.818 291.977 117.818C291.014 117.818 290.153 118.027 289.395 118.445C288.645 118.862 288.053 119.472 287.618 120.273C287.183 121.074 286.966 122.045 286.966 123.188ZM308.025 123.188V135H305.007V115.364H307.922V118.432H308.178C308.638 117.435 309.337 116.634 310.275 116.028C311.212 115.415 312.422 115.108 313.905 115.108C315.235 115.108 316.398 115.381 317.395 115.926C318.392 116.463 319.168 117.281 319.722 118.381C320.276 119.472 320.553 120.852 320.553 122.523V135H317.536V122.727C317.536 121.185 317.135 119.983 316.334 119.122C315.533 118.253 314.434 117.818 313.036 117.818C312.073 117.818 311.212 118.027 310.453 118.445C309.703 118.862 309.111 119.472 308.676 120.273C308.242 121.074 308.025 122.045 308.025 123.188ZM326.066 135V115.364H329.083V135H326.066ZM327.6 112.091C327.012 112.091 326.505 111.891 326.079 111.49C325.661 111.089 325.452 110.608 325.452 110.045C325.452 109.483 325.661 109.001 326.079 108.601C326.505 108.2 327.012 108 327.6 108C328.188 108 328.691 108.2 329.109 108.601C329.535 109.001 329.748 109.483 329.748 110.045C329.748 110.608 329.535 111.089 329.109 111.49C328.691 111.891 328.188 112.091 327.6 112.091ZM337.626 123.188V135H334.609V115.364H337.524V118.432H337.779C338.24 117.435 338.939 116.634 339.876 116.028C340.814 115.415 342.024 115.108 343.507 115.108C344.836 115.108 346 115.381 346.997 115.926C347.994 116.463 348.77 117.281 349.324 118.381C349.877 119.472 350.154 120.852 350.154 122.523V135H347.137V122.727C347.137 121.185 346.737 119.983 345.936 119.122C345.135 118.253 344.035 117.818 342.637 117.818C341.674 117.818 340.814 118.027 340.055 118.445C339.305 118.862 338.713 119.472 338.278 120.273C337.843 121.074 337.626 122.045 337.626 123.188ZM363.594 142.773C362.136 142.773 360.884 142.585 359.835 142.21C358.787 141.844 357.913 141.358 357.214 140.753C356.524 140.156 355.974 139.517 355.565 138.835L357.969 137.148C358.241 137.506 358.587 137.915 359.004 138.375C359.422 138.844 359.993 139.249 360.717 139.589C361.45 139.939 362.409 140.114 363.594 140.114C365.179 140.114 366.487 139.73 367.518 138.963C368.55 138.196 369.065 136.994 369.065 135.358V131.369H368.81C368.588 131.727 368.273 132.17 367.864 132.699C367.463 133.219 366.884 133.683 366.125 134.092C365.375 134.493 364.361 134.693 363.082 134.693C361.497 134.693 360.074 134.318 358.812 133.568C357.56 132.818 356.567 131.727 355.834 130.295C355.109 128.864 354.747 127.125 354.747 125.08C354.747 123.068 355.101 121.317 355.808 119.825C356.516 118.325 357.5 117.166 358.761 116.348C360.023 115.521 361.48 115.108 363.134 115.108C364.412 115.108 365.426 115.321 366.176 115.747C366.935 116.165 367.514 116.642 367.915 117.179C368.324 117.707 368.639 118.142 368.861 118.483H369.168V115.364H372.082V135.562C372.082 137.25 371.699 138.622 370.932 139.679C370.173 140.744 369.151 141.524 367.864 142.018C366.585 142.521 365.162 142.773 363.594 142.773ZM363.491 131.983C364.702 131.983 365.724 131.706 366.56 131.152C367.395 130.598 368.03 129.801 368.464 128.761C368.899 127.722 369.116 126.477 369.116 125.028C369.116 123.614 368.903 122.365 368.477 121.283C368.051 120.2 367.42 119.352 366.585 118.739C365.75 118.125 364.719 117.818 363.491 117.818C362.213 117.818 361.148 118.142 360.295 118.79C359.452 119.437 358.817 120.307 358.391 121.398C357.973 122.489 357.764 123.699 357.764 125.028C357.764 126.392 357.977 127.598 358.403 128.646C358.838 129.686 359.477 130.504 360.321 131.101C361.173 131.689 362.23 131.983 363.491 131.983Z" fill="#94959A"/>
</svg>
