<svg width="400" height="200" viewBox="0 0 400 200" fill="none" xmlns="http://www.w3.org/2000/svg">
<path d="M86.919 84.4762C86.587 83.4161 85.7902 82.5547 84.7942 82.0247L64.5688 72.3643C64.0376 72.0993 63.44 72.033 62.9088 72.033C62.3776 72.033 61.78 72.033 61.2488 72.1655L41.0234 81.8922C40.0274 82.356 39.297 83.2173 39.0314 84.3437L34.0647 106.116C33.8655 107.242 34.1311 108.369 34.7951 109.296L48.7922 126.563C49.589 127.358 50.7178 127.888 51.8466 127.954H74.1304C75.3256 128.087 76.4544 127.557 77.1848 126.563L91.1819 109.296C91.8459 108.369 92.1115 107.242 91.9787 106.116L86.919 84.4762Z" fill="#326DE6"/>
<path d="M83.7982 105.255C83.7318 105.255 83.6654 105.255 83.6654 105.188C83.6654 105.122 83.5326 105.122 83.3998 105.122C83.1342 105.056 82.8686 105.056 82.603 105.056C82.4702 105.056 82.3374 105.056 82.2046 104.99H82.1382C81.4078 104.923 80.611 104.791 79.8806 104.592C79.6814 104.526 79.4822 104.327 79.4158 104.128C79.4822 104.128 79.4158 104.128 79.4158 104.128L78.8846 103.996C79.1502 102.074 79.0174 100.087 78.619 98.1783C78.1542 96.2568 77.3574 94.4016 76.295 92.7584L76.6934 92.3609V92.2946C76.6934 92.0958 76.7598 91.8308 76.8926 91.6983C77.4902 91.1682 78.0878 90.7707 78.7518 90.3731L79.1502 90.1744C79.4158 90.0419 79.615 89.9093 79.8806 89.7768C79.947 89.7106 80.0134 89.7106 80.0798 89.6443C80.1462 89.5781 80.0798 89.5781 80.0798 89.5118C80.6774 89.048 80.8102 88.2529 80.3454 87.6566C80.1462 87.3916 79.7478 87.1928 79.4158 87.1928C79.0838 87.1928 78.7518 87.3253 78.4862 87.5241L78.4198 87.5903C78.3534 87.6566 78.287 87.7228 78.2206 87.7228C78.0214 87.9216 77.8222 88.1204 77.6894 88.3192C77.623 88.4517 77.4902 88.5179 77.4238 88.5842C76.959 89.1143 76.3614 89.6443 75.7638 90.0419C75.631 90.1081 75.4982 90.1744 75.3654 90.1744C75.299 90.1744 75.1662 90.1744 75.0998 90.1081H75.0334L74.5022 90.4394C73.971 89.9093 73.3734 89.3793 72.8422 88.8492C70.3855 86.9277 67.3443 85.7351 64.2235 85.4038L64.1571 84.8738V84.94C63.9579 84.8075 63.8915 84.6087 63.8251 84.41C63.8251 83.6811 63.8251 82.9523 63.9579 82.1572V82.0909C63.9579 81.9584 64.0243 81.8259 64.0243 81.6934C64.0907 81.4284 64.0907 81.1633 64.1571 80.8983V80.5008C64.2235 79.8382 63.6923 79.1756 63.0283 79.1093C62.6299 79.0431 62.2315 79.2419 61.8995 79.5731C61.6339 79.8382 61.5011 80.1695 61.5011 80.5008V80.832C61.5011 81.0971 61.5675 81.3621 61.6339 81.6271C61.7003 81.7597 61.7003 81.8922 61.7003 82.0247V82.0909C61.8331 82.8198 61.8331 83.5486 61.8331 84.3437C61.7667 84.5425 61.7003 84.7412 61.5011 84.8738V85.0063L61.4347 85.5363C60.7043 85.6026 59.9739 85.7351 59.1771 85.8676C56.0563 86.5302 53.2144 88.1866 51.0232 90.5057L50.6248 90.2406H50.5584C50.492 90.2406 50.4256 90.3069 50.2928 90.3069C50.16 90.3069 50.0272 90.2406 49.8944 90.1744C49.2968 89.7106 48.6992 89.1805 48.2344 88.6504C48.168 88.5179 48.0352 88.4517 47.9688 88.3854C47.7696 88.1866 47.6368 87.9879 47.4376 87.7891C47.3712 87.7228 47.3048 87.7228 47.2384 87.6566L47.172 87.5903C46.9064 87.3916 46.5744 87.259 46.2424 87.259C45.844 87.259 45.512 87.3916 45.3128 87.7228C44.9144 88.3192 45.0472 89.1142 45.5784 89.5781C45.6448 89.5781 45.6448 89.6443 45.6448 89.6443C45.6448 89.6443 45.7776 89.7768 45.844 89.7768C46.0432 89.9093 46.3088 90.0419 46.5744 90.1744L46.9728 90.3731C47.6368 90.7707 48.3008 91.1682 48.832 91.6983C48.9648 91.8308 49.0976 92.0958 49.0312 92.2946V92.2284L49.4296 92.6259C49.3632 92.7584 49.2968 92.8247 49.2304 92.9572C47.172 96.2038 46.3088 100.034 46.9064 103.81L46.3752 103.943C46.3752 104.009 46.3088 104.009 46.3088 104.009C46.2424 104.208 46.0432 104.34 45.844 104.473C45.1136 104.672 44.3832 104.804 43.5864 104.87C43.4536 104.87 43.3208 104.87 43.188 104.937C42.9224 104.937 42.6568 105.003 42.3912 105.003C42.3248 105.003 42.2584 105.069 42.1256 105.069C42.0592 105.069 42.0592 105.069 41.9928 105.135C41.2624 105.268 40.7976 105.93 40.9304 106.659C41.0632 107.256 41.6608 107.653 42.2584 107.587C42.3912 107.587 42.4576 107.587 42.5904 107.521C42.6568 107.521 42.6568 107.521 42.6568 107.454C42.6568 107.388 42.856 107.454 42.9224 107.454C43.188 107.388 43.4536 107.256 43.6528 107.189C43.7856 107.123 43.9184 107.057 44.0512 107.057H44.1176C44.848 106.792 45.512 106.593 46.3088 106.461H46.3752C46.5744 106.461 46.7736 106.527 46.9064 106.659C46.9728 106.659 46.9728 106.726 46.9728 106.726L47.5704 106.659C48.5664 109.707 50.4256 112.41 53.002 114.398C53.5996 114.862 54.1308 115.26 54.7948 115.591L54.4628 116.055C54.4628 116.121 54.5292 116.121 54.5292 116.121C54.662 116.32 54.662 116.585 54.5956 116.783C54.33 117.446 53.9316 118.109 53.5332 118.705V118.771C53.4668 118.904 53.4004 118.97 53.2676 119.102C53.1348 119.235 53.002 119.5 52.8028 119.765C52.7364 119.831 52.7364 119.898 52.67 119.964C52.67 119.964 52.67 120.03 52.6036 120.03C52.2716 120.693 52.5372 121.488 53.1348 121.819C53.2676 121.885 53.4668 121.952 53.5996 121.952C54.1308 121.952 54.5956 121.62 54.8612 121.156C54.8612 121.156 54.8612 121.09 54.9276 121.09C54.9276 121.024 54.994 120.958 55.0604 120.891C55.1268 120.626 55.2596 120.428 55.326 120.163L55.4588 119.765C55.658 119.036 55.99 118.374 56.322 117.711C56.4547 117.512 56.6539 117.38 56.8531 117.314C56.9195 117.314 56.9195 117.314 56.9195 117.247L57.1851 116.717C59.0443 117.446 60.9699 117.777 62.9487 117.777C64.1439 117.777 65.3391 117.645 66.5343 117.314C67.2647 117.181 67.9951 116.916 68.6591 116.717L68.9247 117.181C68.9911 117.181 68.9911 117.181 68.9911 117.247C69.1903 117.314 69.3895 117.446 69.5223 117.645C69.8543 118.307 70.1863 118.97 70.3855 119.699V119.765L70.5183 120.163C70.5847 120.428 70.6511 120.693 70.7839 120.891C70.8503 120.958 70.8503 121.024 70.9167 121.09C70.9167 121.09 70.9167 121.156 70.983 121.156C71.2486 121.62 71.7134 121.952 72.2446 121.952C72.4438 121.952 72.5766 121.885 72.7758 121.819C73.0414 121.687 73.307 121.421 73.3734 121.09C73.4398 120.759 73.4398 120.428 73.307 120.096C73.307 120.03 73.2406 120.03 73.2406 120.03C73.2406 119.964 73.1742 119.898 73.1078 119.831C72.975 119.566 72.8422 119.367 72.643 119.169C72.5766 119.036 72.5102 118.97 72.3774 118.837V118.705C71.9126 118.109 71.5806 117.446 71.315 116.783C71.2486 116.585 71.2486 116.32 71.3814 116.121C71.3814 116.055 71.4478 116.055 71.4478 116.055L71.2486 115.525C74.635 113.471 77.2114 110.29 78.4066 106.527L78.9378 106.593C79.0042 106.593 79.0042 106.527 79.0042 106.527C79.137 106.394 79.3362 106.328 79.5354 106.328H79.6018C80.3322 106.461 81.0626 106.659 81.7266 106.924H81.793C81.9258 106.991 82.0586 107.057 82.1914 107.057C82.457 107.189 82.6562 107.322 82.9218 107.388C82.9882 107.388 83.0546 107.454 83.1874 107.454C83.2538 107.454 83.2538 107.454 83.3202 107.521C83.453 107.587 83.5194 107.587 83.6522 107.587C84.2498 107.587 84.781 107.189 84.9802 106.659C84.927 105.917 84.3958 105.387 83.7982 105.255V105.255ZM64.6352 103.201L62.8424 104.062L61.0496 103.201L60.5848 101.279L61.8464 99.689H63.8384L65.1 101.279L64.6352 103.201ZM75.4451 98.9071C75.7771 100.299 75.8435 101.69 75.7107 103.081L69.416 101.292C68.8184 101.16 68.4864 100.564 68.6192 99.9673C68.6856 99.7685 68.752 99.636 68.8848 99.5035L73.8648 94.9979C74.5819 96.1906 75.1131 97.5157 75.4451 98.9071ZM71.8595 92.5464L66.428 96.3893C65.9632 96.6544 65.2992 96.5881 64.9672 96.1243C64.8344 95.9918 64.768 95.8593 64.768 95.6605L64.3696 88.9817C67.2912 89.2998 69.8808 90.5587 71.8595 92.5464ZM59.8544 89.1673L61.1824 88.9022L60.8504 95.5147C60.8504 96.1111 60.3192 96.5749 59.7216 96.5749C59.5224 96.5749 59.3896 96.5086 59.1904 96.4423L53.6925 92.5331C55.4189 90.89 57.5437 89.6973 59.8544 89.1673ZM51.7669 94.9979L56.6805 99.3709C57.1453 99.7685 57.2117 100.431 56.8133 100.895C56.6805 101.094 56.5477 101.16 56.2821 101.226L49.8546 103.081C49.6421 100.285 50.3061 97.4495 51.7669 94.9979ZM50.6381 106.182L57.1984 105.056C57.7296 105.056 58.2608 105.387 58.3272 105.917C58.3936 106.116 58.3936 106.381 58.2608 106.58L55.7376 112.662C53.4269 111.138 51.5677 108.833 50.6381 106.182ZM65.6976 114.385C64.768 114.584 63.8384 114.716 62.8424 114.716C61.448 114.716 59.9872 114.451 58.6592 114.054L61.9128 108.17C62.2448 107.772 62.776 107.64 63.2408 107.905C63.44 108.037 63.5728 108.17 63.772 108.369L66.9592 114.12C66.5608 114.186 66.1624 114.252 65.6976 114.385ZM73.7851 108.634C72.7891 110.224 71.3947 111.615 69.8011 112.609L67.2115 106.394C67.0787 105.864 67.3443 105.334 67.8091 105.135C68.0083 105.069 68.2075 105.003 68.4067 105.003L75.0334 106.129C74.7147 107.044 74.3163 107.905 73.7851 108.634Z" fill="white"/>
<path d="M355.307 113.391C356.237 113.457 357.233 113.325 358.096 112.993C358.627 112.728 358.959 112.132 358.893 111.536C358.827 110.873 358.428 110.277 357.831 110.078C356.835 109.482 355.706 108.952 354.577 108.62C353.448 108.223 352.452 107.759 351.523 107.295C350.659 106.898 349.929 106.368 349.199 105.705C348.535 105.043 348.07 104.314 347.738 103.452C347.339 102.459 347.207 101.398 347.207 100.338C347.14 98.1518 348.136 96.0315 349.863 94.7196C351.655 93.3282 354.046 92.6656 357.087 92.6656C358.548 92.6656 360.075 92.7981 361.536 93.1294C362.665 93.3282 363.793 93.5932 364.922 93.9908L363.661 99.6094C362.731 99.2781 361.868 99.0794 360.938 98.8143C359.876 98.5493 358.747 98.483 357.685 98.483C355.427 98.483 354.298 99.0794 354.298 100.338C354.298 100.603 354.365 100.868 354.431 101.133C354.564 101.398 354.763 101.597 355.029 101.796C355.294 101.995 355.693 102.193 356.157 102.459C356.622 102.724 357.286 102.989 358.083 103.254C359.411 103.717 360.739 104.314 361.934 104.976C362.864 105.44 363.661 106.036 364.325 106.832C364.922 107.428 365.321 108.157 365.586 109.018C365.852 109.946 365.985 110.873 365.985 111.801C366.117 114.054 365.055 116.24 363.129 117.486C361.27 118.745 358.614 119.407 355.175 119.407C353.249 119.473 351.39 119.275 349.544 118.811C348.482 118.546 347.486 118.215 346.49 117.883L347.685 112.066C348.88 112.53 350.142 112.927 351.403 113.192C352.718 113.258 353.979 113.391 355.307 113.391ZM318.774 106.116C318.708 104.128 319.106 102.14 319.77 100.299C320.368 98.7083 321.297 97.3169 322.493 96.058C323.621 94.9316 324.883 94.0703 326.344 93.5402C327.805 92.9439 329.332 92.6789 330.859 92.6789C334.445 92.6789 337.287 93.8053 339.345 95.9918C341.403 98.1783 342.466 101.412 342.466 105.652C342.466 106.05 342.466 106.513 342.399 107.044C342.399 107.574 342.333 107.971 342.333 108.369H326.145C326.277 109.76 327.008 111.085 328.203 111.88C329.664 112.808 331.39 113.272 333.117 113.205C334.378 113.205 335.706 113.073 336.968 112.874C338.03 112.675 339.093 112.344 340.089 111.88L341.085 117.698C340.62 117.963 340.089 118.095 339.557 118.294C338.827 118.493 338.097 118.692 337.366 118.758C336.569 118.89 335.773 119.023 334.843 119.155C333.98 119.222 333.05 119.288 332.121 119.288C330.062 119.354 328.07 119.023 326.158 118.294C324.564 117.698 323.17 116.77 321.975 115.578C320.846 114.385 320.049 112.927 319.518 111.403C319.04 109.628 318.774 107.839 318.774 106.116ZM335.547 103.399C335.547 102.803 335.414 102.207 335.215 101.61C335.082 101.014 334.75 100.55 334.418 100.086C334.02 99.6227 333.555 99.2251 333.024 98.9601C332.36 98.6288 331.696 98.4963 330.965 98.4963C330.235 98.4963 329.571 98.6288 328.907 98.9601C328.376 99.2251 327.844 99.5564 327.446 100.02C327.048 100.484 326.716 101.014 326.516 101.61C326.317 102.207 326.184 102.803 326.118 103.399H335.547ZM299.332 86.994L306.49 85.8676V93.2752H315.109V99.2251H306.504V108.09C306.437 109.349 306.703 110.608 307.3 111.668C307.832 112.53 308.894 112.993 310.554 112.993C311.351 112.993 312.148 112.927 312.878 112.795C313.675 112.662 314.405 112.463 315.136 112.198L316.132 117.751C315.202 118.148 314.206 118.413 313.21 118.678C311.948 118.943 310.62 119.076 309.292 119.076C307.632 119.142 305.972 118.877 304.445 118.281C303.25 117.817 302.188 117.022 301.391 116.094C300.594 115.1 300.063 113.908 299.731 112.649C299.399 111.191 299.266 109.667 299.332 108.21V86.994ZM270.355 106.116C270.289 104.128 270.687 102.14 271.351 100.299C271.949 98.7083 272.879 97.3169 274.074 96.058C275.203 94.9316 276.464 94.0703 277.925 93.5402C279.386 92.9439 280.913 92.6789 282.44 92.6789C286.026 92.6789 288.868 93.8053 290.926 95.9918C292.984 98.1783 294.047 101.412 294.047 105.652C294.047 106.05 294.047 106.513 293.98 107.044C293.914 107.574 293.914 107.971 293.914 108.369H277.673C277.806 109.76 278.536 111.085 279.731 111.88C281.192 112.808 282.918 113.272 284.645 113.205C285.906 113.205 287.234 113.073 288.496 112.874C289.558 112.675 290.621 112.344 291.683 111.88L292.679 117.698C292.214 117.963 291.683 118.095 291.152 118.294C290.421 118.493 289.691 118.692 288.961 118.758C288.164 118.89 287.367 119.023 286.438 119.155C285.574 119.222 284.645 119.288 283.715 119.288C281.657 119.354 279.665 119.023 277.752 118.294C276.159 117.698 274.764 116.77 273.569 115.578C272.44 114.385 271.644 112.927 271.112 111.403C270.555 109.628 270.289 107.839 270.355 106.116ZM287.128 103.399C287.128 102.803 286.995 102.207 286.796 101.61C286.663 101.014 286.331 100.55 285.999 100.086C285.601 99.6227 285.136 99.2251 284.605 98.9601C283.941 98.6288 283.277 98.4963 282.546 98.4963C281.816 98.4963 281.152 98.6288 280.488 98.9601C279.957 99.2251 279.492 99.5564 279.094 100.02C278.695 100.484 278.363 101.014 278.164 101.61C277.965 102.207 277.832 102.803 277.766 103.399H287.128ZM243.171 94.1365C244.699 93.739 246.292 93.4077 247.886 93.1427C249.878 92.8114 251.936 92.6789 253.915 92.6789C255.708 92.6126 257.5 92.9439 259.227 93.5402C260.555 94.004 261.75 94.7991 262.613 95.8592C263.476 96.9194 264.074 98.1783 264.406 99.5034C264.804 101.027 264.937 102.618 264.937 104.208V118.44H257.846V105.122C257.846 102.803 257.514 101.213 256.916 100.219C256.318 99.2914 255.19 98.7613 253.53 98.7613C252.999 98.7613 252.467 98.7613 251.87 98.8276C251.272 98.8276 250.807 98.8938 250.342 98.9601V118.413H243.185L243.171 94.1365ZM238.125 99.6227C237.461 99.4902 236.731 99.2914 235.867 99.1589C234.938 98.9601 234.008 98.8938 233.079 98.8938C232.547 98.8938 232.016 98.9601 231.419 99.0264C230.954 99.0926 230.489 99.1589 230.024 99.2914V118.546H222.866V94.6003C224.327 94.0703 225.854 93.6727 227.381 93.3414C229.307 92.8776 231.299 92.6789 233.211 92.7451C233.676 92.7451 234.141 92.8114 234.606 92.8114C235.137 92.8114 235.668 92.8776 236.266 93.0102C236.797 93.0764 237.328 93.1427 237.926 93.2752C238.391 93.3414 238.855 93.474 239.32 93.6727L238.125 99.6227ZM193.624 106.116C193.557 104.128 193.956 102.14 194.62 100.299C195.217 98.7083 196.147 97.3169 197.342 96.058C198.471 94.9316 199.732 94.0703 201.193 93.5402C202.654 92.9439 204.181 92.6789 205.708 92.6789C209.294 92.6789 212.136 93.8053 214.194 95.9918C216.253 98.1783 217.315 101.412 217.315 105.586C217.315 105.983 217.315 106.447 217.249 106.977C217.182 107.507 217.182 107.905 217.182 108.302H200.941C201.074 109.694 201.804 111.019 202.999 111.814C204.46 112.742 206.187 113.205 207.913 113.139C209.175 113.139 210.503 113.007 211.764 112.808C212.827 112.609 213.889 112.278 214.885 111.88L215.881 117.698C215.416 117.963 214.885 118.095 214.354 118.294C213.623 118.493 212.893 118.692 212.163 118.758C211.366 118.89 210.569 119.023 209.639 119.155C208.776 119.222 207.847 119.288 206.917 119.288C204.859 119.354 202.867 119.023 200.954 118.294C199.361 117.698 197.966 116.77 196.771 115.578C195.642 114.385 194.845 112.927 194.314 111.403C193.889 109.628 193.624 107.905 193.624 106.116ZM210.476 103.399C210.476 102.803 210.343 102.207 210.144 101.61C210.011 101.014 209.679 100.55 209.347 100.086C208.949 99.6227 208.484 99.2251 207.953 98.9601C207.289 98.6288 206.625 98.4963 205.894 98.4963C205.164 98.4963 204.5 98.6288 203.836 98.9601C203.305 99.2251 202.774 99.5564 202.375 100.02C201.977 100.484 201.645 101.014 201.446 101.61C201.246 102.207 201.114 102.803 201.047 103.399H210.476ZM182.017 105.718C182.017 101.08 180.291 98.8408 176.904 98.8408C176.174 98.8408 175.443 98.9071 174.713 99.1059C174.115 99.2384 173.518 99.5034 172.987 99.8347V112.808C173.319 112.874 173.783 112.94 174.315 113.007C174.846 113.073 175.443 113.073 176.107 113.073C177.834 113.205 179.494 112.477 180.556 111.085C181.552 109.495 182.083 107.64 182.017 105.718ZM189.308 105.983C189.308 107.839 189.042 109.694 188.378 111.47C187.847 113.06 186.984 114.451 185.855 115.644C184.66 116.836 183.265 117.764 181.738 118.36C179.945 119.023 178.086 119.288 176.174 119.288C175.311 119.288 174.381 119.222 173.451 119.155C172.522 119.089 171.592 118.957 170.663 118.89C169.799 118.758 168.936 118.625 168.073 118.427C167.21 118.294 166.479 118.095 165.882 117.83V82.4222L173.04 81.2958V93.8715C173.837 93.5402 174.7 93.2752 175.563 93.0764C176.493 92.8776 177.422 92.8114 178.352 92.8114C180.012 92.8114 181.605 93.0764 183.133 93.8053C184.461 94.4016 185.656 95.3292 186.585 96.4556C187.581 97.7145 188.312 99.1059 188.71 100.63C189.122 102.273 189.308 104.128 189.308 105.983ZM159.069 117.632C157.542 118.029 155.948 118.36 154.355 118.559C152.363 118.89 150.304 119.023 148.326 119.023C146.466 119.089 144.674 118.758 142.947 118.162C141.619 117.632 140.49 116.836 139.561 115.776C138.698 114.65 138.1 113.391 137.768 112C137.37 110.476 137.237 108.819 137.237 107.229V93.2752H144.395V106.447C144.395 108.766 144.727 110.423 145.324 111.417C145.922 112.41 147.051 112.94 148.711 112.94C149.242 112.94 149.773 112.94 150.371 112.874C150.968 112.808 151.433 112.808 151.898 112.675V93.2752H159.056L159.069 117.632ZM117.29 102.405C118.021 101.61 118.685 100.815 119.482 100.02C120.212 99.1589 120.942 98.3638 121.673 97.5687C122.403 96.7073 123.067 95.9785 123.665 95.2497C124.262 94.5208 124.86 93.8583 125.325 93.3282H133.811C132.084 95.2497 130.424 97.1711 128.831 98.9468C127.171 100.736 125.444 102.591 123.519 104.433C124.581 105.427 125.577 106.421 126.507 107.547C127.503 108.74 128.499 109.932 129.495 111.258C130.424 112.516 131.354 113.842 132.151 115.1C132.947 116.359 133.611 117.552 134.143 118.612H125.922C125.391 117.751 124.794 116.889 124.13 115.896C123.466 114.902 122.735 113.908 122.071 112.848C121.341 111.854 120.544 110.86 119.681 109.932C118.95 109.071 118.154 108.276 117.29 107.613V118.665H110.132V82.4222L117.29 81.2958V102.405Z" fill="black"/>
</svg>
