<svg width="400" height="200" viewBox="0 0 400 200" fill="none" xmlns="http://www.w3.org/2000/svg">
<g clip-path="url(#clip0_323_123)">
<path d="M44.7068 131C44.7068 131 17 124.939 17 97.745V70L28.0104 80.6644V97.7412C28.0104 113.908 44.7068 119.403 44.7068 119.403V131Z" fill="url(#paint0_linear_323_123)"/>
<path d="M44.7068 131C44.7068 131 72.4136 124.936 72.4136 97.7335V70L61.4032 80.6644V97.7412C61.4032 113.908 44.703 119.403 44.703 119.403V131H44.7068Z" fill="url(#paint1_linear_323_123)"/>
<path d="M61.407 80.6644H28.0104L17 70H72.4174L61.407 80.6644Z" fill="url(#paint2_linear_323_123)"/>
<path d="M181.42 104.589L181.401 104.727C180.525 110.971 176.37 114.413 169.698 114.413C161.635 114.413 156.425 108.692 156.425 99.8404C156.425 90.9885 161.635 85.2796 169.698 85.2796C176.054 85.2796 180.144 88.5336 180.948 94.208L180.967 94.3457H187.095L187.076 94.166C186.642 90.2466 184.924 86.702 182.235 84.1784C179.143 81.2762 174.809 79.7314 169.698 79.7314C158.116 79.7314 150.332 87.8148 150.332 99.8442C150.332 111.874 158.112 119.957 169.698 119.957C177.159 119.957 186.299 115.98 187.502 104.773L187.521 104.593L181.42 104.586V104.589Z" fill="#1D1D1B"/>
<path d="M198.635 113.797V101.993H215.548V96.4564H198.635V86.2241H217.372V80.6835H192.594V119.338H217.631V113.797H198.635Z" fill="#1D1D1B"/>
<path d="M97.2182 80.6644V113.778H114.654V119.318H91.178V80.6644H97.2182Z" fill="#1D1D1B"/>
<path d="M261.745 80.6835L255.697 113.231L249.592 80.6835H239.991L233.89 113.231L227.842 80.6835H221.943L221.95 82.3506L229.007 119.338H238.666L244.782 86.5912L250.921 119.338H260.576L267.645 82.2512V80.6835H261.745Z" fill="#1D1D1B"/>
<path d="M289.212 79.7314C277.318 79.7314 269.328 87.8148 269.328 99.8442C269.328 111.874 277.318 119.957 289.212 119.957C301.106 119.957 309.096 111.874 309.096 99.8442C309.096 87.8148 301.106 79.7314 289.212 79.7314ZM303.003 99.8442C303.003 108.589 297.461 114.466 289.212 114.466C280.963 114.466 275.421 108.857 275.421 99.8442C275.421 90.8317 280.708 85.2223 289.212 85.2223C297.469 85.2184 303.003 91.0955 303.003 99.8404V99.8442Z" fill="#1D1D1B"/>
<path d="M374.766 84.664V80.6835H370.162L352.178 97.7488V80.6835H346.141V119.338H352.178V105.748L356.672 101.565L370.607 119.338H374.766V115.239L360.979 97.527L374.766 84.664Z" fill="#1D1D1B"/>
<path d="M332.956 103.247C338.3 101.966 341.366 97.9668 341.385 92.2465C341.407 85.0502 336.75 80.7409 328.927 80.7141L313.518 80.6682L313.404 119.318L319.444 119.338L319.493 103.672L326.295 103.695L336.388 119.338H341.324L341.335 115.239C341.335 115.239 332.945 103.251 332.956 103.247ZM319.539 86.0903L328.386 86.117C333.143 86.1323 335.352 88.0289 335.34 92.0897C335.329 96.1505 333.109 98.0433 328.348 98.0203L319.497 97.9935L319.535 86.0864L319.539 86.0903Z" fill="#1D1D1B"/>
<path d="M138.323 80.6644H129.743L118.866 116.462V119.318H124.377L127.812 107.725H140.25L143.686 119.318H149.212V116.462L138.323 80.6644ZM129.461 102.031L134.001 86.5835L138.582 102.031H129.465H129.461Z" fill="#1D1D1B"/>
<path d="M380.882 119.338C379.702 119.345 378.742 118.393 378.734 117.212C378.727 116.03 379.675 115.063 380.852 115.055C382.033 115.047 382.992 115.999 383 117.181C383 117.185 383 117.189 383 117.193C383 118.37 382.055 119.33 380.882 119.338ZM380.882 115.235C379.805 115.227 378.929 116.099 378.921 117.181C378.913 118.263 379.782 119.143 380.86 119.15C381.937 119.158 382.813 118.286 382.821 117.204C382.821 117.2 382.821 117.196 382.821 117.189C382.821 116.114 381.953 115.242 380.882 115.235ZM379.919 115.915H381.172C381.587 115.931 381.918 116.271 381.918 116.688C381.926 116.982 381.758 117.254 381.492 117.376C381.473 117.376 381.473 117.407 381.48 117.418L381.941 118.439C381.941 118.439 381.949 118.462 381.937 118.473C381.934 118.477 381.926 118.477 381.918 118.477H381.633C381.61 118.477 381.583 118.466 381.572 118.447L381.153 117.479C381.153 117.479 381.13 117.453 381.111 117.456H380.25C380.25 117.456 380.235 117.46 380.231 117.468C380.231 117.468 380.231 117.468 380.231 117.472V118.439C380.231 118.439 380.22 118.47 380.204 118.47C380.204 118.47 380.204 118.47 380.201 118.47H379.919C379.919 118.47 379.888 118.458 379.888 118.443C379.888 118.443 379.888 118.443 379.888 118.439V115.946C379.888 115.946 379.9 115.919 379.911 115.915C379.911 115.915 379.915 115.915 379.919 115.915ZM380.265 116.225C380.265 116.225 380.235 116.237 380.235 116.252C380.235 116.252 380.235 116.252 380.235 116.256V117.12C380.235 117.12 380.246 117.15 380.262 117.15C380.262 117.15 380.262 117.15 380.265 117.15H381.141C381.381 117.135 381.568 116.936 381.572 116.695C381.572 116.447 381.378 116.244 381.13 116.229H380.265V116.225Z" fill="#1D1D1B"/>
</g>
<defs>
<linearGradient id="paint0_linear_323_123" x1="9.7372" y1="71.5677" x2="23.5761" y2="95.445" gradientUnits="userSpaceOnUse">
<stop stop-color="#01023B"/>
<stop offset="1" stop-color="#FF646C"/>
</linearGradient>
<linearGradient id="paint1_linear_323_123" x1="76.5496" y1="77.0242" x2="63.3736" y2="99.7489" gradientUnits="userSpaceOnUse">
<stop stop-color="#01023B"/>
<stop offset="0.24" stop-color="#071573"/>
<stop offset="0.49" stop-color="#0D27AA"/>
<stop offset="0.72" stop-color="#1135D2"/>
<stop offset="0.89" stop-color="#143DEA"/>
<stop offset="1" stop-color="#1540F3"/>
</linearGradient>
<linearGradient id="paint2_linear_323_123" x1="17" y1="75.3341" x2="72.4174" y2="75.3341" gradientUnits="userSpaceOnUse">
<stop offset="0.2" stop-color="#00F8F8"/>
<stop offset="0.3" stop-color="#00F4F8"/>
<stop offset="0.4" stop-color="#02E7F8"/>
<stop offset="0.51" stop-color="#04D3F7"/>
<stop offset="0.61" stop-color="#08B6F6"/>
<stop offset="0.72" stop-color="#0C90F5"/>
<stop offset="0.83" stop-color="#1163F4"/>
<stop offset="0.9" stop-color="#1540F3"/>
</linearGradient>
<clipPath id="clip0_323_123">
<rect width="366" height="61" fill="white" transform="translate(17 70)"/>
</clipPath>
</defs>
</svg>
