<svg width="400" height="200" viewBox="0 0 400 200" fill="none" xmlns="http://www.w3.org/2000/svg">
<path d="M132 33H0V165H132V33Z" fill="url(#paint0_linear_323_122)"/>
<path fill-rule="evenodd" clip-rule="evenodd" d="M108.9 128.708H94.0499H89.0999V118.808H103.95H108.9V128.708ZM92.3999 141.908H72.5999V132.008H87.4499H92.3999V141.908ZM57.0751 138.585C50.1962 138.585 43.8817 135.115 40.184 129.303C37.2322 124.667 37.181 118.682 40.0537 113.676L40.1444 113.514C43.5962 108.276 42.3587 100.998 41.2565 96.9831C44.4229 98.61 47.2906 102.753 48.3086 104.58C48.6254 105.144 49.2524 105.472 49.8811 105.423C50.5262 105.372 51.0806 104.951 51.3017 104.344C54.4648 95.6549 52.3429 89.2397 50.018 85.3968C52.0871 86.1113 54.6149 87.1871 57.1163 88.7645C64.7311 93.566 68.5921 100.582 68.5921 109.616C68.5921 110.064 68.7769 110.495 69.1019 110.807C69.4253 111.117 69.8626 111.275 70.313 111.264C72.2831 111.178 75.8389 109.665 77.4839 104.875C77.5252 105.099 77.5499 105.344 77.5499 105.608V115.508H62.6999C61.7875 115.508 61.0499 116.247 61.0499 117.158V130.358C61.0499 131.268 61.7875 132.008 62.6999 132.008H69.2999V134.565C66.4471 137.118 62.0482 138.585 57.0751 138.585ZM29.9771 109.309C26.8405 107.183 23.0999 103.161 23.0999 96.0641C23.0999 86.2367 29.9375 83.0142 34.0114 81.9681C34.7753 81.7718 35.2951 81.0606 35.2472 80.2736L35.0872 77.5692C35.0872 69.74 40.4794 61.3151 47.3648 58.3896C59.2762 53.334 67.7176 59.9819 70.7915 63.0773C73.2979 65.5968 75.2515 68.8176 76.6012 72.6456C76.8041 73.2231 77.309 73.6389 77.9146 73.7297C78.5135 73.8204 79.124 73.568 79.4854 73.0763C81.5248 70.3076 85.0426 69.1542 88.2254 70.1987C91.8059 71.3751 93.8701 74.8682 93.9014 79.7901L93.8915 79.8512C93.7661 80.7339 94.3651 81.5589 95.2462 81.7107C98.3498 82.2453 108.479 84.8705 108.479 96.201C108.479 99.8327 107.511 102.847 105.6 105.207V103.958C105.6 103.047 104.862 102.308 103.95 102.308H80.015C78.9953 100.46 77.3882 99.6726 77.2909 99.6264C76.8074 99.407 76.2464 99.435 75.7877 99.6957C75.3274 99.9597 75.0221 100.428 74.9677 100.956C74.5601 104.831 73.0388 106.568 71.8145 107.343C71.0308 95.9486 64.3961 89.4261 58.7762 85.91C52.3907 81.9153 46.0762 80.9154 45.8105 80.8742C45.073 80.7587 44.3552 81.158 44.0533 81.8394C43.753 82.5209 43.9477 83.3211 44.5252 83.7897C44.8337 84.0405 51.3793 89.5103 49.16 99.9069C46.954 96.9765 43.1573 93.0116 38.7667 93.0116C38.2189 93.0116 37.709 93.2838 37.4005 93.7376C37.0936 94.1913 37.0309 94.7672 37.2355 95.2754C37.2751 95.3744 40.8952 104.609 37.9499 110.686V110.558H34.0477C32.5924 110.558 31.1849 110.125 29.9771 109.309ZM87.4499 115.508H80.8499V105.608H102.3V115.508H87.4499ZM85.7999 128.708H70.9499H64.3499V118.808H79.1999H85.7999V128.708ZM110.55 115.508H105.6V109.777C109.636 106.614 111.779 101.931 111.779 96.201C111.779 83.6858 101.882 79.8512 97.1684 78.7374C96.8285 72.9179 93.9245 68.5982 89.255 67.0637C85.597 65.8625 81.6452 66.6825 78.7412 69.0932C77.3057 65.8542 75.4247 63.0558 73.1312 60.7491C65.7392 53.3142 55.6264 51.2946 46.0762 55.352C37.9285 58.812 31.7872 68.3639 31.7905 77.6666L31.8763 79.1565C27.4295 80.6184 19.7999 84.7764 19.7999 96.0641C19.7999 105.058 25.0172 109.934 28.1275 112.041C29.8831 113.229 31.9324 113.858 34.0477 113.858H36.2983C33.7837 119.524 34.1401 125.954 37.3988 131.075C41.7053 137.844 49.061 141.885 57.0751 141.885C61.7264 141.885 66.0032 140.741 69.2999 138.685V143.558C69.2999 144.468 70.0375 145.208 70.9499 145.208H94.0499C94.9624 145.208 95.6999 144.468 95.6999 143.558V132.008H110.55C111.462 132.008 112.2 131.268 112.2 130.358V117.158C112.2 116.247 111.462 115.508 110.55 115.508Z" fill="white"/>
<path d="M184.131 58H179.33L193.216 20.1818H197.943L211.83 58H207.028L195.727 26.1648H195.432L184.131 58ZM185.903 43.2273H205.256V47.2898H185.903V43.2273ZM221.644 58L211.303 20.1818H215.957L223.86 50.983H224.229L232.281 20.1818H237.451L245.502 50.983H245.871L253.775 20.1818H258.428L248.087 58H243.36L235.013 27.8636H234.718L226.371 58H221.644ZM284.816 29.6364C284.594 27.7652 283.696 26.3125 282.12 25.2784C280.544 24.2443 278.612 23.7273 276.322 23.7273C274.647 23.7273 273.183 23.9981 271.927 24.5398C270.683 25.0814 269.711 25.8262 269.009 26.7741C268.32 27.7221 267.975 28.7992 267.975 30.0057C267.975 31.0151 268.215 31.883 268.695 32.6094C269.188 33.3234 269.816 33.9205 270.579 34.4006C271.342 34.8684 272.142 35.2562 272.979 35.5639C273.817 35.8594 274.586 36.0994 275.288 36.2841L279.129 37.3182C280.113 37.5767 281.209 37.9337 282.415 38.3892C283.634 38.8447 284.798 39.4664 285.906 40.2543C287.026 41.0298 287.949 42.027 288.675 43.2457C289.402 44.4645 289.765 45.9602 289.765 47.733C289.765 49.7765 289.229 51.6231 288.158 53.2727C287.1 54.9223 285.549 56.2334 283.505 57.206C281.474 58.1785 279.005 58.6648 276.1 58.6648C273.392 58.6648 271.047 58.2277 269.065 57.3537C267.095 56.4796 265.544 55.2609 264.411 53.6974C263.291 52.134 262.657 50.3182 262.509 48.25H267.237C267.36 49.678 267.84 50.8598 268.677 51.7955C269.526 52.7187 270.597 53.4081 271.89 53.8636C273.195 54.3068 274.598 54.5284 276.1 54.5284C277.848 54.5284 279.418 54.2453 280.809 53.679C282.2 53.1004 283.302 52.3002 284.114 51.2784C284.927 50.2443 285.333 49.0379 285.333 47.6591C285.333 46.4034 284.982 45.3816 284.281 44.5938C283.579 43.8059 282.656 43.1657 281.511 42.6733C280.366 42.1809 279.129 41.75 277.799 41.3807L273.146 40.0511C270.191 39.2017 267.852 37.9891 266.129 36.4134C264.405 34.8376 263.543 32.7756 263.543 30.2273C263.543 28.1098 264.116 26.2633 265.261 24.6875C266.418 23.0994 267.969 21.8684 269.914 20.9943C271.871 20.108 274.057 19.6648 276.469 19.6648C278.907 19.6648 281.074 20.1018 282.969 20.9759C284.865 21.8376 286.367 23.0194 287.475 24.5213C288.595 26.0232 289.186 27.7282 289.248 29.6364H284.816ZM212.568 80.1818V118H208.136L187.528 88.3068H187.159V118H182.58V80.1818H187.011L207.693 109.949H208.062V80.1818H212.568ZM233.033 118.591C230.3 118.591 227.943 117.988 225.961 116.781C223.991 115.562 222.471 113.864 221.4 111.685C220.341 109.493 219.811 106.945 219.811 104.04C219.811 101.134 220.341 98.5739 221.4 96.358C222.471 94.1297 223.96 92.3939 225.868 91.1506C227.789 89.8949 230.029 89.267 232.59 89.267C234.067 89.267 235.526 89.5133 236.966 90.0057C238.407 90.4981 239.718 91.2983 240.9 92.4062C242.081 93.5019 243.023 94.9545 243.725 96.7642C244.426 98.5739 244.777 100.802 244.777 103.449V105.295H222.914V101.528H240.346C240.346 99.928 240.025 98.5 239.385 97.2443C238.757 95.9886 237.859 94.9976 236.689 94.2713C235.532 93.545 234.166 93.1818 232.59 93.1818C230.854 93.1818 229.352 93.6127 228.084 94.4744C226.828 95.3239 225.862 96.4318 225.185 97.7983C224.508 99.1648 224.169 100.63 224.169 102.193V104.705C224.169 106.847 224.539 108.662 225.277 110.152C226.028 111.629 227.069 112.756 228.398 113.531C229.728 114.295 231.273 114.676 233.033 114.676C234.178 114.676 235.212 114.516 236.135 114.196C237.071 113.864 237.877 113.371 238.554 112.719C239.231 112.054 239.755 111.229 240.124 110.244L244.334 111.426C243.891 112.854 243.146 114.11 242.1 115.193C241.053 116.264 239.761 117.101 238.222 117.705C236.683 118.295 234.953 118.591 233.033 118.591ZM263.742 89.6364V93.3295H249.043V89.6364H263.742ZM253.327 82.8409H257.685V109.875C257.685 111.106 257.864 112.029 258.221 112.645C258.59 113.248 259.058 113.654 259.624 113.864C260.203 114.061 260.812 114.159 261.452 114.159C261.932 114.159 262.326 114.134 262.634 114.085C262.942 114.024 263.188 113.974 263.373 113.938L264.259 117.852C263.963 117.963 263.551 118.074 263.022 118.185C262.492 118.308 261.821 118.369 261.009 118.369C259.778 118.369 258.571 118.105 257.39 117.575C256.22 117.046 255.248 116.24 254.472 115.156C253.709 114.073 253.327 112.706 253.327 111.057V82.8409ZM276.723 118L268.081 89.6364H272.661L278.792 111.352H279.087L285.144 89.6364H289.797L295.78 111.278H296.076L302.206 89.6364H306.786L298.144 118H293.86L287.655 96.2102H287.212L281.007 118H276.723ZM323.105 118.591C320.545 118.591 318.298 117.982 316.365 116.763C314.445 115.544 312.943 113.839 311.859 111.648C310.788 109.456 310.253 106.896 310.253 103.966C310.253 101.011 310.788 98.4323 311.859 96.2287C312.943 94.0251 314.445 92.3139 316.365 91.0952C318.298 89.8764 320.545 89.267 323.105 89.267C325.666 89.267 327.906 89.8764 329.827 91.0952C331.759 92.3139 333.261 94.0251 334.332 96.2287C335.416 98.4323 335.957 101.011 335.957 103.966C335.957 106.896 335.416 109.456 334.332 111.648C333.261 113.839 331.759 115.544 329.827 116.763C327.906 117.982 325.666 118.591 323.105 118.591ZM323.105 114.676C325.05 114.676 326.651 114.178 327.906 113.18C329.162 112.183 330.091 110.872 330.695 109.247C331.298 107.622 331.599 105.862 331.599 103.966C331.599 102.07 331.298 100.304 330.695 98.6662C330.091 97.0289 329.162 95.7055 327.906 94.696C326.651 93.6866 325.05 93.1818 323.105 93.1818C321.16 93.1818 319.56 93.6866 318.304 94.696C317.048 95.7055 316.119 97.0289 315.516 98.6662C314.912 100.304 314.611 102.07 314.611 103.966C314.611 105.862 314.912 107.622 315.516 109.247C316.119 110.872 317.048 112.183 318.304 113.18C319.56 114.178 321.16 114.676 323.105 114.676ZM342.61 118V89.6364H346.82V93.9205H347.115C347.632 92.517 348.568 91.3783 349.922 90.5043C351.276 89.6302 352.803 89.1932 354.502 89.1932C354.822 89.1932 355.222 89.1993 355.702 89.2116C356.182 89.224 356.545 89.2424 356.792 89.267V93.6989C356.644 93.6619 356.305 93.6065 355.776 93.5327C355.259 93.4465 354.711 93.4034 354.132 93.4034C352.754 93.4034 351.523 93.6927 350.439 94.2713C349.368 94.8376 348.519 95.6255 347.891 96.6349C347.275 97.6321 346.968 98.7708 346.968 100.051V118H342.61ZM366.02 107.659L365.946 102.267H366.832L379.241 89.6364H384.634L371.412 103.006H371.043L366.02 107.659ZM361.957 118V80.1818H366.315V118H361.957ZM379.98 118L368.901 103.966L372.003 100.938L385.52 118H379.98ZM182.58 178V140.182H205.256V144.244H187.159V157.023H203.557V161.085H187.159V178H182.58ZM212.508 178V149.636H216.866V178H212.508ZM214.724 144.909C213.875 144.909 213.142 144.62 212.527 144.041C211.923 143.463 211.622 142.767 211.622 141.955C211.622 141.142 211.923 140.446 212.527 139.868C213.142 139.289 213.875 139 214.724 139C215.574 139 216.3 139.289 216.903 139.868C217.519 140.446 217.826 141.142 217.826 141.955C217.826 142.767 217.519 143.463 216.903 144.041C216.3 144.62 215.574 144.909 214.724 144.909ZM224.848 178V149.636H229.058V153.92H229.354C229.871 152.517 230.806 151.378 232.161 150.504C233.515 149.63 235.041 149.193 236.74 149.193C237.06 149.193 237.46 149.199 237.94 149.212C238.42 149.224 238.784 149.242 239.03 149.267V153.699C238.882 153.662 238.544 153.607 238.014 153.533C237.497 153.446 236.949 153.403 236.371 153.403C234.992 153.403 233.761 153.693 232.678 154.271C231.607 154.838 230.757 155.625 230.129 156.635C229.514 157.632 229.206 158.771 229.206 160.051V178H224.848ZM255.224 178.591C252.491 178.591 250.134 177.988 248.152 176.781C246.182 175.562 244.662 173.864 243.591 171.685C242.532 169.493 242.003 166.945 242.003 164.04C242.003 161.134 242.532 158.574 243.591 156.358C244.662 154.13 246.152 152.394 248.06 151.151C249.98 149.895 252.221 149.267 254.781 149.267C256.259 149.267 257.717 149.513 259.158 150.006C260.598 150.498 261.909 151.298 263.091 152.406C264.273 153.502 265.214 154.955 265.916 156.764C266.618 158.574 266.969 160.802 266.969 163.449V165.295H245.105V161.528H262.537C262.537 159.928 262.217 158.5 261.577 157.244C260.949 155.989 260.05 154.998 258.881 154.271C257.723 153.545 256.357 153.182 254.781 153.182C253.045 153.182 251.544 153.613 250.276 154.474C249.02 155.324 248.054 156.432 247.376 157.798C246.699 159.165 246.361 160.63 246.361 162.193V164.705C246.361 166.847 246.73 168.662 247.469 170.152C248.22 171.629 249.26 172.756 250.589 173.531C251.919 174.295 253.464 174.676 255.224 174.676C256.369 174.676 257.403 174.516 258.327 174.196C259.262 173.864 260.069 173.371 260.746 172.719C261.423 172.054 261.946 171.229 262.315 170.244L266.526 171.426C266.082 172.854 265.338 174.11 264.291 175.193C263.245 176.264 261.952 177.101 260.413 177.705C258.875 178.295 257.145 178.591 255.224 178.591ZM280.024 178L271.382 149.636H275.962L282.092 171.352H282.388L288.445 149.636H293.098L299.081 171.278H299.376L305.507 149.636H310.087L301.445 178H297.161L290.956 156.21H290.513L284.308 178H280.024ZM324.195 178.665C322.397 178.665 320.766 178.326 319.301 177.649C317.836 176.96 316.673 175.969 315.811 174.676C314.949 173.371 314.518 171.795 314.518 169.949C314.518 168.324 314.839 167.007 315.479 165.997C316.119 164.975 316.974 164.175 318.045 163.597C319.116 163.018 320.298 162.587 321.591 162.304C322.896 162.009 324.207 161.775 325.524 161.602C327.248 161.381 328.645 161.214 329.716 161.104C330.799 160.981 331.587 160.777 332.08 160.494C332.584 160.211 332.837 159.719 332.837 159.017V158.869C332.837 157.047 332.338 155.632 331.341 154.622C330.356 153.613 328.86 153.108 326.854 153.108C324.773 153.108 323.142 153.563 321.96 154.474C320.778 155.385 319.947 156.358 319.467 157.392L315.331 155.915C316.07 154.191 317.054 152.849 318.286 151.889C319.529 150.917 320.883 150.24 322.348 149.858C323.825 149.464 325.278 149.267 326.706 149.267C327.617 149.267 328.663 149.378 329.845 149.599C331.039 149.809 332.19 150.246 333.298 150.911C334.419 151.575 335.348 152.579 336.087 153.92C336.825 155.262 337.195 157.06 337.195 159.312V178H332.837V174.159H332.615C332.32 174.775 331.827 175.433 331.138 176.135C330.448 176.837 329.531 177.434 328.386 177.926C327.241 178.419 325.844 178.665 324.195 178.665ZM324.859 174.75C326.583 174.75 328.036 174.411 329.217 173.734C330.411 173.057 331.31 172.183 331.913 171.112C332.529 170.041 332.837 168.915 332.837 167.733V163.744C332.652 163.966 332.246 164.169 331.618 164.354C331.002 164.526 330.288 164.68 329.476 164.815C328.676 164.938 327.894 165.049 327.131 165.148C326.38 165.234 325.77 165.308 325.303 165.369C324.17 165.517 323.111 165.757 322.126 166.089C321.154 166.41 320.366 166.896 319.763 167.548C319.172 168.188 318.876 169.062 318.876 170.17C318.876 171.685 319.437 172.83 320.557 173.605C321.689 174.368 323.124 174.75 324.859 174.75ZM349.507 140.182V178H345.149V140.182H349.507ZM361.847 140.182V178H357.489V140.182H361.847Z" fill="#94959A"/>
<defs>
<linearGradient id="paint0_linear_323_122" x1="0" y1="165" x2="132" y2="33" gradientUnits="userSpaceOnUse">
<stop stop-color="#BD0816"/>
<stop offset="1" stop-color="#FF5252"/>
</linearGradient>
</defs>
</svg>
