<svg width="400" height="200" viewBox="0 0 400 200" fill="none" xmlns="http://www.w3.org/2000/svg">
<path d="M138.716 84.9434H154.582L146.331 71.6161L131.099 96.3673H124.119L143.158 66.5387C143.792 65.2694 145.062 64.6353 146.965 64.6353C148.235 64.6353 149.504 65.2694 150.773 66.5387L169.812 96.3673H162.831L159.658 90.6553H143.792L138.716 84.9434ZM212.334 90.6553V65.2697H206.622V93.1941C206.622 93.8287 207.256 94.4629 207.256 95.0975C207.891 95.7322 208.526 95.732 209.161 95.732H236.45L240.258 90.0209H212.334V90.6553ZM113.33 86.2124C119.042 86.847 124.118 82.4046 124.753 76.6928C125.388 70.981 120.945 65.9044 115.233 65.2697C114.599 65.2697 113.964 65.2697 113.964 65.2697H87.9444V96.3673H93.6555V70.9817H113.33C115.869 71.6163 118.407 74.1542 117.772 76.6928C117.772 79.2314 115.869 81.1357 113.33 81.1357H96.1943L113.964 97.0017H122.85L110.791 86.8477L113.33 86.2124ZM49.866 96.3673C40.981 96.3673 34 89.3862 34 80.5013C34 71.6163 40.981 64.6353 49.866 64.6353H68.2699C77.1549 64.6353 84.1359 71.6163 84.1359 80.5013C84.1359 89.3862 77.1549 96.3673 68.2699 96.3673H49.866ZM67.6355 90.6553C73.3472 90.6553 77.7895 86.2129 77.7895 81.1357C77.7895 75.424 73.3471 70.9817 68.2699 70.9817H67.6355H49.866C44.1542 70.9817 39.7111 75.4241 39.7111 80.5013C39.7111 86.213 44.1536 90.6553 49.2307 90.6553H49.866H67.6355ZM181.871 96.3673C172.986 96.3673 166.005 89.3862 166.005 80.5013C166.005 71.6163 172.986 64.6353 181.871 64.6353H203.449L199.641 70.3464H181.871C176.159 70.3464 171.716 75.4241 172.351 80.5013C172.351 85.5784 176.794 90.0209 181.871 90.0209H203.449L199.641 95.732L181.871 96.3673ZM254.854 90.6553C250.412 90.6553 246.604 87.4817 245.335 83.0392H270.72L274.528 77.3281H245.335C246.604 72.8856 250.412 69.7119 254.854 69.7119H272.625L276.432 64H254.854C245.969 64 238.988 70.981 238.988 79.866C238.988 88.751 245.969 95.732 254.854 95.732H273.259L277.067 90.0209L254.854 90.6553Z" fill="#E50019"/>
<path d="M54.7607 126.96L58.3677 127.872C57.6116 130.834 56.2481 133.096 54.2773 134.658C52.3188 136.207 49.9203 136.982 47.0818 136.982C44.1441 136.982 41.7518 136.387 39.9049 135.197C38.0704 133.995 36.6697 132.259 35.7029 129.991C34.7485 127.723 34.2712 125.287 34.2712 122.684C34.2712 119.846 34.8104 117.373 35.8888 115.265C36.9796 113.146 38.5228 111.541 40.5185 110.45C42.5265 109.347 44.7329 108.795 47.1376 108.795C49.8645 108.795 52.1577 109.489 54.017 110.878C55.8763 112.266 57.1716 114.218 57.9029 116.734L54.3516 117.571C53.7195 115.588 52.8022 114.144 51.5999 113.239C50.3975 112.334 48.8853 111.882 47.0632 111.882C44.9684 111.882 43.2145 112.384 41.8014 113.388C40.4007 114.392 39.4153 115.743 38.8451 117.441C38.2749 119.127 37.9898 120.868 37.9898 122.665C37.9898 124.983 38.3245 127.01 38.9939 128.745C39.6756 130.468 40.7292 131.757 42.1547 132.613C43.5801 133.468 45.1233 133.896 46.7843 133.896C48.8047 133.896 50.5153 133.313 51.916 132.148C53.3166 130.983 54.2649 129.254 54.7607 126.96Z" fill="#171717"/>
<path d="M62.328 136.517V109.26H65.6748V136.517H62.328Z" fill="#171717"/>
<path d="M69.6351 126.644C69.6351 122.988 70.6515 120.279 72.6843 118.519C74.3825 117.057 76.4525 116.325 78.8944 116.325C81.6089 116.325 83.8277 117.218 85.5507 119.003C87.2736 120.775 88.1351 123.229 88.1351 126.365C88.1351 128.907 87.7508 130.908 86.9823 132.371C86.2262 133.821 85.1168 134.949 83.6542 135.755C82.2039 136.561 80.6173 136.963 78.8944 136.963C76.1302 136.963 73.8929 136.077 72.1823 134.305C70.4841 132.532 69.6351 129.979 69.6351 126.644ZM73.0748 126.644C73.0748 129.173 73.6264 131.07 74.7295 132.334C75.8327 133.586 77.221 134.212 78.8944 134.212C80.5553 134.212 81.9374 133.58 83.0406 132.315C84.1438 131.051 84.6954 129.123 84.6954 126.533C84.6954 124.091 84.1376 122.244 83.022 120.992C81.9188 119.728 80.5429 119.096 78.8944 119.096C77.221 119.096 75.8327 119.722 74.7295 120.974C73.6264 122.225 73.0748 124.116 73.0748 126.644Z" fill="#171717"/>
<path d="M105.017 136.517V133.617C103.48 135.848 101.392 136.963 98.7517 136.963C97.5865 136.963 96.4957 136.74 95.4793 136.294C94.4753 135.848 93.7254 135.29 93.2295 134.621C92.7461 133.939 92.4053 133.109 92.2069 132.129C92.0706 131.472 92.0024 130.431 92.0024 129.006V116.772H95.3491V127.723C95.3491 129.471 95.4173 130.648 95.5537 131.255C95.7644 132.136 96.2106 132.83 96.8924 133.338C97.5741 133.834 98.417 134.082 99.421 134.082C100.425 134.082 101.367 133.827 102.247 133.319C103.127 132.799 103.747 132.098 104.106 131.218C104.478 130.326 104.664 129.037 104.664 127.351V116.772H108.011V136.517H105.017Z" fill="#171717"/>
<path d="M126.083 136.517V134.026C124.831 135.984 122.991 136.963 120.561 136.963C118.987 136.963 117.537 136.53 116.21 135.662C114.897 134.794 113.874 133.586 113.143 132.036C112.424 130.475 112.064 128.683 112.064 126.663C112.064 124.692 112.393 122.907 113.05 121.308C113.707 119.697 114.692 118.463 116.006 117.608C117.32 116.753 118.789 116.325 120.412 116.325C121.602 116.325 122.662 116.579 123.592 117.088C124.522 117.583 125.278 118.234 125.86 119.04V109.26H129.188V136.517H126.083ZM115.504 126.663C115.504 129.192 116.037 131.082 117.103 132.334C118.169 133.586 119.427 134.212 120.877 134.212C122.34 134.212 123.579 133.617 124.596 132.427C125.625 131.224 126.139 129.396 126.139 126.942C126.139 124.24 125.618 122.256 124.577 120.992C123.536 119.728 122.253 119.096 120.729 119.096C119.241 119.096 117.995 119.703 116.991 120.918C116 122.132 115.504 124.048 115.504 126.663Z" fill="#171717"/>
<path d="M146.108 136.517V109.26H149.715V136.517H146.108Z" fill="#171717"/>
<path d="M155.665 136.517V116.772H158.677V119.579C160.127 117.41 162.222 116.325 164.961 116.325C166.151 116.325 167.242 116.542 168.234 116.976C169.238 117.397 169.988 117.955 170.483 118.649C170.979 119.344 171.326 120.168 171.525 121.122C171.648 121.742 171.71 122.827 171.71 124.376V136.517H168.364V124.506C168.364 123.143 168.234 122.126 167.973 121.457C167.713 120.775 167.248 120.236 166.579 119.839C165.922 119.43 165.147 119.226 164.255 119.226C162.829 119.226 161.596 119.678 160.555 120.583C159.526 121.488 159.011 123.205 159.011 125.733V136.517H155.665Z" fill="#171717"/>
<path d="M177.66 136.517V119.375H174.704V116.772H177.66V114.671C177.66 113.344 177.778 112.359 178.013 111.714C178.336 110.847 178.9 110.146 179.705 109.613C180.524 109.068 181.664 108.795 183.127 108.795C184.069 108.795 185.11 108.907 186.25 109.13L185.748 112.049C185.054 111.925 184.397 111.863 183.777 111.863C182.761 111.863 182.042 112.08 181.621 112.514C181.199 112.948 180.988 113.759 180.988 114.949V116.772H184.837V119.375H180.988V136.517H177.66Z" fill="#171717"/>
<path d="M187.422 136.517V116.772H190.434V119.765C191.202 118.364 191.909 117.441 192.553 116.995C193.21 116.548 193.929 116.325 194.71 116.325C195.838 116.325 196.985 116.685 198.15 117.404L196.997 120.509C196.179 120.025 195.361 119.784 194.543 119.784C193.811 119.784 193.154 120.007 192.572 120.453C191.989 120.887 191.574 121.494 191.326 122.275C190.954 123.465 190.768 124.766 190.768 126.18V136.517H187.422Z" fill="#171717"/>
<path d="M213.024 134.082C211.785 135.135 210.588 135.879 209.436 136.313C208.295 136.747 207.068 136.963 205.754 136.963C203.585 136.963 201.918 136.437 200.753 135.383C199.588 134.317 199.005 132.96 199.005 131.311C199.005 130.344 199.222 129.464 199.656 128.671C200.102 127.865 200.678 127.221 201.385 126.737C202.104 126.254 202.909 125.888 203.802 125.64C204.459 125.467 205.451 125.299 206.777 125.138C209.479 124.816 211.468 124.432 212.745 123.986C212.758 123.527 212.764 123.236 212.764 123.112C212.764 121.748 212.448 120.788 211.816 120.23C210.96 119.474 209.69 119.096 208.004 119.096C206.43 119.096 205.265 119.375 204.508 119.932C203.765 120.478 203.213 121.451 202.854 122.851L199.581 122.405C199.879 121.005 200.368 119.877 201.05 119.021C201.732 118.154 202.717 117.49 204.006 117.032C205.296 116.561 206.789 116.325 208.487 116.325C210.173 116.325 211.543 116.524 212.596 116.92C213.65 117.317 214.425 117.819 214.921 118.426C215.416 119.021 215.763 119.777 215.962 120.695C216.073 121.265 216.129 122.294 216.129 123.781V128.243C216.129 131.355 216.197 133.325 216.334 134.156C216.482 134.974 216.767 135.761 217.189 136.517H213.693C213.346 135.823 213.123 135.011 213.024 134.082ZM212.745 126.607C211.53 127.103 209.708 127.524 207.279 127.872C205.903 128.07 204.93 128.293 204.36 128.541C203.79 128.789 203.35 129.154 203.04 129.638C202.73 130.109 202.575 130.636 202.575 131.218C202.575 132.111 202.909 132.854 203.579 133.449C204.261 134.044 205.252 134.342 206.554 134.342C207.843 134.342 208.989 134.063 209.993 133.505C210.997 132.935 211.735 132.16 212.206 131.181C212.565 130.425 212.745 129.309 212.745 127.834V126.607Z" fill="#171717"/>
<path d="M219.996 130.623L223.306 130.103C223.492 131.429 224.006 132.445 224.849 133.152C225.704 133.858 226.894 134.212 228.419 134.212C229.956 134.212 231.096 133.902 231.84 133.282C232.584 132.65 232.956 131.912 232.956 131.07C232.956 130.313 232.627 129.718 231.97 129.285C231.512 128.987 230.371 128.609 228.549 128.15C226.095 127.531 224.391 126.998 223.436 126.551C222.494 126.093 221.775 125.467 221.279 124.674C220.796 123.868 220.554 122.982 220.554 122.015C220.554 121.135 220.753 120.323 221.149 119.579C221.558 118.823 222.11 118.197 222.804 117.701C223.325 117.317 224.031 116.995 224.924 116.734C225.828 116.462 226.795 116.325 227.824 116.325C229.373 116.325 230.731 116.548 231.896 116.995C233.073 117.441 233.941 118.048 234.499 118.817C235.057 119.573 235.441 120.589 235.652 121.866L232.379 122.312C232.231 121.296 231.797 120.503 231.078 119.932C230.371 119.362 229.367 119.077 228.066 119.077C226.529 119.077 225.432 119.331 224.775 119.839C224.118 120.348 223.789 120.943 223.789 121.624C223.789 122.058 223.926 122.449 224.198 122.796C224.471 123.155 224.899 123.453 225.481 123.688C225.816 123.812 226.801 124.097 228.438 124.543C230.805 125.176 232.454 125.696 233.383 126.105C234.325 126.502 235.063 127.084 235.596 127.853C236.129 128.621 236.395 129.576 236.395 130.716C236.395 131.832 236.067 132.885 235.41 133.877C234.765 134.856 233.83 135.619 232.602 136.164C231.375 136.697 229.987 136.963 228.438 136.963C225.872 136.963 223.913 136.43 222.562 135.364C221.224 134.298 220.368 132.718 219.996 130.623Z" fill="#171717"/>
<path d="M247.681 133.524L248.165 136.48C247.223 136.678 246.38 136.778 245.636 136.778C244.421 136.778 243.479 136.585 242.81 136.201C242.141 135.817 241.67 135.315 241.397 134.695C241.124 134.063 240.988 132.743 240.988 130.735V119.375H238.534V116.772H240.988V111.882L244.316 109.874V116.772H247.681V119.375H244.316V130.921C244.316 131.875 244.372 132.489 244.483 132.761C244.607 133.034 244.799 133.251 245.06 133.412C245.332 133.573 245.717 133.654 246.212 133.654C246.584 133.654 247.074 133.611 247.681 133.524Z" fill="#171717"/>
<path d="M250.935 136.517V116.772H253.947V119.765C254.716 118.364 255.422 117.441 256.067 116.995C256.724 116.548 257.443 116.325 258.224 116.325C259.352 116.325 260.498 116.685 261.663 117.404L260.51 120.509C259.692 120.025 258.874 119.784 258.056 119.784C257.325 119.784 256.668 120.007 256.085 120.453C255.503 120.887 255.088 121.494 254.84 122.275C254.468 123.465 254.282 124.766 254.282 126.18V136.517H250.935Z" fill="#171717"/>
<path d="M276.593 136.517V133.617C275.056 135.848 272.968 136.963 270.328 136.963C269.162 136.963 268.072 136.74 267.055 136.294C266.051 135.848 265.301 135.29 264.805 134.621C264.322 133.939 263.981 133.109 263.783 132.129C263.647 131.472 263.578 130.431 263.578 129.006V116.772H266.925V127.723C266.925 129.471 266.993 130.648 267.13 131.255C267.34 132.136 267.787 132.83 268.468 133.338C269.15 133.834 269.993 134.082 270.997 134.082C272.001 134.082 272.943 133.827 273.823 133.319C274.703 132.799 275.323 132.098 275.682 131.218C276.054 130.326 276.24 129.037 276.24 127.351V116.772H279.587V136.517H276.593Z" fill="#171717"/>
<path d="M297.734 129.285L301.025 129.712C300.665 131.981 299.742 133.759 298.254 135.048C296.779 136.325 294.963 136.963 292.806 136.963C290.104 136.963 287.929 136.083 286.28 134.323C284.644 132.551 283.826 130.016 283.826 126.719C283.826 124.587 284.179 122.721 284.886 121.122C285.592 119.523 286.665 118.327 288.102 117.534C289.553 116.728 291.127 116.325 292.825 116.325C294.969 116.325 296.723 116.871 298.087 117.961C299.45 119.04 300.324 120.577 300.708 122.573L297.455 123.075C297.145 121.748 296.593 120.75 295.8 120.081C295.019 119.412 294.071 119.077 292.955 119.077C291.269 119.077 289.9 119.684 288.846 120.899C287.793 122.102 287.266 124.01 287.266 126.626C287.266 129.278 287.774 131.206 288.79 132.408C289.807 133.611 291.133 134.212 292.769 134.212C294.083 134.212 295.18 133.809 296.06 133.003C296.94 132.197 297.498 130.958 297.734 129.285Z" fill="#171717"/>
<path d="M311.195 133.524L311.678 136.48C310.736 136.678 309.893 136.778 309.15 136.778C307.935 136.778 306.993 136.585 306.324 136.201C305.654 135.817 305.183 135.315 304.911 134.695C304.638 134.063 304.501 132.743 304.501 130.735V119.375H302.047V116.772H304.501V111.882L307.83 109.874V116.772H311.195V119.375H307.83V130.921C307.83 131.875 307.885 132.489 307.997 132.761C308.121 133.034 308.313 133.251 308.573 133.412C308.846 133.573 309.23 133.654 309.726 133.654C310.098 133.654 310.588 133.611 311.195 133.524Z" fill="#171717"/>
<path d="M327.427 136.517V133.617C325.89 135.848 323.801 136.963 321.161 136.963C319.996 136.963 318.905 136.74 317.888 136.294C316.884 135.848 316.134 135.29 315.639 134.621C315.155 133.939 314.814 133.109 314.616 132.129C314.48 131.472 314.412 130.431 314.412 129.006V116.772H317.758V127.723C317.758 129.471 317.826 130.648 317.963 131.255C318.173 132.136 318.62 132.83 319.301 133.338C319.983 133.834 320.826 134.082 321.83 134.082C322.834 134.082 323.776 133.827 324.656 133.319C325.536 132.799 326.156 132.098 326.516 131.218C326.887 130.326 327.073 129.037 327.073 127.351V116.772H330.42V136.517H327.427Z" fill="#171717"/>
<path d="M335.645 136.517V116.772H338.657V119.765C339.425 118.364 340.132 117.441 340.776 116.995C341.433 116.548 342.152 116.325 342.933 116.325C344.061 116.325 345.208 116.685 346.373 117.404L345.22 120.509C344.402 120.025 343.584 119.784 342.766 119.784C342.034 119.784 341.378 120.007 340.795 120.453C340.212 120.887 339.797 121.494 339.549 122.275C339.177 123.465 338.991 124.766 338.991 126.18V136.517H335.645Z" fill="#171717"/>
<path d="M361.879 130.158L365.338 130.586C364.792 132.607 363.782 134.175 362.307 135.29C360.832 136.406 358.948 136.963 356.655 136.963C353.767 136.963 351.473 136.077 349.775 134.305C348.09 132.52 347.247 130.022 347.247 126.812C347.247 123.49 348.102 120.912 349.813 119.077C351.523 117.243 353.742 116.325 356.469 116.325C359.109 116.325 361.266 117.224 362.939 119.021C364.613 120.819 365.449 123.347 365.449 126.607C365.449 126.806 365.443 127.103 365.431 127.5H350.705C350.829 129.669 351.443 131.33 352.546 132.483C353.649 133.635 355.025 134.212 356.673 134.212C357.9 134.212 358.948 133.889 359.816 133.245C360.683 132.6 361.371 131.572 361.879 130.158ZM350.891 124.748H361.917C361.768 123.087 361.346 121.841 360.652 121.011C359.586 119.722 358.204 119.077 356.506 119.077C354.969 119.077 353.674 119.591 352.62 120.62C351.579 121.649 351.002 123.025 350.891 124.748Z" fill="#171717"/>
</svg>
