<svg width="400" height="200" viewBox="0 0 400 200" fill="none" xmlns="http://www.w3.org/2000/svg">
<g clip-path="url(#clip0_323_123)">
<path d="M60.67 47.4393C59.4131 49.1111 58.2971 50.885 57.3335 52.7425C62.7792 56.8561 66.2573 63.4734 66.2573 71.0909C66.2573 78.596 62.8441 85.1156 57.4633 89.2647C58.4624 91.0999 59.5923 92.8604 60.844 94.5325C68.4904 89.6583 73.4789 81.0671 73.4789 71.0909C73.4789 61.0023 68.4255 52.346 60.67 47.4393ZM63.263 71.0791C63.2934 68.1133 62.6617 65.1782 61.4141 62.4892C60.1665 59.8003 58.3348 57.4255 56.0532 55.5392C54.0216 60.4402 52.9839 65.6982 53.0006 71.0061C53.0173 76.3139 54.0881 81.5652 56.1506 86.4533C58.3987 84.5799 60.2038 82.2288 61.4354 79.5699C62.667 76.9111 63.2942 74.0109 63.2719 71.0791H63.263ZM75.7445 35.424C73.6249 36.3481 71.602 37.4812 69.7058 38.8067C75.8502 42.9053 80.664 48.719 83.5531 55.5303C85.6393 54.3925 87.9455 53.7192 90.3145 53.5564C87.2246 46.2758 82.1806 39.9986 75.7445 35.424ZM75.9392 76.8085C75.2269 80.875 73.6917 84.752 71.4284 88.2003C69.165 91.6487 66.2214 94.5954 62.7792 96.8586C64.1778 98.4311 65.7042 99.8843 67.3429 101.203C73.5791 97.277 78.3979 91.4504 81.0928 84.577C78.6371 82.5647 76.8414 79.858 75.9392 76.8085ZM83.68 86.255C80.8563 93.1158 76.0722 98.9851 69.93 103.124C71.8594 104.426 73.9046 105.546 76.0395 106.471C82.473 101.845 87.4866 95.5043 90.5122 88.1668C88.1256 88.0215 85.7969 87.3699 83.68 86.255ZM67.1128 40.7244C65.4768 42.0466 63.9614 43.5124 62.5845 45.1043C66.0352 47.3485 68.9935 50.2751 71.2785 53.7052C73.5636 57.1353 75.1273 60.9968 75.8743 65.0537C76.7719 62.0101 78.5402 59.2976 80.9601 57.2527C78.2048 50.4116 73.3563 44.6244 67.1128 40.7244Z" fill="#0080FF"/>
<path d="M147.845 138.142C147.845 136.234 149.648 135.31 151.716 135.31C153.884 135.31 155.751 136.266 156.704 138.341L161.527 135.642C159.657 132.117 156.082 130.111 151.716 130.111C146.335 130.111 142.034 133.236 142.034 138.24C142.034 147.755 156.279 145.088 156.279 149.829C156.279 151.936 154.309 152.789 151.781 152.789C148.86 152.789 146.766 151.341 145.907 148.971L140.984 151.836C142.659 155.653 146.5 158.05 151.781 158.05C157.492 158.05 162.088 155.189 162.088 149.853C162.088 140.051 147.845 142.978 147.845 138.142Z" fill="black"/>
<path d="M194.641 144.135C194.641 136.497 189.228 130.111 181.352 130.111C173.047 130.111 167.371 136.234 167.371 144.067C167.371 152.037 173.047 158.059 181.779 158.059C186.962 158.059 190.924 155.887 193.361 152.268L188.641 149.501C187.396 151.344 185.001 152.792 181.815 152.792C177.581 152.792 174.269 150.684 173.348 146.538H194.417C194.559 145.745 194.634 144.941 194.641 144.135ZM173.31 141.862C174.097 137.879 177.018 135.31 181.275 135.31C184.72 135.31 188.06 137.287 188.853 141.862H173.31Z" fill="black"/>
<path d="M221.389 148.349C220.141 150.785 217.516 152.431 214.365 152.431C209.704 152.431 206.161 148.879 206.161 144.067C206.161 139.255 209.701 135.739 214.365 135.739C217.516 135.739 220.141 137.352 221.289 139.82L226.212 136.959C224.112 132.816 219.584 130.111 214.412 130.111C206.447 130.111 200.432 136.169 200.432 144.067C200.432 151.966 206.424 158.071 214.397 158.071C219.584 158.071 224.112 155.34 226.312 151.158L221.389 148.349Z" fill="black"/>
<path d="M250.859 130.8V145.023C250.859 150.457 247.909 152.694 244.13 152.694C240.523 152.694 238.192 150.554 238.192 146.538V130.8H232.481V147.098C232.481 154.011 236.714 158.047 242.655 158.047C246.263 158.047 249.119 156.698 250.859 153.966V157.358H256.568V130.8H250.859Z" fill="black"/>
<path d="M271.371 135.284V130.8H265.66V157.37H271.371V143.97C271.371 138.051 275.769 136.275 279.51 136.53V130.338C276.194 130.338 272.946 131.655 271.371 135.284Z" fill="black"/>
<path d="M286.171 130.8V157.37H291.882V130.8H286.171Z" fill="black"/>
<path d="M315.674 136.331V130.8H309.11V123.36L303.399 125.074V130.8H298.511V136.331H303.399V149.057C303.399 155.973 306.88 158.409 315.674 157.343V152.2C311.343 152.431 309.11 152.463 309.11 149.072V136.346L315.674 136.331Z" fill="black"/>
<path d="M341.634 130.8L334.873 150.081L326.964 130.788H320.727L331.952 156.887L331.69 157.414C330.377 160.936 328.341 162.848 324.633 162.617V167.982C330.737 168.376 335.07 164.955 337.563 158.237L347.737 130.812L341.634 130.8Z" fill="black"/>
<path d="M184.995 32.5712V57.6078C175.897 56.1281 162.97 59.8185 162.97 74.4055V107.678H140.948V34.0479H153.394C155.476 34.0488 157.501 34.7306 159.162 35.9898C160.823 37.2491 162.029 39.0172 162.598 41.0262C168.177 35.5987 176.112 32.8375 183.856 32.5919C183.867 32.5847 183.88 32.581 183.893 32.581C183.906 32.581 183.919 32.5847 183.93 32.5919C184.275 32.5712 184.635 32.5712 184.995 32.5712Z" fill="black"/>
<path d="M91.8899 32C87.513 31.9931 83.1654 32.7161 79.0249 34.1397C85.5327 39.1769 90.5569 45.8904 93.5625 53.5653C102.292 54.3229 108.79 61.0378 108.79 70.8808C108.79 80.6262 102.392 87.3086 93.7454 88.1668C90.7803 95.8738 85.7903 102.631 79.3052 107.723C83.3584 109.077 87.6029 109.767 91.8751 109.765C113.469 109.765 130.797 92.8072 130.797 70.8808C130.797 48.9545 113.475 32 91.8899 32Z" fill="black"/>
<path d="M244.558 80.0994C241.703 85.237 236.322 88.3296 229.956 88.3296C220.404 88.3296 213.052 81.4164 213.052 70.9489C213.052 60.4814 220.404 53.5653 229.956 53.5653C236.254 53.5653 241.605 56.5928 244.493 61.6623L263.335 50.7331C256.55 39.44 244.16 32.0651 229.956 32.0651C208.359 32.0651 191.033 49.0196 191.033 70.9489C191.033 92.8782 208.359 109.833 229.956 109.833C244.263 109.833 256.7 102.393 263.462 90.9338L244.558 80.0994Z" fill="black"/>
<path d="M335.563 34.042C333.484 34.0457 331.463 34.7243 329.8 35.9763C328.138 37.2283 326.925 38.9864 326.341 40.9877C321.385 35.3589 314.075 32 304.089 32C284.87 32 269.008 48.9219 269.008 70.8483C269.008 92.7746 284.87 109.729 304.089 109.729C314.066 109.729 321.385 106.373 326.341 100.741C326.924 102.743 328.137 104.502 329.8 105.755C331.462 107.007 333.484 107.686 335.563 107.69H348V34.042H335.563ZM308.027 88.2289C298.478 88.2289 291.159 81.3157 291.159 70.8453C291.159 60.3749 298.478 53.4942 308.027 53.4942C317.577 53.4942 324.928 60.4104 324.928 70.8483C324.928 81.2861 317.577 88.2289 308.027 88.2289Z" fill="black"/>
</g>
<defs>
<clipPath id="clip0_323_123">
<rect width="295" height="136" fill="white" transform="translate(53 32)"/>
</clipPath>
</defs>
</svg>
