<svg width="400" height="200" viewBox="0 0 400 200" fill="none" xmlns="http://www.w3.org/2000/svg">
<g clip-path="url(#clip0_323_123)">
<path d="M238.295 88.1041C230.85 87.0234 229.226 86.197 229.226 84.552C229.226 82.9071 231.333 81.5244 236.277 81.5244C240.221 81.5962 244.116 82.4051 247.757 83.9084C248.673 84.258 249.509 84.6474 250.345 85.0368V77.8214L250.168 77.7499C245.911 75.9893 241.325 75.1364 236.711 75.2467C227.064 75.2467 220.633 79.5299 220.633 84.9812C220.633 91.0523 225.802 93.2137 236.011 94.6441C243.19 95.6374 244.943 96.4161 244.943 98.1882C244.943 100.183 242.314 101.486 236.486 101.486C232.342 101.37 228.254 100.502 224.427 98.9272C223.328 98.4874 222.255 97.9886 221.211 97.4333V104.641L222.015 104.99C226.736 106.859 231.779 107.801 236.864 107.764C246.285 107.764 253.561 103.997 253.561 97.7988C253.585 91.7436 248.721 89.5742 238.295 88.1041ZM119.661 75.8586C128.456 75.8586 133.4 79.9908 133.4 86.4751C133.4 93.3329 127.933 97.33 119.235 97.33H109.684V107.152H101.412V75.8586H119.661ZM109.684 91.0364H118.045C123.423 91.0364 125.176 89.3438 125.176 86.6181C125.176 83.8925 123.254 82.1999 118.431 82.1999H109.684V91.0364ZM155.556 107.152H147.283V75.8586H168.008C176.707 75.8586 181.321 79.665 181.321 86.1016C181.321 91.1715 177.945 94.509 173.001 95.8281L182.889 107.152H173.427L164.254 96.44H155.556V107.152ZM155.556 90.3768H166.006C170.613 90.3768 172.944 89.01 172.944 86.2367C172.944 83.6064 171.047 82.1522 166.384 82.1522H155.556V90.3768ZM205.704 75.8586V107.152H197.391V75.8586H205.704ZM278.732 75.8586L289.809 97.1393H289.946L300.92 75.8586H312.978V107.152H304.827V83.7971H304.738L292.519 107.199H286.618L274.39 83.7971H274.294V107.152H266.641V75.8586H278.732ZM355.103 101.557H336.935L334.137 107.12H325.527L341.646 75.6679H350.674L366.841 107.152H357.901L355.103 101.557ZM339.829 95.8281H352.29L346.067 83.376H345.939L339.829 95.8281Z" fill="black"/>
<path d="M64.2549 107.152V75.795L80.8236 107.152H64.2549Z" fill="#00C0E8"/>
<path d="M64.2468 75.7951L47.6781 107.152H64.2468V129.72L30 95.8599L47.5173 78.5445L50.2989 75.7951L64.2468 62V75.7951Z" fill="#00C0E8"/>
<path d="M367.829 78.7829V78.6876C367.829 78.0201 367.315 77.5512 366.406 77.5512H364.799V81.151H365.554V79.9113H366.358L366.985 81.1271H367.789L366.985 79.7047C367.194 79.6547 367.38 79.5365 367.513 79.3693C367.646 79.202 367.717 78.9955 367.717 78.7829M365.466 78.1949H366.27C366.744 78.1949 366.937 78.3538 366.937 78.7034V78.7432C366.937 79.0531 366.744 79.2518 366.27 79.2518H365.466V78.1949Z" fill="white"/>
<path d="M366.246 75.6123C365.503 75.6123 364.777 75.8299 364.16 76.2377C363.543 76.6455 363.061 77.2251 362.777 77.9032C362.493 78.5812 362.419 79.3274 362.564 80.0473C362.708 80.7671 363.066 81.4284 363.591 81.9474C364.116 82.4664 364.785 82.8198 365.513 82.963C366.242 83.1062 366.996 83.0327 367.682 82.7518C368.368 82.4709 368.955 81.9953 369.367 81.385C369.78 80.7747 370 80.0573 370 79.3233C370.01 78.8333 369.919 78.3464 369.734 77.8917C369.549 77.4371 369.273 77.0241 368.922 76.6776C368.572 76.331 368.154 76.058 367.694 75.875C367.234 75.6919 366.741 75.6026 366.246 75.6123ZM366.246 82.5337C365.82 82.5481 365.395 82.4757 364.998 82.3211C364.601 82.1664 364.241 81.9328 363.94 81.6347C363.638 81.3366 363.402 80.9805 363.245 80.5883C363.089 80.1961 363.016 79.7764 363.03 79.3551C363.03 78.5121 363.369 77.7036 363.972 77.1075C364.575 76.5114 365.393 76.1765 366.246 76.1765C367.099 76.1765 367.917 76.5114 368.52 77.1075C369.123 77.7036 369.461 78.5121 369.461 79.3551C369.476 79.7764 369.403 80.1961 369.246 80.5883C369.09 80.9805 368.854 81.3366 368.552 81.6347C368.25 81.9328 367.89 82.1664 367.493 82.3211C367.097 82.4757 366.672 82.5481 366.246 82.5337Z" fill="white"/>
<path d="M104.914 127.925C105.451 127.925 105.649 127.755 105.649 127.369C105.649 126.983 105.443 126.821 104.914 126.821H103.302V127.933H104.914V127.925ZM104.828 125.726C105.324 125.726 105.529 125.572 105.529 125.196C105.529 124.821 105.308 124.691 104.828 124.691H103.305V125.728L104.828 125.726ZM101.548 123.365H105.308C106.554 123.365 107.309 123.871 107.309 124.85C107.335 125.158 107.248 125.465 107.062 125.714C106.876 125.963 106.605 126.137 106.299 126.205C107.07 126.509 107.435 126.906 107.435 127.605C107.435 128.827 106.487 129.264 105.171 129.264H101.548V123.365ZM111.053 127.377L108.429 123.365H110.446L111.926 125.718H112.012L113.507 123.365H115.476L112.858 127.369V129.264H111.053V127.377V127.377ZM123.372 126.424C123.482 126.435 123.594 126.42 123.698 126.383C123.802 126.345 123.896 126.284 123.974 126.206C124.051 126.127 124.109 126.033 124.145 125.929C124.18 125.825 124.191 125.715 124.177 125.607C124.177 125.077 123.909 124.789 123.372 124.789H121.967V126.424H123.372ZM120.149 123.365H123.681C125.15 123.365 125.928 124.199 125.928 125.564C125.928 127.107 124.929 127.816 123.544 127.816H121.932V129.264H120.138V123.365H120.149ZM129.479 126.721H131.09L130.448 124.868H130.123L129.481 126.721H129.479ZM128.845 123.365H131.737L133.813 129.264H131.933L131.514 128.044H129.041L128.614 129.264H126.766L128.845 123.365V123.365ZM135.392 123.365H137.186V127.739H140.361L140.291 129.264H135.387V123.365H135.392ZM146.589 126.316C146.589 125.294 145.99 124.688 144.956 124.688C143.922 124.688 143.323 125.294 143.323 126.316C143.323 127.337 143.922 127.941 144.948 127.941C145.974 127.941 146.589 127.335 146.589 126.316V126.316ZM141.534 126.316C141.534 124.395 142.861 123.188 144.956 123.188C147.051 123.188 148.377 124.395 148.377 126.316C148.377 128.237 147.051 129.441 144.956 129.441C142.861 129.441 141.534 128.237 141.534 126.316ZM155.604 126.721H157.216L156.574 124.868H156.249L155.607 126.721H155.604ZM154.973 123.365H157.863L159.942 129.264H158.062L157.643 128.044H155.172L154.723 129.264H152.876L154.954 123.365H154.973ZM161.518 123.365H163.317V127.739H166.489L166.422 129.264H161.507V123.365H161.518ZM168.997 124.881H166.889L166.959 123.365H172.816L172.886 124.881H170.791V129.264H168.987V124.881H168.997ZM179.125 126.316C179.125 125.294 178.529 124.688 177.492 124.688C176.455 124.688 175.859 125.294 175.859 126.316C175.859 127.337 176.458 127.941 177.484 127.941C178.51 127.941 179.125 127.335 179.125 126.316V126.316ZM174.07 126.316C174.07 124.395 175.397 123.188 177.492 123.188C179.587 123.188 180.913 124.395 180.913 126.316C180.913 128.237 179.587 129.441 177.492 129.441C175.397 129.441 174.06 128.237 174.06 126.316H174.07ZM185.986 123.365H187.85L190.426 126.71H190.442V123.365H192.153V129.264H190.348L187.716 125.824H187.689V129.264H185.978V123.365H185.986ZM194.296 123.365H199.527L199.597 124.797H196.082V125.609H198.845V126.916H196.082V127.835H199.699L199.632 129.266H194.285V123.365H194.296ZM203.201 124.881H201.106L201.174 123.365H207.031L207.101 124.881H205.006V129.264H203.201V124.881V124.881ZM208.403 123.365H210.315L211.282 127.462H211.39L212.655 123.365H214.408L215.636 127.462H215.73L216.688 123.365H218.52L216.946 129.264H214.594L213.498 125.707H213.447L212.335 129.264H209.974L208.392 123.365H208.403ZM224.759 126.316C224.759 125.294 224.16 124.688 223.126 124.688C222.092 124.688 221.49 125.294 221.49 126.316C221.49 127.337 222.089 127.941 223.118 127.941C224.146 127.941 224.759 127.335 224.759 126.316V126.316ZM219.704 126.316C219.704 124.395 221.028 123.188 223.126 123.188C225.223 123.188 226.547 124.395 226.547 126.316C226.547 128.237 225.22 129.441 223.126 129.441C221.031 129.441 219.704 128.237 219.704 126.316ZM231.604 126.332C232.203 126.332 232.41 126.004 232.41 125.556C232.41 125.109 232.198 124.789 231.604 124.789H230.14V126.332H231.604ZM228.336 123.365H231.827C233.417 123.365 234.196 124.106 234.196 125.482C234.196 126.427 233.801 127.07 233.033 127.372L234.451 129.266H232.415L231.314 127.716H230.132V129.266H228.336V123.365ZM236.043 123.365H237.84V125.54H238.573L240.327 123.365H242.347L240.056 126.189L242.473 129.248H240.375L238.563 126.983H237.837V129.248H236.043V123.365V123.365ZM243.7 128.877V127.258C244.574 127.714 245.542 127.965 246.531 127.991C247.173 127.991 247.498 127.837 247.498 127.544C247.498 127.25 247.283 127.173 246.002 126.969C244.6 126.75 243.665 126.337 243.665 125.149C243.665 124.045 244.651 123.196 246.574 123.196C247.37 123.199 248.158 123.359 248.891 123.667V125.268C248.145 124.856 247.308 124.631 246.453 124.612C245.771 124.612 245.497 124.77 245.497 125.04C245.497 125.387 245.916 125.419 246.966 125.596C248.37 125.834 249.302 126.221 249.302 127.467C249.302 128.438 248.566 129.407 246.453 129.407C245.51 129.404 244.578 129.217 243.708 128.859L243.7 128.877Z" fill="#807C7B"/>
</g>
<defs>
<clipPath id="clip0_323_123">
<rect width="340" height="76" fill="white" transform="translate(30 62)"/>
</clipPath>
</defs>
</svg>
