<svg width="400" height="200" viewBox="0 0 400 200" fill="none" xmlns="http://www.w3.org/2000/svg">
<g clip-path="url(#clip0_323_123)">
<path fill-rule="evenodd" clip-rule="evenodd" d="M74.8064 46C103.99 46 118.663 61.8034 118.663 61.8034C118.663 61.8034 120.341 73.4983 119.271 97.0541C117.654 132.633 74.8173 154 74.8137 154C74.81 154 31.9769 132.633 30.3641 97.0541C29.2718 73.4983 30.9648 61.8034 30.9648 61.8034C30.9648 61.8034 45.626 46 74.8064 46Z" fill="#ED2E26"/>
<path fill-rule="evenodd" clip-rule="evenodd" d="M173.51 118.418C169.895 118.418 166.36 117.333 163.354 115.3C160.348 113.267 158.005 110.377 156.622 106.997C155.238 103.616 154.876 99.8966 155.581 96.3078C156.287 92.7191 158.028 89.4226 160.584 86.8353C163.141 84.2479 166.398 82.4859 169.944 81.7721C173.49 81.0583 177.165 81.4246 180.506 82.8249C183.846 84.2251 186.701 86.5964 188.709 89.6388C190.718 92.6812 191.79 96.2581 191.79 99.9171C191.784 104.822 189.857 109.524 186.43 112.992C183.003 116.461 178.357 118.412 173.51 118.418M173.51 73.9368C166.704 73.9446 160.179 76.6843 155.367 81.5549C150.554 86.4255 147.847 93.0291 147.839 99.9171C147.839 108.587 151.44 116.314 158.252 122.261C164.63 127.828 173.78 131.668 184.341 133.447C185.852 132.607 188.71 129.763 189.617 127.836C181.836 126.476 178.269 125.127 178.269 125.127C179.285 125.03 180.289 124.826 181.265 124.519C191.659 121.572 199.283 111.174 199.181 99.9171C199.05 85.595 187.665 73.9368 173.51 73.9368" fill="#262626"/>
<path fill-rule="evenodd" clip-rule="evenodd" d="M365.518 117.176V118.454H366.286C366.477 118.466 366.665 118.402 366.811 118.278C366.874 118.219 366.924 118.147 366.958 118.067C366.991 117.987 367.007 117.9 367.004 117.813C367.004 117.39 366.763 117.176 366.275 117.176H365.518ZM367.768 117.784C367.779 118.081 367.689 118.373 367.513 118.611C367.338 118.849 367.087 119.02 366.803 119.096L367.917 120.868H367.051L366.039 119.147H365.522V120.868H364.794V116.483H366.403C366.771 116.471 367.13 116.603 367.404 116.852C367.528 116.974 367.625 117.122 367.688 117.285C367.751 117.448 367.778 117.624 367.768 117.799V117.784ZM363.854 121.137C364.461 121.709 365.259 122.027 366.088 122.027C366.917 122.027 367.715 121.709 368.322 121.137C368.88 120.495 369.188 119.669 369.188 118.814C369.188 117.958 368.88 117.132 368.322 116.491C367.715 115.919 366.917 115.601 366.088 115.601C365.259 115.601 364.461 115.919 363.854 116.491C363.296 117.132 362.988 117.958 362.988 118.814C362.988 119.669 363.296 120.495 363.854 121.137V121.137ZM363.29 115.945C364.05 115.23 365.05 114.833 366.088 114.833C367.126 114.833 368.125 115.23 368.886 115.945C369.593 116.731 369.986 117.756 369.986 118.819C369.986 119.882 369.593 120.907 368.886 121.693C368.125 122.408 367.126 122.806 366.088 122.806C365.05 122.806 364.05 122.408 363.29 121.693C362.582 120.907 362.19 119.882 362.19 118.819C362.19 117.756 362.582 116.731 363.29 115.945V115.945Z" fill="#262626"/>
<path fill-rule="evenodd" clip-rule="evenodd" d="M315.466 111.852L306.793 88.5721H299.068L311.719 121.071C311.719 121.071 306.123 134.534 306.127 134.53C309.808 134.53 313.835 134.269 315.411 130.341C319.106 121.129 331.976 88.5721 331.976 88.5721H324.251L315.466 111.852Z" fill="#262626"/>
<path fill-rule="evenodd" clip-rule="evenodd" d="M286.485 123.469C286.485 123.469 293.658 123.333 293.658 118.41V74.1948H286.485V123.469Z" fill="#262626"/>
<path fill-rule="evenodd" clip-rule="evenodd" d="M260.873 116.66C256.54 116.66 250.053 113.712 249.951 105.665V105.606C249.951 99.2354 254.593 94.4344 260.753 94.4344C265.351 94.4344 269.086 96.8625 270.758 100.96C271.431 102.426 271.745 104.035 271.671 105.65C271.632 107.29 271.26 108.904 270.579 110.392C268.89 114.317 265.264 116.656 260.877 116.656L260.873 116.66ZM271.617 93.1632C269.618 90.3444 265.719 87.6068 259.966 87.6068C250.166 87.6068 242.775 95.3224 242.775 105.551C242.775 110.341 244.391 114.762 247.326 118.079C250.497 121.634 254.869 123.513 259.966 123.513C264.907 123.513 269.137 121.472 271.617 117.986V123.513C271.617 123.513 278.785 123.395 278.785 118.458V88.6127H271.617V93.1632Z" fill="#262626"/>
<path fill-rule="evenodd" clip-rule="evenodd" d="M229.719 107.485C229.719 113.348 226.712 116.605 221.254 116.66C215.724 116.66 213.034 113.48 213.034 106.94V88.5721H205.847V108.395C205.847 111.258 206.324 115.341 208.596 118.532C210.915 121.793 214.585 123.462 219.5 123.491H219.7C225.576 123.491 228.601 120.798 230.065 118.701V123.469C230.065 123.469 236.873 123.351 236.873 118.653V88.5721H229.719V107.485Z" fill="#262626"/>
<path fill-rule="evenodd" clip-rule="evenodd" d="M349.168 102.375C345.443 100.746 342.735 99.3349 342.782 97.1499C342.811 95.7019 344.697 94.3165 346.652 94.3865C348.749 94.4602 350.293 95.923 351.17 97.091C351.17 97.091 355.088 93.7011 355.561 93.34C354.592 91.7043 353.224 90.3483 351.588 89.4023C349.952 88.4563 348.103 87.9522 346.219 87.9384C343.586 87.864 341.032 88.8495 339.117 90.6787C337.202 92.5079 336.082 95.0313 336.003 97.6953C335.897 102.463 338.657 104.431 342.276 106.509L348.228 109.895C349.605 110.868 350.253 111.594 350.22 113.09C350.169 115.433 348.232 116.955 345.72 117.106C343.878 117.213 342.36 116.133 340.925 114.615C338.129 111.667 333.84 113.075 332.526 113.51C335.257 119.862 340.419 123.561 345.578 123.679C352.077 123.823 357.272 118.97 357.41 112.625C357.476 109.574 356.154 105.783 349.168 102.378" fill="#262626"/>
<path fill-rule="evenodd" clip-rule="evenodd" d="M52.9074 92.7689C52.9074 80.1896 62.7374 69.9537 74.8137 69.9537C80.6266 69.9596 86.1998 72.2992 90.3102 76.4591C94.4206 80.6191 96.7323 86.2595 96.7381 92.1425C96.7381 101.91 88.4409 109.943 82.0478 114.073C84.5271 115.507 90.0028 117.021 95.2454 117.496C99.0782 114.505 102.182 110.664 104.318 106.269C106.454 101.874 107.565 97.0408 107.566 92.1425C107.704 87.7016 106.96 83.2778 105.377 79.1337C103.793 74.9897 101.403 71.2099 98.3483 68.0189C95.2935 64.8278 91.6362 62.2906 87.5936 60.5579C83.551 58.8252 79.2056 57.9324 74.8155 57.9324C70.4253 57.9324 66.0799 58.8252 62.0373 60.5579C57.9948 62.2906 54.3374 64.8278 51.2826 68.0189C48.2278 71.2099 45.8377 74.9897 44.2543 79.1337C42.6709 83.2778 41.9265 87.7016 42.0653 92.1425C42.0653 103.196 46.6053 112.986 55.1974 120.514C63.2289 127.526 74.9775 132.22 88.3571 134.431C91.2697 132.81 96.2102 128.023 98.0706 125.219C86.8972 123.746 76.3246 121.008 69.2361 117.242C58.4013 111.494 52.9074 103.241 52.9074 92.7615" fill="white"/>
</g>
<defs>
<clipPath id="clip0_323_123">
<rect width="340" height="108" fill="white" transform="translate(30 46)"/>
</clipPath>
</defs>
</svg>
