<svg width="400" height="200" viewBox="0 0 400 200" fill="none" xmlns="http://www.w3.org/2000/svg">
<path fill-rule="evenodd" clip-rule="evenodd" d="M38.7388 54.9977L29 59.6009V140.498L38.7388 145.101L62.6397 100.041L38.7388 54.9977Z" fill="#8C3123"/>
<path fill-rule="evenodd" clip-rule="evenodd" d="M89.5 133.466L38.7388 145.086V54.9977L89.5 66.6172L113.489 100.177L89.5 133.466Z" fill="#E05243"/>
<path fill-rule="evenodd" clip-rule="evenodd" d="M89.5 133.466L140.244 145.086L149.02 101.189L140.244 54.9977L89.5 66.6172V133.466V133.466Z" fill="#8C3123"/>
<path fill-rule="evenodd" clip-rule="evenodd" d="M140.244 54.9977L150 59.6009V140.498L140.244 145.101V54.9977Z" fill="#E05243"/>
<path fill-rule="evenodd" clip-rule="evenodd" d="M67.3655 114.95L89.4998 117.631L107.05 100.177L89.4998 82.7396L67.3655 85.3705V114.95V114.95Z" fill="#8C3123"/>
<path fill-rule="evenodd" clip-rule="evenodd" d="M111.634 71.0527L89.4998 74.8642L67.3655 71.0527L89.4998 31L111.634 71.0527Z" fill="#5E1F18"/>
<path fill-rule="evenodd" clip-rule="evenodd" d="M111.634 129.233L89.4998 125.389L67.3655 129.233L89.4998 169.286L111.634 129.233Z" fill="#F2B0A9"/>
<path fill-rule="evenodd" clip-rule="evenodd" d="M111.634 71.0527L89.5 65.8757V31L111.634 41.4561V71.0527Z" fill="#E05243"/>
<path fill-rule="evenodd" clip-rule="evenodd" d="M67.3655 71.0527L89.4998 65.8757V31L67.3655 41.4561V71.0527Z" fill="#8C3123"/>
<path fill-rule="evenodd" clip-rule="evenodd" d="M89.5 169.286L111.634 158.83V129.233L89.5 134.41V169.286Z" fill="#E05243"/>
<path fill-rule="evenodd" clip-rule="evenodd" d="M89.4998 169.286L67.3655 158.83V129.233L89.4998 134.41V169.286Z" fill="#8C3123"/>
<path fill-rule="evenodd" clip-rule="evenodd" d="M111.634 114.95L89.5 117.631V82.7396L111.634 85.3705V114.95V114.95Z" fill="#E05243"/>
<path d="M199.131 58H194.33L208.216 20.1818H212.943L226.83 58H222.028L210.727 26.1648H210.432L199.131 58ZM200.903 43.2273H220.256V47.2898H200.903V43.2273ZM236.644 58L226.303 20.1818H230.957L238.86 50.983H239.229L247.281 20.1818H252.451L260.502 50.983H260.871L268.775 20.1818H273.428L263.087 58H258.36L250.013 27.8636H249.718L241.371 58H236.644ZM299.816 29.6364C299.594 27.7652 298.696 26.3125 297.12 25.2784C295.544 24.2443 293.612 23.7273 291.322 23.7273C289.647 23.7273 288.183 23.9981 286.927 24.5398C285.683 25.0814 284.711 25.8262 284.009 26.7741C283.32 27.7221 282.975 28.7992 282.975 30.0057C282.975 31.0151 283.215 31.883 283.695 32.6094C284.188 33.3234 284.816 33.9205 285.579 34.4006C286.342 34.8684 287.142 35.2562 287.979 35.5639C288.817 35.8594 289.586 36.0994 290.288 36.2841L294.129 37.3182C295.113 37.5767 296.209 37.9337 297.415 38.3892C298.634 38.8447 299.798 39.4664 300.906 40.2543C302.026 41.0298 302.949 42.027 303.675 43.2457C304.402 44.4645 304.765 45.9602 304.765 47.733C304.765 49.7765 304.229 51.6231 303.158 53.2727C302.1 54.9223 300.549 56.2334 298.505 57.206C296.474 58.1785 294.005 58.6648 291.1 58.6648C288.392 58.6648 286.047 58.2277 284.065 57.3537C282.095 56.4796 280.544 55.2609 279.411 53.6974C278.291 52.134 277.657 50.3182 277.509 48.25H282.237C282.36 49.678 282.84 50.8598 283.677 51.7955C284.526 52.7187 285.597 53.4081 286.89 53.8636C288.195 54.3068 289.598 54.5284 291.1 54.5284C292.848 54.5284 294.418 54.2453 295.809 53.679C297.2 53.1004 298.302 52.3002 299.114 51.2784C299.927 50.2443 300.333 49.0379 300.333 47.6591C300.333 46.4034 299.982 45.3816 299.281 44.5938C298.579 43.8059 297.656 43.1657 296.511 42.6733C295.366 42.1809 294.129 41.75 292.799 41.3807L288.146 40.0511C285.191 39.2017 282.852 37.9891 281.129 36.4134C279.405 34.8376 278.543 32.7756 278.543 30.2273C278.543 28.1098 279.116 26.2633 280.261 24.6875C281.418 23.0994 282.969 21.8684 284.914 20.9943C286.871 20.108 289.057 19.6648 291.469 19.6648C293.907 19.6648 296.074 20.1018 297.969 20.9759C299.865 21.8376 301.367 23.0194 302.475 24.5213C303.595 26.0232 304.186 27.7282 304.248 29.6364H299.816ZM218.261 89.6364C218.04 87.7652 217.141 86.3125 215.565 85.2784C213.99 84.2443 212.057 83.7273 209.767 83.7273C208.093 83.7273 206.628 83.9981 205.372 84.5398C204.129 85.0814 203.156 85.8262 202.455 86.7741C201.765 87.7221 201.42 88.7992 201.42 90.0057C201.42 91.0151 201.661 91.883 202.141 92.6094C202.633 93.3234 203.261 93.9205 204.024 94.4006C204.787 94.8684 205.588 95.2562 206.425 95.5639C207.262 95.8594 208.031 96.0994 208.733 96.2841L212.574 97.3182C213.559 97.5767 214.654 97.9337 215.861 98.3892C217.08 98.8447 218.243 99.4664 219.351 100.254C220.471 101.03 221.394 102.027 222.121 103.246C222.847 104.464 223.21 105.96 223.21 107.733C223.21 109.777 222.675 111.623 221.604 113.273C220.545 114.922 218.994 116.233 216.95 117.206C214.919 118.179 212.451 118.665 209.545 118.665C206.837 118.665 204.492 118.228 202.51 117.354C200.54 116.48 198.989 115.261 197.857 113.697C196.736 112.134 196.102 110.318 195.955 108.25H200.682C200.805 109.678 201.285 110.86 202.122 111.795C202.972 112.719 204.043 113.408 205.335 113.864C206.64 114.307 208.044 114.528 209.545 114.528C211.294 114.528 212.863 114.245 214.254 113.679C215.645 113.1 216.747 112.3 217.56 111.278C218.372 110.244 218.778 109.038 218.778 107.659C218.778 106.403 218.428 105.382 217.726 104.594C217.024 103.806 216.101 103.166 214.956 102.673C213.811 102.181 212.574 101.75 211.244 101.381L206.591 100.051C203.636 99.2017 201.297 97.9891 199.574 96.4134C197.85 94.8376 196.989 92.7756 196.989 90.2273C196.989 88.1098 197.561 86.2633 198.706 84.6875C199.863 83.0994 201.414 81.8684 203.359 80.9943C205.317 80.108 207.502 79.6648 209.915 79.6648C212.352 79.6648 214.519 80.1018 216.415 80.9759C218.311 81.8376 219.813 83.0194 220.92 84.5213C222.041 86.0232 222.632 87.7282 222.693 89.6364H218.261ZM242.853 118.517C240.416 118.517 238.243 118.098 236.335 117.261C234.439 116.424 232.931 115.261 231.811 113.771C230.703 112.269 230.1 110.527 230.001 108.545H234.654C234.753 109.764 235.172 110.817 235.91 111.703C236.649 112.577 237.615 113.254 238.809 113.734C240.003 114.214 241.327 114.455 242.779 114.455C244.404 114.455 245.845 114.171 247.1 113.605C248.356 113.039 249.341 112.251 250.055 111.241C250.769 110.232 251.126 109.062 251.126 107.733C251.126 106.342 250.781 105.117 250.092 104.058C249.403 102.987 248.393 102.15 247.064 101.547C245.734 100.944 244.109 100.642 242.189 100.642H239.16V96.5795H242.189C243.69 96.5795 245.008 96.3087 246.14 95.767C247.285 95.2254 248.178 94.4621 248.818 93.4773C249.47 92.4924 249.797 91.3352 249.797 90.0057C249.797 88.7254 249.513 87.6113 248.947 86.6634C248.381 85.7154 247.581 84.9768 246.547 84.4474C245.525 83.9181 244.318 83.6534 242.927 83.6534C241.622 83.6534 240.391 83.8935 239.234 84.3736C238.089 84.8414 237.154 85.5246 236.427 86.4233C235.701 87.3097 235.307 88.3807 235.245 89.6364H230.814C230.887 87.6544 231.484 85.9186 232.605 84.429C233.725 82.9271 235.19 81.7576 237 80.9205C238.822 80.0833 240.822 79.6648 243.001 79.6648C245.34 79.6648 247.347 80.1387 249.021 81.0866C250.695 82.0223 251.982 83.2595 252.88 84.7983C253.779 86.3371 254.228 87.9991 254.228 89.7841C254.228 91.9138 253.668 93.7296 252.548 95.2315C251.44 96.7334 249.932 97.7737 248.024 98.3523V98.6477C250.412 99.0417 252.277 100.057 253.619 101.695C254.961 103.32 255.632 105.332 255.632 107.733C255.632 109.789 255.072 111.635 253.951 113.273C252.843 114.898 251.329 116.178 249.409 117.114C247.488 118.049 245.303 118.517 242.853 118.517ZM199.131 178H194.33L208.216 140.182H212.943L226.83 178H222.028L210.727 146.165H210.432L199.131 178ZM200.903 163.227H220.256V167.29H200.903V163.227ZM243.652 178.591C240.993 178.591 238.703 177.963 236.783 176.707C234.862 175.452 233.385 173.722 232.351 171.518C231.317 169.315 230.8 166.797 230.8 163.966C230.8 161.085 231.329 158.543 232.388 156.339C233.459 154.124 234.948 152.394 236.857 151.151C238.777 149.895 241.018 149.267 243.578 149.267C245.572 149.267 247.37 149.636 248.97 150.375C250.571 151.114 251.882 152.148 252.903 153.477C253.925 154.807 254.559 156.358 254.805 158.131H250.447C250.115 156.838 249.376 155.693 248.232 154.696C247.099 153.687 245.572 153.182 243.652 153.182C241.953 153.182 240.464 153.625 239.183 154.511C237.915 155.385 236.924 156.623 236.21 158.223C235.509 159.811 235.158 161.676 235.158 163.818C235.158 166.009 235.502 167.918 236.192 169.543C236.893 171.168 237.878 172.429 239.146 173.328C240.427 174.227 241.929 174.676 243.652 174.676C244.785 174.676 245.812 174.479 246.736 174.085C247.659 173.691 248.441 173.125 249.081 172.386C249.721 171.648 250.177 170.761 250.447 169.727H254.805C254.559 171.402 253.95 172.91 252.977 174.251C252.017 175.581 250.743 176.64 249.155 177.428C247.579 178.203 245.745 178.591 243.652 178.591ZM272.699 178.591C270.04 178.591 267.75 177.963 265.83 176.707C263.909 175.452 262.432 173.722 261.398 171.518C260.364 169.315 259.847 166.797 259.847 163.966C259.847 161.085 260.376 158.543 261.435 156.339C262.506 154.124 263.995 152.394 265.903 151.151C267.824 149.895 270.064 149.267 272.625 149.267C274.619 149.267 276.417 149.636 278.017 150.375C279.617 151.114 280.929 152.148 281.95 153.477C282.972 154.807 283.606 156.358 283.852 158.131H279.494C279.162 156.838 278.423 155.693 277.278 154.696C276.146 153.687 274.619 153.182 272.699 153.182C271 153.182 269.51 153.625 268.23 154.511C266.962 155.385 265.971 156.623 265.257 158.223C264.555 159.811 264.205 161.676 264.205 163.818C264.205 166.009 264.549 167.918 265.239 169.543C265.94 171.168 266.925 172.429 268.193 173.328C269.473 174.227 270.975 174.676 272.699 174.676C273.831 174.676 274.859 174.479 275.783 174.085C276.706 173.691 277.488 173.125 278.128 172.386C278.768 171.648 279.223 170.761 279.494 169.727H283.852C283.606 171.402 282.997 172.91 282.024 174.251C281.064 175.581 279.79 176.64 278.202 177.428C276.626 178.203 274.792 178.591 272.699 178.591ZM302.115 178.591C299.382 178.591 297.025 177.988 295.043 176.781C293.073 175.562 291.553 173.864 290.482 171.685C289.423 169.493 288.893 166.945 288.893 164.04C288.893 161.134 289.423 158.574 290.482 156.358C291.553 154.13 293.042 152.394 294.95 151.151C296.871 149.895 299.111 149.267 301.672 149.267C303.149 149.267 304.608 149.513 306.048 150.006C307.489 150.498 308.8 151.298 309.982 152.406C311.163 153.502 312.105 154.955 312.807 156.764C313.509 158.574 313.859 160.802 313.859 163.449V165.295H291.996V161.528H309.428C309.428 159.928 309.107 158.5 308.467 157.244C307.839 155.989 306.941 154.998 305.771 154.271C304.614 153.545 303.248 153.182 301.672 153.182C299.936 153.182 298.434 153.613 297.166 154.474C295.911 155.324 294.944 156.432 294.267 157.798C293.59 159.165 293.251 160.63 293.251 162.193V164.705C293.251 166.847 293.621 168.662 294.359 170.152C295.11 171.629 296.151 172.756 297.48 173.531C298.81 174.295 300.355 174.676 302.115 174.676C303.26 174.676 304.294 174.516 305.217 174.196C306.153 173.864 306.959 173.371 307.636 172.719C308.313 172.054 308.837 171.229 309.206 170.244L313.416 171.426C312.973 172.854 312.228 174.11 311.182 175.193C310.135 176.264 308.843 177.101 307.304 177.705C305.765 178.295 304.036 178.591 302.115 178.591ZM340.58 155.989L336.665 157.097C336.419 156.444 336.055 155.81 335.575 155.195C335.107 154.567 334.467 154.05 333.655 153.643C332.842 153.237 331.802 153.034 330.534 153.034C328.798 153.034 327.352 153.434 326.195 154.234C325.05 155.022 324.477 156.026 324.477 157.244C324.477 158.328 324.871 159.183 325.659 159.811C326.447 160.439 327.678 160.962 329.352 161.381L333.562 162.415C336.098 163.03 337.988 163.972 339.232 165.24C340.475 166.496 341.097 168.115 341.097 170.097C341.097 171.722 340.629 173.174 339.693 174.455C338.77 175.735 337.477 176.744 335.815 177.483C334.153 178.222 332.221 178.591 330.017 178.591C327.124 178.591 324.73 177.963 322.834 176.707C320.938 175.452 319.738 173.617 319.233 171.205L323.369 170.17C323.763 171.697 324.508 172.842 325.604 173.605C326.712 174.368 328.158 174.75 329.943 174.75C331.974 174.75 333.587 174.319 334.781 173.457C335.988 172.583 336.591 171.537 336.591 170.318C336.591 169.333 336.246 168.509 335.557 167.844C334.867 167.167 333.809 166.662 332.381 166.33L327.653 165.222C325.056 164.606 323.148 163.652 321.929 162.359C320.723 161.054 320.119 159.423 320.119 157.466C320.119 155.866 320.569 154.45 321.467 153.219C322.378 151.988 323.616 151.021 325.179 150.32C326.755 149.618 328.54 149.267 330.534 149.267C333.341 149.267 335.545 149.883 337.145 151.114C338.758 152.345 339.902 153.97 340.58 155.989ZM367.748 155.989L363.833 157.097C363.587 156.444 363.223 155.81 362.743 155.195C362.275 154.567 361.635 154.05 360.823 153.643C360.01 153.237 358.97 153.034 357.702 153.034C355.966 153.034 354.52 153.434 353.363 154.234C352.218 155.022 351.645 156.026 351.645 157.244C351.645 158.328 352.039 159.183 352.827 159.811C353.615 160.439 354.846 160.962 356.52 161.381L360.73 162.415C363.266 163.03 365.156 163.972 366.4 165.24C367.643 166.496 368.265 168.115 368.265 170.097C368.265 171.722 367.797 173.174 366.861 174.455C365.938 175.735 364.645 176.744 362.983 177.483C361.321 178.222 359.389 178.591 357.185 178.591C354.292 178.591 351.898 177.963 350.002 176.707C348.106 175.452 346.906 173.617 346.401 171.205L350.537 170.17C350.931 171.697 351.676 172.842 352.772 173.605C353.88 174.368 355.326 174.75 357.111 174.75C359.142 174.75 360.755 174.319 361.949 173.457C363.156 172.583 363.759 171.537 363.759 170.318C363.759 169.333 363.414 168.509 362.725 167.844C362.035 167.167 360.977 166.662 359.549 166.33L354.821 165.222C352.224 164.606 350.316 163.652 349.097 162.359C347.891 161.054 347.287 159.423 347.287 157.466C347.287 155.866 347.737 154.45 348.635 153.219C349.546 151.988 350.783 151.021 352.347 150.32C353.923 149.618 355.708 149.267 357.702 149.267C360.509 149.267 362.712 149.883 364.313 151.114C365.926 152.345 367.07 153.97 367.748 155.989Z" fill="#94959A"/>
</svg>
