<svg width="400" height="200" viewBox="0 0 400 200" fill="none" xmlns="http://www.w3.org/2000/svg">
<g clip-path="url(#clip0_323_123)">
<path d="M61.2588 72H53.7196V117.1H61.2588V72Z" fill="#6B0AEA"/>
<path fill-rule="evenodd" clip-rule="evenodd" d="M63.0852 127.977L70.6185 123.306V84.2602C68.3836 82.6022 65.8103 81.4637 63.0852 80.9208V127.977Z" fill="#6B0AEA"/>
<path fill-rule="evenodd" clip-rule="evenodd" d="M44.3364 123.329L51.8756 128V80.9441C49.1505 81.4754 46.5713 82.608 44.3364 84.2602V123.329Z" fill="#6B0AEA"/>
<path fill-rule="evenodd" clip-rule="evenodd" d="M72.4449 74.1426V122.489L75.9461 120.317C78.4961 118.641 80.0075 115.781 79.9666 112.727V89.8941C79.9841 83.3086 72.4449 74.1426 72.4449 74.1426Z" fill="#6B0AEA"/>
<path fill-rule="evenodd" clip-rule="evenodd" d="M35.0001 112.71C34.9534 115.763 36.4706 118.624 39.0206 120.299L42.5217 122.471V74.1426C42.5217 74.1426 35.0001 83.3086 35.0001 89.8941V112.71Z" fill="#6B0AEA"/>
<path fill-rule="evenodd" clip-rule="evenodd" d="M260.638 117.631V82.0651L266.077 79.7765V117.631H260.638ZM252.072 102.732C252.131 100.788 251.343 98.9199 249.919 97.6005C248.524 96.3278 246.692 95.6447 244.801 95.6856C242.934 95.633 241.119 96.3219 239.754 97.6005C238.359 98.955 237.525 100.788 237.42 102.732H252.072ZM244.696 118.058C240.874 118.058 237.758 116.826 235.36 114.368C232.962 111.91 231.765 108.646 231.783 104.577C231.783 100.514 232.997 97.2561 235.418 94.8099C237.84 92.3636 240.973 91.1435 244.819 91.1493C248.664 91.1493 251.78 92.3169 254.155 94.6522C256.53 96.9875 257.727 100.053 257.744 103.853C257.744 104.706 257.686 105.558 257.551 106.405H237.361C237.391 108.354 238.19 110.217 239.585 111.583C240.962 112.867 242.794 113.556 244.679 113.498C247.649 113.498 249.738 112.284 250.946 109.855H256.834C256.063 112.249 254.546 114.327 252.498 115.786C250.211 117.363 247.474 118.163 244.696 118.058ZM210.484 91.5755V95.6622C212.235 92.638 215.042 91.1259 218.904 91.1259C221.653 91.0325 224.308 92.0951 226.245 94.045C228.188 95.9892 229.163 98.7156 229.163 102.219V117.631H223.759V103.065C223.759 100.73 223.176 98.9433 222.009 97.6998C220.737 96.4154 218.98 95.7323 217.177 95.8315C215.357 95.7264 213.571 96.3978 212.276 97.6881C211.079 98.9316 210.484 100.718 210.484 103.053V117.631H205.028V91.5755H210.484ZM194.886 117.631V91.5755H200.342V117.631H194.886ZM190.936 95.9717H184.517V110.392C184.441 111.163 184.692 111.927 185.212 112.5C185.673 112.926 186.46 113.136 187.581 113.136H190.93V117.631H186.624C181.565 117.631 179.038 115.22 179.038 110.392V87.3778L184.541 85.0951V91.5755H190.959L190.936 95.9717ZM157.856 91.5755V95.6622C159.589 92.6556 162.402 91.1493 166.294 91.1493C169.042 91.0617 171.703 92.1184 173.64 94.0684C175.583 96.0125 176.558 98.739 176.558 102.242V117.631H171.149V103.065C171.149 100.73 170.565 98.9433 169.398 97.6998C168.126 96.4154 166.37 95.7323 164.566 95.8315C162.734 95.7148 160.943 96.392 159.641 97.6881C158.445 98.9316 157.85 100.718 157.844 103.053V117.631H152.394V91.5755H157.856ZM143.851 102.732C143.91 100.788 143.122 98.9199 141.698 97.6005C140.292 96.3161 138.436 95.6272 136.534 95.6856C134.666 95.633 132.852 96.3219 131.486 97.6005C130.086 98.955 129.251 100.788 129.152 102.732H143.851ZM136.452 118.058C132.624 118.058 129.514 116.826 127.116 114.368C124.717 111.91 123.527 108.646 123.533 104.577C123.533 100.514 124.747 97.2561 127.168 94.8099C129.59 92.3636 132.723 91.1435 136.569 91.1493C140.414 91.1493 143.524 92.3169 145.905 94.6522C148.286 96.9875 149.482 100.053 149.494 103.853C149.494 104.706 149.436 105.558 149.301 106.405H129.111C129.14 108.36 129.94 110.217 131.34 111.583C132.717 112.873 134.55 113.556 136.435 113.498C139.399 113.498 141.488 112.284 142.702 109.855H148.584C147.813 112.249 146.296 114.327 144.248 115.786C141.961 117.363 139.23 118.157 136.452 118.058ZM109.266 88.7381C107.842 88.6739 106.435 89.1059 105.298 89.9641C104.247 90.8457 103.681 92.171 103.763 93.5371C103.699 94.9675 104.405 96.3278 105.607 97.1043C106.943 97.98 108.437 98.5872 110.007 98.9024C111.728 99.2936 113.449 99.7256 115.171 100.204C116.863 100.683 118.38 101.635 119.553 102.942C120.761 104.262 121.362 106.136 121.368 108.57C121.368 111.005 120.335 113.177 118.258 115.092C116.186 117.018 113.409 117.993 109.937 118.011C106.465 118.028 103.64 117.223 101.47 115.594C99.3339 114.058 98.1085 111.554 98.2135 108.927H104.049C104.113 110.246 104.702 111.49 105.677 112.383C106.634 113.229 108.04 113.656 109.89 113.656C111.477 113.743 113.035 113.241 114.266 112.237C116.128 110.608 116.402 107.812 114.885 105.856C114.196 105.103 113.321 104.542 112.352 104.221C111.232 103.836 110.088 103.515 108.933 103.252C107.69 102.972 106.435 102.639 105.175 102.259C103.973 101.909 102.818 101.413 101.732 100.794C100.664 100.163 99.7832 99.2586 99.1938 98.1668C98.5053 96.8649 98.1668 95.4112 98.2135 93.94C98.126 91.2661 99.2814 88.7089 101.347 87.01C103.436 85.2586 106.149 84.3828 109.481 84.3828C112.813 84.3828 115.48 85.1184 117.47 86.5955C119.466 88.1076 120.574 90.3028 120.796 93.1693H114.768C114.657 91.9433 114.074 90.8048 113.14 89.9992C112.055 89.1059 110.672 88.6564 109.266 88.7381Z" fill="#040404"/>
<path fill-rule="evenodd" clip-rule="evenodd" d="M345.938 93.0584C344.153 93.035 342.385 93.4379 340.78 94.226C339.199 95.0258 337.88 96.2577 336.981 97.7873C335.96 99.5855 335.441 101.629 335.476 103.696H355.94C356.127 101.646 355.707 99.5855 354.744 97.764C353.892 96.2227 352.591 94.9791 351.015 94.2027C349.434 93.432 347.695 93.0409 345.938 93.0584ZM345.845 115.658C348.197 115.74 350.507 115.057 352.439 113.708C354.201 112.453 355.374 110.532 355.689 108.389H357.936C357.527 110.993 356.127 113.346 354.038 114.952C351.92 116.61 349.224 117.439 345.938 117.439C343.669 117.48 341.422 116.942 339.42 115.868C337.518 114.823 335.96 113.253 334.933 111.344C333.801 109.183 333.247 106.772 333.311 104.338C333.253 101.932 333.813 99.5505 334.933 97.4195C335.96 95.5104 337.512 93.9399 339.403 92.8949C341.404 91.8207 343.651 91.2836 345.921 91.3244C348.191 91.266 350.443 91.809 352.439 92.8949C354.184 93.8582 355.619 95.2827 356.594 97.0225C357.527 98.6922 358.012 100.572 358.006 102.481C358 103.316 357.918 104.145 357.767 104.968H335.476C335.435 107.058 335.954 109.125 336.981 110.947C337.868 112.476 339.181 113.714 340.757 114.508C342.338 115.284 344.083 115.676 345.845 115.658ZM319.265 91.1376C322.323 91.1376 324.809 92.0776 326.723 93.9516C328.637 95.8257 329.594 98.593 329.588 102.248V117.112H327.441V102.359C327.441 99.2994 326.659 96.9583 325.107 95.3528C323.554 93.7473 321.413 92.9358 318.688 92.9358C316.149 92.8307 313.693 93.8115 311.925 95.633C310.221 97.4312 309.369 100.082 309.369 103.579V117.112H307.221V91.6514H309.369V98.3595C309.882 96.1701 311.184 94.2494 313.028 92.965C314.871 91.7331 317.048 91.0909 319.265 91.1376ZM286.909 86.2685C284.406 86.2335 281.943 86.864 279.766 88.1017C277.637 89.3278 275.898 91.1318 274.748 93.3036C273.476 95.7323 272.846 98.447 272.91 101.191C272.846 103.929 273.482 106.638 274.748 109.067C275.898 111.239 277.637 113.043 279.766 114.269C284.207 116.703 289.587 116.703 294.028 114.269C296.169 113.048 297.914 111.244 299.07 109.067C300.336 106.638 300.972 103.929 300.908 101.191C300.972 98.4529 300.336 95.7439 299.07 93.3153C297.92 91.1376 296.169 89.3336 294.028 88.1134C291.857 86.8816 289.401 86.2394 286.909 86.2685ZM286.909 84.3478C289.832 84.3011 292.709 85.0425 295.253 86.4846C297.698 87.8857 299.706 89.9466 301.03 92.4337C302.448 95.1309 303.166 98.1434 303.108 101.191C303.16 104.227 302.442 107.228 301.03 109.913C299.7 112.406 297.698 114.479 295.253 115.897C290.066 118.776 283.764 118.776 278.576 115.897C276.114 114.479 274.089 112.406 272.741 109.902C271.323 107.222 270.605 104.221 270.663 101.191C270.605 98.1376 271.329 95.1251 272.764 92.4337C274.106 89.9349 276.131 87.8624 278.599 86.4612C281.132 85.0309 284.003 84.3011 286.909 84.3478Z" fill="#040404"/>
<path d="M363.8 95.0901L363.217 94.2085H362.738V95.0901H362.155V92.3286H363.415C364.068 92.3286 364.459 92.6731 364.459 93.2394C364.477 93.6247 364.238 93.9691 363.876 94.0917L364.553 95.0784L363.8 95.0901ZM363.8 93.2744C363.8 93.0117 363.619 92.8774 363.322 92.8774H362.738V93.6714H363.351C363.648 93.6714 363.818 93.5138 363.818 93.2802H363.8V93.2744Z" fill="#040404"/>
<path d="M363.176 96.6139C361.612 96.6139 360.346 95.3528 360.34 93.7882C360.34 92.2235 361.6 90.9566 363.164 90.9508C364.728 90.9508 365.994 92.2119 366 93.7765V93.7882C366 95.347 364.734 96.608 363.176 96.6139ZM363.176 91.5755C361.956 91.5755 360.964 92.568 360.964 93.7882C360.964 95.0084 361.956 96.0008 363.176 96.0008C364.395 96.0008 365.387 95.0084 365.387 93.7882C365.387 92.568 364.395 91.5755 363.176 91.5755Z" fill="#040404"/>
</g>
<defs>
<clipPath id="clip0_323_123">
<rect width="331" height="56" fill="white" transform="translate(35 72)"/>
</clipPath>
</defs>
</svg>
