<svg width="400" height="200" viewBox="0 0 400 200" fill="none" xmlns="http://www.w3.org/2000/svg">
<path fill-rule="evenodd" clip-rule="evenodd" d="M109.856 80.4308C106.155 80.4308 102.983 81.7385 100.339 83.8308V80.9538H91.351V114.692H100.603V93.2462C101.925 91.4154 105.097 89.0615 109.063 89.0615C110.384 89.0615 111.706 89.3231 112.764 89.5846V80.9538C111.706 80.6923 110.649 80.4308 109.856 80.4308ZM30.5498 104.231C32.929 106.323 36.63 107.631 39.8022 107.631C42.1814 107.631 44.2962 106.323 44.2962 104.754C44.2962 99.5231 27.642 101.354 27.642 90.6308C27.642 84.0923 33.9864 80.1692 40.5952 80.1692C45.0892 80.1692 49.8476 81.7385 52.2268 83.5692L47.9971 90.1077C46.1467 89.0615 44.0318 87.7538 41.3883 87.7538C38.7448 87.7538 36.8943 88.8 36.8943 90.6308C36.8943 95.0769 53.5485 93.2462 53.5485 105.015C53.5485 111.554 47.2041 115.477 40.0665 115.477C35.3082 115.477 30.2855 113.908 26.3202 111.031L30.5498 104.231ZM87.3857 97.4308C87.3857 88.0154 80.7769 80.1692 71.2602 80.1692C61.2148 80.1692 54.6059 88.5385 54.6059 97.6923C54.6059 108.415 62.2722 115.215 72.3176 115.215C77.6046 115.215 82.8917 113.123 86.3283 109.2L81.0412 103.969C79.4551 105.8 76.2829 107.892 72.5819 107.892C67.8236 107.892 63.8583 104.492 63.3296 99.7846H86.857C87.3857 99.2615 87.3857 98.4769 87.3857 97.4308ZM64.1226 93.5077C64.6514 90.3692 67.8236 87.4923 71.5245 87.4923C75.2255 87.4923 77.869 90.3692 78.3977 93.5077H64.1226ZM133.912 101.615L143.164 80.9538H152.681L137.084 114.692H130.74L115.407 80.9538H124.659L133.912 101.615ZM160.347 65C163.784 65 166.427 67.6154 166.427 70.7538C166.427 74.1538 163.784 76.5077 160.347 76.5077C156.91 76.5077 154.531 73.8923 154.531 70.7538C154.531 67.3538 156.91 65 160.347 65ZM155.853 80.9538H165.105V114.692H155.853V80.9538ZM202.379 107.631C198.414 112.862 193.391 115.215 187.047 115.215C176.473 115.215 168.806 107.369 168.806 97.6923C168.806 87.7538 176.737 80.1692 187.047 80.1692C193.127 80.1692 198.15 83.0462 201.322 86.9692L195.506 92.4615C193.656 90.1077 191.012 88.5385 187.84 88.5385C182.553 88.5385 178.587 92.7231 178.587 97.6923C178.587 102.923 182.288 106.846 187.84 106.846C191.541 106.846 194.449 104.754 196.035 102.4L202.379 107.631ZM235.423 109.2C231.987 113.123 226.7 115.215 221.413 115.215C211.367 115.215 203.701 108.415 203.701 97.6923C203.701 88.2769 210.045 80.1692 220.355 80.1692C229.608 80.1692 236.481 88.0154 236.481 97.4308C236.481 98.4769 236.481 99.2615 236.216 100.046H212.425C212.953 104.754 216.919 108.154 221.677 108.154C225.378 108.154 228.55 106.062 230.136 104.231L235.423 109.2ZM226.964 93.5077C226.7 90.6308 224.056 87.4923 220.091 87.4923C216.39 87.4923 213.218 90.3692 212.689 93.5077H226.964ZM239.917 114.692V80.9538H248.641V83.8308C251.284 81.7385 254.457 80.4308 258.158 80.4308C262.916 80.4308 267.146 82.5231 270.054 85.9231C272.168 88.5385 273.754 91.9385 273.754 97.6923V114.954H264.502V96.9077C264.502 93.5077 263.709 91.6769 262.387 90.6308C261.066 89.3231 259.479 88.5385 257.1 88.5385C253.399 88.5385 250.227 90.8923 248.641 92.7231V114.692H239.917Z" fill="#293E40"/>
<path fill-rule="evenodd" clip-rule="evenodd" d="M297.017 80.1692C285.915 80.1692 277.191 88.8 277.191 99.7846C277.191 105.538 279.57 110.769 283.271 114.431C284.593 115.738 286.972 115.738 288.558 114.692C290.673 112.862 293.845 111.815 297.017 111.815C300.454 111.815 303.098 112.862 305.477 114.692C307.063 116 309.178 115.738 310.764 114.169C314.465 110.508 316.844 105.538 316.844 99.7846C316.579 89.0615 307.856 80.1692 297.017 80.1692ZM296.753 109.985C290.673 109.985 286.708 105.538 286.708 100.046C286.708 94.5538 290.673 90.1077 296.753 90.1077C302.833 90.1077 306.798 94.5538 306.798 100.046C306.798 105.538 302.833 109.985 296.753 109.985Z" fill="#81B5A1"/>
<path fill-rule="evenodd" clip-rule="evenodd" d="M334.82 114.692H327.947L314.465 80.9539H323.453L330.855 100.308L338.257 80.9539H345.658L352.796 100.308L360.198 80.9539H369.45L355.968 114.692H349.095L341.693 95.6L334.82 114.692Z" fill="#293E40"/>
<path d="M369.45 110.769H368.657V112.077H368.128V108.154H369.715C370.508 108.154 370.772 108.677 370.772 109.462C370.772 109.985 370.508 110.246 370.243 110.508L371.301 111.815H370.508L369.45 110.769ZM368.657 109.723H369.715C370.243 109.723 370.243 109.462 370.243 109.2C370.243 108.677 369.979 108.677 369.715 108.677H368.657V109.723Z" fill="#293E40"/>
<path d="M369.45 106.585C371.565 106.585 373.151 108.154 373.151 110.246C373.151 112.338 371.565 113.908 369.45 113.908C367.335 113.908 365.749 112.338 365.749 110.246C365.749 108.154 367.6 106.585 369.45 106.585ZM369.45 106.062C367.071 106.062 365.22 108.154 365.22 110.246C365.22 112.6 367.335 114.431 369.45 114.431C371.829 114.431 373.68 112.338 373.68 110.246C373.68 108.154 371.565 106.062 369.45 106.062Z" fill="#293E40"/>
</svg>
