<svg width="400" height="200" viewBox="0 0 400 200" fill="none" xmlns="http://www.w3.org/2000/svg">
<g clip-path="url(#clip0_323_123)">
<path d="M120.477 114.164V93.9495H113.969V85.0084H120.421V74.3458H130.655V85.0084H138.554V93.9495H130.711V111.443C130.711 113.942 131.99 115.775 134.271 115.775C135.568 115.822 136.837 115.386 137.831 114.553L140 122.383C138.443 123.772 135.717 124.882 131.434 124.882C124.259 124.882 120.477 121.162 120.477 114.164ZM140.946 104.39C140.946 93.1165 149.344 83.9533 161.136 83.9533C172.928 83.9533 180.66 92.6722 180.66 105.334V107.778H151.681C152.404 112.554 156.297 116.497 162.972 116.497C166.254 116.497 170.815 115.108 173.318 112.72L177.934 119.495C174.041 123.05 167.922 124.882 161.859 124.882C149.956 124.882 140.946 116.885 140.946 104.39V104.39ZM161.136 92.3945C154.74 92.3945 152.014 96.8373 151.625 100.725H170.815C170.536 97.0039 167.922 92.3945 161.136 92.3945V92.3945ZM210.862 123.883V100.392C210.862 95.0047 208.026 93.1165 203.687 93.1165C201.959 93.1448 200.261 93.5644 198.719 94.3436C197.178 95.1228 195.833 96.2413 194.788 97.6148V123.883H184.553V84.9529H194.788V89.951C196.517 88.0607 198.622 86.551 200.968 85.5183C203.315 84.4856 205.851 83.9526 208.415 83.9533C217.036 83.9533 221.152 88.7848 221.152 96.393V123.883H210.862ZM250.41 123.883V119.773C247.74 122.994 243.123 124.882 238.062 124.882C231.832 124.882 224.601 120.717 224.601 111.998C224.601 102.78 231.887 99.4475 238.062 99.4475C243.29 99.4475 247.851 101.169 250.41 104.223V99.2808C250.41 95.3379 247.017 92.7833 241.844 92.7833C237.628 92.8219 233.588 94.4713 230.553 97.3927L226.492 90.2287C231.21 86.1553 237.277 83.9781 243.512 84.1199C252.468 84.1199 260.644 87.6741 260.644 98.8921V124.049H250.41V123.883ZM250.41 114.553V109.721C248.741 107.444 245.515 106.278 242.233 106.278C238.173 106.278 234.891 108.444 234.891 112.165C234.891 115.886 238.173 117.941 242.233 117.941C245.459 117.941 248.685 116.83 250.41 114.553V114.553ZM265.094 123.883V70.1251H275.328V89.951C276.727 88.0888 278.541 86.5773 280.626 85.5363C282.712 84.4952 285.011 83.9533 287.343 83.9533C297.299 83.9533 304.641 91.6726 304.641 104.39C304.641 117.441 297.243 124.827 287.343 124.827C285.017 124.825 282.724 124.288 280.64 123.258C278.556 122.227 276.738 120.731 275.328 118.885V123.883H265.094ZM284.283 115.719C290.179 115.719 294.128 111.11 294.128 104.335C294.128 97.5593 290.179 93.061 284.283 93.061C282.556 93.0893 280.857 93.5088 279.315 94.288C277.774 95.0673 276.429 96.1858 275.384 97.5593V111.332C276.431 112.695 277.778 113.8 279.322 114.561C280.865 115.322 282.562 115.718 284.283 115.719V115.719ZM308.145 123.883V70.1251H318.38V123.883H308.145ZM322.273 104.39C322.273 93.1165 330.672 83.9533 342.464 83.9533C354.256 83.9533 361.987 92.6722 361.987 105.334V107.778H333.008C333.731 112.554 337.625 116.497 344.299 116.497C347.581 116.497 352.142 115.108 354.645 112.72L359.262 119.495C355.368 123.05 349.25 124.882 343.187 124.882C331.228 124.882 322.273 116.885 322.273 104.39V104.39ZM342.408 92.3945C336.012 92.3945 333.286 96.8373 332.897 100.725H352.087C351.808 97.0039 349.194 92.3945 342.408 92.3945V92.3945ZM365.102 80.0658C365.614 80.3544 366.037 80.7768 366.326 81.2876C366.616 81.8154 366.769 82.4073 366.771 83.0092C366.762 83.6102 366.609 84.2004 366.326 84.7308C366.037 85.2415 365.614 85.6639 365.102 85.9525C364.573 86.2418 363.981 86.3946 363.378 86.3968C362.789 86.4108 362.208 86.2628 361.698 85.9689C361.187 85.6751 360.768 85.2467 360.485 84.7308C360.194 84.2037 360.041 83.6114 360.041 83.0092C360.041 82.407 360.194 81.8147 360.485 81.2876C360.775 80.7768 361.198 80.3544 361.709 80.0658C362.21 79.7584 362.79 79.604 363.378 79.6216C363.981 79.6238 364.573 79.7765 365.102 80.0658V80.0658ZM364.768 85.3972C365.164 85.1503 365.49 84.8061 365.714 84.3975C365.933 83.9576 366.048 83.4729 366.048 82.9814C366.048 82.4899 365.933 82.0052 365.714 81.5653C365.496 81.1405 365.16 80.7882 364.745 80.5515C364.33 80.3147 363.855 80.2039 363.378 80.2324C362.911 80.2238 362.451 80.3388 362.043 80.5657C361.647 80.8126 361.322 81.1567 361.097 81.5653C360.878 82.0052 360.764 82.4899 360.764 82.9814C360.764 83.4729 360.878 83.9576 361.097 84.3975C361.306 84.8173 361.635 85.1653 362.043 85.3972C362.443 85.6428 362.909 85.7592 363.378 85.7304C363.865 85.766 364.351 85.6496 364.768 85.3972V85.3972ZM364.601 82.8981C364.434 83.0777 364.223 83.2115 363.99 83.2869L364.991 84.7863H364.101L363.267 83.3979H362.933V84.7863H362.154V81.0655H363.155C364.268 81.0655 364.768 81.4542 364.768 82.1762C364.804 82.3007 364.808 82.4324 364.779 82.5588C364.75 82.6851 364.689 82.8019 364.601 82.8981V82.8981ZM362.933 82.787H363.322C363.823 82.787 364.045 82.6204 364.045 82.2317C364.053 82.1581 364.042 82.0837 364.013 82.0156C363.983 81.9475 363.937 81.8881 363.878 81.8429C363.708 81.7532 363.514 81.7146 363.322 81.7319H362.933V82.787Z" fill="#445464"/>
<path d="M98.1165 74.4567C98.339 75.2342 99.0621 78.0665 99.7852 80.7321L105.459 101.891C106.182 104.557 106.96 107.389 107.127 108.166C107.267 108.734 107.258 109.329 107.102 109.892C106.946 110.456 106.649 110.971 106.237 111.387V111.387L101.621 115.997L86.1578 131.435C84.2111 133.49 82.2087 135.545 81.5412 136.045C81.1056 136.426 80.589 136.705 80.0303 136.859C79.4715 137.012 78.8852 137.038 78.3151 136.933V136.933L72.0298 135.267L50.8379 129.603L44.5526 127.937C43.9846 127.772 43.4678 127.467 43.0508 127.048V127.048C42.6204 126.641 42.3122 126.121 42.1608 125.549V125.549C41.9383 124.771 41.2153 121.939 40.4922 119.273L34.8187 98.1145L33.1501 91.8391L33.9844 91.5614L34.8187 91.3393C35.0412 92.1167 35.7643 94.949 36.4874 97.6147L42.1608 118.829C42.8839 121.495 43.6626 124.327 43.8295 125.104C43.9445 125.364 44.0942 125.607 44.2745 125.826V125.826C44.4651 126.044 44.7172 126.199 44.9976 126.271V126.271L51.2828 127.937L72.4748 133.601L78.7601 135.267C79.0451 135.32 79.3383 135.307 79.6177 135.23C79.897 135.153 80.1553 135.014 80.3731 134.823V134.823L84.9898 130.214L100.508 114.719L105.125 110.11C105.305 109.886 105.437 109.627 105.513 109.35C105.59 109.074 105.609 108.784 105.57 108.499V108.499C105.347 107.722 104.624 104.89 103.901 102.224L98.1722 81.1764C97.4491 78.5107 96.6704 75.6785 96.5035 74.901C96.3885 74.6414 96.2388 74.3986 96.0585 74.179C95.8679 73.9615 95.6158 73.8066 95.3354 73.7348V73.7348L89.0502 72.0132L67.9138 66.3486L61.5729 64.6826C61.2879 64.6302 60.9947 64.643 60.7153 64.72C60.436 64.7969 60.1777 64.936 59.9599 65.1269L55.3432 69.7363L39.8247 85.2304L35.2081 89.8398C35.0169 90.0573 34.8776 90.3152 34.8005 90.5941C34.7235 90.873 34.7107 91.1658 34.7631 91.4503V91.4503L33.9288 91.6169L33.0945 91.8391C32.9551 91.271 32.9638 90.6767 33.1195 90.1129C33.2753 89.5491 33.5731 89.0345 33.9844 88.6181V88.6181L38.601 84.0087L54.1196 68.57L58.7362 63.9606C59.1647 63.5675 59.6807 63.2818 60.2417 63.1273C60.8027 62.9728 61.3925 62.9539 61.9623 63.0721L68.2475 64.7381L89.4395 70.4027L95.7248 72.0687C96.283 72.2549 96.795 72.5578 97.2266 72.9573V72.9573C97.6458 73.3737 97.952 73.8897 98.1165 74.4567V74.4567Z" fill="#00A6B4"/>
<path d="M71.5294 68.8478L76.146 71.5134L91.8314 80.5656L96.5037 83.2313C96.9144 83.4842 97.2563 83.8346 97.4988 84.2512C97.7414 84.6677 97.8772 85.1377 97.8942 85.6192V90.9506V114.386C97.8772 114.868 97.7414 115.338 97.4988 115.754C97.2563 116.171 96.9144 116.521 96.5037 116.774L91.887 119.44L76.146 128.492L71.5294 131.158C71.0993 131.379 70.6224 131.493 70.1388 131.491V131.491C69.6553 131.493 69.1783 131.379 68.7483 131.158V131.158L64.1317 128.492L48.3906 119.44L43.774 116.774L44.1077 116.163L44.4415 115.552L49.0581 118.218L64.7435 127.27L69.4158 129.936C69.622 130.043 69.8507 130.1 70.0832 130.103V130.103C70.3335 130.1 70.5804 130.044 70.8063 129.936V129.936L75.4229 127.27L91.1083 118.218L95.7249 115.552C96.1252 115.254 96.4021 114.819 96.5037 114.331V114.331V108.999V85.5637C96.4817 85.3267 96.405 85.0981 96.2795 84.8957C96.154 84.6933 95.9832 84.5228 95.7806 84.3975V84.3975L91.1639 81.7318L75.4785 72.6797L70.8619 70.014C70.6381 69.9005 70.3899 69.8433 70.1388 69.8474V69.8474C69.9055 69.8432 69.6753 69.9007 69.4714 70.014V70.014L64.7991 72.6797L49.1137 81.7318L44.4971 84.3975C44.298 84.5397 44.1309 84.7218 44.0063 84.9321C43.8818 85.1425 43.8027 85.3766 43.774 85.6192V90.9506V114.386C43.797 114.63 43.8738 114.867 43.9988 115.078C44.1237 115.289 44.2939 115.47 44.4971 115.608V115.608L44.1634 116.219L43.8296 116.83C43.4189 116.577 43.077 116.226 42.8344 115.81C42.5919 115.393 42.4561 114.923 42.4391 114.442V109.11V85.6748C42.4561 85.1932 42.5919 84.7233 42.8344 84.3067C43.077 83.8901 43.4189 83.5398 43.8296 83.2868V83.2868L48.4463 80.6211L64.1873 71.569L68.8039 68.9033C69.2339 68.6825 69.7109 68.5682 70.1945 68.5701V68.5701C70.6576 68.5209 71.1245 68.618 71.5294 68.8478V68.8478Z" fill="#00A6B4"/>
<path d="M51.3942 79.3439L56.0108 78.1221L71.585 73.957L76.2016 72.7353C76.6247 72.6502 77.0619 72.6662 77.4775 72.782C77.8932 72.8978 78.2756 73.1102 78.5934 73.4017V73.4017L81.9863 76.7893L93.3888 88.1739L96.7817 91.5615C97.0808 91.8734 97.2943 92.257 97.4015 92.6754C97.5086 93.0937 97.5059 93.5325 97.3936 93.9495V93.9495C97.2267 94.5048 96.6705 96.6152 96.1699 98.5589L91.9983 114.109C91.442 116.052 90.8858 118.218 90.7746 118.718C90.65 119.139 90.4203 119.521 90.1071 119.829V119.829C89.8169 120.164 89.4271 120.397 88.9947 120.495V120.495L84.378 121.717L68.8039 125.882L64.1873 127.104L64.0204 126.548L63.8535 125.937L68.4702 124.716L84.0443 120.551L88.6609 119.329C88.8745 119.273 89.0676 119.158 89.2172 118.996V118.996C89.3794 118.846 89.4952 118.654 89.5509 118.44V118.44L90.7746 113.831L94.9462 98.2812C95.5024 96.3375 96.0587 94.2272 96.1699 93.6718C96.2012 93.4649 96.1876 93.2537 96.13 93.0525C96.0724 92.8513 95.9722 92.6648 95.8362 92.5056V92.5056L92.4989 89.118L81.0963 77.7334L77.7034 74.3458C77.542 74.2132 77.355 74.1153 77.1541 74.0579C76.9531 74.0006 76.7425 73.9852 76.5353 74.0125L71.9187 75.2343L56.3446 79.455L51.7279 80.6767C51.5144 80.7323 51.3213 80.8479 51.1717 81.0099V81.0099C51.0095 81.1593 50.8936 81.352 50.838 81.5653V81.5653C50.6711 82.1206 50.1149 84.2309 49.6143 86.1746L45.4427 101.669C44.9421 103.613 44.3858 105.723 44.219 106.278C44.1877 106.485 44.2013 106.696 44.2589 106.898C44.3164 107.099 44.4166 107.285 44.5527 107.444V107.444L47.9456 110.832L59.3481 122.217L62.7411 125.604C62.9025 125.737 63.0895 125.835 63.2904 125.892C63.4914 125.949 63.702 125.965 63.9092 125.937V125.937L64.076 126.548L64.2429 127.159C63.8198 127.244 63.3826 127.228 62.967 127.112C62.5513 126.997 62.1689 126.784 61.8511 126.493V126.493L58.4582 123.105L47.0001 111.554L43.6071 108.166C43.3088 107.853 43.092 107.472 42.9756 107.055C42.8593 106.639 42.8469 106.201 42.9397 105.778V105.778C43.1065 105.223 43.6628 103.113 44.1633 101.169L48.335 85.6193L49.5587 81.0099C49.6833 80.5892 49.913 80.207 50.2261 79.8992V79.8992C50.5925 79.6694 50.9845 79.483 51.3942 79.3439V79.3439Z" fill="#00A6B4"/>
<path d="M47.2782 122.883C42.7522 118.363 39.6701 112.605 38.4217 106.337C37.1733 100.068 37.8146 93.5711 40.2645 87.6665C42.7144 81.7619 46.8628 76.7152 52.1854 73.1645C57.5079 69.6139 63.7654 67.7188 70.1666 67.7188C76.5679 67.7187 82.8254 69.6139 88.1479 73.1645C93.4704 76.7152 97.6189 81.7619 100.069 87.6665C102.519 93.5711 103.16 100.068 101.912 106.337C100.663 112.605 97.581 118.363 93.0551 122.883V122.883C86.9814 128.938 78.7494 132.339 70.1666 132.339C61.5838 132.339 53.3518 128.938 47.2782 122.883V122.883ZM91.9982 121.828C96.2924 117.519 99.2112 112.036 100.386 106.072C101.561 100.108 100.938 93.9295 98.598 88.3181C96.2576 82.7067 92.304 77.9137 87.2366 74.5446C82.1692 71.1756 76.2155 69.3816 70.1274 69.3894C64.0393 69.3971 58.0902 71.2062 53.0314 74.5882C47.9727 77.9701 44.0313 82.7732 41.7053 88.3905C39.3792 94.0079 38.7729 100.188 39.9628 106.149C41.1527 112.11 44.0854 117.586 48.3906 121.883C51.2532 124.746 54.654 127.017 58.3976 128.564C62.1413 130.111 66.1542 130.905 70.206 130.9C74.2577 130.895 78.2686 130.091 82.0083 128.534C85.748 126.977 89.143 124.698 91.9982 121.828V121.828Z" fill="#00A6B4"/>
<path d="M71.1956 76.6226L74.6442 78.6219L86.2692 85.2861L89.7177 87.2853C90.0207 87.4737 90.2712 87.7353 90.4462 88.0459C90.6212 88.3565 90.715 88.7061 90.7189 89.0624V89.0624V93.0054V110.388C90.7032 110.742 90.6044 111.087 90.4304 111.395C90.2565 111.704 90.0124 111.968 89.7177 112.165V112.165L86.2692 114.109L74.6442 120.828L71.1956 122.828C70.888 122.996 70.5452 123.091 70.1944 123.105V123.105C69.8425 123.099 69.4981 123.003 69.1932 122.828L65.7447 120.828L54.1197 114.109L50.6711 112.109L50.9492 111.665L51.2273 111.221L54.6203 113.22L66.2453 119.94L69.6938 121.939C69.8447 122.028 70.02 122.067 70.1944 122.05V122.05C70.3689 122.067 70.5441 122.028 70.695 121.939V121.939L74.1436 119.94L85.7686 113.22L89.2172 111.221C89.3656 111.123 89.4885 110.992 89.5756 110.837C89.6627 110.683 89.7114 110.509 89.7177 110.332V106.389V89.0069C89.6646 88.6598 89.4867 88.3439 89.2172 88.1183V88.1183L85.7686 86.1191L74.1992 79.4549L70.7507 77.4557C70.5907 77.3924 70.4218 77.3549 70.2501 77.3446V77.3446C70.0784 77.3549 69.9094 77.3924 69.7495 77.4557L66.3009 79.4549L54.6759 86.1191L51.2273 88.1183C51.0847 88.2217 50.9662 88.3546 50.8798 88.508C50.7934 88.6613 50.7412 88.8315 50.7267 89.0069V89.0069V92.9498V110.332C50.7798 110.679 50.9578 110.995 51.2273 111.221V111.221L50.9492 111.665L50.6711 112.109C50.3682 111.921 50.1176 111.659 49.9427 111.349C49.7677 111.038 49.6739 110.689 49.6699 110.332V110.332V106.334V88.9513C49.6739 88.595 49.7677 88.2454 49.9427 87.9348C50.1176 87.6242 50.3682 87.3626 50.6711 87.1742V87.1742L54.1197 85.175L65.7447 78.5108L69.1932 76.5116C69.5009 76.3427 69.8437 76.2477 70.1944 76.2339V76.2339C70.5282 76.4005 70.8619 76.456 71.1956 76.6226V76.6226Z" fill="#00A6B4"/>
<path d="M53.2298 116.608C49.8805 113.263 47.5997 109.002 46.6758 104.364C45.7519 99.725 46.2264 94.917 48.0393 90.5476C49.8521 86.1782 52.922 82.4437 56.8606 79.8162C60.7992 77.1887 65.4298 75.7863 70.1667 75.7863C74.9035 75.7863 79.5341 77.1887 83.4727 79.8162C87.4113 82.4437 90.4812 86.1782 92.294 90.5476C94.1069 94.917 94.5814 99.725 93.6575 104.364C92.7336 109.002 90.4528 113.263 87.1035 116.608C82.6096 121.089 76.518 123.606 70.1667 123.606C63.8153 123.606 57.7237 121.089 53.2298 116.608V116.608ZM86.3248 115.886C89.5049 112.698 91.6677 108.641 92.5402 104.226C93.4127 99.812 92.9557 95.2385 91.2269 91.0834C89.4981 86.9282 86.5751 83.3776 82.8268 80.8798C79.0786 78.3819 74.6731 77.0488 70.1667 77.0488C65.6602 77.0488 61.2547 78.3819 57.5065 80.8798C53.7582 83.3776 50.8352 86.9282 49.1064 91.0834C47.3776 95.2385 46.9206 99.812 47.7931 104.226C48.6656 108.641 50.8284 112.698 54.0085 115.886C56.1273 118.01 58.6454 119.695 61.4182 120.845C64.1911 121.995 67.1641 122.587 70.1667 122.587C73.1692 122.587 76.1422 121.995 78.9151 120.845C81.6879 119.695 84.206 118.01 86.3248 115.886V115.886Z" fill="#00A6B4"/>
</g>
<defs>
<clipPath id="clip0_323_123">
<rect width="333.771" height="74" fill="white" transform="translate(33 63)"/>
</clipPath>
</defs>
</svg>
