<svg width="400" height="200" viewBox="0 0 400 200" fill="none" xmlns="http://www.w3.org/2000/svg">
<g clip-path="url(#clip0_323_123)">
<path d="M266.518 74C251.942 74 240.13 85.6385 240.13 100C240.13 114.361 251.942 126 266.518 126C281.094 126 292.906 114.361 292.906 100C292.906 93.1124 290.133 86.5084 285.196 81.6345C280.245 76.7465 273.528 74 266.518 74ZM266.518 115.841C255.747 115.841 250.853 106.519 250.853 99.9149C250.853 93.3109 255.747 83.9887 266.518 83.9887C277.913 83.9887 282.183 93.8735 282.183 100.104C282.174 106.665 277.309 115.841 266.518 115.841ZM298.889 124.993V84.8775H290.891V74.884H309.603V124.993H298.889Z" fill="#529DBC"/>
<path d="M75.2477 124.993H104.409V114.962H85.9613V104.737H104.414V94.7007H85.9613V84.8727H104.414V74.884H75.2477V124.993ZM48.8596 106.221C46.1585 99.3335 36.534 74.8793 36.534 74.8793H25L45.4772 124.988H52.1941L72.5801 74.8793H61.1949C61.1949 74.8793 51.5704 99.3335 48.8692 106.221H48.8596ZM163.811 74.8793L145.478 122.913L134.151 107.219C139.164 105.985 146.045 101.99 146.045 91.6185C146.141 87.0378 144.38 82.6036 141.151 79.304C137.893 76.2549 133.633 74.9029 127.319 74.9029H110.843V125.012H121.552V107.37L134.28 124.955H155.928L159.843 114.555H176.554L180.469 124.955H191.893L172.639 74.8793H163.811ZM124.315 98.7615H121.547V84.8727H126.868C133.105 84.8727 135.35 88.3425 135.35 91.6233C135.331 93.3629 135.331 98.7615 124.315 98.7615ZM163.403 104.907C165.159 100.028 167.429 93.7364 168.249 91.3349L173.085 104.907H163.403Z" fill="#010101"/>
<path d="M376 84.8727V74.884H346.824V124.993H376V114.962H357.533V104.737H376V94.7007H357.533V84.8727H376Z" fill="#010101"/>
<path d="M214.318 83.984C218.876 84.0738 223.146 86.1775 225.957 89.7135L226.643 90.4982H239.118L237.386 87.5247C235.534 84.0833 232.89 81.1098 229.671 78.8455C225.132 75.716 219.73 74.0331 214.188 74.0237C199.665 74.0237 187.891 85.6244 187.891 99.9338C187.891 114.243 199.665 125.844 214.188 125.844C223.697 125.844 232.468 120.781 237.122 112.608L238.753 109.771H226.116L225.53 110.447C222.728 113.789 218.583 115.761 214.183 115.841C205.48 115.477 198.648 108.353 198.778 99.7684C198.672 91.1931 205.61 84.1447 214.313 83.984H214.318Z" fill="#010101"/>
<path d="M316.656 74.8793H313.873V84.8727H316.603C328.655 84.8727 331.874 94.4124 331.874 100.024C331.874 113.529 321.103 114.957 316.468 114.957H313.873V124.988H316.406C324.769 124.988 331.035 122.681 336.101 117.741C340.016 113.993 342.573 106.902 342.573 100.066C342.501 94.3935 340.702 88.872 337.406 84.2156C332.839 78.004 325.815 74.8793 316.656 74.8793Z" fill="#010101"/>
</g>
<defs>
<clipPath id="clip0_323_123">
<rect width="351" height="52" fill="white" transform="translate(25 74)"/>
</clipPath>
</defs>
</svg>
