<svg width="400" height="200" viewBox="0 0 400 200" fill="none" xmlns="http://www.w3.org/2000/svg">
<path fill-rule="evenodd" clip-rule="evenodd" d="M0 101.888C0 69.6931 26.983 43.7749 60.5 43.7749C94.017 43.7749 121 69.6931 121 101.888C121 134.083 94.017 160 60.5 160C26.983 160 0 134.082 0 101.888Z" fill="#9D5025"/>
<path fill-rule="evenodd" clip-rule="evenodd" d="M0 97.1133C0 64.9182 26.983 39 60.5 39C94.017 39 121 64.9182 121 97.1133C121 129.308 94.017 155.227 60.5 155.227C26.983 155.227 0 129.307 0 97.1133Z" fill="#F58536"/>
<path fill-rule="evenodd" clip-rule="evenodd" d="M36.9808 116.611H75.5707V121.977H36.9808V116.611ZM36.9808 105.515H75.5707V110.882H36.9808V105.515ZM36.9808 83.3435H75.5707V88.7099H36.9808V83.3435ZM9.48352 94.0581H97.6396V100.188H9.48352V94.0581Z" fill="white"/>
<path fill-rule="evenodd" clip-rule="evenodd" d="M36.9808 72.2674H75.5708V77.6337H36.9808V72.2674ZM84.4582 91.5185H78.8907V67.1687H33.6412V91.4232H28.0737V61.8024H84.4582V91.517V91.5185ZM84.4582 132.424H28.0737V102.938H33.6412V127.058H78.8922V103.301H84.4597V132.424H84.4582ZM94.8158 84.0498L111.517 97.1117L94.8158 110.729V84.0498Z" fill="white"/>
<path d="M170.131 89H165.33L179.216 51.1818H183.943L197.83 89H193.028L181.727 57.1648H181.432L170.131 89ZM171.903 74.2273H191.256V78.2898H171.903V74.2273ZM207.644 89L197.303 51.1818H201.957L209.86 81.983H210.229L218.281 51.1818H223.451L231.502 81.983H231.871L239.775 51.1818H244.428L234.087 89H229.36L221.013 58.8636H220.718L212.371 89H207.644ZM270.816 60.6364C270.594 58.7652 269.696 57.3125 268.12 56.2784C266.544 55.2443 264.612 54.7273 262.322 54.7273C260.647 54.7273 259.183 54.9981 257.927 55.5398C256.683 56.0814 255.711 56.8262 255.009 57.7741C254.32 58.7221 253.975 59.7992 253.975 61.0057C253.975 62.0151 254.215 62.883 254.695 63.6094C255.188 64.3234 255.816 64.9205 256.579 65.4006C257.342 65.8684 258.142 66.2562 258.979 66.5639C259.817 66.8594 260.586 67.0994 261.288 67.2841L265.129 68.3182C266.113 68.5767 267.209 68.9337 268.415 69.3892C269.634 69.8447 270.798 70.4664 271.906 71.2543C273.026 72.0298 273.949 73.027 274.675 74.2457C275.402 75.4645 275.765 76.9602 275.765 78.733C275.765 80.7765 275.229 82.6231 274.158 84.2727C273.1 85.9223 271.549 87.2334 269.505 88.206C267.474 89.1785 265.005 89.6648 262.1 89.6648C259.392 89.6648 257.047 89.2277 255.065 88.3537C253.095 87.4796 251.544 86.2609 250.411 84.6974C249.291 83.134 248.657 81.3182 248.509 79.25H253.237C253.36 80.678 253.84 81.8598 254.677 82.7955C255.526 83.7187 256.597 84.4081 257.89 84.8636C259.195 85.3068 260.598 85.5284 262.1 85.5284C263.848 85.5284 265.418 85.2453 266.809 84.679C268.2 84.1004 269.302 83.3002 270.114 82.2784C270.927 81.2443 271.333 80.0379 271.333 78.6591C271.333 77.4034 270.982 76.3816 270.281 75.5938C269.579 74.8059 268.656 74.1657 267.511 73.6733C266.366 73.1809 265.129 72.75 263.799 72.3807L259.146 71.0511C256.191 70.2017 253.852 68.9891 252.129 67.4134C250.405 65.8376 249.543 63.7756 249.543 61.2273C249.543 59.1098 250.116 57.2633 251.261 55.6875C252.418 54.0994 253.969 52.8684 255.914 51.9943C257.871 51.108 260.057 50.6648 262.469 50.6648C264.907 50.6648 267.074 51.1018 268.969 51.9759C270.865 52.8376 272.367 54.0194 273.475 55.5213C274.595 57.0232 275.186 58.7282 275.248 60.6364H270.816ZM170.131 111.182L181.358 143.017H181.801L193.028 111.182H197.83L183.943 149H179.216L165.33 111.182H170.131ZM203.72 149V111.182H216.499C219.465 111.182 221.891 111.717 223.774 112.788C225.67 113.847 227.073 115.281 227.984 117.091C228.895 118.901 229.351 120.92 229.351 123.148C229.351 125.376 228.895 127.401 227.984 129.223C227.086 131.045 225.695 132.498 223.811 133.581C221.928 134.652 219.515 135.188 216.572 135.188H207.413V131.125H216.425C218.456 131.125 220.087 130.774 221.318 130.072C222.549 129.371 223.442 128.423 223.996 127.229C224.562 126.022 224.845 124.662 224.845 123.148C224.845 121.634 224.562 120.279 223.996 119.085C223.442 117.891 222.543 116.955 221.3 116.278C220.056 115.589 218.407 115.244 216.351 115.244H208.3V149H203.72ZM267.16 123H262.58C262.309 121.683 261.835 120.526 261.158 119.528C260.494 118.531 259.681 117.694 258.721 117.017C257.773 116.328 256.72 115.811 255.563 115.466C254.406 115.121 253.2 114.949 251.944 114.949C249.654 114.949 247.58 115.527 245.721 116.685C243.874 117.842 242.403 119.547 241.308 121.8C240.224 124.053 239.683 126.816 239.683 130.091C239.683 133.366 240.224 136.129 241.308 138.382C242.403 140.635 243.874 142.34 245.721 143.497C247.58 144.654 249.654 145.233 251.944 145.233C253.2 145.233 254.406 145.061 255.563 144.716C256.72 144.371 257.773 143.86 258.721 143.183C259.681 142.494 260.494 141.651 261.158 140.653C261.835 139.644 262.309 138.487 262.58 137.182H267.16C266.815 139.115 266.187 140.844 265.276 142.371C264.365 143.897 263.233 145.196 261.879 146.267C260.524 147.326 259.004 148.132 257.317 148.686C255.643 149.24 253.852 149.517 251.944 149.517C248.719 149.517 245.85 148.729 243.339 147.153C240.827 145.578 238.852 143.337 237.411 140.432C235.971 137.527 235.251 134.08 235.251 130.091C235.251 126.102 235.971 122.655 237.411 119.75C238.852 116.845 240.827 114.604 243.339 113.028C245.85 111.453 248.719 110.665 251.944 110.665C253.852 110.665 255.643 110.942 257.317 111.496C259.004 112.05 260.524 112.862 261.879 113.933C263.233 114.992 264.365 116.285 265.276 117.811C266.187 119.325 266.815 121.055 267.16 123ZM289.185 149V111.182H311.861V115.244H293.765V128.023H310.162V132.085H293.765V149H289.185ZM323.472 111.182V149H319.114V111.182H323.472ZM342.976 149.591C340.416 149.591 338.169 148.982 336.236 147.763C334.316 146.544 332.814 144.839 331.73 142.648C330.659 140.456 330.124 137.896 330.124 134.966C330.124 132.011 330.659 129.432 331.73 127.229C332.814 125.025 334.316 123.314 336.236 122.095C338.169 120.876 340.416 120.267 342.976 120.267C345.537 120.267 347.777 120.876 349.698 122.095C351.631 123.314 353.132 125.025 354.203 127.229C355.287 129.432 355.828 132.011 355.828 134.966C355.828 137.896 355.287 140.456 354.203 142.648C353.132 144.839 351.631 146.544 349.698 147.763C347.777 148.982 345.537 149.591 342.976 149.591ZM342.976 145.676C344.921 145.676 346.522 145.178 347.777 144.18C349.033 143.183 349.962 141.872 350.566 140.247C351.169 138.622 351.471 136.862 351.471 134.966C351.471 133.07 351.169 131.304 350.566 129.666C349.962 128.029 349.033 126.705 347.777 125.696C346.522 124.687 344.921 124.182 342.976 124.182C341.031 124.182 339.431 124.687 338.175 125.696C336.919 126.705 335.99 128.029 335.387 129.666C334.783 131.304 334.482 133.07 334.482 134.966C334.482 136.862 334.783 138.622 335.387 140.247C335.99 141.872 336.919 143.183 338.175 144.18C339.431 145.178 341.031 145.676 342.976 145.676ZM367.942 149L359.3 120.636H363.88L370.01 142.352H370.306L376.363 120.636H381.016L386.999 142.278H387.294L393.425 120.636H398.005L389.363 149H385.078L378.874 127.21H378.431L372.226 149H367.942Z" fill="#94959A"/>
</svg>
