<svg width="400" height="200" viewBox="0 0 400 200" fill="none" xmlns="http://www.w3.org/2000/svg">
<path fill-rule="evenodd" clip-rule="evenodd" d="M57 106.026L64.9905 105.72L72.057 106.288L63.7125 135.006L57 106.026Z" fill="#B7CA9D"/>
<path fill-rule="evenodd" clip-rule="evenodd" d="M87.3149 128.709L109.5 135.006L127.498 90.705L109.5 39L87.3149 49.4955V128.707V128.709Z" fill="#4B612C"/>
<path fill-rule="evenodd" clip-rule="evenodd" d="M131.685 128.709L109.5 135.006V39L131.685 49.4955V128.707V128.709Z" fill="#759C3E"/>
<path fill-rule="evenodd" clip-rule="evenodd" d="M146.943 120.253L155.287 121.332V106.668L146.943 106.288V120.253Z" fill="#4B612C"/>
<path fill-rule="evenodd" clip-rule="evenodd" d="M72.057 120.253L63.7125 121.332V106.668L72.057 106.288V120.253Z" fill="#759C3E"/>
<path fill-rule="evenodd" clip-rule="evenodd" d="M108.608 119.656L72.057 113.577L63.7125 114.334L107.099 143.547L108.608 119.655V119.656Z" fill="#B7CA9D"/>
<path fill-rule="evenodd" clip-rule="evenodd" d="M155.287 106.668L162 106.026V134.145L155.287 129.656V106.668Z" fill="#759C3E"/>
<path fill-rule="evenodd" clip-rule="evenodd" d="M162 106.026L154.009 105.72L146.943 106.288L155.287 106.668L162 106.026Z" fill="#B7CA9D"/>
<path fill-rule="evenodd" clip-rule="evenodd" d="M57 113.067L109.5 123.009V159L57 134.147V113.067Z" fill="#4B612C"/>
<path fill-rule="evenodd" clip-rule="evenodd" d="M63.7125 106.668L57 106.026V134.145L63.7125 131.711V106.668Z" fill="#4B612C"/>
<path fill-rule="evenodd" clip-rule="evenodd" d="M109.5 119.846V152.397L155.287 114.336L146.958 113.592L109.5 119.846Z" fill="#B7CA9D"/>
<path fill-rule="evenodd" clip-rule="evenodd" d="M125.204 109.51L109.5 108.358L93.7965 109.51L109.5 159L125.204 109.51Z" fill="#B7CA9D"/>
<path fill-rule="evenodd" clip-rule="evenodd" d="M162 113.067L109.5 123.009V159L162 134.147V113.067Z" fill="#759C3E"/>
<path fill-rule="evenodd" clip-rule="evenodd" d="M125.204 150.414L109.5 157.848V110.997L125.204 109.511V150.414Z" fill="#759C3E"/>
<path fill-rule="evenodd" clip-rule="evenodd" d="M93.7965 145.007L109.5 159V110.997L93.7965 109.511V145.007V145.007Z" fill="#4B612C"/>
<path d="M219.131 89H214.33L228.216 51.1818H232.943L246.83 89H242.028L230.727 57.1648H230.432L219.131 89ZM220.903 74.2273H240.256V78.2898H220.903V74.2273ZM256.644 89L246.303 51.1818H250.957L258.86 81.983H259.229L267.281 51.1818H272.451L280.502 81.983H280.871L288.775 51.1818H293.428L283.087 89H278.36L270.013 58.8636H269.718L261.371 89H256.644ZM319.816 60.6364C319.594 58.7652 318.696 57.3125 317.12 56.2784C315.544 55.2443 313.612 54.7273 311.322 54.7273C309.647 54.7273 308.183 54.9981 306.927 55.5398C305.683 56.0814 304.711 56.8262 304.009 57.7741C303.32 58.7221 302.975 59.7992 302.975 61.0057C302.975 62.0151 303.215 62.883 303.695 63.6094C304.188 64.3234 304.816 64.9205 305.579 65.4006C306.342 65.8684 307.142 66.2562 307.979 66.5639C308.817 66.8594 309.586 67.0994 310.288 67.2841L314.129 68.3182C315.113 68.5767 316.209 68.9337 317.415 69.3892C318.634 69.8447 319.798 70.4664 320.906 71.2543C322.026 72.0298 322.949 73.027 323.675 74.2457C324.402 75.4645 324.765 76.9602 324.765 78.733C324.765 80.7765 324.229 82.6231 323.158 84.2727C322.1 85.9223 320.549 87.2334 318.505 88.206C316.474 89.1785 314.005 89.6648 311.1 89.6648C308.392 89.6648 306.047 89.2277 304.065 88.3537C302.095 87.4796 300.544 86.2609 299.411 84.6974C298.291 83.134 297.657 81.3182 297.509 79.25H302.237C302.36 80.678 302.84 81.8598 303.677 82.7955C304.526 83.7187 305.597 84.4081 306.89 84.8636C308.195 85.3068 309.598 85.5284 311.1 85.5284C312.848 85.5284 314.418 85.2453 315.809 84.679C317.2 84.1004 318.302 83.3002 319.114 82.2784C319.927 81.2443 320.333 80.0379 320.333 78.6591C320.333 77.4034 319.982 76.3816 319.281 75.5938C318.579 74.8059 317.656 74.1657 316.511 73.6733C315.366 73.1809 314.129 72.75 312.799 72.3807L308.146 71.0511C305.191 70.2017 302.852 68.9891 301.129 67.4134C299.405 65.8376 298.543 63.7756 298.543 61.2273C298.543 59.1098 299.116 57.2633 300.261 55.6875C301.418 54.0994 302.969 52.8684 304.914 51.9943C306.871 51.108 309.057 50.6648 311.469 50.6648C313.907 50.6648 316.074 51.1018 317.969 51.9759C319.865 52.8376 321.367 54.0194 322.475 55.5213C323.595 57.0232 324.186 58.7282 324.248 60.6364H319.816ZM224.449 149L214.108 111.182H218.761L226.665 141.983H227.034L235.085 111.182H240.256L248.307 141.983H248.676L256.58 111.182H261.233L250.892 149H246.165L237.818 118.864H237.523L229.176 149H224.449ZM265.545 149H260.744L274.63 111.182H279.357L293.244 149H288.442L277.141 117.165H276.846L265.545 149ZM267.317 134.227H286.67V138.29H267.317V134.227ZM299.134 149V111.182H321.81V115.244H303.714V128.023H320.112V132.085H303.714V149H299.134Z" fill="#94959A"/>
</svg>
