<svg width="400" height="200" viewBox="0 0 400 200" fill="none" xmlns="http://www.w3.org/2000/svg">
<g clip-path="url(#clip0_323_123)">
<path d="M156.445 108.954C156.599 109.283 157.067 109.268 157.196 108.93L169.216 77.5742C169.788 76.0818 171.215 75.0968 172.81 75.0868L184.015 75.0271C186.153 75.0122 187.898 76.7384 187.913 78.8775C187.913 79.3452 187.833 79.8078 187.674 80.2506L160.571 153.483C160.526 153.597 159.637 154.373 159.07 154.811C158.792 155.02 158.458 155.05 158.12 154.95C157.012 154.632 156.112 153.826 155.67 152.761L141.203 117.874C140.736 116.844 139.523 116.387 138.489 116.854C138.062 117.048 137.714 117.382 137.505 117.804L119.37 154.105C119.265 154.309 119.017 154.388 118.818 154.289C118.729 154.244 118.659 154.164 118.619 154.075L90.2585 80.2605C89.4879 78.2607 90.4822 76.0221 92.4756 75.251C92.9181 75.0769 93.3953 74.9923 93.8676 74.9923H106.047C107.653 74.9923 109.094 75.9873 109.661 77.4846L121.677 108.925C121.806 109.263 122.288 109.278 122.432 108.954L137.574 75.9723C138.047 74.9426 139.265 74.4899 140.289 74.9625C140.736 75.1664 141.094 75.5246 141.298 75.9723L156.44 108.954H156.445ZM294.396 45.3283C294.307 44.8856 293.362 44.8856 293.268 45.3283C292.567 48.7609 291.105 53.9445 288.356 56.6955C285.607 59.4465 280.427 60.909 276.997 61.6104C276.554 61.705 276.554 62.6502 276.997 62.7397C280.427 63.4461 285.607 64.9087 288.356 67.6547C291.945 71.2514 293.183 76.1614 293.606 79.1114C293.641 79.3004 294.227 79.3253 294.262 79.1412C294.903 75.9773 296.375 70.5997 299.313 67.6597C302.062 64.9087 307.242 63.4461 310.672 62.7397C311.114 62.6502 311.114 61.705 310.672 61.6104C307.242 60.909 302.062 59.4465 299.313 56.6955C296.564 53.9445 295.102 48.7658 294.396 45.3283ZM192.158 79.3054C192.158 77.1563 193.893 75.4251 196.031 75.4251H207.738C209.886 75.4251 211.616 77.1613 211.616 79.3004V151.05C211.616 153.189 209.876 154.925 207.738 154.925H196.031C193.893 154.925 192.158 153.189 192.158 151.05V79.3004V79.3054ZM245.425 95.9457C245.678 95.4382 245.474 94.8263 244.967 94.5726C244.823 94.503 244.669 94.4632 244.51 94.4632H221.364C219.227 94.4632 217.492 92.727 217.492 90.5879V79.3054C217.492 77.1663 219.227 75.4301 221.364 75.4301H274.75C276.41 75.4301 278.632 76.7782 277.842 78.2358L246.996 135.987V135.997C246.727 136.499 246.926 137.121 247.428 137.385C247.572 137.459 247.731 137.499 247.895 137.499H276.097C278.235 137.499 279.97 139.24 279.97 141.379V151.04C279.97 153.189 278.235 154.92 276.097 154.92H219.47C217.606 154.92 217.233 152.209 218.068 150.538L245.43 95.9407L245.425 95.9457Z" fill="#325FE8"/>
</g>
<defs>
<clipPath id="clip0_323_123">
<rect width="221" height="110" fill="white" transform="translate(90 45)"/>
</clipPath>
</defs>
</svg>
